<svg width="32" height="39" viewBox="0 0 32 39" fill="none" xmlns="http://www.w3.org/2000/svg">
<path d="M6.33571 9.84457C6.33571 8.75327 6.52196 7.68811 6.89117 6.67523L7.02186 6.31909H3.31995V16.0428H8.67515L8.2896 15.5428C8.25366 15.4971 8.21771 15.4514 8.18177 15.3958C6.97285 13.7785 6.33571 11.8573 6.33571 9.84457ZM5.80313 9.84457C5.80313 11.8932 6.42393 13.8471 7.60345 15.5102H3.84926V6.85166H6.2671C5.95997 7.81553 5.80313 8.82188 5.80313 9.84457Z" fill="#E04700"/>
<path d="M8.3909 10.7789C8.58368 12.2982 9.24368 13.6967 10.2958 14.8272C10.4297 14.9709 11.1355 15.7094 11.8772 16.0328L11.9066 16.0459H24.0024C24.3291 16.0459 24.6558 16.0132 24.9728 15.9511C27.0083 15.546 28.5669 13.8993 28.8544 11.8539C28.8871 11.6415 28.9034 11.4161 28.9034 11.1841C28.9034 10.4947 28.7531 9.80198 28.4656 9.17792C27.8121 7.75335 26.5084 6.72086 24.976 6.41699C24.8878 6.40066 24.7931 6.38432 24.7048 6.37125L24.2735 6.31243L24.4206 6.72412C24.7146 7.55403 24.8911 8.41988 24.9401 9.30534C24.9499 9.48504 24.9564 9.66475 24.9564 9.84772C24.9564 10.4228 24.9041 10.9946 24.7996 11.55H22.7608C22.849 11.1841 22.9078 10.8116 22.9372 10.4489C22.9405 10.4162 22.9437 10.3836 22.9437 10.3738C22.9568 10.1973 22.9601 10.0274 22.9601 9.84772C22.9601 9.66148 22.9535 9.47198 22.9372 9.2694C22.8588 8.27612 22.5876 7.33512 22.1269 6.46274L22.0517 6.32224H11.423C12.2987 5.21787 13.5762 4.49579 14.955 4.32588H20.5128L19.8201 3.84231C18.5949 2.98299 17.1507 2.5321 15.6477 2.5321C14.1447 2.5321 12.7005 2.98626 11.472 3.84231C10.5049 4.51539 9.70764 5.42045 9.16199 6.46274C8.70456 7.33512 8.43011 8.27939 8.35496 9.26613C8.33862 9.47197 8.33209 9.66148 8.33209 9.84445C8.33209 10.1483 8.35169 10.4587 8.3909 10.7462V10.7789ZM15.6444 3.06142C16.7161 3.06142 17.765 3.313 18.7092 3.7933L14.9224 3.79657C13.1874 4.00568 11.6387 4.96955 10.6813 6.44313L10.4134 6.85482H21.7315C22.1138 7.61938 22.3425 8.44602 22.4079 9.30861C22.4209 9.50138 22.4308 9.67782 22.4308 9.84772C22.4308 10.0144 22.4242 10.1745 22.4144 10.3542L22.4112 10.3901C22.3752 10.8443 22.2903 11.2984 22.1661 11.7395L22.0681 12.0793H25.2374L25.2832 11.8702C25.4237 11.2135 25.4955 10.5306 25.4955 9.84772C25.4955 9.65168 25.489 9.46544 25.4792 9.27266C25.4335 8.49503 25.2962 7.72394 25.0708 6.97898C26.3549 7.29591 27.4364 8.1879 27.9885 9.39682C28.2434 9.94901 28.3773 10.5665 28.3773 11.1808C28.3773 11.3866 28.3643 11.586 28.3349 11.7755C28.08 13.5986 26.6914 15.0657 24.878 15.4251C24.597 15.4807 24.3062 15.5101 24.0122 15.5101H12.0275C11.557 15.2879 11.0179 14.8108 10.6944 14.4645C9.71745 13.4189 9.10972 12.1251 8.93002 10.7266L8.92674 10.694C8.8908 10.413 8.8712 10.1254 8.8712 9.84445C8.8712 9.67455 8.87774 9.49811 8.89408 9.30534C8.96596 8.39048 9.21754 7.51483 9.6423 6.70779C10.1487 5.74065 10.8872 4.90094 11.7857 4.27687C12.9129 3.47964 14.2526 3.06142 15.6444 3.06142Z" fill="#E04700"/>
<path d="M25.4663 18.4246C28.6684 17.7875 31.1058 15.0789 31.3966 11.8376C31.4162 11.6318 31.426 11.4161 31.426 11.1809C31.426 10.5111 31.3345 9.85109 31.1548 9.21395C30.4131 6.54779 28.1782 4.47628 25.4631 3.9339C24.9828 3.83914 24.4927 3.79013 24.0026 3.79013H23.4046C21.5226 1.37882 18.6996 0 15.6479 0C12.5962 0 9.7732 1.37882 7.8912 3.79013H0.794495V18.5684H24.0026C24.4959 18.5684 24.9893 18.5194 25.4663 18.4246ZM15.6447 0.532571C18.5722 0.532571 21.2743 1.87546 23.0583 4.21815L23.1367 4.32271H23.9993C24.4535 4.32271 24.9109 4.36846 25.3552 4.45668C27.8744 4.95985 29.9492 6.88432 30.6386 9.35772C30.8052 9.94584 30.8902 10.5601 30.8902 11.1809C30.8902 11.3998 30.8804 11.5991 30.864 11.7886C30.5961 14.7979 28.3318 17.3105 25.3618 17.9019C24.9174 17.9901 24.46 18.0358 23.9993 18.0358H1.32053V4.32271H8.14933L8.23101 4.21815C10.0117 1.87872 12.7138 0.532571 15.6447 0.532571Z" fill="#E04700"/>
<path d="M22.9078 27.789C22.7117 26.2664 22.0517 24.8647 20.9997 23.7342C20.8657 23.5905 20.1599 22.852 19.4379 22.5384L3.29382 22.5155V32.2555H7.00555L6.85524 31.8536C6.56118 31.0237 6.38475 30.1546 6.33247 29.2691C6.32267 29.0894 6.31613 28.9097 6.31613 28.7268C6.31613 28.1517 6.36841 27.5766 6.47297 27.0212H8.51507C8.42685 27.3871 8.36804 27.7596 8.33863 28.1256C8.33536 28.1582 8.3321 28.1876 8.3321 28.2007C8.31903 28.3739 8.31576 28.5471 8.31576 28.7268C8.31576 28.9097 8.32229 29.0992 8.33863 29.3083C8.41705 30.3016 8.68824 31.2459 9.14894 32.115C9.67825 33.1312 10.4559 34.0231 11.4001 34.6962L11.459 34.742C12.6875 35.6013 14.1317 36.0554 15.6379 36.0554C17.1442 36.0554 18.5883 35.6013 19.8201 34.742L20.5128 34.2584L14.9779 34.2617C13.5729 34.0918 12.2856 33.3664 11.4067 32.2588H22.0583L22.1334 32.115C22.5909 31.2426 22.8653 30.2951 22.9437 29.3051C22.9601 29.096 22.9666 28.9065 22.9666 28.7268C22.9666 28.4229 22.947 28.1092 22.9111 27.825L22.9078 27.789ZM10.4003 31.7229L10.6683 32.1346C11.6289 33.6082 13.1841 34.5753 14.9485 34.7877H18.7125C17.765 35.268 16.7161 35.5229 15.6412 35.5229C14.246 35.5229 12.9031 35.1014 11.7694 34.3074L11.7105 34.2649C10.8316 33.6409 10.1095 32.811 9.61944 31.8667C9.19141 31.0597 8.93982 30.184 8.86794 29.2659C8.85487 29.0731 8.84507 28.8967 8.84507 28.7268C8.84507 28.5601 8.85161 28.4 8.86141 28.2203L8.71111 28.2105L8.86794 28.1811C8.90388 27.727 8.98883 27.2728 9.11299 26.8284L9.21102 26.4886H6.0384L5.99267 26.6977C5.85217 27.3577 5.78029 28.0373 5.78029 28.7235C5.78029 28.9195 5.78682 29.109 5.79662 29.2985C5.84563 30.1252 5.99593 30.9388 6.24425 31.7229H3.82313V23.0481H19.2712C19.745 23.2703 20.2841 23.7473 20.6043 24.0969C21.5812 25.1425 22.1922 26.4396 22.3719 27.838L22.3752 27.8707C22.4111 28.155 22.4308 28.4425 22.4308 28.7235C22.4308 28.8901 22.4242 29.0666 22.4079 29.2626C22.3393 30.1285 22.1138 30.9551 21.7315 31.7229H10.4003Z" fill="#A83617"/>
<path d="M31.4225 26.7303C31.1317 23.4825 28.691 20.7706 25.4825 20.1302C25.0022 20.0322 24.5088 19.9832 24.0122 19.9832H0.764893V34.7843H7.8714C9.75667 37.1989 12.5862 38.581 15.6412 38.581C18.6994 38.581 21.5257 37.1989 23.411 34.7843H24.0154C24.5023 34.7843 24.9956 34.7353 25.4792 34.6405C28.1976 34.0982 30.4391 32.0234 31.1808 29.354C31.3605 28.7168 31.4519 28.0535 31.4519 27.3837C31.4519 27.1485 31.4421 26.9361 31.4225 26.7303ZM24.0154 34.255H23.1496L23.0712 34.3595C21.2872 36.7055 18.5818 38.0517 15.6445 38.0517C12.7104 38.0517 10.0017 36.7055 8.21774 34.3595L8.13933 34.255H1.30073V20.5157H24.0187C24.4794 20.5157 24.9401 20.5615 25.3845 20.6497C28.361 21.2411 30.6286 23.7602 30.8965 26.776C30.9161 26.9688 30.9226 27.1681 30.9226 27.3837C30.9226 28.0045 30.8377 28.6188 30.671 29.2102C29.9816 31.6901 27.9036 33.6146 25.3779 34.121C24.927 34.2093 24.4696 34.255 24.0154 34.255Z" fill="#E04700"/>
<path d="M24.9859 22.6103C24.6689 22.5482 24.3422 22.5155 24.0155 22.5155H22.6268L23.0026 23.0023C23.0418 23.0546 23.0843 23.1036 23.1235 23.1624C24.3324 24.7831 24.9695 26.7075 24.9695 28.7235C24.9695 29.7952 24.7865 30.8473 24.4271 31.8536L24.2899 32.262L24.7179 32.2032C24.8094 32.1902 24.9009 32.1771 24.9891 32.1575C26.5248 31.8504 27.8317 30.8179 28.4819 29.3933C28.7695 28.7692 28.9198 28.0733 28.9198 27.3839C28.9198 27.1519 28.9034 26.9264 28.8708 26.7141C28.5865 24.6687 27.0247 23.0187 24.9859 22.6103ZM25.5021 28.7235C25.5021 26.6716 24.878 24.7144 23.6985 23.0481H24.0155C24.3095 23.0481 24.6003 23.0775 24.8846 23.133C26.7012 23.4957 28.0931 24.966 28.348 26.7925C28.3774 26.982 28.3905 27.1813 28.3905 27.3871C28.3905 28.0014 28.2565 28.6189 28.0016 29.1744C27.4462 30.3866 26.3614 31.2818 25.0741 31.5988C25.3551 30.6708 25.5021 29.7037 25.5021 28.7235Z" fill="#E04700"/>
</svg>
