<svg width="493" height="534" viewBox="0 0 493 534" fill="none" xmlns="http://www.w3.org/2000/svg">
<path d="M206.401 534C320.393 534 412.802 519.726 412.802 502.118C412.802 484.51 320.393 470.236 206.401 470.236C92.4089 470.236 0 484.51 0 502.118C0 519.726 92.4089 534 206.401 534Z" fill="url(#paint0_radial)"/>
<path d="M289.041 166.881V468.722C289.041 480.598 279.398 490.242 267.524 490.242H137.149C125.275 490.242 115.632 480.598 115.632 468.722V166.881C115.632 155.005 125.275 145.361 137.149 145.361H267.445C279.398 145.361 289.041 155.005 289.041 166.881Z" fill="#F1F4FA"/>
<path d="M267.524 135.956H137.149C120.095 135.956 106.149 149.825 106.149 166.961V468.802C106.149 485.859 120.015 499.807 137.149 499.807H267.445C284.499 499.807 298.445 485.938 298.445 468.802V166.881C298.524 149.825 284.578 135.956 267.524 135.956ZM296.373 468.722C296.373 484.663 283.383 497.575 267.524 497.575H137.149C121.211 497.575 108.301 484.583 108.301 468.722V166.881C108.301 150.94 121.29 138.028 137.149 138.028H267.445C283.383 138.028 296.293 151.02 296.293 166.881V468.722H296.373Z" fill="#D2D7F5"/>
<path d="M267.524 138.028H137.149C121.211 138.028 108.301 151.02 108.301 166.881V468.722C108.301 484.663 121.29 497.575 137.149 497.575H267.445C283.383 497.575 296.293 484.583 296.293 468.722V166.881C296.373 151.02 283.463 138.028 267.524 138.028ZM292.707 468.722C292.707 482.67 281.391 493.909 267.524 493.909H137.149C123.203 493.909 111.967 482.591 111.967 468.722V166.881C111.967 152.933 123.283 141.695 137.149 141.695H267.445C281.391 141.695 292.627 153.013 292.627 166.881V468.722H292.707Z" fill="#555A78"/>
<path d="M267.524 141.695H137.149C123.203 141.695 111.967 153.013 111.967 166.881V468.722C111.967 482.67 123.283 493.909 137.149 493.909H267.445C281.391 493.909 292.627 482.59 292.627 468.722V166.881C292.707 153.013 281.47 141.695 267.524 141.695ZM289.041 468.722C289.041 480.598 279.398 490.242 267.524 490.242H137.149C125.275 490.242 115.632 480.598 115.632 468.722V166.881C115.632 155.005 125.275 145.361 137.149 145.361H154.681C155.239 145.361 155.717 145.839 155.717 146.397V148.629C155.717 152.136 158.586 155.005 162.092 155.005H242.74C246.247 155.005 249.116 152.136 249.116 148.629V146.397C249.116 145.839 249.594 145.361 250.152 145.361H267.445C279.319 145.361 288.961 155.005 288.961 166.881V468.722H289.041Z" fill="#08153F"/>
<path d="M106.308 198.524C105.512 198.524 104.874 197.886 104.874 197.089V185.054C104.874 184.257 105.512 183.619 106.308 183.619C107.105 183.619 107.743 184.257 107.743 185.054V197.089C107.743 197.886 107.105 198.524 106.308 198.524Z" fill="#08153F"/>
<path d="M106.308 242.122C105.512 242.122 104.874 241.485 104.874 240.688V209.762C104.874 208.965 105.512 208.328 106.308 208.328C107.105 208.328 107.743 208.965 107.743 209.762V240.688C107.743 241.485 107.105 242.122 106.308 242.122Z" fill="#08153F"/>
<path d="M106.308 281.177C105.512 281.177 104.874 280.54 104.874 279.743V248.817C104.874 248.02 105.512 247.383 106.308 247.383C107.105 247.383 107.743 248.02 107.743 248.817V279.743C107.743 280.54 107.105 281.177 106.308 281.177Z" fill="#08153F"/>
<path d="M274.537 306.842H130.375V319.754H274.537V306.842Z" fill="#D2D4DF"/>
<path d="M263.619 316.486H141.293C139.54 316.486 138.105 315.052 138.105 313.298C138.105 311.545 139.54 310.11 141.293 310.11H263.54C265.293 310.11 266.727 311.545 266.727 313.298C266.807 315.052 265.373 316.486 263.619 316.486Z" fill="white"/>
<path d="M274.537 324.058H130.375V336.971H274.537V324.058Z" fill="#D2D4DF"/>
<path d="M263.619 333.703H141.293C139.54 333.703 138.105 332.268 138.105 330.515C138.105 328.761 139.54 327.326 141.293 327.326H263.54C265.293 327.326 266.727 328.761 266.727 330.515C266.807 332.268 265.373 333.703 263.619 333.703Z" fill="white"/>
<path d="M139.779 373.077C144.884 373.077 149.023 368.937 149.023 363.831C149.023 358.725 144.884 354.585 139.779 354.585C134.673 354.585 130.535 358.725 130.535 363.831C130.535 368.937 134.673 373.077 139.779 373.077Z" fill="white"/>
<path d="M139.779 369.012C142.64 369.012 144.959 366.692 144.959 363.831C144.959 360.97 142.64 358.65 139.779 358.65C136.918 358.65 134.599 360.97 134.599 363.831C134.599 366.692 136.918 369.012 139.779 369.012Z" fill="#D2D4DF"/>
<path d="M270.393 381.764H160.658C158.984 381.764 157.55 380.649 157.55 379.214V348.528C157.55 347.093 158.905 345.977 160.658 345.977H270.393C272.067 345.977 273.501 347.093 273.501 348.528V379.214C273.421 380.649 272.067 381.764 270.393 381.764Z" fill="white"/>
<path d="M261.149 357.773H167.99C166.715 357.773 165.679 356.897 165.679 355.861C165.679 354.824 166.715 353.948 167.99 353.948H261.149C262.424 353.948 263.46 354.824 263.46 355.861C263.46 356.897 262.424 357.773 261.149 357.773Z" fill="url(#paint1_linear)"/>
<path d="M261.149 365.266H167.99C166.715 365.266 165.679 364.389 165.679 363.353C165.679 362.317 166.715 361.44 167.99 361.44H261.149C262.424 361.44 263.46 362.317 263.46 363.353C263.46 364.389 262.424 365.266 261.149 365.266Z" fill="url(#paint2_linear)"/>
<path d="M231.823 372.758H167.99C166.715 372.758 165.679 371.881 165.679 370.845C165.679 369.809 166.715 368.932 167.99 368.932H231.823C233.098 368.932 234.134 369.809 234.134 370.845C234.134 371.881 233.098 372.758 231.823 372.758Z" fill="url(#paint3_linear)"/>
<path d="M139.779 417.95C144.884 417.95 149.023 413.811 149.023 408.705C149.023 403.598 144.884 399.459 139.779 399.459C134.673 399.459 130.535 403.598 130.535 408.705C130.535 413.811 134.673 417.95 139.779 417.95Z" fill="white"/>
<path d="M139.779 413.886C142.64 413.886 144.959 411.566 144.959 408.705C144.959 405.843 142.64 403.524 139.779 403.524C136.918 403.524 134.599 405.843 134.599 408.705C134.599 411.566 136.918 413.886 139.779 413.886Z" fill="#D2D4DF"/>
<path d="M270.393 426.638H160.658C158.984 426.638 157.55 425.522 157.55 424.088V393.401C157.55 391.967 158.905 390.851 160.658 390.851H270.393C272.067 390.851 273.501 391.967 273.501 393.401V424.088C273.421 425.443 272.067 426.638 270.393 426.638Z" fill="white"/>
<path d="M261.149 402.647H167.99C166.715 402.647 165.679 401.77 165.679 400.734C165.679 399.698 166.715 398.821 167.99 398.821H261.149C262.424 398.821 263.46 399.698 263.46 400.734C263.46 401.77 262.424 402.647 261.149 402.647Z" fill="url(#paint4_linear)"/>
<path d="M261.149 410.139H167.99C166.715 410.139 165.679 409.263 165.679 408.226C165.679 407.19 166.715 406.314 167.99 406.314H261.149C262.424 406.314 263.46 407.19 263.46 408.226C263.46 409.263 262.424 410.139 261.149 410.139Z" fill="url(#paint5_linear)"/>
<path d="M231.823 417.632H167.99C166.715 417.632 165.679 416.755 165.679 415.719C165.679 414.682 166.715 413.806 167.99 413.806H231.823C233.098 413.806 234.134 414.682 234.134 415.719C234.134 416.755 233.098 417.632 231.823 417.632Z" fill="url(#paint6_linear)"/>
<path d="M139.779 464.498C144.884 464.498 149.023 460.358 149.023 455.252C149.023 450.146 144.884 446.006 139.779 446.006C134.673 446.006 130.535 450.146 130.535 455.252C130.535 460.358 134.673 464.498 139.779 464.498Z" fill="white"/>
<path d="M139.779 460.433C142.64 460.433 144.959 458.113 144.959 455.252C144.959 452.391 142.64 450.071 139.779 450.071C136.918 450.071 134.599 452.391 134.599 455.252C134.599 458.113 136.918 460.433 139.779 460.433Z" fill="#D2D4DF"/>
<path d="M270.393 473.185H160.658C158.984 473.185 157.55 472.07 157.55 470.635V439.949C157.55 438.514 158.905 437.398 160.658 437.398H270.393C272.067 437.398 273.501 438.514 273.501 439.949V470.635C273.421 472.07 272.067 473.185 270.393 473.185Z" fill="white"/>
<path d="M261.149 449.194H167.99C166.715 449.194 165.679 448.318 165.679 447.282C165.679 446.245 166.715 445.369 167.99 445.369H261.149C262.424 445.369 263.46 446.245 263.46 447.282C263.46 448.318 262.424 449.194 261.149 449.194Z" fill="url(#paint7_linear)"/>
<path d="M261.149 456.687H167.99C166.715 456.687 165.679 455.81 165.679 454.774C165.679 453.738 166.715 452.861 167.99 452.861H261.149C262.424 452.861 263.46 453.738 263.46 454.774C263.46 455.81 262.424 456.687 261.149 456.687Z" fill="url(#paint8_linear)"/>
<path d="M231.823 464.179H167.99C166.715 464.179 165.679 463.302 165.679 462.266C165.679 461.23 166.715 460.353 167.99 460.353H231.823C233.098 460.353 234.134 461.23 234.134 462.266C234.134 463.302 233.098 464.179 231.823 464.179Z" fill="url(#paint9_linear)"/>
<path d="M263.699 213.03V275.04C263.699 276.076 263.301 277.112 262.743 277.91C262.424 278.308 262.026 278.627 261.627 278.946C260.91 279.424 260.113 279.663 259.236 279.663H150.378C149.501 279.663 148.625 279.424 147.987 278.946C147.509 278.707 147.19 278.308 146.871 277.91C146.234 277.112 145.915 276.156 145.915 275.04V213.03C145.915 211.994 146.314 210.958 146.871 210.161C147.19 209.762 147.589 209.443 147.987 209.125C148.704 208.646 149.501 208.407 150.378 208.407H259.157C260.033 208.407 260.91 208.646 261.547 209.125C262.026 209.364 262.344 209.762 262.663 210.161C263.38 210.958 263.699 211.994 263.699 213.03Z" fill="#A83617"/>
<path d="M193.092 244.035L191.817 244.992L147.987 278.866C147.509 278.627 147.19 278.228 146.871 277.83L190.622 244.035L191.897 243.079L193.092 244.035Z" fill="#F6F7FB"/>
<path d="M262.743 277.91C262.424 278.308 262.026 278.627 261.627 278.946L217.797 245.071L216.522 244.115L217.797 243.158L219.072 244.115L262.743 277.91Z" fill="#F6F7FB"/>
<path d="M262.743 210.241L218.992 244.115L217.717 245.071L204.727 255.114L191.738 245.071L190.463 244.115L146.792 210.241C147.11 209.842 147.509 209.523 147.907 209.204L191.738 243.079L193.013 244.035L204.727 253.121L216.442 244.035L217.717 243.079L261.547 209.204C262.026 209.443 262.424 209.842 262.743 210.241Z" fill="#F6F7FB"/>
<path d="M262.743 220.283C269.257 220.283 274.537 215.002 274.537 208.487C274.537 201.972 269.257 196.691 262.743 196.691C256.229 196.691 250.948 201.972 250.948 208.487C250.948 215.002 256.229 220.283 262.743 220.283Z" fill="#BC4A2B"/>
<path d="M261.308 214.385C261.308 215.182 262.743 215.82 262.743 215.82C262.743 215.82 264.177 215.182 264.177 214.385H261.308Z" fill="#F6F7FB"/>
<path d="M268.959 213.588L268.321 212.871C267.923 212.472 267.763 211.914 267.763 211.356V205.936C267.763 203.466 265.93 201.393 263.54 200.995C263.54 200.915 263.54 200.915 263.54 200.835C263.54 200.277 263.54 199.799 262.823 199.799C262.105 199.799 262.105 200.277 262.105 200.835C262.105 200.915 262.105 200.915 262.105 200.995C259.715 201.314 257.882 203.386 257.882 205.936V211.356C257.882 211.914 257.643 212.472 257.324 212.871L256.686 213.588C256.607 213.668 256.686 213.907 256.846 213.907H268.959C268.959 213.907 269.038 213.668 268.959 213.588Z" fill="#F6F7FB"/>
<path d="M396.067 74.7443L414.475 95.4675C414.794 95.7863 414.954 96.2645 414.954 96.7428C414.954 96.9819 414.954 97.221 414.874 97.4601C414.794 97.7789 414.555 98.1774 414.236 98.4165L377.897 130.617C377.578 130.856 377.259 131.016 376.861 131.095C376.622 131.095 376.383 131.095 376.144 131.095C375.745 131.016 375.267 130.777 374.948 130.458L356.54 109.735C356.221 109.336 356.062 108.938 356.062 108.459C356.062 108.22 356.062 107.981 356.141 107.742C356.221 107.423 356.46 107.025 356.779 106.786L393.198 74.5052C393.517 74.2661 393.835 74.1067 394.234 74.027C394.473 74.027 394.712 74.027 394.951 74.027C395.349 74.1864 395.748 74.3458 396.067 74.7443Z" fill="#08153F"/>
<path d="M381.642 106.067L381.483 106.784L376.861 131.174C376.622 131.174 376.383 131.174 376.144 131.174L380.766 106.864L380.925 106.146L381.642 106.067Z" fill="#F6F7FB"/>
<path d="M415.033 96.7413C415.033 96.9804 415.033 97.2196 414.954 97.4587L390.249 99.1325L389.532 99.2122L389.691 98.4948L390.409 98.4151L415.033 96.7413Z" fill="#F6F7FB"/>
<path d="M394.951 74.1052L390.329 98.4151L390.17 99.1324L388.815 106.306L381.483 106.784L380.766 106.864L356.062 108.538C356.062 108.298 356.062 108.059 356.141 107.82L380.846 106.146L381.563 106.067L388.177 105.588L389.373 99.0527L389.532 98.3354L394.154 73.9458C394.473 74.0255 394.712 74.0255 394.951 74.1052Z" fill="#F6F7FB"/>
<path d="M248.717 144.086L267.445 179.395C267.763 180.032 267.843 180.67 267.763 181.308C267.684 181.627 267.604 181.945 267.445 182.264C267.206 182.742 266.807 183.141 266.249 183.38L204.249 216.218C203.771 216.457 203.213 216.617 202.656 216.537C202.337 216.537 202.018 216.457 201.699 216.298C201.141 216.059 200.584 215.581 200.265 214.943L181.537 179.634C181.219 178.996 181.139 178.359 181.219 177.721C181.298 177.402 181.378 177.083 181.537 176.765C181.776 176.286 182.175 175.888 182.733 175.649L244.733 142.811C245.211 142.571 245.769 142.412 246.326 142.492C246.645 142.492 246.964 142.571 247.283 142.731C247.841 143.05 248.398 143.528 248.717 144.086Z" fill="#F4DEDA"/>
<path d="M217.797 183.141L217.398 184.097L202.655 216.697C202.337 216.697 202.018 216.617 201.699 216.457L216.442 183.938L216.841 182.982L217.797 183.141Z" fill="#F6F7FB"/>
<path d="M267.684 181.387C267.604 181.706 267.524 182.025 267.365 182.344L232.141 176.286L231.105 176.127L231.504 175.171L232.54 175.33L267.684 181.387Z" fill="#F6F7FB"/>
<path d="M247.283 142.812L232.54 175.331L232.141 176.287L227.758 185.932L217.319 184.098L216.283 183.939L181.139 177.881C181.218 177.563 181.298 177.244 181.458 176.925L216.681 182.983L217.717 183.142L227.121 184.736L231.026 176.048L231.424 175.092L246.167 142.493C246.645 142.572 246.964 142.652 247.283 142.812Z" fill="#F6F7FB"/>
<path d="M357.735 142.731L350.643 177.562C350.483 178.199 350.164 178.678 349.766 179.076C349.527 179.235 349.288 179.395 348.969 179.554C348.491 179.714 348.013 179.793 347.535 179.634L286.411 167.12C285.933 167.041 285.455 166.802 285.136 166.483C284.897 166.244 284.738 166.005 284.578 165.765C284.339 165.287 284.26 164.65 284.339 164.092L291.432 129.261C291.591 128.623 291.91 128.145 292.308 127.746C292.547 127.587 292.787 127.428 293.105 127.268C293.583 127.109 294.062 127.029 294.54 127.188L355.663 139.702C356.141 139.782 356.619 140.021 356.938 140.34C357.177 140.579 357.337 140.818 357.496 141.057C357.735 141.535 357.815 142.093 357.735 142.731Z" fill="#A83617"/>
<path d="M314.383 151.977L313.586 152.375L285.056 166.403C284.817 166.164 284.658 165.925 284.499 165.686L312.948 151.658L313.745 151.259L314.383 151.977Z" fill="#F6F7FB"/>
<path d="M349.686 178.996C349.447 179.156 349.208 179.315 348.889 179.475L328.17 155.404L327.612 154.686L328.409 154.288L328.966 155.005L349.686 178.996Z" fill="#F6F7FB"/>
<path d="M357.496 140.977L329.046 155.005L328.249 155.404L319.802 159.548L313.666 152.455L313.108 151.737L292.388 127.667C292.627 127.507 292.866 127.348 293.185 127.188L313.905 151.259L314.463 151.977L320.041 158.433L327.691 154.687L328.488 154.288L357.018 140.26C357.177 140.499 357.337 140.738 357.496 140.977Z" fill="#F6F7FB"/>
<path d="M472.891 70.3591L479.186 89.3288C479.266 89.6476 479.266 89.9664 479.186 90.2852C479.107 90.4446 479.027 90.6041 478.947 90.6838C478.788 90.9229 478.549 91.0823 478.31 91.162L444.999 102.241C444.76 102.321 444.441 102.321 444.202 102.241C444.043 102.161 443.883 102.161 443.724 102.081C443.485 101.922 443.246 101.603 443.166 101.284L436.87 82.3148C436.791 81.996 436.791 81.6772 436.87 81.3583C436.95 81.1989 437.03 81.0395 437.109 80.9598C437.269 80.7207 437.508 80.5613 437.747 80.4816L471.058 69.4027C471.297 69.323 471.616 69.323 471.855 69.4027C472.014 69.4027 472.174 69.4824 472.333 69.5621C472.572 69.7215 472.811 69.9606 472.891 70.3591Z" fill="#A83617"/>
<path d="M454.401 87.0173L454.082 87.4158L444.121 102.241C443.961 102.161 443.802 102.161 443.643 102.081L453.604 87.2564L453.923 86.8579L454.401 87.0173Z" fill="#F6F7FB"/>
<path d="M479.185 90.2852C479.105 90.4446 479.026 90.604 478.946 90.6837L462.051 84.7856L461.573 84.6262L461.892 84.2277L462.37 84.3871L479.185 90.2852Z" fill="#F6F7FB"/>
<path d="M472.331 69.5628L462.37 84.3879L462.051 84.7864L459.103 89.1702L454.082 87.4166L453.604 87.2572L436.789 81.3591C436.869 81.1997 436.948 81.0403 437.028 80.9606L453.923 86.8587L454.401 87.0181L458.943 88.6122L461.653 84.627L461.972 84.2285L471.933 69.4034C472.013 69.4034 472.172 69.4831 472.331 69.5628Z" fill="#F6F7FB"/>
<path d="M117.24 19.3607L121.898 24.7387L125.821 33.2945L127.096 32.1212L135.923 37.2058L143.768 30.9967L141.366 33.7346L142.003 37.988L146.073 39.0636L152.301 33.6368L156.027 26.4499L151.369 23.1742L143.278 12.516L135.972 6.84473L120.966 13.2494L117.24 19.3607Z" fill="#E5E5E5"/>
<path d="M107.285 12.4182L117.24 20.9252L131.264 13.1027L131.754 11.7337L137.099 20.3385L138.472 17.2584L146.858 22.4897L151.516 23.4675L143.719 3.08011L136.315 0L134.5 1.80895L132.049 0.684468L107.285 12.4182Z" fill="#040B1E"/>
<path d="M106.229 110.869L84.6324 113.738L60.2468 74.1251L83.2776 76.038L106.229 110.869Z" fill="#F1F4FA"/>
<path d="M132.129 109.912L86.0668 115.81C85.4293 115.89 84.7918 115.412 84.7121 114.774L84.5527 113.658L132.925 107.442L133.085 108.557C133.244 109.275 132.766 109.833 132.129 109.912Z" fill="#A83617"/>
<path d="M82.1619 113.659L59.1311 76.2772C58.8123 75.7193 58.9717 74.9222 59.5296 74.6034L83.8355 114.057C83.2776 114.376 82.5604 114.217 82.1619 113.659Z" fill="#A83617"/>
<path d="M84.6324 113.579L60.2468 74.1251L59.5296 74.6033L83.9151 114.057L84.6324 113.579Z" fill="#112F41"/>
<path d="M85.1105 78.8277L66.3033 77.7119L64.3111 74.444L83.2776 75.9584L85.1105 78.8277Z" fill="#D2D4DF"/>
<path d="M86.2262 80.5813L67.4987 79.5451L66.3033 77.7119L85.1105 78.8278L86.2262 80.5813Z" fill="#D5DDF0"/>
<path d="M69.1722 76.7555L66.0643 76.5164C65.9049 76.5164 65.8252 76.6758 65.9846 76.9149L66.3033 77.7119L70.3676 77.951L69.8098 77.154C69.6504 76.9149 69.3316 76.7555 69.1722 76.7555Z" fill="white"/>
<path d="M89.6529 85.762L71.0051 85.2838L68.455 81.2189L87.2622 82.0159L89.6529 85.762Z" fill="#D2D4DF"/>
<path d="M84.7918 84.4867L71.0051 84.0085L69.9691 82.4144L83.8355 82.9724L84.7918 84.4867Z" fill="white"/>
<path d="M87.1825 84.5665L85.9871 84.4868L85.0308 82.9724L86.2262 83.0521L87.1825 84.5665Z" fill="white"/>
<path d="M98.9769 103.377L90.6889 104.094L81.4447 89.5879L90.1311 89.7473L98.9769 103.377Z" fill="#D2D4DF"/>
<path d="M79.1337 88.2329H75.7866L75.3085 87.5155H78.6555L79.1337 88.2329Z" fill="#D2D4DF"/>
<path d="M79.3727 90.7037H75.1491L74.5913 89.9066H78.8946L79.3727 90.7037Z" fill="#D2D4DF"/>
<path d="M81.5244 92.2978L76.7429 92.3775L76.4242 91.8993L81.2056 91.8196L81.5244 92.2978Z" fill="#D2D4DF"/>
<path d="M82.0026 93.0948L76.6632 93.1745L76.3445 92.6963L81.6838 92.6166L82.0026 93.0948Z" fill="#D2D4DF"/>
<path d="M82.4807 93.8918L77.2211 94.0512L76.9023 93.573L82.2416 93.4933L82.4807 93.8918Z" fill="#D2D4DF"/>
<path d="M82.3213 94.7686L77.6992 94.8483L77.3805 94.3701L82.0026 94.2904L82.3213 94.7686Z" fill="#D2D4DF"/>
<path d="M83.5964 95.5656L78.8149 95.7251L78.4961 95.2468L83.2776 95.0874L83.5964 95.5656Z" fill="#D2D4DF"/>
<path d="M84.0745 96.3628L78.7352 96.6019L78.4961 96.0439L83.7558 95.9642L84.0745 96.3628Z" fill="#D2D4DF"/>
<path d="M84.6324 97.2395L79.2931 97.3989L78.9743 96.9206L84.3136 96.7612L84.6324 97.2395Z" fill="#D2D4DF"/>
<path d="M85.1105 98.0365L79.8509 98.2756L79.5321 97.7973L84.8715 97.5582L85.1105 98.0365Z" fill="#D2D4DF"/>
<path d="M85.6684 98.9133L80.329 99.1524L80.09 98.6742L85.3496 98.4351L85.6684 98.9133Z" fill="#D2D4DF"/>
<path d="M86.2262 99.7103L80.8869 100.029L80.5681 99.4712L85.9074 99.2321L86.2262 99.7103Z" fill="#D2D4DF"/>
<path d="M85.2699 100.667L81.4447 100.826L81.126 100.348L84.9512 100.188L85.2699 100.667Z" fill="#D2D4DF"/>
<path d="M87.2622 101.384L85.2699 101.544L85.0308 101.065L86.9434 100.906L87.2622 101.384Z" fill="#D2D4DF"/>
<path d="M87.6607 102.261L86.2262 102.341L85.9074 101.862L87.3419 101.783L87.6607 102.261Z" fill="#D2D4DF"/>
<path d="M88.9357 104.493L84.2339 104.891C84.0745 104.891 83.7558 104.572 83.437 104.094C83.1182 103.616 83.0386 103.217 83.1979 103.217L87.8997 102.898C88.0591 102.898 88.3779 103.217 88.6966 103.695C88.9357 104.094 89.0951 104.493 88.9357 104.493Z" fill="#D2D4DF"/>
<path d="M84.473 113.659L60.2468 74.1251L64.3111 74.4439L88.2982 113.18L84.473 113.659Z" fill="#D2D4DF"/>
<path d="M67.1799 80.9L65.4267 80.8203L62.8766 76.5959L64.5501 76.6757L67.1799 80.9Z" fill="#FDF3FD"/>
<path d="M67.1003 83.8491H66.6221L65.5861 82.1753L66.0643 82.255L67.1003 83.8491Z" fill="#FFFEFF"/>
<path d="M69.8098 84.0085L67.18 83.8491L66.144 82.255L68.8535 82.3347L69.8098 84.0085Z" fill="#FFFEFF"/>
<path d="M70.6067 85.2041L67.3393 85.1244L67.1799 84.7258L70.3676 84.8055L70.6067 85.2041Z" fill="#FFFEFF"/>
<path d="M71.4833 86.6387L68.2159 86.559L68.0566 86.1605L71.2442 86.2402L71.4833 86.6387Z" fill="#FFFEFF"/>
<path d="M69.2519 87.8343C69.3316 87.9937 69.3316 88.0734 69.3316 88.0734C69.2519 88.0734 69.1722 87.9937 69.0925 87.8343C69.0129 87.6749 69.0129 87.5952 69.0129 87.5952C69.0129 87.5155 69.1722 87.6749 69.2519 87.8343Z" fill="#FFFEFF"/>
<path d="M69.4919 87.8343C69.5716 87.9937 69.5716 88.0734 69.5716 88.0734C69.4919 88.0734 69.4122 87.9937 69.3325 87.8343C69.2528 87.6749 69.2528 87.5952 69.2528 87.5952C69.2528 87.5155 69.4122 87.6749 69.4919 87.8343Z" fill="#FFFEFF"/>
<path d="M69.7301 87.8343C69.8098 87.9937 69.8098 88.0734 69.8098 88.0734C69.7301 88.0734 69.6504 87.9937 69.5707 87.8343C69.491 87.6749 69.491 87.5952 69.491 87.5952C69.491 87.5952 69.6504 87.6749 69.7301 87.8343Z" fill="#FFFEFF"/>
<path d="M69.9692 87.8343C70.0488 87.9937 70.0488 88.0734 70.0488 88.0734C69.9692 88.0734 69.8895 87.9937 69.8098 87.8343C69.7301 87.6749 69.7301 87.5952 69.7301 87.5952C69.7301 87.5952 69.8895 87.6749 69.9692 87.8343Z" fill="#FFFEFF"/>
<path d="M70.2082 87.8343C70.2879 87.9937 70.2879 88.0734 70.2879 88.0734C70.2082 88.0734 70.1285 87.9937 70.0488 87.8343C69.9691 87.6749 69.9691 87.5952 69.9691 87.5952C69.9691 87.5952 70.1285 87.6749 70.2082 87.8343Z" fill="#FFFEFF"/>
<path d="M70.4473 87.8343C70.527 87.9937 70.527 88.0734 70.527 88.0734C70.4473 88.0734 70.3676 87.9937 70.2879 87.8343C70.1285 87.6749 70.1285 87.5952 70.2082 87.5952C70.2082 87.5952 70.3676 87.6749 70.4473 87.8343Z" fill="#FFFEFF"/>
<path d="M70.6864 87.8343C70.7661 87.9937 70.7661 88.0734 70.7661 88.0734C70.6864 88.0734 70.6067 87.9937 70.527 87.8343C70.4473 87.6749 70.4473 87.5952 70.4473 87.5952C70.4473 87.5952 70.6067 87.6749 70.6864 87.8343Z" fill="#FFFEFF"/>
<path d="M70.9254 87.8343C71.0051 87.9937 71.0051 88.0734 71.0051 88.0734C70.9254 88.0734 70.8458 87.9937 70.7661 87.8343C70.6864 87.6749 70.6864 87.5952 70.6864 87.5952C70.6864 87.5952 70.8458 87.6749 70.9254 87.8343Z" fill="#FFFEFF"/>
<path d="M71.1645 87.8343C71.2442 87.9937 71.2442 88.0734 71.2442 88.0734C71.1645 88.0734 71.0848 87.9937 71.0051 87.8343C70.9255 87.6749 70.9255 87.5952 70.9255 87.5952C70.9255 87.5952 71.0848 87.6749 71.1645 87.8343Z" fill="#FFFEFF"/>
<path d="M71.4036 87.8343C71.4833 87.9937 71.4833 88.0734 71.4833 88.0734C71.4036 88.0734 71.3239 87.9937 71.2442 87.8343C71.1645 87.6749 71.1645 87.5952 71.1645 87.5952C71.1645 87.5952 71.3239 87.6749 71.4036 87.8343Z" fill="#FFFEFF"/>
<path d="M71.6427 87.8343C71.7224 87.9937 71.7224 88.0734 71.7224 88.0734C71.6427 88.0734 71.563 87.9937 71.4833 87.8343C71.4036 87.6749 71.4036 87.5952 71.4036 87.5952C71.4036 87.5952 71.563 87.6749 71.6427 87.8343Z" fill="#FFFEFF"/>
<path d="M69.8098 88.7908C69.8895 88.9502 69.8895 89.0299 69.8895 89.0299C69.8098 89.0299 69.7301 88.9502 69.6504 88.7908C69.5707 88.6313 69.5707 88.5516 69.5707 88.5516C69.6504 88.5516 69.7301 88.711 69.8098 88.7908Z" fill="#FFFEFF"/>
<path d="M70.0498 88.7908C70.1295 88.9502 70.1295 89.0299 70.1295 89.0299C70.0498 89.0299 69.9701 88.9502 69.8904 88.7908C69.8107 88.6313 69.8107 88.5516 69.8107 88.5516C69.8107 88.5516 69.9701 88.711 70.0498 88.7908Z" fill="#FFFEFF"/>
<path d="M70.2879 88.7908C70.3676 88.9502 70.3676 89.0299 70.3676 89.0299C70.2879 89.0299 70.2082 88.9502 70.1285 88.7908C70.0488 88.6313 70.0488 88.5516 70.0488 88.5516C70.1285 88.5516 70.2082 88.711 70.2879 88.7908Z" fill="#FFFEFF"/>
<path d="M70.6067 88.7908C70.6864 88.9502 70.6864 89.0299 70.6864 89.0299C70.6067 89.0299 70.527 88.9502 70.4473 88.7908C70.3676 88.6313 70.3676 88.5516 70.3676 88.5516C70.3676 88.5516 70.4473 88.711 70.6067 88.7908Z" fill="#FFFEFF"/>
<path d="M70.8458 88.7908C70.9255 88.9502 70.9255 89.0299 70.9255 89.0299C70.8458 89.0299 70.7661 88.9502 70.6864 88.7908C70.6067 88.6313 70.6067 88.5516 70.6067 88.5516C70.6067 88.5516 70.6864 88.711 70.8458 88.7908Z" fill="#FFFEFF"/>
<path d="M71.0848 88.7908C71.1645 88.9502 71.1645 89.0299 71.1645 89.0299C71.0848 89.0299 71.0051 88.9502 70.9254 88.7908C70.8458 88.6313 70.8458 88.5516 70.8458 88.5516C70.8458 88.5516 70.9254 88.711 71.0848 88.7908Z" fill="#FFFEFF"/>
<path d="M71.3239 88.7908C71.4036 88.9502 71.4036 89.0299 71.4036 89.0299C71.3239 89.0299 71.2442 88.9502 71.1645 88.7908C71.0848 88.6313 71.0848 88.5516 71.0848 88.5516C71.0848 88.5516 71.1645 88.711 71.3239 88.7908Z" fill="#FFFEFF"/>
<path d="M71.4833 88.8704C71.563 89.0298 71.563 89.1095 71.563 89.1095C71.4833 89.1095 71.4036 89.0298 71.3239 88.8704C71.2442 88.711 71.2442 88.6313 71.2442 88.6313C71.3239 88.5516 71.4036 88.711 71.4833 88.8704Z" fill="#FFFEFF"/>
<path d="M71.7224 88.8704C71.8021 89.0298 71.8021 89.1095 71.8021 89.1095C71.7224 89.1095 71.6427 89.0298 71.563 88.8704C71.4833 88.711 71.4833 88.6313 71.4833 88.6313C71.563 88.5516 71.6427 88.711 71.7224 88.8704Z" fill="#FFFEFF"/>
<path d="M71.9614 88.8705C72.0411 89.0299 72.0411 89.1096 72.0411 89.1096C71.9614 89.1096 71.8817 89.0299 71.8021 88.8705C71.7224 88.711 71.7224 88.5516 71.7224 88.5516C71.8021 88.5516 71.8817 88.711 71.9614 88.8705Z" fill="#FFFEFF"/>
<path d="M72.2005 88.8704C72.2802 89.0298 72.2802 89.1095 72.2802 89.1095C72.2005 89.1095 72.1208 89.0298 72.0411 88.8704C71.9614 88.711 71.9614 88.6313 71.9614 88.6313C72.0411 88.5516 72.1208 88.711 72.2005 88.8704Z" fill="#FFFEFF"/>
<path d="M75.1491 93.0948H72.6787C72.5193 93.0948 72.0411 92.6166 71.7224 92.0586C71.4036 91.5007 71.2442 91.0225 71.4833 91.0225H73.9537C74.1131 91.0225 74.5913 91.5007 74.91 91.9789C75.2288 92.6166 75.3085 93.0948 75.1491 93.0948Z" fill="white"/>
<path d="M137.162 47.4728L131.409 84.5287L108.567 104.573L109.328 111.397L135.47 101.066L154.294 75.3832L137.162 47.4728Z" fill="#08153F"/>
<path d="M108.567 104.573L105.183 106.895L100.784 108.222L98.9647 108.269L97.9495 109.928L96.4267 110.307L96.7651 111.586H100.953L106.96 110.686L107.721 109.596L109.117 109.549L108.567 104.573Z" fill="#D7D7D7"/>
<path d="M139.453 34.9568L132.245 47.4728V72.5048C132.245 72.5048 140.973 107.999 141.12 108.831C141.267 109.662 136.021 139.729 136.021 139.729L155.537 136.747L141.366 33.7345L139.453 34.9568Z" fill="#08153F"/>
<path opacity="0.36" d="M141.366 33.7345L141.66 36.179L135.923 57.1531L138.816 79.6917L134.648 57.1531L136.364 45.2238L138.472 42.1437L137.835 39.5036L140.532 36.1301L141.366 33.7345Z" fill="#08153F"/>
<path d="M141.66 36.179L135.922 57.1531L143.817 115.088L174.955 110.297L168.777 70.2558L149.702 31.4366L141.66 36.179Z" fill="#FCFCFC"/>
<path d="M139.992 37.8902L137.05 40.0903L137.786 43.5126H139.208L137.835 43.9038L138.963 85.3141L142.199 93.3322L140.826 43.2682L142.395 37.1569L139.992 37.8902Z" fill="#A83617"/>
<path d="M150.388 114.746L166.668 137.921L116.651 157.281L94.7319 197.567L79.8739 196.443L98.0174 148.774L103.215 139.974L110.522 135.525L134.697 137.383L113.415 134.4L150.388 114.746Z" fill="#061435"/>
<path d="M91.8878 197.371L93.9963 205.976L86.788 208.127L85.6111 207.15L82.2767 209.496L65.7514 216.683V213.114L77.6672 200.647L79.8739 196.443L91.8878 197.371Z" fill="#030C1E"/>
<path d="M177.751 107.266L145.24 138.849L99.8318 132.542L100.665 178.891H84.4343L79.923 123.449L85.5131 114.062L131.068 110.004L142.592 106.875L177.751 107.266Z" fill="#061435"/>
<path d="M100.665 178.891L100.616 190.82H95.7126L95.0751 189.109L90.0244 190.82H64.084L66.3397 187.984L83.5025 181.824L86.1014 178.891H100.665Z" fill="#030C1E"/>
<path d="M155.978 26.3521L177.26 39.2103L187.705 70.5981V100.617L199.229 135.476L176.476 138.996C176.476 138.996 156.077 143.25 148.672 124.72L143.866 104.088L157.057 87.2698L143.18 101.155L138.718 59.4021L149.702 31.5345L155.978 26.3521Z" fill="#08153F"/>
<path opacity="0.36" d="M155.979 26.3521L149.702 31.4367L138.718 59.3043L140.826 79.0073L140.777 60.0377L146.367 46.8861L145.239 41.9971L150.732 40.677L155.979 26.3521Z" fill="#122554"/>
<path d="M112.416 104.573L108.313 106.895L102.941 108.222L100.741 108.269L99.5147 109.928L97.6535 110.307L98.0765 111.586H103.195L110.47 110.686L111.401 109.596L113.093 109.549L112.416 104.573Z" fill="#E5E5E5"/>
<path d="M158.372 51.8079L139.039 84.6646L109.974 104.749L110.948 111.586L144.216 101.235L168.149 75.5008L158.372 51.8079Z" fill="#08153F"/>
<path d="M394.931 74.9951C394.522 74.9135 394.031 74.424 393.868 73.8122C393.704 73.2411 393.949 72.8332 394.358 72.874C394.767 72.9556 395.258 73.4451 395.421 74.0569C395.585 74.628 395.339 75.0358 394.931 74.9951Z" fill="#603913"/>
<path d="M394.808 74.3831C394.685 74.3831 394.603 74.3423 394.522 74.22L378.25 50.3174L378.823 49.9095L394.767 73.4042L410.711 49.9095L411.284 50.3174L395.053 74.2608C395.012 74.3423 394.89 74.3831 394.808 74.3831Z" fill="#9D9EB3"/>
<path d="M394.808 74.3832C394.644 74.3832 394.522 74.3016 394.481 74.1385L386.55 50.2359L387.204 50.032L394.808 72.9148L402.371 49.9912L403.026 50.1952L395.135 74.1385C395.053 74.3016 394.931 74.3832 394.808 74.3832Z" fill="#9D9EB3"/>
<path d="M415.699 42.9346C415.699 42.0373 415.617 41.1807 415.495 40.2833C415.372 39.2228 415.209 38.2439 415.004 37.3465C414.268 34.5321 412.96 31.9623 411.284 29.7189C405.07 22.8255 394.726 24.9058 394.726 24.9058C394.726 24.9058 384.383 22.8255 378.209 29.7189C376.492 31.9623 375.225 34.5321 374.448 37.3465C374.244 38.2439 374.08 39.2228 373.957 40.2833C373.835 41.1399 373.753 42.0373 373.753 42.9346C373.753 45.3412 374.285 47.8701 377.637 49.3386C381.439 52.153 387.653 53.9885 394.726 53.9885C401.799 53.9885 408.013 52.153 411.815 49.3386C415.004 48.0741 415.699 45.3004 415.699 42.9346Z" fill="url(#paint10_radial)"/>
<path d="M388.062 53.4175C390.924 55.9056 398.487 56.028 401.39 53.4175C401.308 37.5912 398.324 24.9058 394.726 24.9058C391.088 24.9058 388.144 37.5912 388.062 53.4175Z" fill="url(#paint11_radial)"/>
<path d="M398.569 21.8874C397.343 21.6426 396.034 21.5203 394.726 21.5203C393.418 21.5203 392.15 21.6426 390.883 21.8874C393.173 23.315 394.726 24.9058 394.726 24.9058C394.726 24.9058 396.28 23.315 398.569 21.8874Z" fill="url(#paint12_radial)"/>
<path d="M394.726 24.9058C385.446 24.9058 377.923 35.7965 377.637 49.3385C377.637 53.2543 385.241 54.8451 388.062 53.4175C388.144 37.5912 391.088 24.9058 394.726 24.9058Z" fill="url(#paint13_radial)"/>
<path d="M394.726 24.9058C398.365 24.9058 401.308 37.5912 401.39 53.4175C403.802 54.8451 411.529 53.2543 411.815 49.3385C411.529 35.7557 404.007 24.9058 394.726 24.9058Z" fill="url(#paint14_radial)"/>
<path d="M378.209 29.7189C384.383 22.8255 394.726 24.9057 394.726 24.9057C394.726 24.9057 393.173 23.3557 390.883 21.8873C385.773 22.8663 381.316 25.7215 378.209 29.7189Z" fill="url(#paint15_radial)"/>
<path d="M411.243 29.7189C408.177 25.6807 403.68 22.8255 398.569 21.8873C396.28 23.315 394.726 24.9057 394.726 24.9057C394.726 24.9057 405.07 22.8255 411.243 29.7189Z" fill="url(#paint16_radial)"/>
<path d="M472.231 70.2127C471.822 70.1311 471.332 69.6417 471.168 69.0298C471.005 68.4588 471.25 68.0509 471.659 68.0917C472.068 68.1733 472.558 68.6627 472.722 69.2746C472.885 69.8456 472.64 70.2535 472.231 70.2127Z" fill="#603913"/>
<path d="M472.109 69.6008C471.986 69.6008 471.904 69.56 471.822 69.4376L455.551 45.5351L456.123 45.1272L472.068 68.6218L488.012 45.1272L488.585 45.5351L472.354 69.4784C472.313 69.56 472.19 69.6008 472.109 69.6008Z" fill="#9D9EB3"/>
<path d="M472.109 69.6008C471.945 69.6008 471.823 69.5193 471.782 69.3561L463.85 45.4536L464.504 45.2497L472.109 68.1324L479.672 45.2089L480.326 45.4128L472.436 69.3561C472.354 69.5193 472.231 69.6008 472.109 69.6008Z" fill="#9D9EB3"/>
<path d="M493 38.1523C493 37.2549 492.918 36.3984 492.796 35.501C492.673 34.4405 492.509 33.4615 492.305 32.5642C491.569 29.7497 490.261 27.18 488.585 24.9366C482.37 18.0432 472.027 20.1234 472.027 20.1234C472.027 20.1234 461.683 18.0432 455.51 24.9366C453.793 27.18 452.526 29.7497 451.749 32.5642C451.544 33.4615 451.381 34.4405 451.258 35.501C451.136 36.3576 451.054 37.2549 451.054 38.1523C451.054 40.5589 451.585 43.0878 454.938 44.5562C458.74 47.3707 464.954 49.2062 472.027 49.2062C479.1 49.2062 485.314 47.3707 489.116 44.5562C492.305 43.2917 493 40.5181 493 38.1523Z" fill="url(#paint17_radial)"/>
<path d="M465.363 48.6351C468.225 51.1233 475.788 51.2456 478.691 48.6351C478.609 32.8089 475.625 20.1234 472.027 20.1234C468.388 20.1234 465.445 32.8089 465.363 48.6351Z" fill="url(#paint18_radial)"/>
<path d="M475.87 17.105C474.643 16.8603 473.335 16.7379 472.027 16.7379C470.719 16.7379 469.451 16.8603 468.184 17.105C470.473 18.5326 472.027 20.1234 472.027 20.1234C472.027 20.1234 473.58 18.5326 475.87 17.105Z" fill="url(#paint19_radial)"/>
<path d="M472.027 20.1234C462.746 20.1234 455.224 31.0142 454.938 44.5562C454.938 48.472 462.542 50.0627 465.363 48.6351C465.445 32.8089 468.388 20.1234 472.027 20.1234Z" fill="url(#paint20_radial)"/>
<path d="M472.027 20.1234C475.666 20.1234 478.609 32.8089 478.691 48.6351C481.103 50.0627 488.83 48.472 489.116 44.5562C488.83 30.9734 481.307 20.1234 472.027 20.1234Z" fill="url(#paint21_radial)"/>
<path d="M455.51 24.9365C461.683 18.0431 472.027 20.1234 472.027 20.1234C472.027 20.1234 470.473 18.5734 468.184 17.105C463.073 18.0839 458.617 20.9392 455.51 24.9365Z" fill="url(#paint22_radial)"/>
<path d="M488.544 24.9365C485.478 20.8984 480.98 18.0431 475.87 17.105C473.58 18.5326 472.027 20.1234 472.027 20.1234C472.027 20.1234 482.37 18.0431 488.544 24.9365Z" fill="url(#paint23_radial)"/>
<path d="M292.925 128.397C292.517 128.315 292.026 127.826 291.863 127.214C291.699 126.643 291.944 126.235 292.353 126.276C292.762 126.357 293.253 126.847 293.416 127.459C293.58 128.03 293.334 128.438 292.925 128.397Z" fill="#603913"/>
<path d="M292.803 127.785C292.68 127.785 292.598 127.744 292.517 127.622L276.245 103.719L276.817 103.312L292.762 126.806L308.706 103.312L309.279 103.719L293.048 127.663C293.007 127.744 292.885 127.785 292.803 127.785Z" fill="#9D9EB3"/>
<path d="M292.803 127.785C292.639 127.785 292.517 127.703 292.476 127.54L284.545 103.638L285.199 103.434L292.803 126.317L300.366 103.393L301.02 103.597L293.13 127.54C293.048 127.703 292.926 127.785 292.803 127.785Z" fill="#9D9EB3"/>
<path d="M313.694 96.3365C313.694 95.4391 313.612 94.5826 313.49 93.6852C313.367 92.6247 313.204 91.6457 312.999 90.7484C312.263 87.9339 310.955 85.3642 309.279 83.1208C303.065 76.2274 292.721 78.3076 292.721 78.3076C292.721 78.3076 282.378 76.2274 276.204 83.1208C274.487 85.3642 273.22 87.9339 272.443 90.7484C272.239 91.6457 272.075 92.6247 271.952 93.6852C271.83 94.5418 271.748 95.4391 271.748 96.3365C271.748 98.7431 272.279 101.272 275.632 102.74C279.434 105.555 285.648 107.39 292.721 107.39C299.794 107.39 306.008 105.555 309.81 102.74C312.999 101.476 313.694 98.7023 313.694 96.3365Z" fill="url(#paint24_radial)"/>
<path d="M286.057 106.819C288.919 109.307 296.482 109.43 299.385 106.819C299.303 90.9931 296.319 78.3076 292.721 78.3076C289.082 78.3076 286.139 90.9931 286.057 106.819Z" fill="url(#paint25_radial)"/>
<path d="M296.564 75.2892C295.338 75.0445 294.029 74.9221 292.721 74.9221C291.413 74.9221 290.145 75.0445 288.878 75.2892C291.167 76.7169 292.721 78.3076 292.721 78.3076C292.721 78.3076 294.275 76.7169 296.564 75.2892Z" fill="url(#paint26_radial)"/>
<path d="M292.721 78.3076C283.441 78.3076 275.918 89.1984 275.632 102.74C275.632 106.656 283.236 108.247 286.057 106.819C286.139 90.9931 289.082 78.3076 292.721 78.3076Z" fill="url(#paint27_radial)"/>
<path d="M292.721 78.3076C296.36 78.3076 299.303 90.9931 299.385 106.819C301.797 108.247 309.524 106.656 309.81 102.74C309.524 89.1576 302.002 78.3076 292.721 78.3076Z" fill="url(#paint28_radial)"/>
<path d="M276.204 83.1207C282.378 76.2273 292.721 78.3076 292.721 78.3076C292.721 78.3076 291.168 76.7576 288.878 75.2892C283.768 76.2681 279.311 79.1234 276.204 83.1207Z" fill="url(#paint29_radial)"/>
<path d="M309.238 83.1207C306.172 79.0826 301.675 76.2273 296.564 75.2892C294.275 76.7168 292.721 78.3076 292.721 78.3076C292.721 78.3076 303.065 76.2273 309.238 83.1207Z" fill="url(#paint30_radial)"/>
<path d="M276.079 264.995L301.668 265.98L298.538 285.372L298.047 291.835L297.802 295.036L291.175 299.469L285.652 299.099L281.54 295.714V290.912L277.367 283.217L276.079 271.09V264.995Z" fill="#E5E5E5"/>
<path d="M262.391 518.772C264.107 517.056 265.6 515.041 266.869 512.951C271.645 505.04 273.66 495.712 275.824 495.189C275.899 495.189 275.973 495.189 276.048 495.189C276.944 495.189 277.541 498.1 276.57 506.608C276.123 510.414 276.123 514.444 276.048 518.325H274.929L274.63 507.13C274.63 507.13 273.063 507.727 272.764 514.668C272.69 516.683 272.764 518.25 271.869 518.996C270.376 520.116 266.421 519.817 262.913 519.743C262.316 519.668 262.018 519.145 262.391 518.772Z" fill="#080E32"/>
<path d="M266.868 512.877C271.645 504.966 273.66 495.637 275.824 495.115L276.123 489.741L280.153 446.53C280.302 445.336 280.227 444.068 280.078 442.874L278.287 429.216H265.45L268.063 489.965C268.286 498.1 268.286 505.264 266.868 512.877ZM267.913 484.069C267.913 485.114 267.988 486.159 267.988 487.204C267.988 486.159 267.988 485.114 267.913 484.069Z" fill="#E5E5E5"/>
<path d="M299.258 510.712C299.78 508.399 299.183 505.115 299.109 503.249C299.109 503.025 299.109 502.876 299.109 502.652C299.109 501.458 299.407 499.966 299.78 498.622C300.303 496.458 301.646 494.592 303.139 494.592C303.736 494.592 305.378 494.219 305.9 498.1C306.049 499.294 306.124 500.861 306.049 502.951C305.601 512.354 307.84 519.593 305.601 520.489C303.288 521.459 298.512 521.384 297.168 520.489C296.497 518.698 298.437 514.369 299.258 510.712Z" fill="#080E32"/>
<path d="M302.392 429.142L305.228 443.321C305.452 444.366 305.527 445.411 305.527 446.456L305.751 488.846L305.825 498.1C305.228 494.294 303.586 494.592 303.064 494.592C301.571 494.592 300.228 496.458 299.706 498.622C299.407 499.966 299.109 501.384 299.034 502.652L297.765 490.338L288.66 429.216H302.392V429.142Z" fill="#E5E5E5"/>
<path d="M286.552 361.975L258.603 367.803L256.256 382.894L261.824 434.366H308.497L304.457 387.373L305.385 383.508L301.073 369.705L286.552 361.975Z" fill="#080E32"/>
<path d="M302.493 357.691V344.064V325.406L310.363 303.39L299.619 294.674L280.689 294.061L262.031 303.011L264.526 332.251L260.458 357.874L254.763 382.456L272.282 388.095L287.795 387.176L286.276 372.893L289.964 387.176L298.317 387.666L307.917 385.459L302.493 357.691Z" fill="#08153F"/>
<path d="M264.008 303.017L256.256 339.706L261.901 362.721L271.928 349.352L268.179 326.032L264.008 303.017Z" fill="#08153F"/>
<path d="M298.267 291.822H284.998L279.038 282.581L278.424 276.359L276.52 273.094L275.66 270.26L276.274 265.023C276.274 265.023 281.127 255.782 292.308 256.829C304.042 257.938 306.376 271.8 306.253 275.065C305.885 285.538 298.267 291.822 298.267 291.822Z" fill="#050D21"/>
<path d="M303.06 280.077C307.499 280.077 311.098 276.467 311.098 272.013C311.098 267.559 307.499 263.949 303.06 263.949C298.62 263.949 295.021 267.559 295.021 272.013C295.021 276.467 298.62 280.077 303.06 280.077Z" fill="#050D21"/>
<path d="M299.518 349.517C299.817 347.726 300.862 346.159 302.354 345.114C304.966 343.323 307.354 341.308 309.743 339.293C312.355 337.054 314.892 334.741 317.728 332.427C317.803 332.427 317.803 332.352 317.877 332.352C318.25 332.054 318.698 331.681 319.071 331.382L308.922 321.083L302.653 315.486L308.922 302.644C308.922 302.644 331.087 328.994 330.49 332.054C328.773 335.114 327.579 337.203 318.773 341.681L318.4 341.606C313.623 343.995 308.474 346.084 304.668 349.293C304.966 350.338 306.086 354.592 306.757 357.503C306.981 357.95 307.205 364.369 307.28 365.264C307.354 365.563 307.28 366.01 307.13 366.309C307.056 366.458 306.907 366.533 306.757 366.608L306.832 366.757C306.832 366.906 306.832 367.055 306.832 367.205C306.832 367.428 306.757 367.727 306.683 367.876C306.533 368.1 306.31 368.249 306.16 368.249C306.011 368.249 305.862 368.175 305.787 367.951C305.638 368.1 305.489 368.175 305.339 368.175C305.115 368.175 304.817 367.951 304.518 367.503C304.518 367.428 304.444 367.354 304.444 367.279C304.22 367.205 304.071 367.13 303.847 366.981C303.772 366.906 303.698 366.831 303.623 366.682C303.623 366.608 303.548 366.608 303.548 366.533C303.548 366.458 303.474 366.384 303.474 366.384C303.324 365.936 303.25 365.488 303.1 365.04C302.877 364.145 302.727 363.175 302.503 362.279L302.429 361.906C302.429 361.831 302.429 361.831 302.429 361.757C302.429 361.757 302.429 361.682 302.354 361.607C302.28 361.383 302.205 361.16 302.13 360.936C301.981 360.488 301.832 360.04 301.683 359.592C301.533 359.145 301.384 358.697 301.16 358.324C301.085 358.174 300.936 357.727 300.862 357.577C300.787 358.547 301.011 359.965 300.712 360.712C300.638 360.861 300.041 361.234 299.891 361.309C299.742 361.383 298.623 354.294 298.623 354.294L299.518 349.517Z" fill="#E5E5E5"/>
<path d="M302.526 343.317L308.87 349.661L325.289 339.212C332.453 334.138 331.508 330.63 330.14 329.511L319.318 313.838L313.721 306.002L308.124 301.524L302.526 315.704L316.333 329.511L302.526 343.317Z" fill="#08153F"/>
<path d="M216.455 279.216L234.067 293.694C234.067 293.694 262.651 298.918 262.874 298.993C266.158 299.59 268.397 302.053 267.875 305.336C267.427 308.62 264.292 310.71 260.934 310.113L231.828 302.65C229.589 302.053 230.261 303.097 228.769 301.306C223.843 295.261 212.499 281.305 211.977 281.007C210.559 280.261 207.872 277.499 207.275 276.529C205.932 274.589 210.41 269.439 210.41 269.439C210.41 269.439 206.23 264.215 207.126 263.469C207.424 263.245 212.872 269.588 212.872 269.588L216.455 279.216Z" fill="#E5E5E5"/>
<path d="M214.463 284.812L219.519 279.882L236.027 293.923L269.352 299.638H273.95C274.311 300.107 270.436 302.351 270.436 303.478C270.436 304.605 269.713 306.765 269.352 307.704L262.002 317.301L232.88 304.535L229.762 303.478C229.762 303.478 219.278 290.33 214.463 284.812Z" fill="#08153F"/>
<defs>
<radialGradient id="paint0_radial" cx="0" cy="0" r="1" gradientUnits="userSpaceOnUse" gradientTransform="translate(218.753 506.123) scale(218.753 1416.66)">
<stop stop-color="#ECECEC"/>
<stop offset="1" stop-color="#B1B4C7" stop-opacity="0"/>
</radialGradient>
<linearGradient id="paint1_linear" x1="165.698" y1="355.831" x2="263.472" y2="355.831" gradientUnits="userSpaceOnUse">
<stop offset="0.060606" stop-color="#D2D4DF" stop-opacity="0.939394"/>
<stop offset="1" stop-color="#D2D4DF" stop-opacity="0"/>
</linearGradient>
<linearGradient id="paint2_linear" x1="165.698" y1="363.323" x2="263.472" y2="363.323" gradientUnits="userSpaceOnUse">
<stop offset="0.060606" stop-color="#D2D4DF" stop-opacity="0.939394"/>
<stop offset="1" stop-color="#D2D4DF" stop-opacity="0"/>
</linearGradient>
<linearGradient id="paint3_linear" x1="165.692" y1="370.815" x2="234.142" y2="370.815" gradientUnits="userSpaceOnUse">
<stop offset="0.060606" stop-color="#D2D4DF" stop-opacity="0.939394"/>
<stop offset="1" stop-color="#D2D4DF" stop-opacity="0"/>
</linearGradient>
<linearGradient id="paint4_linear" x1="165.698" y1="400.705" x2="263.472" y2="400.705" gradientUnits="userSpaceOnUse">
<stop offset="0.060606" stop-color="#D2D4DF" stop-opacity="0.939394"/>
<stop offset="1" stop-color="#D2D4DF" stop-opacity="0"/>
</linearGradient>
<linearGradient id="paint5_linear" x1="165.698" y1="408.197" x2="263.472" y2="408.197" gradientUnits="userSpaceOnUse">
<stop offset="0.060606" stop-color="#D2D4DF" stop-opacity="0.939394"/>
<stop offset="1" stop-color="#D2D4DF" stop-opacity="0"/>
</linearGradient>
<linearGradient id="paint6_linear" x1="165.692" y1="415.689" x2="234.142" y2="415.689" gradientUnits="userSpaceOnUse">
<stop offset="0.060606" stop-color="#D2D4DF" stop-opacity="0.939394"/>
<stop offset="1" stop-color="#D2D4DF" stop-opacity="0"/>
</linearGradient>
<linearGradient id="paint7_linear" x1="165.698" y1="447.273" x2="263.472" y2="447.273" gradientUnits="userSpaceOnUse">
<stop stop-color="#E5E5E5"/>
<stop offset="1" stop-color="#E5E5E5" stop-opacity="0"/>
</linearGradient>
<linearGradient id="paint8_linear" x1="165.698" y1="454.744" x2="263.472" y2="454.744" gradientUnits="userSpaceOnUse">
<stop offset="0.060606" stop-color="#D2D4DF" stop-opacity="0.939394"/>
<stop offset="1" stop-color="#D2D4DF" stop-opacity="0"/>
</linearGradient>
<linearGradient id="paint9_linear" x1="165.692" y1="462.236" x2="234.142" y2="462.236" gradientUnits="userSpaceOnUse">
<stop stop-color="#555A78" stop-opacity="0.54"/>
<stop offset="1" stop-color="#555A78" stop-opacity="0"/>
</linearGradient>
<radialGradient id="paint10_radial" cx="0" cy="0" r="1" gradientUnits="userSpaceOnUse" gradientTransform="translate(390.921 27.6268) scale(34.5006 34.4213)">
<stop stop-color="#EEEBF2"/>
<stop offset="0.5808" stop-color="#D4D1D8"/>
<stop offset="0.9392" stop-color="#A5A6B9"/>
<stop offset="1" stop-color="#9D9EB3"/>
</radialGradient>
<radialGradient id="paint11_radial" cx="0" cy="0" r="1" gradientUnits="userSpaceOnUse" gradientTransform="translate(390.922 27.6271) scale(34.5013 34.4219)">
<stop stop-color="#EEEBF2"/>
<stop offset="0.5808" stop-color="#D4D1D8"/>
<stop offset="0.9392" stop-color="#A5A6B9"/>
<stop offset="1" stop-color="#9D9EB3"/>
</radialGradient>
<radialGradient id="paint12_radial" cx="0" cy="0" r="1" gradientUnits="userSpaceOnUse" gradientTransform="translate(390.921 27.6279) scale(34.5003 34.421)">
<stop stop-color="#EEEBF2"/>
<stop offset="0.5808" stop-color="#D4D1D8"/>
<stop offset="0.9392" stop-color="#A5A6B9"/>
<stop offset="1" stop-color="#9D9EB3"/>
</radialGradient>
<radialGradient id="paint13_radial" cx="0" cy="0" r="1" gradientUnits="userSpaceOnUse" gradientTransform="translate(375.713 28.488) scale(31.255 31.1832)">
<stop stop-color="#A83617"/>
<stop offset="1" stop-color="#A83617" stop-opacity="0.79"/>
</radialGradient>
<radialGradient id="paint14_radial" cx="0" cy="0" r="1" gradientUnits="userSpaceOnUse" gradientTransform="translate(392.803 28.488) scale(31.255 31.1832)">
<stop stop-color="#A83617"/>
<stop offset="1" stop-color="#A83617" stop-opacity="0.79"/>
</radialGradient>
<radialGradient id="paint15_radial" cx="0" cy="0" r="1" gradientUnits="userSpaceOnUse" gradientTransform="translate(376.35 22.8538) scale(30.2082 8.41309)">
<stop stop-color="#A83617"/>
<stop offset="1" stop-color="#A83617" stop-opacity="0.79"/>
</radialGradient>
<radialGradient id="paint16_radial" cx="0" cy="0" r="1" gradientUnits="userSpaceOnUse" gradientTransform="translate(392.867 22.8538) scale(30.2082 8.41309)">
<stop stop-color="#A83617"/>
<stop offset="1" stop-color="#A83617" stop-opacity="0.79"/>
</radialGradient>
<radialGradient id="paint17_radial" cx="0" cy="0" r="1" gradientUnits="userSpaceOnUse" gradientTransform="translate(468.222 22.8444) scale(34.5006 34.4213)">
<stop stop-color="#EEEBF2"/>
<stop offset="0.5808" stop-color="#D4D1D8"/>
<stop offset="0.9392" stop-color="#A5A6B9"/>
<stop offset="1" stop-color="#9D9EB3"/>
</radialGradient>
<radialGradient id="paint18_radial" cx="0" cy="0" r="1" gradientUnits="userSpaceOnUse" gradientTransform="translate(468.223 22.8448) scale(34.5011 34.4219)">
<stop stop-color="#EEEBF2"/>
<stop offset="0.5808" stop-color="#D4D1D8"/>
<stop offset="0.9392" stop-color="#A5A6B9"/>
<stop offset="1" stop-color="#9D9EB3"/>
</radialGradient>
<radialGradient id="paint19_radial" cx="0" cy="0" r="1" gradientUnits="userSpaceOnUse" gradientTransform="translate(468.222 22.8455) scale(34.5004 34.421)">
<stop stop-color="#EEEBF2"/>
<stop offset="0.5808" stop-color="#D4D1D8"/>
<stop offset="0.9392" stop-color="#A5A6B9"/>
<stop offset="1" stop-color="#9D9EB3"/>
</radialGradient>
<radialGradient id="paint20_radial" cx="0" cy="0" r="1" gradientUnits="userSpaceOnUse" gradientTransform="translate(452.948 44.5864) scale(32.3373 115.578)">
<stop stop-color="#D7ECFA"/>
<stop offset="1" stop-color="#D7ECFA" stop-opacity="0"/>
</radialGradient>
<radialGradient id="paint21_radial" cx="0" cy="0" r="1" gradientUnits="userSpaceOnUse" gradientTransform="translate(470.037 44.5864) scale(32.3373 115.578)">
<stop stop-color="#D7ECFA"/>
<stop offset="1" stop-color="#D7ECFA" stop-opacity="0"/>
</radialGradient>
<radialGradient id="paint22_radial" cx="0" cy="0" r="1" gradientUnits="userSpaceOnUse" gradientTransform="translate(453.587 23.705) scale(31.2542 31.1823)">
<stop stop-color="#D7ECFA"/>
<stop offset="1" stop-color="#D7ECFA" stop-opacity="0"/>
</radialGradient>
<radialGradient id="paint23_radial" cx="0" cy="0" r="1" gradientUnits="userSpaceOnUse" gradientTransform="translate(470.104 23.705) scale(31.2543 31.1823)">
<stop stop-color="#D7ECFA"/>
<stop offset="1" stop-color="#D7ECFA" stop-opacity="0"/>
</radialGradient>
<radialGradient id="paint24_radial" cx="0" cy="0" r="1" gradientUnits="userSpaceOnUse" gradientTransform="translate(288.916 81.0286) scale(34.5006 34.4213)">
<stop stop-color="#EEEBF2"/>
<stop offset="0.5808" stop-color="#D4D1D8"/>
<stop offset="0.9392" stop-color="#A5A6B9"/>
<stop offset="1" stop-color="#9D9EB3"/>
</radialGradient>
<radialGradient id="paint25_radial" cx="0" cy="0" r="1" gradientUnits="userSpaceOnUse" gradientTransform="translate(288.917 81.029) scale(34.5011 34.4219)">
<stop stop-color="#EEEBF2"/>
<stop offset="0.5808" stop-color="#D4D1D8"/>
<stop offset="0.9392" stop-color="#A5A6B9"/>
<stop offset="1" stop-color="#9D9EB3"/>
</radialGradient>
<radialGradient id="paint26_radial" cx="0" cy="0" r="1" gradientUnits="userSpaceOnUse" gradientTransform="translate(288.916 81.0298) scale(34.5003 34.4212)">
<stop stop-color="#EEEBF2"/>
<stop offset="0.5808" stop-color="#D4D1D8"/>
<stop offset="0.9392" stop-color="#A5A6B9"/>
<stop offset="1" stop-color="#9D9EB3"/>
</radialGradient>
<radialGradient id="paint27_radial" cx="0" cy="0" r="1" gradientUnits="userSpaceOnUse" gradientTransform="translate(273.642 102.771) scale(32.3373 115.578)">
<stop stop-color="#F4DEDA"/>
<stop offset="1" stop-color="#A83617"/>
</radialGradient>
<radialGradient id="paint28_radial" cx="0" cy="0" r="1" gradientUnits="userSpaceOnUse" gradientTransform="translate(290.731 102.771) scale(32.3373 115.578)">
<stop stop-color="#F4DEDA"/>
<stop offset="1" stop-color="#A83617"/>
</radialGradient>
<radialGradient id="paint29_radial" cx="0" cy="0" r="1" gradientUnits="userSpaceOnUse" gradientTransform="translate(274.281 81.8892) scale(31.2541 31.1823)">
<stop stop-color="#F4DEDA"/>
<stop offset="1" stop-color="#A83617"/>
</radialGradient>
<radialGradient id="paint30_radial" cx="0" cy="0" r="1" gradientUnits="userSpaceOnUse" gradientTransform="translate(290.798 81.8892) scale(31.2542 31.1823)">
<stop stop-color="#F4DEDA"/>
<stop offset="1" stop-color="#A83617"/>
</radialGradient>
</defs>
</svg>
