<svg width="570" height="471" viewBox="0 0 570 471" fill="none" xmlns="http://www.w3.org/2000/svg">
<path d="M484.845 153.006V157.809L478.346 157.884L478.32 158.883L484.732 159.289L482.308 170.37L462.568 172.108L402.931 171.111L403.999 163.8H413.148L413.187 162.802L404.453 162.111L404.089 152.955C417.755 153.84 433.563 153.557 446.007 153.05C452.316 152.793 457.763 152.478 461.634 152.227C463.569 152.102 465.11 151.993 466.168 151.915C466.697 151.876 467.105 151.844 467.381 151.823C467.519 151.812 467.624 151.804 467.694 151.798L467.763 151.793L484.845 153.006Z" fill="#D7ECFA" stroke="#E5E5E5"/>
<path opacity="0.36" d="M485.305 152.581V158.343L478.311 158.424L485.305 158.908L482.677 170.876L462.586 172.649L467.76 151.291L485.305 152.581Z" fill="#D7ECFA"/>
<path opacity="0.36" d="M465.941 159.552L449.772 160.882L465.335 161.164L472.288 160.64L465.941 159.552Z" fill="#CCCCCC"/>
<path opacity="0.36" d="M473.945 167.451L432.511 167.813L463.678 168.095L473.945 167.451Z" fill="#CCCCCC"/>
<path opacity="0.36" d="M403.688 156.449L428.509 156.731H403.688V156.449Z" fill="#CCCCCC"/>
<path opacity="0.36" d="M484.092 164.428L475.886 164.791L484.092 165.033V164.428Z" fill="#CCCCCC"/>
<path opacity="0.36" d="M402.637 169.627L426.487 170.03L402.556 170.07L402.637 169.627Z" fill="#D7ECFA"/>
<path d="M122.052 149.827H128.668L129.528 171.63L85.4953 174.347L71.0285 169.664L69.127 137.506L73.9014 136.347L73.8094 135.362L69.1032 135.117V120.205L81.5931 116.811C81.6405 116.825 81.6997 116.842 81.7706 116.862C81.9766 116.922 82.2804 117.007 82.6739 117.115C83.4609 117.329 84.6064 117.63 86.0443 117.975C88.9197 118.664 92.966 119.53 97.6524 120.238C106.823 121.623 118.494 122.409 128.642 120.04L128.354 146.919L121.909 148.848L122.052 149.827Z" fill="#D7ECFA" stroke="#E5E5E5"/>
<path opacity="0.36" d="M68.6032 119.822V135.592L73.7835 135.861L68.6032 137.118L70.5496 170.035L85.4315 174.852L81.5987 116.291L68.6032 119.822Z" fill="#D7ECFA"/>
<path opacity="0.36" d="M82.9761 138.974L94.9236 142.534L83.3953 143.402L78.2451 141.966L82.9761 138.974Z" fill="#CCCCCC"/>
<path opacity="0.36" d="M77.0174 160.579L107.739 161.596L84.623 162.404L77.0174 160.579Z" fill="#CCCCCC"/>
<path opacity="0.36" d="M129.059 130.385L110.704 131.253H129.059V130.385Z" fill="#CCCCCC"/>
<path opacity="0.36" d="M69.5015 152.32L75.58 153.337L69.5015 153.965V152.32Z" fill="#CCCCCC"/>
<path opacity="0.36" d="M129.868 166.563L112.171 167.701L129.898 167.82L129.868 166.563Z" fill="#CCCCCC"/>
<path opacity="0.36" d="M423.446 394.929C461.677 394.929 492.67 391.859 492.67 388.071C492.67 384.283 461.677 381.212 423.446 381.212C385.215 381.212 354.223 384.283 354.223 388.071C354.223 391.859 385.215 394.929 423.446 394.929Z" fill="#040F26"/>
<path opacity="0.2" d="M441.726 297.142C434.357 295.111 428.767 288.847 428.259 281.229C428.259 280.891 428.259 280.468 428.259 280.129C428.259 280.044 428.259 279.875 428.259 279.79C428.259 279.706 428.259 279.536 428.259 279.452C428.259 279.113 428.259 278.69 428.259 278.351C428.683 270.734 434.272 264.47 441.726 262.438C469.506 254.736 489.917 229.258 489.917 199.04C489.917 194.978 489.578 190.999 488.816 187.106C488.732 186.429 488.562 185.836 488.393 185.159C488.308 184.651 488.223 184.228 488.054 183.72V183.635C487.969 183.381 487.969 183.127 487.885 182.874C487.8 182.366 487.631 181.942 487.546 181.435C487.376 180.757 487.122 179.996 486.953 179.319H484.666C484.751 179.572 484.836 179.742 484.92 179.996C484.92 180.08 484.92 180.08 485.005 180.08C485.09 180.504 485.259 180.842 485.344 181.265C485.428 181.519 485.513 181.773 485.598 182.027C485.683 182.45 485.852 182.874 485.937 183.297C486.021 183.551 486.106 183.805 486.106 184.059C486.191 184.482 486.275 184.905 486.36 185.328C486.36 185.498 486.445 185.582 486.445 185.751C486.445 185.836 486.445 185.836 486.445 185.921C486.529 186.429 486.614 186.852 486.699 187.36C487.376 191.084 487.715 194.978 487.715 198.871C487.715 227.396 468.574 252.535 441.048 260.153C432.579 262.523 426.565 269.633 426.057 278.013C426.057 278.436 426.057 278.859 426.057 279.198C426.057 279.283 426.057 279.452 426.057 279.536C426.057 279.621 426.057 279.79 426.057 279.875C426.057 280.298 426.057 280.721 426.057 281.06C426.565 289.44 432.579 296.634 441.048 298.92C468.489 306.538 487.715 331.761 487.715 360.202C487.715 364.095 487.376 367.989 486.699 371.713C485.767 377.046 484.073 382.209 481.787 387.203H366.516C364.229 382.294 362.535 377.046 361.604 371.713C360.926 367.989 360.587 364.095 360.587 360.202C360.587 331.677 379.729 306.538 407.255 298.92C415.724 296.55 421.738 289.44 422.246 281.06C422.246 280.637 422.246 280.214 422.246 279.875C422.246 279.79 422.246 279.621 422.246 279.536C422.246 279.452 422.246 279.283 422.246 279.198C422.246 278.775 422.246 278.351 422.246 278.013C421.738 269.633 415.724 262.523 407.255 260.153C379.813 252.535 360.587 227.311 360.587 198.871C360.587 194.978 360.926 191.084 361.604 187.36C361.688 186.683 361.858 186.005 362.027 185.328C362.027 185.328 362.027 185.328 362.027 185.244C362.197 184.566 362.281 183.974 362.451 183.297V183.212C362.535 182.704 362.705 182.196 362.874 181.773C362.874 181.689 362.874 181.689 362.874 181.689C362.959 181.519 362.959 181.265 363.044 181.096C363.128 180.757 363.213 180.419 363.382 180.08C363.382 180.08 363.382 179.996 363.467 179.996C363.552 179.742 363.636 179.572 363.721 179.319H361.519C361.265 179.996 361.096 180.757 360.926 181.435C360.757 181.858 360.672 182.366 360.587 182.874C360.503 183.127 360.503 183.381 360.418 183.635V183.72C360.333 184.228 360.164 184.651 360.079 185.159C359.91 185.836 359.825 186.429 359.656 187.106C358.894 190.999 358.555 194.978 358.555 199.04C358.555 229.258 378.966 254.736 406.746 262.438C414.115 264.47 419.705 270.734 420.213 278.351C420.213 278.69 420.213 279.113 420.213 279.452C420.213 279.536 420.213 279.706 420.213 279.79C420.213 279.875 420.213 280.044 420.213 280.129C420.213 280.468 420.213 280.891 420.213 281.229C419.79 288.847 414.115 295.111 406.746 297.142C378.966 304.845 358.555 330.323 358.555 360.54C358.555 364.603 358.894 368.581 359.656 372.475C360.757 378.569 362.705 384.325 365.33 389.658H483.311C485.937 384.325 487.885 378.569 488.986 372.475C489.748 368.581 490.087 364.603 490.087 360.54C489.917 330.238 469.506 304.845 441.726 297.142Z" fill="#389FE5"/>
<path d="M487.8 360.456C487.8 364.349 487.461 368.243 486.784 371.967C485.852 377.3 484.158 382.463 481.871 387.457H366.516C364.229 382.548 362.535 377.3 361.604 371.967C360.926 368.243 360.587 364.349 360.587 360.456C360.587 331.931 379.729 306.792 407.255 299.174C415.724 296.804 421.738 289.694 422.246 281.314C422.246 280.891 422.246 280.468 422.246 280.129C422.246 280.044 422.246 279.875 422.246 279.79C422.246 279.706 422.246 279.536 422.246 279.452C422.246 279.029 422.246 278.605 422.246 278.267C421.738 269.887 415.724 262.777 407.255 260.407C379.813 252.789 360.587 227.565 360.587 199.125C360.587 195.232 360.926 191.338 361.604 187.614C361.688 186.936 361.858 186.259 362.027 185.582C362.027 185.582 362.027 185.582 362.027 185.498C362.197 184.82 362.281 184.228 362.451 183.551V183.466C362.62 182.958 362.705 182.366 362.874 181.858C363.044 181.35 363.213 180.758 363.382 180.25C363.467 179.996 363.552 179.742 363.636 179.488H484.751C484.836 179.742 484.92 179.996 485.005 180.25C485.09 180.673 485.259 181.011 485.344 181.435C485.428 181.689 485.513 181.943 485.598 182.196C485.683 182.62 485.852 183.043 485.937 183.466C486.021 183.72 486.106 183.974 486.106 184.228C486.191 184.651 486.275 185.074 486.36 185.498C486.36 185.667 486.445 185.921 486.445 186.09C486.53 186.598 486.614 187.021 486.699 187.529C487.376 191.253 487.715 195.147 487.715 199.041C487.715 227.565 468.574 252.704 441.048 260.322C432.579 262.692 426.565 269.802 426.057 278.182C426.057 278.605 426.057 279.029 426.057 279.367C426.057 279.452 426.057 279.621 426.057 279.706C426.057 279.79 426.057 279.96 426.057 280.044C426.057 280.468 426.057 280.891 426.057 281.229C426.565 289.609 432.579 296.804 441.048 299.089C468.574 306.792 487.8 332.015 487.8 360.456Z" fill="white"/>
<path opacity="0.5" d="M487.8 360.456C487.8 364.349 487.461 368.243 486.784 371.967C485.852 377.3 484.158 382.463 481.871 387.457H366.516C364.229 382.548 362.535 377.3 361.604 371.967C360.926 368.243 360.587 364.349 360.587 360.456C360.587 331.931 379.729 306.792 407.255 299.174C415.724 296.804 421.738 289.694 422.246 281.314C422.246 280.891 422.246 280.468 422.246 280.129C422.246 280.044 422.246 279.875 422.246 279.79C422.246 279.706 422.246 279.536 422.246 279.452C422.246 279.029 422.246 278.605 422.246 278.267C421.738 269.887 415.724 262.777 407.255 260.407C379.813 252.789 360.587 227.565 360.587 199.125C360.587 195.232 360.926 191.338 361.604 187.614C361.688 186.936 361.858 186.259 362.027 185.582C362.027 185.582 362.027 185.582 362.027 185.498C362.197 184.82 362.281 184.228 362.451 183.551V183.466C362.62 182.958 362.705 182.366 362.874 181.858C363.044 181.35 363.213 180.758 363.382 180.25C363.467 179.996 363.552 179.742 363.636 179.488H484.751C484.836 179.742 484.92 179.996 485.005 180.25C485.09 180.673 485.259 181.011 485.344 181.435C485.428 181.689 485.513 181.943 485.598 182.196C485.683 182.62 485.852 183.043 485.937 183.466C486.021 183.72 486.106 183.974 486.106 184.228C486.191 184.651 486.275 185.074 486.36 185.498C486.36 185.667 486.445 185.921 486.445 186.09C486.53 186.598 486.614 187.021 486.699 187.529C487.376 191.253 487.715 195.147 487.715 199.041C487.715 227.565 468.574 252.704 441.048 260.322C432.579 262.692 426.565 269.802 426.057 278.182C426.057 278.605 426.057 279.029 426.057 279.367C426.057 279.452 426.057 279.621 426.057 279.706C426.057 279.79 426.057 279.96 426.057 280.044C426.057 280.468 426.057 280.891 426.057 281.229C426.565 289.609 432.579 296.804 441.048 299.089C468.574 306.792 487.8 332.015 487.8 360.456Z" fill="#D7ECFA"/>
<path d="M371.683 236.538C371.683 236.538 381.677 252.958 405.815 260.576C411.998 262.354 414.03 263.708 417.587 267.009C421.145 270.31 422.33 276.066 422.246 280.552C422.161 284.107 424.194 335.57 424.194 342.003C424.194 348.013 424.956 343.612 424.787 342.257C425.379 305.776 426.142 279.029 426.142 279.029C426.142 279.029 428.344 267.602 431.732 265.993C435.119 264.385 447.316 258.714 452.397 257.36C457.479 256.006 469.506 244.917 469.506 244.917C469.506 244.917 484.92 222.995 485.852 220.201C486.784 217.408 478.907 217.154 478.907 217.154L371.683 236.538Z" fill="url(#paint0_linear)"/>
<path d="M429.649 237.652C461.904 232.594 487.205 223.103 486.161 216.453C485.117 209.803 458.123 208.512 425.868 213.569C393.614 218.627 368.313 228.118 369.357 234.768C370.401 241.418 397.394 242.709 429.649 237.652Z" fill="#F4DEDA"/>
<g opacity="0.5">
<g opacity="0.5">
<path opacity="0.5" d="M406.831 252.281C406.154 252.281 405.476 252.197 404.714 251.943C400.14 250.334 395.821 248.388 392.009 245.933C389.045 244.071 388.113 240.093 389.977 237.045C391.84 234.083 395.821 233.152 398.87 235.014C401.834 236.876 405.222 238.484 408.864 239.754C412.252 240.939 414.03 244.579 412.845 247.88C411.998 250.588 409.457 252.281 406.831 252.281Z" fill="white"/>
</g>
<g opacity="0.5">
<path opacity="0.5" d="M381.677 233.321C379.559 233.321 377.442 232.305 376.256 230.359C365.076 212.753 367.956 193.031 368.041 192.184C368.549 188.714 371.852 186.259 375.324 186.852C378.797 187.36 381.253 190.661 380.66 194.131C380.66 194.385 378.458 210.129 387.012 223.502C388.876 226.465 388.029 230.443 385.064 232.39C384.048 233.067 382.862 233.321 381.677 233.321Z" fill="white"/>
</g>
</g>
<g opacity="0.5">
<g opacity="0.5">
<path opacity="0.5" d="M406.831 306.538C406.154 306.538 405.476 306.622 404.714 306.876C400.14 308.485 395.821 310.431 392.009 312.886C389.045 314.748 388.113 318.726 389.977 321.774C391.84 324.736 395.821 325.667 398.87 323.805C401.834 321.943 405.222 320.335 408.864 319.065C412.252 317.88 414.03 314.24 412.845 310.939C411.998 308.231 409.457 306.538 406.831 306.538Z" fill="white"/>
</g>
<g opacity="0.5">
<path opacity="0.5" d="M381.677 325.498C379.559 325.498 377.442 326.514 376.256 328.46C365.076 346.066 367.956 365.788 368.041 366.635C368.549 370.105 371.852 372.56 375.324 371.967C378.797 371.459 381.253 368.158 380.66 364.688C380.66 364.434 378.458 348.69 387.012 335.317C388.876 332.354 388.029 328.376 385.064 326.429C384.048 325.836 382.862 325.498 381.677 325.498Z" fill="white"/>
</g>
</g>
<path d="M441.726 297.142C434.357 295.111 428.767 288.847 428.259 281.229C428.259 280.891 428.259 280.468 428.259 280.129C428.259 280.044 428.259 279.875 428.259 279.79C428.259 279.706 428.259 279.536 428.259 279.452C428.259 279.113 428.259 278.69 428.259 278.351C428.683 270.734 434.272 264.47 441.726 262.438C469.506 254.736 489.917 229.258 489.917 199.04C489.917 194.978 489.578 190.999 488.816 187.106C488.732 186.429 488.562 185.836 488.393 185.159C488.308 184.651 488.223 184.228 488.054 183.72V183.635C487.969 183.381 487.969 183.127 487.885 182.874C487.8 182.366 487.631 181.942 487.546 181.435C487.376 180.757 487.122 179.996 486.953 179.319H484.666C484.751 179.572 484.836 179.742 484.92 179.996C484.92 180.08 484.92 180.08 485.005 180.08C485.09 180.504 485.259 180.842 485.344 181.265C485.428 181.519 485.513 181.773 485.598 182.027C485.683 182.45 485.852 182.874 485.937 183.297C486.021 183.551 486.106 183.805 486.106 184.059C486.191 184.482 486.275 184.905 486.36 185.328C486.36 185.498 486.445 185.582 486.445 185.751C486.445 185.836 486.445 185.836 486.445 185.921C486.529 186.429 486.614 186.852 486.699 187.36C487.376 191.084 487.715 194.978 487.715 198.871C487.715 227.396 468.574 252.535 441.048 260.153C432.579 262.523 426.565 269.633 426.057 278.013C426.057 278.436 426.057 278.859 426.057 279.198C426.057 279.283 426.057 279.452 426.057 279.536C426.057 279.621 426.057 279.79 426.057 279.875C426.057 280.298 426.057 280.721 426.057 281.06C426.565 289.44 432.579 296.634 441.048 298.92C468.489 306.538 487.715 331.761 487.715 360.202C487.715 364.095 487.376 367.989 486.699 371.713C485.767 377.046 484.073 382.209 481.787 387.203H366.516C364.229 382.294 362.535 377.046 361.604 371.713C360.926 367.989 360.587 364.095 360.587 360.202C360.587 331.677 379.729 306.538 407.255 298.92C415.724 296.55 421.738 289.44 422.246 281.06C422.246 280.637 422.246 280.214 422.246 279.875C422.246 279.79 422.246 279.621 422.246 279.536C422.246 279.452 422.246 279.283 422.246 279.198C422.246 278.775 422.246 278.351 422.246 278.013C421.738 269.633 415.724 262.523 407.255 260.153C379.813 252.535 360.587 227.311 360.587 198.871C360.587 194.978 360.926 191.084 361.604 187.36C361.688 186.683 361.858 186.005 362.027 185.328C362.027 185.328 362.027 185.328 362.027 185.244C362.197 184.566 362.281 183.974 362.451 183.297V183.212C362.535 182.704 362.705 182.196 362.874 181.773C362.874 181.689 362.874 181.689 362.874 181.689C362.959 181.519 362.959 181.265 363.044 181.096C363.128 180.757 363.213 180.419 363.382 180.08C363.382 180.08 363.382 179.996 363.467 179.996C363.552 179.742 363.636 179.572 363.721 179.319H361.519C361.265 179.996 361.096 180.757 360.926 181.435C360.757 181.858 360.672 182.366 360.587 182.874C360.503 183.127 360.503 183.381 360.418 183.635V183.72C360.333 184.228 360.164 184.651 360.079 185.159C359.91 185.836 359.825 186.429 359.656 187.106C358.894 190.999 358.555 194.978 358.555 199.04C358.555 229.258 378.966 254.736 406.746 262.438C414.115 264.47 419.705 270.734 420.213 278.351C420.213 278.69 420.213 279.113 420.213 279.452C420.213 279.536 420.213 279.706 420.213 279.79C420.213 279.875 420.213 280.044 420.213 280.129C420.213 280.468 420.213 280.891 420.213 281.229C419.79 288.847 414.115 295.111 406.746 297.142C378.966 304.845 358.555 330.323 358.555 360.54C358.555 364.603 358.894 368.581 359.656 372.475C360.757 378.569 362.705 384.325 365.33 389.658H483.311C485.937 384.325 487.885 378.569 488.986 372.475C489.748 368.581 490.087 364.603 490.087 360.54C489.917 330.238 469.506 304.845 441.726 297.142Z" fill="#E5E5E5"/>
<path d="M496.411 386.201C496.411 389.702 493.944 392.435 490.953 392.435H357.187C354.121 392.435 351.729 389.617 351.729 386.201C351.729 382.699 354.196 379.967 357.187 379.967H490.953C493.944 379.881 496.411 382.699 496.411 386.201Z" fill="#040F26"/>
<path d="M474.503 218.932C474.587 219.44 473.317 220.032 471.708 220.455C470.014 220.794 468.659 220.709 468.489 220.201C468.405 219.693 469.675 219.101 471.284 218.678C472.978 218.339 474.418 218.508 474.503 218.932Z" fill="url(#paint1_linear)"/>
<path d="M470.692 224.349C470.776 224.857 470.014 225.365 468.913 225.619C467.812 225.872 466.88 225.619 466.796 225.195C466.711 224.687 467.473 224.18 468.574 223.926C469.59 223.672 470.522 223.841 470.692 224.349Z" fill="url(#paint2_linear)"/>
<path d="M465.779 222.91C465.864 223.418 465.102 223.926 464.001 224.18C462.9 224.433 461.968 224.18 461.883 223.756C461.798 223.248 462.561 222.741 463.662 222.487C464.763 222.233 465.695 222.487 465.779 222.91Z" fill="url(#paint3_linear)"/>
<path d="M432.24 227.227C432.325 227.481 431.901 227.819 431.308 227.904C430.715 227.988 430.207 227.904 430.207 227.65C430.122 227.396 430.546 227.057 431.139 226.973C431.732 226.888 432.24 226.973 432.24 227.227Z" fill="url(#paint4_linear)"/>
<path d="M458.157 219.355C458.241 219.609 457.818 219.947 457.225 220.032C456.632 220.117 456.124 220.032 456.124 219.778C456.039 219.524 456.463 219.186 457.056 219.101C457.648 219.016 458.157 219.101 458.157 219.355Z" fill="url(#paint5_linear)"/>
<path d="M448.755 228.412C448.84 228.666 448.417 229.004 447.824 229.089C447.231 229.174 446.723 229.089 446.723 228.835C446.638 228.581 447.061 228.242 447.654 228.158C448.247 228.073 448.755 228.158 448.755 228.412Z" fill="url(#paint6_linear)"/>
<path d="M436.221 234.421C436.305 234.675 435.882 235.014 435.289 235.099C434.696 235.183 434.188 235.099 434.188 234.845C434.103 234.591 434.527 234.252 435.119 234.168C435.712 233.998 436.221 234.168 436.221 234.421Z" fill="url(#paint7_linear)"/>
<path d="M424.871 335.401L424.448 335.232L424.024 335.401C424.024 335.401 420.213 365.026 379.559 379.924C401.834 379.924 415.894 379.924 424.702 379.924C436.475 379.924 438.931 379.924 438.931 379.924C445.537 379.924 455.192 379.924 469.336 379.924C428.683 365.026 424.871 335.401 424.871 335.401Z" fill="url(#paint8_linear)"/>
<path d="M490.881 170.459H357.184C355.689 170.459 354.269 171.137 353.298 172.325C352.326 173.513 351.729 175.04 351.729 176.737C351.729 180.13 354.195 182.929 357.259 182.929H368.693H370.636H477.504H479.522H490.956C494.02 182.929 496.411 180.13 496.411 176.737C496.337 173.258 493.87 170.459 490.881 170.459Z" fill="#040F26"/>
<path opacity="0.36" d="M132.834 394.929C171.753 394.929 203.304 392.138 203.304 388.694C203.304 385.25 171.753 382.459 132.834 382.459C93.9139 382.459 62.3632 385.25 62.3632 388.694C62.3632 392.138 93.9139 394.929 132.834 394.929Z" fill="#040F26"/>
<path opacity="0.2" d="M152.028 297.227C144.66 295.196 139.07 288.932 138.562 281.314C138.562 280.975 138.562 280.552 138.562 280.214C138.562 280.129 138.562 279.96 138.562 279.875C138.562 279.79 138.562 279.621 138.562 279.536C138.562 279.198 138.562 278.775 138.562 278.436C138.985 270.818 144.575 264.555 152.028 262.523C179.808 254.821 200.22 229.343 200.22 199.125C200.22 195.062 199.881 191.084 199.119 187.19C199.034 186.513 198.865 185.921 198.695 185.244C198.611 184.736 198.526 184.313 198.357 183.805V183.72C198.272 183.466 198.272 183.212 198.187 182.958C198.103 182.45 197.933 182.027 197.848 181.519C197.679 180.842 197.425 180.08 197.256 179.403H194.969C195.054 179.657 195.138 179.826 195.223 180.08C195.223 180.165 195.223 180.165 195.308 180.165C195.392 180.588 195.562 180.927 195.646 181.35C195.731 181.604 195.816 181.858 195.9 182.112C195.985 182.535 196.155 182.958 196.239 183.381C196.324 183.635 196.409 183.889 196.409 184.143C196.493 184.566 196.578 184.99 196.663 185.413C196.663 185.582 196.747 185.667 196.747 185.836C196.747 185.921 196.747 185.921 196.747 186.005C196.832 186.513 196.917 186.936 197.001 187.444C197.679 191.169 198.018 195.062 198.018 198.956C198.018 227.481 178.877 252.62 151.351 260.238C142.881 262.608 136.868 269.718 136.36 278.098C136.36 278.521 136.36 278.944 136.36 279.283C136.36 279.367 136.36 279.536 136.36 279.621C136.36 279.706 136.36 279.875 136.36 279.96C136.36 280.383 136.36 280.806 136.36 281.145C136.868 289.524 142.881 296.719 151.351 299.004C178.792 306.622 198.018 331.846 198.018 360.286C198.018 364.18 197.679 368.074 197.001 371.798C196.07 377.13 194.376 382.294 192.089 387.288H76.8187C74.5319 382.378 72.838 377.13 71.9064 371.798C71.2288 368.074 70.89 364.18 70.89 360.286C70.89 331.761 90.0312 306.622 117.557 299.004C126.027 296.634 132.04 289.524 132.548 281.145C132.548 280.721 132.548 280.298 132.548 279.96C132.548 279.875 132.548 279.706 132.548 279.621C132.548 279.536 132.548 279.367 132.548 279.283C132.548 278.859 132.548 278.436 132.548 278.098C132.04 269.718 126.027 262.608 117.557 260.238C90.1159 252.62 70.89 227.396 70.89 198.956C70.89 195.062 71.2288 191.169 71.9064 187.444C71.9911 186.767 72.1605 186.09 72.3299 185.413C72.3299 185.413 72.3299 185.413 72.3299 185.328C72.4992 184.651 72.5839 184.059 72.7533 183.381V183.297C72.838 182.789 73.0074 182.281 73.1768 181.858C73.1768 181.773 73.1768 181.773 73.1768 181.773C73.2615 181.604 73.2615 181.35 73.3462 181.181C73.4309 180.842 73.5156 180.504 73.685 180.165C73.685 180.165 73.685 180.08 73.7697 180.08C73.8544 179.826 73.9391 179.657 74.0238 179.403H71.8217C71.5676 180.08 71.3982 180.842 71.2288 181.519C71.0594 181.943 70.9747 182.45 70.89 182.958C70.8053 183.212 70.8053 183.466 70.7206 183.72V183.805C70.636 184.313 70.4666 184.736 70.3819 185.244C70.2125 185.921 70.1278 186.513 69.9584 187.19C69.1961 191.084 68.8574 195.062 68.8574 199.125C68.8574 229.343 89.2689 254.821 117.049 262.523C124.418 264.555 130.007 270.818 130.516 278.436C130.516 278.775 130.516 279.198 130.516 279.536C130.516 279.621 130.516 279.79 130.516 279.875C130.516 279.96 130.516 280.129 130.516 280.214C130.516 280.552 130.516 280.975 130.516 281.314C130.092 288.932 124.418 295.196 117.049 297.227C89.2689 304.93 68.8574 330.407 68.8574 360.625C68.8574 364.688 69.1961 368.666 69.9584 372.56C71.0594 378.654 73.0074 384.41 75.633 389.742H193.614C196.239 384.41 198.187 378.654 199.288 372.56C200.051 368.666 200.389 364.688 200.389 360.625C200.22 330.323 179.808 304.93 152.028 297.227Z" fill="#389FE5"/>
<path d="M198.103 360.54C198.103 364.434 197.764 368.327 197.086 372.052C196.155 377.384 194.461 382.548 192.174 387.542H76.8187C74.532 382.632 72.838 377.384 71.9064 372.052C71.2288 368.327 70.8901 364.434 70.8901 360.54C70.8901 332.015 90.0312 306.876 117.557 299.258C126.027 296.888 132.04 289.778 132.548 281.399C132.548 280.975 132.548 280.552 132.548 280.214C132.548 280.129 132.548 279.96 132.548 279.875C132.548 279.79 132.548 279.621 132.548 279.536C132.548 279.113 132.548 278.69 132.548 278.351C132.04 269.972 126.027 262.862 117.557 260.492C90.1159 252.874 70.8901 227.65 70.8901 199.21C70.8901 195.316 71.2288 191.423 71.9064 187.698C71.9911 187.021 72.1605 186.344 72.3299 185.667C72.3299 185.667 72.3299 185.667 72.3299 185.582C72.4993 184.905 72.584 184.312 72.7533 183.635V183.551C72.9227 183.043 73.0074 182.45 73.1768 181.942C73.3462 181.435 73.5156 180.842 73.685 180.334C73.7697 180.08 73.8544 179.826 73.9391 179.572H195.054C195.138 179.826 195.223 180.08 195.308 180.334C195.392 180.757 195.562 181.096 195.646 181.519C195.731 181.773 195.816 182.027 195.9 182.281C195.985 182.704 196.155 183.127 196.239 183.551C196.324 183.805 196.409 184.059 196.409 184.312C196.493 184.736 196.578 185.159 196.663 185.582C196.663 185.751 196.747 186.005 196.747 186.175C196.832 186.683 196.917 187.106 197.001 187.614C197.679 191.338 198.018 195.232 198.018 199.125C198.018 227.65 178.877 252.789 151.351 260.407C142.881 262.777 136.868 269.887 136.36 278.267C136.36 278.69 136.36 279.113 136.36 279.452C136.36 279.536 136.36 279.706 136.36 279.79C136.36 279.875 136.36 280.044 136.36 280.129C136.36 280.552 136.36 280.975 136.36 281.314C136.868 289.694 142.881 296.888 151.351 299.174C178.877 306.876 198.103 332.1 198.103 360.54Z" fill="white"/>
<path opacity="0.5" d="M198.103 360.54C198.103 364.434 197.764 368.327 197.086 372.052C196.155 377.384 194.461 382.548 192.174 387.542H76.8187C74.532 382.632 72.838 377.384 71.9064 372.052C71.2288 368.327 70.8901 364.434 70.8901 360.54C70.8901 332.015 90.0312 306.876 117.557 299.258C126.027 296.888 132.04 289.778 132.548 281.399C132.548 280.975 132.548 280.552 132.548 280.214C132.548 280.129 132.548 279.96 132.548 279.875C132.548 279.79 132.548 279.621 132.548 279.536C132.548 279.113 132.548 278.69 132.548 278.351C132.04 269.972 126.027 262.862 117.557 260.492C90.1159 252.874 70.8901 227.65 70.8901 199.21C70.8901 195.316 71.2288 191.423 71.9064 187.698C71.9911 187.021 72.1605 186.344 72.3299 185.667C72.3299 185.667 72.3299 185.667 72.3299 185.582C72.4993 184.905 72.584 184.312 72.7533 183.635V183.551C72.9227 183.043 73.0074 182.45 73.1768 181.942C73.3462 181.435 73.5156 180.842 73.685 180.334C73.7697 180.08 73.8544 179.826 73.9391 179.572H195.054C195.138 179.826 195.223 180.08 195.308 180.334C195.392 180.757 195.562 181.096 195.646 181.519C195.731 181.773 195.816 182.027 195.9 182.281C195.985 182.704 196.155 183.127 196.239 183.551C196.324 183.805 196.409 184.059 196.409 184.312C196.493 184.736 196.578 185.159 196.663 185.582C196.663 185.751 196.747 186.005 196.747 186.175C196.832 186.683 196.917 187.106 197.001 187.614C197.679 191.338 198.018 195.232 198.018 199.125C198.018 227.65 178.877 252.789 151.351 260.407C142.881 262.777 136.868 269.887 136.36 278.267C136.36 278.69 136.36 279.113 136.36 279.452C136.36 279.536 136.36 279.706 136.36 279.79C136.36 279.875 136.36 280.044 136.36 280.129C136.36 280.552 136.36 280.975 136.36 281.314C136.868 289.694 142.881 296.888 151.351 299.174C178.877 306.876 198.103 332.1 198.103 360.54Z" fill="#D7ECFA"/>
<path d="M70.7597 361.328C70.7597 361.328 64.4176 383.166 88.5558 390.784C94.7386 392.562 113.107 388.499 116.665 391.8C119.83 394.737 168.819 386.583 169.004 390.784C169.027 391.304 111.63 384.329 121.323 387.447C114.748 384.329 123.864 384.351 123.864 390.784L128.468 385.367L130.809 387.447C131.402 350.966 125.35 384.329 125.35 384.329C125.35 384.329 127.421 392.392 130.809 390.784C134.197 389.176 146.393 383.505 151.474 382.15C156.556 380.796 196.444 380.588 196.444 380.588C196.444 380.588 202.057 328.835 193.275 355.647C203.928 353.153 190.367 330.228 190.832 328.835C191.763 326.042 105.394 320.729 105.394 320.729L72.5 339.5L70.7597 348.5V361.328Z" fill="url(#paint9_linear)"/>
<g opacity="0.5">
<g opacity="0.5">
<path opacity="0.5" d="M75.3403 388.558C73.7797 388.558 72.2191 387.302 71.3452 384.895C63.1052 363.13 65.2277 338.748 65.2901 337.702C65.6646 333.411 68.0992 330.377 70.6585 331.109C73.2179 331.737 75.0282 335.818 74.5912 340.108C74.5912 340.422 72.9682 359.886 79.273 376.419C80.6464 380.082 80.0221 385 77.8373 387.407C77.0882 388.244 76.2143 388.558 75.3403 388.558Z" fill="white"/>
</g>
</g>
<path d="M152.028 297.227C144.66 295.196 139.07 288.932 138.562 281.314C138.562 280.975 138.562 280.552 138.562 280.214C138.562 280.129 138.562 279.96 138.562 279.875C138.562 279.79 138.562 279.621 138.562 279.536C138.562 279.198 138.562 278.775 138.562 278.436C138.985 270.818 144.575 264.555 152.028 262.523C179.808 254.821 200.22 229.343 200.22 199.125C200.22 195.062 199.881 191.084 199.119 187.19C199.034 186.513 198.865 185.921 198.695 185.244C198.611 184.736 198.526 184.313 198.357 183.805V183.72C198.272 183.466 198.272 183.212 198.187 182.958C198.103 182.45 197.933 182.027 197.848 181.519C197.679 180.842 197.425 180.08 197.256 179.403H194.969C195.054 179.657 195.138 179.826 195.223 180.08C195.223 180.165 195.223 180.165 195.308 180.165C195.392 180.588 195.562 180.927 195.646 181.35C195.731 181.604 195.816 181.858 195.9 182.112C195.985 182.535 196.155 182.958 196.239 183.381C196.324 183.635 196.409 183.889 196.409 184.143C196.493 184.566 196.578 184.99 196.663 185.413C196.663 185.582 196.747 185.667 196.747 185.836C196.747 185.921 196.747 185.921 196.747 186.005C196.832 186.513 196.917 186.936 197.001 187.444C197.679 191.169 198.018 195.062 198.018 198.956C198.018 227.481 178.877 252.62 151.351 260.238C142.881 262.608 136.868 269.718 136.36 278.098C136.36 278.521 136.36 278.944 136.36 279.283C136.36 279.367 136.36 279.536 136.36 279.621C136.36 279.706 136.36 279.875 136.36 279.96C136.36 280.383 136.36 280.806 136.36 281.145C136.868 289.524 142.881 296.719 151.351 299.004C178.792 306.622 198.018 331.846 198.018 360.286C198.018 364.18 197.679 368.074 197.001 371.798C196.07 377.13 194.376 382.294 192.089 387.288H76.8187C74.5319 382.378 72.838 377.13 71.9064 371.798C71.2288 368.074 70.89 364.18 70.89 360.286C70.89 331.761 90.0312 306.622 117.557 299.004C126.027 296.634 132.04 289.524 132.548 281.145C132.548 280.721 132.548 280.298 132.548 279.96C132.548 279.875 132.548 279.706 132.548 279.621C132.548 279.536 132.548 279.367 132.548 279.283C132.548 278.859 132.548 278.436 132.548 278.098C132.04 269.718 126.027 262.608 117.557 260.238C90.1159 252.62 70.89 227.396 70.89 198.956C70.89 195.062 71.2288 191.169 71.9064 187.444C71.9911 186.767 72.1605 186.09 72.3299 185.413C72.3299 185.413 72.3299 185.413 72.3299 185.328C72.4992 184.651 72.5839 184.059 72.7533 183.381V183.297C72.838 182.789 73.0074 182.281 73.1768 181.858C73.1768 181.773 73.1768 181.773 73.1768 181.773C73.2615 181.604 73.2615 181.35 73.3462 181.181C73.4309 180.842 73.5156 180.504 73.685 180.165C73.685 180.165 73.685 180.08 73.7697 180.08C73.8544 179.826 73.9391 179.657 74.0238 179.403H71.8217C71.5676 180.08 71.3982 180.842 71.2288 181.519C71.0594 181.943 70.9747 182.45 70.89 182.958C70.8053 183.212 70.8053 183.466 70.7206 183.72V183.805C70.636 184.313 70.4666 184.736 70.3819 185.244C70.2125 185.921 70.1278 186.513 69.9584 187.19C69.1961 191.084 68.8574 195.062 68.8574 199.125C68.8574 229.343 89.2689 254.821 117.049 262.523C124.418 264.555 130.007 270.818 130.516 278.436C130.516 278.775 130.516 279.198 130.516 279.536C130.516 279.621 130.516 279.79 130.516 279.875C130.516 279.96 130.516 280.129 130.516 280.214C130.516 280.552 130.516 280.975 130.516 281.314C130.092 288.932 124.418 295.196 117.049 297.227C89.2689 304.93 68.8574 330.407 68.8574 360.625C68.8574 364.688 69.1961 368.666 69.9584 372.56C71.0594 378.654 73.0074 384.41 75.633 389.742H193.614C196.239 384.41 198.187 378.654 199.288 372.56C200.051 368.666 200.389 364.688 200.389 360.625C200.22 330.323 179.808 304.93 152.028 297.227Z" fill="#E5E5E5"/>
<path d="M207.046 386.201C207.046 389.702 204.578 392.435 201.588 392.435H67.8215C64.7559 392.435 62.3632 389.617 62.3632 386.201C62.3632 382.699 64.8307 379.967 67.8215 379.967H201.588C204.578 379.881 207.046 382.699 207.046 386.201Z" fill="#040F26"/>
<path d="M201.516 170.459H67.8187C66.3241 170.459 64.9041 171.137 63.9326 172.325C62.9611 173.513 62.3632 175.04 62.3632 176.737C62.3632 180.13 64.8294 182.929 67.8934 182.929H79.3276H81.2706H188.139H190.156H201.59C204.654 182.929 207.046 180.13 207.046 176.737C206.971 173.258 204.505 170.459 201.516 170.459Z" fill="#040F26"/>
<path d="M247.649 406.078L251.037 409.464C251.037 409.464 255.187 406.502 255.187 405.824C255.187 405.147 252.138 401.931 251.291 401.931C250.36 402.016 247.649 406.078 247.649 406.078Z" fill="#C0401E"/>
<path d="M234.098 406.078L230.71 409.464C230.71 409.464 226.56 406.502 226.56 405.824C226.56 405.147 229.609 401.931 230.456 401.931C231.303 402.016 234.098 406.078 234.098 406.078Z" fill="#C0401E"/>
<path d="M239.118 402.722H242.506V399.844H239.118V402.722Z" fill="#081735"/>
<path d="M244.373 432.081C252.617 430.152 257.735 421.909 255.804 413.67C253.874 405.432 245.626 400.317 237.383 402.246C229.139 404.175 224.021 412.418 225.951 420.657C227.881 428.895 236.129 434.01 244.373 432.081Z" fill="#C55031"/>
<path opacity="0.3" d="M254.933 417.844C254.933 423.515 251.884 428.424 247.31 431.048C252.477 428.594 256.119 423.261 256.119 417.167C256.119 408.702 249.258 401.846 240.789 401.846C237.994 401.846 235.284 402.608 232.997 403.962C234.945 403.031 237.232 402.523 239.519 402.523C248.073 402.439 254.933 409.38 254.933 417.844Z" fill="#EAD9D6"/>
<path opacity="0.6" d="M225.459 417.167C225.459 425.631 232.319 432.487 240.789 432.487C244.092 432.487 247.141 431.472 249.682 429.694C247.565 430.794 245.108 431.387 242.483 431.387C234.013 431.387 227.153 424.785 227.153 416.659C227.153 408.533 234.013 401.931 242.483 401.931C241.975 401.846 241.382 401.846 240.789 401.846C232.404 401.846 225.459 408.702 225.459 417.167Z" fill="#A83617"/>
<path d="M240.874 428.594C247.188 428.594 252.308 423.478 252.308 417.167C252.308 410.856 247.188 405.74 240.874 405.74C234.559 405.74 229.44 410.856 229.44 417.167C229.44 423.478 234.559 428.594 240.874 428.594Z" fill="#081735"/>
<path d="M240.874 427.663C246.674 427.663 251.376 422.963 251.376 417.167C251.376 411.37 246.674 406.671 240.874 406.671C235.073 406.671 230.371 411.37 230.371 417.167C230.371 422.963 235.073 427.663 240.874 427.663Z" fill="#FFFDFF"/>
<path d="M238.502 400.746H243.245C243.245 400.746 244.092 398.714 243.584 398.545C243.16 398.376 238.672 398.291 238.079 398.545C237.571 398.799 238.502 400.746 238.502 400.746Z" fill="#C0401E"/>
<path d="M240.789 417.929L241.212 417.759C241.382 417.675 241.467 417.421 241.382 417.251L238.248 409.887C238.163 409.718 237.909 409.633 237.74 409.718L237.316 409.887C237.147 409.972 237.062 410.226 237.147 410.395L240.281 417.759C240.365 417.929 240.62 418.013 240.789 417.929Z" fill="#081735"/>
<path d="M240.874 418.86C241.809 418.86 242.568 418.102 242.568 417.167C242.568 416.232 241.809 415.474 240.874 415.474C239.938 415.474 239.18 416.232 239.18 417.167C239.18 418.102 239.938 418.86 240.874 418.86Z" fill="#081735"/>
<path opacity="0.6" d="M241.975 430.71C242.313 430.71 242.737 430.71 243.076 430.794C243.076 430.794 243.076 430.794 243.076 430.879C242.737 430.964 242.398 430.964 241.975 430.964C241.805 430.964 241.805 430.71 241.975 430.71ZM240.365 430.71C240.62 430.794 240.789 430.794 240.958 430.794C240.958 430.794 240.958 430.794 240.958 430.71C240.789 430.625 240.62 430.625 240.365 430.54C240.281 430.456 240.196 430.625 240.365 430.71ZM230.287 409.549C230.456 409.126 230.71 408.787 230.964 408.448C231.049 408.279 230.88 408.11 230.71 408.195C230.371 408.533 230.117 408.956 229.948 409.38C229.863 409.549 230.117 409.718 230.287 409.549ZM228.847 411.665C228.847 411.919 229.186 412.003 229.186 411.75C229.186 411.496 229.27 411.242 229.355 410.988C229.44 410.818 229.524 410.565 229.524 410.395C229.355 410.48 229.27 410.734 229.101 410.903C229.016 411.072 228.932 411.326 228.847 411.665ZM234.183 405.74C234.776 405.317 235.453 404.893 236.046 404.47C236.215 404.386 236.131 404.047 235.877 404.132C235.114 404.386 234.437 404.724 233.844 405.147C233.505 405.401 233.844 405.994 234.183 405.74Z" fill="#A83617"/>
<path d="M195.646 466.598C195.646 468.968 231.642 471 276.107 471C320.572 471 356.568 469.053 356.568 466.598C356.568 464.228 320.572 462.197 276.107 462.197C231.642 462.282 195.646 464.228 195.646 466.598Z" fill="#C0C0C0"/>
<path d="M257.567 422.322V449.256L229.94 449.338V422.322H257.567Z" fill="#E2C6C1" stroke="#C8A9A3"/>
<path d="M229.44 421.822V449.754H222.834V421.822H229.44Z" fill="#EAD9D6"/>
<path d="M228.94 422.322V449.254H223.334V422.322H228.94Z" stroke="#C8A9A3" stroke-opacity="0.8"/>
<path d="M257.763 422.322L260.886 428.348H233.386L230.262 422.322H257.763Z" fill="#F4DEDA" stroke="#C8A9A3"/>
<path d="M268.658 461.657C269.954 457.901 267.958 453.805 264.2 452.51C260.441 451.214 256.343 453.208 255.047 456.964C253.75 460.721 255.746 464.816 259.505 466.112C263.263 467.408 267.361 465.413 268.658 461.657Z" fill="#040F26"/>
<path d="M261.878 463.043C263.936 463.043 265.605 461.376 265.605 459.319C265.605 457.262 263.936 455.595 261.878 455.595C259.82 455.595 258.152 457.262 258.152 459.319C258.152 461.376 259.82 463.043 261.878 463.043Z" fill="white"/>
<path d="M222.044 462.13C223.574 458.462 221.838 454.25 218.168 452.721C214.498 451.192 210.283 452.927 208.753 456.595C207.224 460.263 208.959 464.475 212.629 466.004C216.299 467.533 220.515 465.798 222.044 462.13Z" fill="#040F26"/>
<path d="M211.738 459.319C211.738 461.351 213.432 463.043 215.465 463.043C217.498 463.043 219.192 461.351 219.192 459.319C219.192 457.288 217.498 455.595 215.465 455.595C213.348 455.679 211.738 457.288 211.738 459.319Z" fill="white"/>
<path d="M303.596 303.669L303.476 308.709L301.495 315.069H302.695L304.497 320.708C304.737 321.428 305.397 321.968 306.177 322.028L311.941 322.388L308.399 322.808L307.678 327.608L309.659 328.508L319.385 328.208L320.286 327.548L319.685 321.848L320.526 312.429L319.385 305.949L308.459 302.229L303.596 303.669Z" fill="#E5E5E5"/>
<path d="M302.215 295.449L303.056 303.549L314.102 306.309L315.003 305.829L313.862 312.309L315.783 312.849L315.603 318.728L319.685 322.028L325.268 307.629L322.867 302.529L321.066 302.649L320.346 300.909L302.215 295.449Z" fill="#040E1E"/>
<path d="M307.678 327.548L301.855 330.668L299.274 351.727C299.274 351.727 300.654 379.146 300.654 379.746C300.654 380.346 293.75 400.805 293.75 400.805H307.678L308.039 327.608L307.678 327.548Z" fill="#08153F"/>
<path d="M308.039 327.608L306.598 329.228L304.797 332.048L305.097 333.608L303.116 335.648L300.354 346.507L301.735 364.806L301.855 342.967L308.039 327.608Z" fill="#122554"/>
<path d="M308.039 327.608L301.855 342.967V384.426H324.068V355.747L319.865 323.648L313.802 326.348L308.039 327.608Z" fill="#FCFCFC"/>
<path d="M307.919 329.468L305.637 330.668L305.757 333.128L306.718 333.308L305.757 333.368L302.035 352.387L304.497 352.507L307.919 333.248L309.479 329.228L307.919 329.468Z" fill="#A83617"/>
<path d="M301.855 384.426L300.654 390.905L282.824 420.244V425.464L298.673 458.883L306.298 456.423L296.692 423.604L308.759 410.405L305.517 400.805L316.744 425.884L343.519 459.123L351.323 456.603L333.313 423.424L324.068 384.426H301.855Z" fill="#061435"/>
<path d="M306.298 456.603L307.858 461.942L305.217 462.902L303.896 462.062L302.095 464.342L296.272 467.042H291.889V465.362L294.591 463.862L299.274 458.883L306.298 456.603Z" fill="#030B21"/>
<path d="M345.74 458.403L346.521 461.402V464.462C346.521 464.642 346.581 464.882 346.701 465.062L348.382 468.122H353.305L355.406 464.762C355.526 464.522 355.586 464.282 355.466 464.042L353.845 460.562L353.905 459.183C353.905 458.943 353.785 458.703 353.605 458.523L351.323 456.543L345.74 458.403Z" fill="#030B21"/>
<path d="M319.865 323.648L331.692 327.128L333.373 334.808L330.792 379.086L338.356 404.645H322.087C322.087 404.645 307.378 405.425 304.256 391.685L303.116 369.246L310.62 368.496L318.124 367.746L303.116 369.246L301.915 346.027L313.322 328.568L319.865 323.648Z" fill="#08153F"/>
<path d="M319.865 323.648L316.684 331.028L314.883 334.568L310.32 335.348V342.127L304.497 348.007L301.855 346.087L313.262 328.628L319.865 323.648Z" fill="#122554"/>
<path d="M277.801 376.453C277.801 376.453 275.938 377.3 275.26 378.654H277.97" fill="#D6D5D5"/>
<path d="M283.812 373.194C283.812 373.194 282.265 374.565 281.343 374.781C280.421 374.996 279.071 375.544 278.251 375.696C277.348 375.829 274.98 379.18 275.357 379.792C275.733 380.404 278.521 381.852 280.55 381.379C282.477 380.969 282.093 379.659 282.682 379.016C284.166 377.543 286.388 375.897 286.388 375.897L286.087 374.607L283.812 373.194Z" fill="#E5E5E5"/>
<path d="M331.932 336.788L315.914 365.28L286.27 376.707L282.883 372.898L308.291 356.393L318.665 331.208L331.932 336.788Z" fill="#08153F"/>
<path d="M204.031 451.701H270.348C272.465 451.701 274.244 449.924 274.244 447.808V381.193C274.244 380.685 274.667 380.262 275.175 380.262H286.525C287.117 380.262 287.541 379.839 287.541 379.247C287.541 378.654 287.117 378.231 286.525 378.231H275.26C273.651 378.231 272.296 379.585 272.296 381.193V447.808C272.296 448.823 271.449 449.67 270.432 449.67H204.116C203.523 449.67 203.1 450.093 203.1 450.686C203.1 451.278 203.523 451.701 204.031 451.701Z" fill="#040F26"/>
<path d="M261.624 463.044C263.682 463.044 265.351 461.376 265.351 459.319C265.351 457.262 263.682 455.595 261.624 455.595C259.566 455.595 257.898 457.262 257.898 459.319C257.898 461.376 259.566 463.044 261.624 463.044Z" fill="white"/>
<path d="M211.484 459.319C211.484 461.351 213.178 463.044 215.211 463.044C217.244 463.044 218.938 461.351 218.938 459.319C218.938 457.288 217.244 455.595 215.211 455.595C213.178 455.595 211.484 457.288 211.484 459.319Z" fill="white"/>
<path d="M178.491 56.5164L179.094 62.2181L181.947 69.2851L180.54 69.4056L178.692 77.1551C178.652 77.3559 178.491 77.4764 178.33 77.5165L170.616 78.6007L175.317 78.8014L175.156 87.5147L167.241 84.5835L162.419 82.7364L161.736 78.7613L159.928 68.0805L160.651 60.612L172.786 55.3519L178.491 56.5164Z" fill="#E5E5E5"/>
<path d="M179.456 47L179.255 56.3156L165.955 61.0135L164.83 60.5316L167.161 69.526L164.589 68.6426L165.915 73.8224L161.937 78.962L154.223 63.0613L156.513 56.958L158.562 56.9179L159.285 54.87L179.456 47Z" fill="#030B19"/>
<path d="M209.631 225.963H218.591L222.086 228.613L237.274 233.873L238.841 237.045H222.086L215.698 235.56L215.336 237.045H210.193L209.631 225.963Z" fill="#020711"/>
<path d="M176.924 140.075L177.848 148.989L215.778 157.943L220.6 169.307L220.198 225.963H209.631L201.635 179.144L178.532 163.966L146.348 159.469L152.134 144.452L176.924 140.075Z" fill="#040F26"/>
<path d="M187.05 225.963H196.01L198.34 228.613L205.773 233.873L207.34 237.045H194.041L191.952 235.56L191.59 237.045H187.612L187.05 225.963Z" fill="#020711"/>
<path d="M175.196 84.9447L180.942 89.1608L184.398 131.964L187.049 150.796L174.835 169.829L165.433 167.941L175.196 84.9447Z" fill="#08153F"/>
<path opacity="0.36" d="M175.197 87.4744L177.969 106.105L177.447 116.947L179.214 105.865L178.692 95.505L176.804 93.6178L178.17 92.2124L175.197 87.4744Z" fill="#08153F"/>
<path d="M175.196 87.4743L177.969 106.105L175.558 154.209L150.647 148.828L149.964 115.019L167.281 84.5431L175.196 87.4743Z" fill="#FCFCFC"/>
<path d="M175.076 88.4383L177.567 90.0444L177.206 92.8552L176.04 92.9355L177.165 93.1362L178.732 126.744L176.603 133.41L174.714 92.815L173.348 88.1572L175.076 88.4383Z" fill="#AA3333"/>
<path d="M176.924 140.075L177.848 148.989L199.063 156.377L205.773 167.741L197.617 225.963H187.05L184.478 175.009L149.281 171.274L146.348 159.469L152.134 144.452L176.924 140.075Z" fill="#040F26"/>
<path d="M162.017 80.3672L148.758 88.9199L146.347 140.075L146.187 143.93L152.254 146.861L146.388 168.062L145.263 168.985L145.022 171.073C145.022 171.073 175.036 178.221 175.799 150.395L176.201 137.023L177.165 104.379L167.321 84.5833L162.017 80.3672Z" fill="#08153F"/>
<path opacity="0.36" d="M162.018 80.3672L167.281 84.5432L177.125 104.379L176.764 117.148L175.398 105.463L166.96 94.461L169.25 91.1283L164.187 90.3654L163.946 85.4266L162.018 80.3672Z" fill="#122554"/>
<path d="M180.942 89.1609L185.804 107.39L181.907 88.8798V85.788L187.692 81.8128L199.867 114.216L197.577 119.396L191.067 121.524L183.192 117.148L180.942 89.1609Z" fill="#08153F"/>
<path d="M187.009 82.2547L184.759 78.4803L183.594 77.1552L182.268 76.7939L178.612 74.465L173.429 75.7097L177.206 83.0979L180.42 84.704L182.549 85.3465L187.009 82.2547Z" fill="#E5E5E5"/>
<path d="M148.758 88.92L136.464 166.135L145.624 167.741L163.464 98.7575L158.12 88.6389L148.758 88.92Z" fill="#08153F"/>
<path d="M136.463 166.135L134.977 168.142L130.356 170.03V171.033H144.941L145.062 169.146L144.379 167.54L136.463 166.135Z" fill="#E5E5E5"/>
<path d="M351.33 73.7256L355.114 78.0939L358.301 85.0433L359.336 84.0903L366.505 88.2202L372.878 83.1769L370.927 85.4007L371.444 88.8556L374.75 89.7292L379.809 85.3213L382.836 79.4838L379.052 76.8231L372.48 68.1661L366.545 63.5596L354.357 68.7617L351.33 73.7256Z" fill="#E5E5E5"/>
<path d="M343.245 68.0866L351.33 74.9964L362.722 68.6426L363.12 67.5307L367.461 74.5198L368.577 72.018L375.387 76.2671L379.171 77.0614L372.838 60.5018L366.824 58L365.35 59.4693L363.359 58.556L343.245 68.0866Z" fill="#040B1E"/>
<path d="M342.387 148.053L324.845 150.383L305.038 118.208L323.745 119.762L342.387 148.053Z" fill="#F1F4FA"/>
<path d="M363.424 147.276L326.01 152.067C325.493 152.131 324.975 151.743 324.91 151.225L324.781 150.319L364.071 145.269L364.201 146.175C364.33 146.758 363.942 147.211 363.424 147.276Z" fill="#A83617"/>
<path d="M322.839 150.319L304.132 119.956C303.873 119.503 304.003 118.855 304.456 118.596L324.198 150.642C323.745 150.901 323.162 150.772 322.839 150.319Z" fill="#A83617"/>
<path d="M324.845 150.254L305.038 118.208L304.456 118.596L324.263 150.642L324.845 150.254Z" fill="#112F41"/>
<path d="M325.234 122.027L309.958 121.121L308.339 118.467L323.745 119.697L325.234 122.027Z" fill="#D2D4DF"/>
<path d="M326.14 123.452L310.929 122.61L309.958 121.121L325.234 122.028L326.14 123.452Z" fill="#D5DDF0"/>
<path d="M312.288 120.344L309.763 120.15C309.634 120.15 309.569 120.28 309.699 120.474L309.958 121.121L313.259 121.315L312.806 120.668C312.676 120.474 312.417 120.344 312.288 120.344Z" fill="white"/>
<path d="M328.923 127.66L313.777 127.271L311.705 123.97L326.981 124.617L328.923 127.66Z" fill="#D2D4DF"/>
<path d="M324.975 126.624L313.777 126.236L312.935 124.941L324.198 125.394L324.975 126.624Z" fill="white"/>
<path d="M326.917 126.689L325.946 126.624L325.169 125.394L326.14 125.459L326.917 126.689Z" fill="white"/>
<path d="M336.496 141.967L329.765 142.55L322.256 130.767L329.312 130.897L336.496 141.967Z" fill="#D2D4DF"/>
<path d="M320.379 129.667H317.66L317.272 129.084H319.991L320.379 129.667Z" fill="#D2D4DF"/>
<path d="M320.573 131.674H317.143L316.689 131.026H320.185L320.573 131.674Z" fill="#D2D4DF"/>
<path d="M322.321 132.969L318.437 133.033L318.178 132.645L322.062 132.58L322.321 132.969Z" fill="#D2D4DF"/>
<path d="M322.709 133.616L318.372 133.681L318.113 133.292L322.45 133.227L322.709 133.616Z" fill="#D2D4DF"/>
<path d="M323.098 134.263L318.825 134.393L318.567 134.004L322.903 133.94L323.098 134.263Z" fill="#D2D4DF"/>
<path d="M322.968 134.975L319.214 135.04L318.955 134.652L322.709 134.587L322.968 134.975Z" fill="#D2D4DF"/>
<path d="M324.004 135.623L320.12 135.752L319.861 135.364L323.745 135.234L324.004 135.623Z" fill="#D2D4DF"/>
<path d="M324.392 136.27L320.055 136.464L319.861 136.011L324.133 135.946L324.392 136.27Z" fill="#D2D4DF"/>
<path d="M324.845 136.982L320.508 137.112L320.25 136.723L324.586 136.594L324.845 136.982Z" fill="#D2D4DF"/>
<path d="M325.234 137.63L320.962 137.824L320.703 137.435L325.039 137.241L325.234 137.63Z" fill="#D2D4DF"/>
<path d="M325.687 138.342L321.35 138.536L321.156 138.148L325.428 137.953L325.687 138.342Z" fill="#D2D4DF"/>
<path d="M326.14 138.989L321.803 139.248L321.544 138.795L325.881 138.601L326.14 138.989Z" fill="#D2D4DF"/>
<path d="M325.363 139.766L322.256 139.896L321.997 139.507L325.104 139.378L325.363 139.766Z" fill="#D2D4DF"/>
<path d="M326.981 140.349L325.363 140.478L325.169 140.09L326.722 139.96L326.981 140.349Z" fill="#D2D4DF"/>
<path d="M327.305 141.061L326.14 141.126L325.881 140.737L327.046 140.672L327.305 141.061Z" fill="#D2D4DF"/>
<path d="M328.341 142.874L324.522 143.197C324.392 143.197 324.133 142.938 323.874 142.55C323.615 142.162 323.551 141.838 323.68 141.838L327.499 141.579C327.629 141.579 327.888 141.838 328.146 142.226C328.341 142.55 328.47 142.874 328.341 142.874Z" fill="#D2D4DF"/>
<path d="M324.716 150.319L305.038 118.208L308.339 118.467L327.823 149.93L324.716 150.319Z" fill="#D2D4DF"/>
<path d="M310.67 123.711L309.246 123.646L307.174 120.215L308.534 120.28L310.67 123.711Z" fill="#FDF3FD"/>
<path d="M310.605 126.106H310.217L309.375 124.747L309.763 124.811L310.605 126.106Z" fill="#FFFEFF"/>
<path d="M312.806 126.236L310.67 126.106L309.828 124.811L312.029 124.876L312.806 126.236Z" fill="#FFFEFF"/>
<path d="M313.453 127.207L310.799 127.142L310.67 126.818L313.259 126.883L313.453 127.207Z" fill="#FFFEFF"/>
<path d="M314.165 128.372L311.511 128.307L311.382 127.984L313.971 128.048L314.165 128.372Z" fill="#FFFEFF"/>
<path d="M312.353 129.343C312.417 129.473 312.417 129.537 312.417 129.537C312.353 129.537 312.288 129.473 312.223 129.343C312.158 129.214 312.158 129.149 312.158 129.149C312.158 129.084 312.288 129.214 312.353 129.343Z" fill="#FFFEFF"/>
<path d="M312.548 129.343C312.612 129.473 312.612 129.537 312.612 129.537C312.548 129.537 312.483 129.473 312.418 129.343C312.353 129.214 312.353 129.149 312.353 129.149C312.353 129.084 312.483 129.214 312.548 129.343Z" fill="#FFFEFF"/>
<path d="M312.741 129.343C312.806 129.473 312.806 129.537 312.806 129.537C312.741 129.537 312.676 129.473 312.612 129.343C312.547 129.214 312.547 129.149 312.547 129.149C312.547 129.149 312.676 129.214 312.741 129.343Z" fill="#FFFEFF"/>
<path d="M312.935 129.343C313 129.473 313 129.537 313 129.537C312.935 129.537 312.87 129.473 312.806 129.343C312.741 129.214 312.741 129.149 312.741 129.149C312.741 129.149 312.87 129.214 312.935 129.343Z" fill="#FFFEFF"/>
<path d="M313.129 129.343C313.194 129.473 313.194 129.537 313.194 129.537C313.129 129.537 313.065 129.473 313 129.343C312.935 129.214 312.935 129.149 312.935 129.149C312.935 129.149 313.065 129.214 313.129 129.343Z" fill="#FFFEFF"/>
<path d="M313.324 129.343C313.388 129.473 313.388 129.537 313.388 129.537C313.324 129.537 313.259 129.473 313.194 129.343C313.065 129.214 313.065 129.149 313.129 129.149C313.129 129.149 313.259 129.214 313.324 129.343Z" fill="#FFFEFF"/>
<path d="M313.518 129.343C313.582 129.473 313.582 129.537 313.582 129.537C313.518 129.537 313.453 129.473 313.388 129.343C313.324 129.214 313.324 129.149 313.324 129.149C313.324 129.149 313.453 129.214 313.518 129.343Z" fill="#FFFEFF"/>
<path d="M313.712 129.343C313.777 129.473 313.777 129.537 313.777 129.537C313.712 129.537 313.647 129.473 313.582 129.343C313.518 129.214 313.518 129.149 313.518 129.149C313.518 129.149 313.647 129.214 313.712 129.343Z" fill="#FFFEFF"/>
<path d="M313.906 129.343C313.971 129.473 313.971 129.537 313.971 129.537C313.906 129.537 313.841 129.473 313.777 129.343C313.712 129.214 313.712 129.149 313.712 129.149C313.712 129.149 313.841 129.214 313.906 129.343Z" fill="#FFFEFF"/>
<path d="M314.1 129.343C314.165 129.473 314.165 129.537 314.165 129.537C314.1 129.537 314.036 129.473 313.971 129.343C313.906 129.214 313.906 129.149 313.906 129.149C313.906 129.149 314.036 129.214 314.1 129.343Z" fill="#FFFEFF"/>
<path d="M314.294 129.343C314.359 129.473 314.359 129.537 314.359 129.537C314.294 129.537 314.23 129.473 314.165 129.343C314.1 129.214 314.1 129.149 314.1 129.149C314.1 129.149 314.23 129.214 314.294 129.343Z" fill="#FFFEFF"/>
<path d="M312.806 130.12C312.87 130.249 312.87 130.314 312.87 130.314C312.806 130.314 312.741 130.249 312.676 130.12C312.612 129.99 312.612 129.926 312.612 129.926C312.676 129.926 312.741 130.055 312.806 130.12Z" fill="#FFFEFF"/>
<path d="M313.001 130.12C313.065 130.249 313.065 130.314 313.065 130.314C313.001 130.314 312.936 130.249 312.871 130.12C312.806 129.99 312.806 129.926 312.806 129.926C312.806 129.926 312.936 130.055 313.001 130.12Z" fill="#FFFEFF"/>
<path d="M313.194 130.12C313.259 130.249 313.259 130.314 313.259 130.314C313.194 130.314 313.129 130.249 313.065 130.12C313 129.99 313 129.926 313 129.926C313.065 129.926 313.129 130.055 313.194 130.12Z" fill="#FFFEFF"/>
<path d="M313.453 130.12C313.518 130.249 313.518 130.314 313.518 130.314C313.453 130.314 313.388 130.249 313.324 130.12C313.259 129.99 313.259 129.926 313.259 129.926C313.259 129.926 313.324 130.055 313.453 130.12Z" fill="#FFFEFF"/>
<path d="M313.647 130.12C313.712 130.249 313.712 130.314 313.712 130.314C313.647 130.314 313.583 130.249 313.518 130.12C313.453 129.99 313.453 129.926 313.453 129.926C313.453 129.926 313.518 130.055 313.647 130.12Z" fill="#FFFEFF"/>
<path d="M313.841 130.12C313.906 130.249 313.906 130.314 313.906 130.314C313.841 130.314 313.777 130.249 313.712 130.12C313.647 129.99 313.647 129.926 313.647 129.926C313.647 129.926 313.712 130.055 313.841 130.12Z" fill="#FFFEFF"/>
<path d="M314.036 130.12C314.1 130.249 314.1 130.314 314.1 130.314C314.036 130.314 313.971 130.249 313.906 130.12C313.841 129.99 313.841 129.926 313.841 129.926C313.841 129.926 313.906 130.055 314.036 130.12Z" fill="#FFFEFF"/>
<path d="M314.165 130.185C314.23 130.314 314.23 130.379 314.23 130.379C314.165 130.379 314.1 130.314 314.036 130.185C313.971 130.055 313.971 129.99 313.971 129.99C314.036 129.926 314.1 130.055 314.165 130.185Z" fill="#FFFEFF"/>
<path d="M314.359 130.185C314.424 130.314 314.424 130.379 314.424 130.379C314.359 130.379 314.295 130.314 314.23 130.185C314.165 130.055 314.165 129.99 314.165 129.99C314.23 129.926 314.295 130.055 314.359 130.185Z" fill="#FFFEFF"/>
<path d="M314.553 130.185C314.618 130.314 314.618 130.379 314.618 130.379C314.553 130.379 314.489 130.314 314.424 130.185C314.359 130.055 314.359 129.926 314.359 129.926C314.424 129.926 314.489 130.055 314.553 130.185Z" fill="#FFFEFF"/>
<path d="M314.748 130.185C314.812 130.314 314.812 130.379 314.812 130.379C314.748 130.379 314.683 130.314 314.618 130.185C314.553 130.055 314.553 129.99 314.553 129.99C314.618 129.926 314.683 130.055 314.748 130.185Z" fill="#FFFEFF"/>
<path d="M317.143 133.616H315.136C315.006 133.616 314.618 133.227 314.359 132.774C314.1 132.321 313.971 131.933 314.165 131.933H316.172C316.301 131.933 316.689 132.321 316.948 132.709C317.207 133.227 317.272 133.616 317.143 133.616Z" fill="white"/>
<path d="M367.512 96.5596L362.839 126.658L344.286 142.939L344.904 148.481L366.138 140.091L381.427 119.23L367.512 96.5596Z" fill="#08153F"/>
<path d="M344.286 142.939L341.537 144.825L337.964 145.903L336.487 145.941L335.662 147.288L334.425 147.596L334.7 148.635H338.101L342.98 147.904L343.599 147.019L344.733 146.98L344.286 142.939Z" fill="#D7D7D7"/>
<path d="M369.373 86.3935L363.518 96.5596V116.892C363.518 116.892 370.608 145.722 370.727 146.397C370.847 147.072 366.585 171.495 366.585 171.495L382.437 169.072L370.927 85.4008L369.373 86.3935Z" fill="#08153F"/>
<path opacity="0.36" d="M370.927 85.4008L371.166 87.3863L366.505 104.422L368.855 122.729L365.47 104.422L366.864 94.7329L368.577 92.2311L368.059 90.0867L370.249 87.3466L370.927 85.4008Z" fill="#08153F"/>
<path d="M371.165 87.3862L366.505 104.422L372.918 151.48L398.21 147.588L393.191 115.065L377.698 83.5342L371.165 87.3862Z" fill="#FCFCFC"/>
<path d="M369.811 88.7762L367.422 90.5632L368.019 93.343H369.174L368.059 93.6607L368.975 127.296L371.604 133.809L370.488 93.1444L371.763 88.1805L369.811 88.7762Z" fill="#A83617"/>
<path d="M378.255 151.202L391.479 170.025L350.852 185.751L333.049 218.473L320.98 217.56L335.717 178.841L339.939 171.693L345.874 168.079L365.51 169.588L348.224 167.166L378.255 151.202Z" fill="#061435"/>
<path d="M330.738 218.314L332.451 225.303L326.596 227.05L325.64 226.256L322.932 228.162L309.509 234V231.101L319.188 220.975L320.98 217.559L330.738 218.314Z" fill="#030C1E"/>
<path d="M400.48 145.126L374.073 170.78L337.191 165.657L337.868 203.303H324.684L321.02 158.271L325.561 150.646L362.562 147.35L371.922 144.809L400.48 145.126Z" fill="#061435"/>
<path d="M337.868 203.303L337.828 212.993H333.845L333.327 211.603L329.225 212.993H308.155L309.987 210.689L323.928 205.686L326.038 203.303H337.868Z" fill="#030C1E"/>
<path d="M382.796 79.4043L400.082 89.8483L408.566 115.343V139.726L417.926 168.04L399.445 170.899C399.445 170.899 382.876 174.354 376.861 159.303L372.958 142.545L383.672 128.884L372.4 140.162L368.776 106.249L377.698 83.6137L382.796 79.4043Z" fill="#08153F"/>
<path opacity="0.36" d="M382.796 79.4043L377.698 83.5343L368.776 106.17L370.488 122.173L370.449 106.765L374.989 96.083L374.073 92.1119L378.534 91.0397L382.796 79.4043Z" fill="#122554"/>
<path d="M347.413 142.939L344.08 144.825L339.716 145.903L337.93 145.941L336.933 147.288L335.422 147.596L335.765 148.635H339.923L345.832 147.904L346.588 147.019L347.962 146.98L347.413 142.939Z" fill="#E5E5E5"/>
<path d="M384.74 100.081L369.037 126.768L345.429 143.082L346.22 148.635L373.241 140.228L392.681 119.325L384.74 100.081Z" fill="#08153F"/>
<path class='gear' d="M426.079 12.1241L425.01 8.74496L422.897 9.0253C422.432 8.23286 421.855 7.51677 421.183 6.93274L421.823 4.83064L418.775 3.13971L417.522 4.90474C416.673 4.68325 415.806 4.58996 414.921 4.62489L413.903 2.6389L410.68 3.65859L411.008 5.86309C410.258 6.32505 409.584 6.90577 409.041 7.58844L407 6.86552L405.474 9.98339L407.207 11.3347C407.017 12.2119 406.951 13.1111 407.008 14.0324L405.119 15.0183L406.188 18.3974L408.301 18.1171C408.766 18.9095 409.343 19.6256 410.015 20.2096L409.375 22.3117L412.417 23.9841L413.67 22.2191C414.519 22.4406 415.386 22.5338 416.271 22.4989L417.272 24.4905L420.494 23.4708L420.167 21.2663C420.917 20.8044 421.59 20.2236 422.134 19.541L424.174 20.2639L425.701 17.146L423.968 15.7947C424.158 14.9176 424.224 14.0183 424.166 13.097L426.079 12.1241ZM416.504 16.4611C414.981 16.943 413.354 16.0484 412.849 14.4517C412.343 12.8549 413.16 11.1873 414.683 10.7054C416.205 10.2236 417.833 11.1181 418.338 12.7148C418.843 14.3116 418.027 15.9793 416.504 16.4611Z" fill="#A83617"/>
<path class='gear' d="M414.115 33.5723L412.461 28.3466L409.034 28.8281C408.288 27.6167 407.378 26.5179 406.324 25.6049L407.4 22.3298L402.539 19.8074L400.477 22.5705C399.124 22.2349 397.719 22.1166 396.28 22.21L394.703 19.1312L389.492 20.7798L389.973 24.2057C388.761 24.9511 387.661 25.8618 386.747 26.9148L383.471 25.8409L380.946 30.7002L383.71 32.7605C383.373 34.1132 383.254 35.5176 383.347 36.9556L380.267 38.5334L381.92 43.7591L385.348 43.2776C386.093 44.4891 387.004 45.5878 388.057 46.5009L386.982 49.7759L391.842 52.2983L393.905 49.5352C395.258 49.8709 396.663 49.9891 398.101 49.8958L399.679 52.9746L404.908 51.3202L404.427 47.8943C405.639 47.1489 406.739 46.2381 407.653 45.1851L410.929 46.2591L413.454 41.3997L410.685 39.3212C411.021 37.9685 411.14 36.5641 411.047 35.1261L414.115 33.5723ZM399.576 43.5597C395.426 44.8728 390.998 42.5752 389.686 38.4275C388.374 34.2798 390.674 29.8534 394.824 28.5403C398.974 27.2272 403.402 29.5248 404.714 33.6725C406.008 37.8259 403.708 42.2523 399.576 43.5597Z" fill="#A83617"/>
<defs>
<linearGradient id="paint0_linear" x1="428.806" y1="217.154" x2="428.806" y2="345.083" gradientUnits="userSpaceOnUse">
<stop stop-color="#A83617"/>
<stop offset="1" stop-color="#A83617" stop-opacity="0.79"/>
</linearGradient>
<linearGradient id="paint1_linear" x1="471.496" y1="218.498" x2="471.496" y2="220.658" gradientUnits="userSpaceOnUse">
<stop stop-color="#A83617"/>
<stop offset="1" stop-color="#A83617" stop-opacity="0.79"/>
</linearGradient>
<linearGradient id="paint2_linear" x1="468.744" y1="223.809" x2="468.744" y2="225.72" gradientUnits="userSpaceOnUse">
<stop stop-color="#A83617"/>
<stop offset="1" stop-color="#A83617" stop-opacity="0.79"/>
</linearGradient>
<linearGradient id="paint3_linear" x1="463.831" y1="222.385" x2="463.831" y2="224.281" gradientUnits="userSpaceOnUse">
<stop stop-color="#A83617"/>
<stop offset="1" stop-color="#A83617" stop-opacity="0.79"/>
</linearGradient>
<linearGradient id="paint4_linear" x1="431.223" y1="226.941" x2="431.223" y2="227.936" gradientUnits="userSpaceOnUse">
<stop stop-color="#A83617"/>
<stop offset="1" stop-color="#A83617" stop-opacity="0.79"/>
</linearGradient>
<linearGradient id="paint5_linear" x1="457.14" y1="219.069" x2="457.14" y2="220.064" gradientUnits="userSpaceOnUse">
<stop stop-color="#A83617"/>
<stop offset="1" stop-color="#A83617" stop-opacity="0.79"/>
</linearGradient>
<linearGradient id="paint6_linear" x1="447.739" y1="228.126" x2="447.739" y2="229.121" gradientUnits="userSpaceOnUse">
<stop stop-color="#A83617"/>
<stop offset="1" stop-color="#A83617" stop-opacity="0.79"/>
</linearGradient>
<linearGradient id="paint7_linear" x1="435.204" y1="234.099" x2="435.204" y2="235.13" gradientUnits="userSpaceOnUse">
<stop stop-color="#A83617"/>
<stop offset="1" stop-color="#A83617" stop-opacity="0.79"/>
</linearGradient>
<linearGradient id="paint8_linear" x1="424.448" y1="335.232" x2="424.448" y2="379.924" gradientUnits="userSpaceOnUse">
<stop stop-color="#A83617"/>
<stop offset="1" stop-color="#A83617" stop-opacity="0.79"/>
</linearGradient>
<linearGradient id="paint9_linear" x1="134.109" y1="320.729" x2="134.109" y2="392.454" gradientUnits="userSpaceOnUse">
<stop stop-color="#A83617"/>
<stop offset="1" stop-color="#A83617" stop-opacity="0.79"/>
</linearGradient>
</defs>
</svg>
