<svg width="800" height="350" viewBox="0 0 800 350" fill="none" xmlns="http://www.w3.org/2000/svg">
<path d="M265.705 182.359H282.318V169.16H265.705V182.359Z" fill="#071935"/>
<path d="M265.414 178.749H282.656C283.493 178.749 284.191 179.443 284.191 180.277V180.902C284.191 181.736 283.493 182.43 282.656 182.43H265.414C264.577 182.43 263.879 181.736 263.879 180.902V180.277C263.879 179.443 264.577 178.749 265.414 178.749Z" fill="#0B1E44"/>
<path d="M265.414 174.025H282.656C283.493 174.025 284.191 174.719 284.191 175.553V176.178C284.191 177.012 283.493 177.707 282.656 177.707H265.414C264.577 177.707 263.879 177.012 263.879 176.178V175.553C263.879 174.65 264.577 174.025 265.414 174.025Z" fill="#0B1E44"/>
<path d="M265.414 169.231H282.656C283.493 169.231 284.191 169.926 284.191 170.759V171.385C284.191 172.218 283.493 172.913 282.656 172.913H265.414C264.577 172.913 263.879 172.218 263.879 171.385V170.759C263.879 169.856 264.577 169.231 265.414 169.231Z" fill="#0B1E44"/>
<path d="M267.369 169.231C267.369 165.619 270.37 162.631 274 162.631C277.63 162.631 280.631 165.619 280.631 169.231H267.369Z" fill="#071935"/>
<path d="M258.574 205.425C258.574 213.901 265.484 220.848 274.07 220.848C282.656 220.848 289.566 213.97 289.566 205.425C289.566 202.508 288.728 199.798 287.332 197.506L285.238 193.546C283.354 190.072 282.446 186.251 282.446 182.361H265.694V182.569C265.694 186.807 264.577 190.906 262.413 194.588L260.738 197.436H260.807C259.341 199.798 258.574 202.508 258.574 205.425Z" fill="#EAD763"/>
<path d="M295.429 237.59H252.64C250.058 237.59 247.615 236.479 245.87 234.603C244.124 232.658 243.357 230.157 243.636 227.586L251.105 154.503C251.593 149.918 255.433 146.514 260.039 146.514H287.961C292.568 146.514 296.407 149.918 296.895 154.503L304.294 227.586C304.574 230.157 303.806 232.658 302.061 234.603C300.455 236.479 297.942 237.59 295.429 237.59ZM260.039 151.03C257.736 151.03 255.851 152.697 255.572 154.99L248.173 228.073C248.033 229.323 248.382 230.574 249.29 231.546C250.127 232.519 251.314 233.005 252.64 233.005H295.429C296.756 233.005 297.873 232.449 298.78 231.546C299.618 230.574 300.036 229.323 299.897 228.073L292.428 154.99C292.149 152.767 290.264 151.03 287.961 151.03H260.039Z" fill="#0A1D43"/>
<path d="M288.03 134.079H260.039V170.343H288.03V134.079Z" fill="#0A1D43"/>
<path d="M288.03 224.599H260.039V241.272H288.03V224.599Z" fill="#0A1D43"/>
<path d="M292.568 235.298H255.433V251.971H292.568V235.298Z" fill="#0A1D43"/>
<path d="M296.058 249.261H251.942V256H296.058V249.261Z" fill="#0A1D43"/>
<path d="M289.775 141.512H258.155V162.909H289.775V141.512Z" fill="#0A1D43"/>
<path d="M289.775 167.703H258.155V171.385H289.775V167.703Z" fill="#0A1D43"/>
<path d="M289.775 226.753H258.155V230.435H289.775V226.753Z" fill="#0A1D43"/>
<path d="M274 132.69C267.439 132.69 262.064 127.34 262.064 120.81C262.064 114.349 267.439 109 274 109C280.561 109 285.936 114.349 285.936 120.879C285.936 127.41 280.561 132.69 274 132.69ZM274 110.528C268.276 110.528 263.669 115.183 263.669 120.81C263.669 126.507 268.346 131.092 274 131.092C279.724 131.092 284.331 126.437 284.331 120.81C284.331 115.183 279.724 110.528 274 110.528Z" fill="#0A1D43"/>
<path d="M277.141 135.746H270.789V130.188H277.141V135.746ZM272.395 134.148H275.605V131.717H272.395V134.148Z" fill="#0A1D43"/>
<path d="M274 247.83C273.302 247.83 272.813 247.274 272.813 246.649V227.683C272.813 226.989 273.372 226.502 274 226.502C274.698 226.502 275.187 227.058 275.187 227.683V246.649C275.187 247.344 274.698 247.83 274 247.83Z" fill="#FFC043"/>
<path d="M274 177.595C273.302 177.595 272.813 177.039 272.813 176.414V157.449C272.813 156.754 273.372 156.268 274 156.268C274.698 156.268 275.187 156.823 275.187 157.449V176.414C275.187 177.109 274.698 177.595 274 177.595Z" fill="#FFC043"/>
<path d="M251.593 241.856C251.384 241.856 251.175 241.786 250.965 241.717C250.407 241.369 250.197 240.675 250.546 240.049L260.109 223.654C260.458 223.099 261.156 222.89 261.785 223.237C262.343 223.585 262.552 224.279 262.203 224.905L252.64 241.3C252.431 241.647 252.012 241.856 251.593 241.856Z" fill="#FFC043"/>
<path d="M286.844 181.069C286.634 181.069 286.425 180.999 286.215 180.93C285.657 180.582 285.448 179.888 285.797 179.262L295.36 162.798C295.709 162.242 296.407 162.034 297.035 162.381C297.593 162.728 297.803 163.423 297.454 164.048L287.891 180.513C287.681 180.86 287.263 181.069 286.844 181.069Z" fill="#FFC043"/>
<path d="M235.19 225.53C234.771 225.53 234.352 225.321 234.143 224.905C233.794 224.349 234.003 223.585 234.561 223.237L251.035 213.859C251.593 213.511 252.361 213.72 252.71 214.276C253.059 214.831 252.85 215.596 252.291 215.943L235.818 225.391C235.608 225.46 235.399 225.53 235.19 225.53Z" fill="#FFC043"/>
<path d="M296.267 190.447C295.848 190.447 295.429 190.239 295.22 189.822C294.871 189.266 295.08 188.502 295.639 188.155L312.182 178.637C312.741 178.29 313.508 178.498 313.857 179.054C314.206 179.61 313.997 180.374 313.439 180.721L296.895 190.239C296.686 190.378 296.476 190.447 296.267 190.447Z" fill="#FFC043"/>
<path d="M248.173 203.23H229.187C228.489 203.23 228 202.674 228 202.049C228 201.354 228.558 200.868 229.187 200.868H248.173C248.871 200.868 249.36 201.423 249.36 202.049C249.429 202.743 248.871 203.23 248.173 203.23Z" fill="#FFC043"/>
<path d="M318.813 203.23H299.687C298.989 203.23 298.501 202.674 298.501 202.049C298.501 201.354 299.059 200.868 299.687 200.868H318.813C319.511 200.868 320 201.423 320 202.049C320 202.743 319.442 203.23 318.813 203.23Z" fill="#FFC043"/>
<path d="M251.663 190.378C251.454 190.378 251.244 190.308 251.035 190.239L234.631 180.791C234.073 180.443 233.863 179.749 234.212 179.124C234.561 178.568 235.259 178.359 235.888 178.707L252.361 188.155C252.92 188.502 253.129 189.197 252.78 189.822C252.501 190.169 252.082 190.378 251.663 190.378Z" fill="#FFC043"/>
<path d="M312.81 225.53C312.601 225.53 312.392 225.46 312.182 225.391L295.639 215.873C295.08 215.526 294.871 214.831 295.22 214.206C295.569 213.65 296.267 213.442 296.895 213.789L313.439 223.307C313.997 223.654 314.206 224.349 313.857 224.974C313.648 225.321 313.229 225.53 312.81 225.53Z" fill="#FFC043"/>
<path d="M261.156 181.069C260.737 181.069 260.319 180.86 260.109 180.443L250.546 164.048C250.197 163.493 250.407 162.728 250.965 162.381C251.524 162.034 252.291 162.242 252.64 162.798L262.134 179.193C262.483 179.749 262.273 180.513 261.715 180.86C261.505 180.999 261.296 181.069 261.156 181.069Z" fill="#FFC043"/>
<path d="M296.407 241.855C295.988 241.855 295.569 241.647 295.36 241.23L285.797 224.766C285.448 224.21 285.657 223.446 286.215 223.098C286.774 222.751 287.542 222.959 287.891 223.515L297.454 239.98C297.803 240.535 297.593 241.3 297.035 241.647C296.825 241.786 296.616 241.855 296.407 241.855Z" fill="#FFC043"/>
<path opacity="0.36" d="M143.215 330.896C134.896 330.896 127.066 331.176 120.285 331.665C114.413 329.008 95.8174 327.051 73.7266 327.051C46.9521 327.051 25.2808 329.917 25.2808 333.413C25.2808 334.951 29.4753 336.349 36.3961 337.467C15.7734 338.236 0.603516 340.683 0.603516 343.619C0.603516 347.114 22.2748 349.981 49.0493 349.981C75.8239 349.981 97.4951 347.114 97.4951 343.619C97.4951 342.081 93.3007 340.683 86.3799 339.564C89.9451 339.425 93.4405 339.285 96.6562 339.005C102.528 341.662 121.124 343.619 143.215 343.619C169.989 343.619 191.66 340.753 191.66 337.258C191.73 333.762 169.989 330.896 143.215 330.896Z" fill="#C0C0C0"/>
<path d="M172.856 51.1965L187.536 57.9776L190.123 91.7428L188.515 124.879C188.515 124.879 184.67 143.474 184.67 143.964C184.67 145.012 184.53 180.106 184.53 180.106H172.576L172.856 51.1965Z" fill="#08153F"/>
<path d="M175.233 52.3149L175.163 54.0626L186.208 74.3358L184.6 108.381L187.536 74.6853L186.208 67.8344L183.342 65.9469L182.433 60.7737L175.233 52.3149Z" fill="#122554"/>
<path d="M168.731 52.5249L175.722 59.8652L176.91 62.8013L176.211 65.1781L178.309 66.5763L181.874 73.9865L184.74 94.1198L185.579 108.94L180.336 74.336L168.731 54.0629V52.5249Z" fill="#19366E"/>
<path d="M194.876 21.9754L191.66 29.9449L190.542 41.3398L188.654 40.5708L180.825 49.519C180.615 49.7287 180.336 49.7986 180.056 49.7287L169.08 45.8139L175.162 49.3092V54.0629L173.974 57.4185L163.488 54.2027L155.169 48.6102L157.266 39.8018L162.299 24.3523L168.451 14.9148L188.165 16.3829L194.876 21.9754Z" fill="#E5E5E5"/>
<path d="M196.414 9.3221L197.812 14.2855L195.226 23.0938L178.867 19.948L173.974 17.7809L172.366 24.9813L168.591 26.0999L166.144 36.1665L157.126 40.2911L158.175 13.7263L165.445 7.22487L168.171 8.62302L170.548 6.38599L196.414 9.3221Z" fill="#030B19"/>
<path d="M175.162 54.0628L186.208 74.3359L182.573 152.003H144.403L148.038 102.788L155.239 48.4702L164.327 52.6647L175.162 54.0628Z" fill="#FCFCFC"/>
<path d="M175.232 57.3484L179.147 59.4456L178.867 63.6401L177.189 63.9197L178.867 64.1294L185.089 83.5637L188.514 115.651L186.068 125.928L180.405 84.053L175.162 63.9197L172.296 56.929L175.232 57.3484Z" fill="#A83617"/>
<path d="M136.154 152.562L120.914 329.008L117.139 334.601L116.72 337.257H131.68L129.653 329.288L164.676 196.114L152.303 256.864L160.831 329.777L160.482 337.257H164.746L165.026 336.349L166.773 337.257H187.885L187.046 334.251L171.387 329.568L182.572 152.003L136.154 152.562Z" fill="#040F26"/>
<path d="M155.239 48.4702L136.923 58.8864L133.008 142.915L128.604 182.902H147.968C147.968 182.902 173.205 184.23 178.588 160.602L184.18 89.7855L170.688 59.3059L155.239 48.4702Z" fill="#08153F"/>
<path d="M136.853 58.8865L115.112 108.94L134.826 146.131L141.746 137.113L133.707 108.94L152.372 78.4605L136.853 58.8865Z" fill="#08153F"/>
<path d="M155.238 48.4702L164.186 58.8864L166.074 64.6887L172.575 68.254L169.639 72.1688L181.314 90.2049L182.572 108.381L184.04 89.7855L170.548 59.3059L155.238 48.4702Z" fill="#122554"/>
<path d="M187.536 57.9775L219.344 88.2474L259.54 101.25L253.668 109.989L210.326 101.949L189.703 86.4298L187.536 57.9775Z" fill="#08153F"/>
<path d="M259.54 101.25L264.643 102.788L273.731 103.977L279.463 108.591V110.967L277.995 109.989L273.731 111.317L270.375 113.554L264.573 113.204L259.889 110.897L254.437 108.8L259.54 101.25Z" fill="#E5E5E5"/>
<path d="M111.896 213.592L103.437 322.927L114.203 328.939L108.051 328.589L96.516 323.766L91.9021 249.104L93.2303 240.786L87.2882 214.64L111.896 213.592Z" fill="#E5E5E5"/>
<path d="M61.9819 323.766L61.4926 333.413H60.374L59.3254 331.386L56.8088 333.413H45.9731L46.7421 331.875L50.2375 327.471L55.2708 324.115L59.2555 323.766H61.9819Z" fill="#061435"/>
<path d="M64.3585 215.689L55.2706 324.115L50.2373 327.47L49.0488 328.938L50.3072 331.385L56.1095 329.987L61.9817 323.835L78.5497 249.594L78.9692 241.834L88.197 214.64L64.3585 215.689Z" fill="#E5E5E5"/>
<path d="M99.3128 324.115L108.051 328.589L114.203 328.939L118.188 330.896L118.747 333.413H109.379L99.173 329.568L97.3554 333.413H96.4466L96.5165 323.766L99.3128 324.115Z" fill="#061435"/>
<path d="M103.367 63.2906L109.519 95.0984L104.416 62.7313L103.787 58.1174L111.686 51.1267L130.072 103.487L118.327 116.001L109.659 113.274L103.367 63.2906Z" fill="#0E1C3D"/>
<path d="M91.6922 57.6279L103.367 63.2904L107.701 98.4538C107.701 98.4538 116.859 144.243 116.859 145.222C116.859 146.201 116.719 180.385 116.719 180.385H105.044L91.6922 57.6279Z" fill="#0E1C3D"/>
<path opacity="0.36" d="M91.6922 57.6279L96.9352 62.3117L96.5857 64.1293L98.8926 67.2751L103.996 83.5636L104.975 93.5603L103.367 83.7733L91.6922 57.6279Z" fill="#0E1C3D"/>
<path d="M106.793 23.1638L104.975 31.3429L105.674 42.4582L103.717 41.9688L97.6348 51.8258C97.4949 52.0355 97.2153 52.1753 96.9357 52.1054L85.7505 50.0781L91.0635 52.1054L91.6227 57.6281L91.3431 61.6128L97.6348 71.7494L99.5223 77.6915L72.6079 52.0355L73.5167 46.2332L75.8936 30.6439L80.2977 20.6471L99.5223 18.8994L106.793 23.1638Z" fill="#E5E5E5"/>
<path d="M91.6924 57.628L103.367 83.7733L114.762 153.121H77.641L66.2461 105.165L81.4859 56.3696L88.1971 60.8437L99.592 77.7613L97.7044 71.8192L91.4128 61.6127L91.6924 57.628Z" fill="#FCFCFC"/>
<path d="M114.762 153.122L113.574 235.542L52.8941 238.199L66.7358 153.681L114.762 153.122Z" fill="#0C1933"/>
<path d="M72.608 52.0356L57.2982 66.856L56.1797 80.418L66.526 144.174L55.3408 183.112H80.9968C80.9968 183.112 105.534 184.44 110.847 161.441L111.267 131.59L66.526 106.144L109.309 128.305L103.367 83.7736L81.4862 56.3699L72.608 52.0356Z" fill="#0E1C3D"/>
<path opacity="0.36" d="M72.6079 52.0356L81.4861 56.3699L103.367 83.7736L104.695 93.5606L101.969 84.4028L85.6806 68.9532L85.2611 64.5491L79.8783 63.2208L72.6079 52.0356Z" fill="#0E1C3D"/>
<path d="M119.096 116.001L120.075 112.226L117.208 106.843L111.895 106.493L119.096 116.001Z" fill="#E5E5E5"/>
<path d="M119.096 114.113L118.816 122.502L109.309 128.374L64.9876 105.445L73.2367 74.9651L112.944 107.472L116.509 109.569C118.117 110.408 119.096 112.156 119.096 114.113Z" fill="#0E1C3D"/>
<path d="M110.777 51.8956L106.653 46.6525C106.513 46.4428 106.303 46.303 106.024 46.303L91.9723 43.4368V44.4854L99.6621 47.1419L97.7746 47.3516L96.5862 49.2391H93.8598L95.957 54.4821C96.0968 54.8317 96.3765 55.1113 96.726 55.2511L101.27 56.859L104.556 57.3483L110.777 51.8956Z" fill="#DCDADA"/>
<path d="M107.981 23.1637C107.981 7.99385 92.0419 7.15496 82.2549 9.60172C82.185 5.05774 78.8993 1.00311 74.2854 0.164226C68.9725 -0.814478 63.9391 2.68089 62.9604 7.99385C62.0516 13.0272 65.1975 17.8508 70.091 19.1091C66.2461 26.8688 66.7354 37.9142 73.5864 46.5827C89.8049 46.7924 86.0998 22.3948 86.0998 22.3948C86.0998 22.3948 107.981 35.2577 107.981 23.1637Z" fill="#030B19"/>
<path d="M75.1248 19.2491L73.447 27.7778L74.4257 39.2426L72.3984 38.7533L66.3165 49.1695C66.1767 49.3792 65.897 49.519 65.6174 49.519L54.0128 47.6315L60.654 50.0084L61.9822 56.2301L62.1919 58.6769L51.7757 56.8593L40.7304 53.7135L41.1498 43.9264L43.3169 27.7079L47.6512 17.2218L67.5049 15.0547L75.1248 19.2491Z" fill="#E5E5E5"/>
<path d="M80.7169 6.52588L76.3127 19.3189L54.991 20.1578L53.6627 18.9694L52.9636 33.0208L49.6081 30.574L49.2585 38.6134L41.2192 44.2759L37.2345 17.8509L43.2465 10.0912L46.2525 11L48.14 8.27356L80.7169 6.52588Z" fill="#030B19"/>
<path d="M72.5386 63.9898L93.371 107.892L92.3223 124.46L84.4228 126.068L79.5992 116.63L71.2802 63.2908L72.5386 63.9898Z" fill="#08153F"/>
<path d="M61.9823 56.1602L66.8758 59.0264L72.5383 63.9199L77.0823 100.342C77.0823 100.342 86.5897 147.739 86.5198 148.787C86.5198 149.836 86.38 185.209 86.38 185.209H74.286L61.9823 56.1602Z" fill="#08153F"/>
<path d="M61.9823 56.1602L62.192 58.6069L72.5383 85.1717L78.4804 109.43L74.4957 84.5426L70.2314 72.099L67.8545 69.7222L68.274 66.7162L61.9823 56.1602Z" fill="#122554"/>
<path d="M62.1923 58.6068L72.5386 85.1716L84.4228 156.967H45.9039L34.0895 107.332L40.7307 52.3152L51.4265 56.5795L62.1923 58.6068Z" fill="#FCFCFC"/>
<path d="M62.6815 61.2633L66.5963 63.3605L66.3866 67.6248L64.6389 67.9045L66.3866 68.0443L72.7482 118.448L70.3014 128.724L62.6116 67.9045L60.025 60.9836L62.6815 61.2633Z" fill="#A83617"/>
<path d="M37.6545 157.456L22.2749 335.37L18.0804 341.592V343.619H33.1804L31.0133 335.65L67.0855 200.449L56.1799 252.39L62.4716 336.139L62.1221 343.619H66.3864L66.736 342.71L68.5536 343.619H89.8753L89.1762 340.963L73.1674 335.929L84.4225 156.967L37.6545 157.456Z" fill="#061435"/>
<path d="M40.7304 52.3152L18.0804 71.2601L34.3688 147.739L29.8948 188.075H49.3989C49.3989 188.075 74.8452 189.404 80.298 165.635L80.7174 134.736L34.4388 108.381L78.76 131.311L74.7054 87.8281L51.4962 58.8166L40.7304 52.3152Z" fill="#08153F"/>
<path d="M40.7304 52.3152L51.4961 58.8166L74.7054 87.8281L78.4804 109.43L71.2799 90.6943L56.8091 76.9925L59.3257 71.5397L52.2651 69.5124L47.5114 60.2147L40.7304 52.3152Z" fill="#122554"/>
<path d="M86.3799 114.323L87.4285 110.408L84.4924 104.816L78.9698 104.466L86.3799 114.323Z" fill="#E5E5E5"/>
<path d="M88.8967 113.344L88.5472 125.229L78.7602 131.31L32.831 107.542L41.3597 75.9438L82.4653 109.569L88.8967 113.344Z" fill="#08153F"/>
<path d="M73.3773 107.892L71.0703 106.983L74.4958 102.089L69.9518 106.493L67.575 105.515L70.7907 99.992L66.2467 104.955L63.3106 103.767L67.505 97.6152L62.3319 102.718L60.8638 100.272L64.2194 94.6092C64.6388 93.98 65.4777 93.7703 66.1069 94.2596L77.0824 102.998C77.5018 103.348 77.5717 103.977 77.1523 104.326C75.8939 105.515 73.3773 107.892 73.3773 107.892Z" fill="#E5E5E5"/>
<path d="M338.829 299.3C342.71 298.333 347.202 297.126 351.913 297.39C356.908 297.633 362.435 298.93 367.733 301.035C370.175 302.003 372.816 303.354 374.087 305.148C374.949 306.425 374.95 307.663 374.387 308.595C373.823 309.527 372.751 310.147 371.583 310.625C366.558 312.812 359.744 313.142 352.856 312.833C349.355 312.682 345.47 311.964 342.097 312.003C341.983 312.011 341.813 312.023 341.699 312.031C340.244 310.052 338.731 308.077 337.219 306.102C335.899 304.411 334.571 302.621 333.276 300.879C335.095 300.305 336.946 299.779 338.829 299.3ZM334.949 306.361C333.749 304.76 332.46 303.116 331.197 301.421C330.634 301.56 330.104 301.746 329.598 301.88C326.957 302.562 323.978 302.919 322.616 304.7C321.417 306.37 322.347 309.426 325.415 311.143C327.796 312.462 330.461 312.523 332.689 312.465C334.859 312.412 337.048 312.209 339.212 312.057C337.845 310.121 336.397 308.241 334.949 306.361Z" fill="#A83617"/>
<path d="M370.953 331.778C369.999 330.011 369.045 328.245 368.18 326.522C367.155 324.562 366.098 322.555 364.985 320.552C365.099 320.544 365.27 320.532 365.383 320.524C368.597 320.249 371.413 319.209 374.499 318.745C380.614 317.82 387.428 317.489 394.926 319.143C396.668 319.516 398.418 319.988 400.107 320.811C401.795 321.634 403.366 322.812 404.082 324.05C405.125 325.859 404.286 327.355 403.192 328.473C400.821 330.968 397.217 332.609 392.804 333.315C388.675 334.001 382.93 333.265 378.085 332.714C375.691 332.436 373.322 332.107 370.953 331.778ZM362.619 320.669C360.391 320.727 358.132 320.737 356.025 320.885C353.804 321.041 351.363 321.311 350.809 322.787C349.998 324.677 352.896 327.645 356.088 329.106C359.604 330.692 362.87 330.76 366.189 331.171C366.911 331.269 367.577 331.371 368.299 331.469C367.409 329.797 366.519 328.125 365.661 326.501C364.693 324.537 363.7 322.625 362.619 320.669Z" fill="#A83617"/>
<path d="M544.746 307.483C548.626 306.517 553.119 305.31 557.829 305.573C562.824 305.817 568.351 307.114 573.649 309.219C576.092 310.187 578.733 311.538 580.003 313.331C580.866 314.609 580.867 315.847 580.303 316.779C579.739 317.71 578.667 318.331 577.499 318.809C572.475 320.995 565.66 321.325 558.772 321.017C555.271 320.866 551.387 320.148 548.014 320.187C547.9 320.195 547.729 320.207 547.615 320.215C546.16 318.236 544.648 316.261 543.136 314.286C541.815 312.595 540.488 310.805 539.192 309.063C541.012 308.489 542.863 307.963 544.746 307.483ZM540.865 314.544C539.666 312.944 538.377 311.3 537.113 309.605C536.551 309.744 536.02 309.93 535.515 310.064C532.874 310.745 529.895 311.103 528.532 312.884C527.334 314.554 528.264 317.61 531.331 319.327C533.713 320.646 536.378 320.707 538.605 320.649C540.776 320.596 542.964 320.393 545.128 320.241C543.762 318.305 542.314 316.425 540.865 314.544Z" fill="#A83617"/>
<path d="M576.87 339.962C575.916 338.196 574.962 336.429 574.097 334.706C573.072 332.747 572.015 330.74 570.902 328.737C571.016 328.729 571.187 328.717 571.3 328.709C574.514 328.434 577.33 327.393 580.416 326.929C586.531 326.004 593.345 325.674 600.843 327.327C602.585 327.7 604.335 328.172 606.024 328.995C607.712 329.818 609.283 330.996 609.999 332.234C611.042 334.044 610.203 335.539 609.109 336.657C606.738 339.152 603.134 340.793 598.721 341.499C594.592 342.186 588.847 341.45 584.002 340.898C581.608 340.62 579.239 340.291 576.87 339.962ZM568.536 328.853C566.308 328.911 564.049 328.921 561.942 329.069C559.721 329.225 557.28 329.495 556.726 330.971C555.915 332.862 558.813 335.829 562.005 337.29C565.521 338.876 568.787 338.944 572.106 339.355C572.828 339.453 573.494 339.555 574.216 339.653C573.326 337.981 572.436 336.309 571.578 334.685C570.61 332.721 569.617 330.809 568.536 328.853Z" fill="#A83617"/>
<path d="M711.266 279.62C715.146 278.654 719.639 277.446 724.349 277.71C729.344 277.954 734.871 279.25 740.169 281.356C742.612 282.324 745.253 283.674 746.523 285.468C747.386 286.745 747.387 287.984 746.823 288.915C746.259 289.847 745.187 290.467 744.019 290.946C738.994 293.132 732.18 293.462 725.292 293.153C721.791 293.003 717.907 292.284 714.534 292.323C714.42 292.331 714.249 292.343 714.135 292.351C712.68 290.372 711.168 288.397 709.656 286.422C708.335 284.731 707.008 282.942 705.712 281.199C707.531 280.625 709.383 280.099 711.266 279.62ZM707.385 286.681C706.185 285.08 704.897 283.437 703.633 281.742C703.071 281.88 702.54 282.066 702.035 282.201C699.393 282.882 696.415 283.24 695.052 285.02C693.853 286.69 694.784 289.746 697.851 291.463C700.233 292.783 702.898 292.843 705.125 292.786C707.296 292.732 709.484 292.529 711.648 292.377C710.282 290.442 708.833 288.561 707.385 286.681Z" fill="#A83617"/>
<path d="M743.389 312.098C742.435 310.332 741.482 308.566 740.617 306.842C739.592 304.883 738.535 302.876 737.422 300.873C737.536 300.865 737.706 300.853 737.82 300.845C741.034 300.57 743.85 299.53 746.936 299.065C753.05 298.14 759.865 297.81 767.362 299.464C769.105 299.837 770.855 300.308 772.544 301.131C774.232 301.954 775.803 303.132 776.519 304.37C777.562 306.18 776.723 307.676 775.629 308.793C773.258 311.289 769.654 312.929 765.241 313.635C761.112 314.322 755.367 313.586 750.522 313.034C748.128 312.756 745.758 312.427 743.389 312.098ZM735.055 300.99C732.828 301.047 730.568 301.057 728.462 301.205C726.241 301.361 723.8 301.632 723.245 303.108C722.434 304.998 725.332 307.966 728.525 309.426C732.041 311.012 735.307 311.08 738.626 311.491C739.348 311.589 740.013 311.691 740.735 311.789C739.845 310.117 738.955 308.446 738.097 306.821C737.13 304.858 736.137 302.945 735.055 300.99Z" fill="#A83617"/>
</svg>
