<svg width="169" height="87" viewBox="0 0 169 87" fill="none" xmlns="http://www.w3.org/2000/svg">
<path d="M74.3357 9.84457C74.3357 8.75327 74.522 7.68811 74.8912 6.67523L75.0219 6.31909H71.3199V16.0428H76.6751L76.2896 15.5428C76.2537 15.4971 76.2177 15.4514 76.1818 15.3958C74.9728 13.7785 74.3357 11.8573 74.3357 9.84457ZM73.8031 9.84457C73.8031 11.8932 74.4239 13.8471 75.6035 15.5102H71.8493V6.85166H74.2671C73.96 7.81553 73.8031 8.82188 73.8031 9.84457Z" fill="#A83617"/>
<path d="M76.3909 10.7789C76.5837 12.2982 77.2437 13.6967 78.2958 14.8272C78.4297 14.9709 79.1355 15.7094 79.8772 16.0328L79.9066 16.0459H92.0024C92.3291 16.0459 92.6558 16.0132 92.9728 15.9511C95.0083 15.546 96.5669 13.8993 96.8544 11.8539C96.8871 11.6415 96.9034 11.4161 96.9034 11.1841C96.9034 10.4947 96.7531 9.80198 96.4656 9.17792C95.8121 7.75335 94.5084 6.72086 92.976 6.41699C92.8878 6.40066 92.7931 6.38432 92.7048 6.37125L92.2735 6.31243L92.4206 6.72412C92.7146 7.55403 92.8911 8.41988 92.9401 9.30534C92.9499 9.48504 92.9564 9.66475 92.9564 9.84772C92.9564 10.4228 92.9041 10.9946 92.7996 11.55H90.7608C90.849 11.1841 90.9078 10.8116 90.9372 10.4489C90.9405 10.4162 90.9437 10.3836 90.9437 10.3738C90.9568 10.1973 90.9601 10.0274 90.9601 9.84772C90.9601 9.66148 90.9535 9.47198 90.9372 9.2694C90.8588 8.27612 90.5876 7.33512 90.1269 6.46274L90.0517 6.32224H79.423C80.2987 5.21787 81.5762 4.49579 82.955 4.32588H88.5128L87.8201 3.84231C86.5949 2.98299 85.1507 2.5321 83.6477 2.5321C82.1447 2.5321 80.7005 2.98626 79.472 3.84231C78.5049 4.51539 77.7076 5.42045 77.162 6.46274C76.7046 7.33512 76.4301 8.27939 76.355 9.26613C76.3386 9.47197 76.3321 9.66148 76.3321 9.84445C76.3321 10.1483 76.3517 10.4587 76.3909 10.7462V10.7789ZM83.6444 3.06142C84.7161 3.06142 85.765 3.313 86.7092 3.7933L82.9224 3.79657C81.1874 4.00568 79.6387 4.96955 78.6813 6.44313L78.4134 6.85482H89.7315C90.1138 7.61938 90.3425 8.44602 90.4079 9.30861C90.4209 9.50138 90.4308 9.67782 90.4308 9.84772C90.4308 10.0144 90.4242 10.1745 90.4144 10.3542L90.4112 10.3901C90.3752 10.8443 90.2903 11.2984 90.1661 11.7395L90.0681 12.0793H93.2374L93.2832 11.8702C93.4237 11.2135 93.4955 10.5306 93.4955 9.84772C93.4955 9.65168 93.489 9.46544 93.4792 9.27266C93.4335 8.49503 93.2962 7.72394 93.0708 6.97898C94.3549 7.29591 95.4364 8.1879 95.9885 9.39682C96.2434 9.94901 96.3773 10.5665 96.3773 11.1808C96.3773 11.3866 96.3643 11.586 96.3349 11.7755C96.08 13.5986 94.6914 15.0657 92.878 15.4251C92.597 15.4807 92.3062 15.5101 92.0122 15.5101H80.0275C79.557 15.2879 79.0179 14.8108 78.6944 14.4645C77.7174 13.4189 77.1097 12.1251 76.93 10.7266L76.9267 10.694C76.8908 10.413 76.8712 10.1254 76.8712 9.84445C76.8712 9.67455 76.8777 9.49811 76.8941 9.30534C76.966 8.39048 77.2175 7.51483 77.6423 6.70779C78.1487 5.74065 78.8872 4.90094 79.7857 4.27687C80.9129 3.47964 82.2526 3.06142 83.6444 3.06142Z" fill="#A83617"/>
<path d="M93.4663 18.4246C96.6684 17.7875 99.1058 15.0789 99.3966 11.8376C99.4162 11.6318 99.426 11.4161 99.426 11.1809C99.426 10.5111 99.3345 9.85109 99.1548 9.21395C98.4131 6.54779 96.1782 4.47628 93.4631 3.9339C92.9828 3.83914 92.4927 3.79013 92.0026 3.79013H91.4046C89.5226 1.37882 86.6996 0 83.6479 0C80.5962 0 77.7732 1.37882 75.8912 3.79013H68.7945V18.5684H92.0026C92.4959 18.5684 92.9893 18.5194 93.4663 18.4246ZM83.6447 0.532571C86.5722 0.532571 89.2743 1.87546 91.0583 4.21815L91.1367 4.32271H91.9993C92.4535 4.32271 92.9109 4.36846 93.3552 4.45668C95.8744 4.95985 97.9492 6.88432 98.6386 9.35772C98.8052 9.94584 98.8902 10.5601 98.8902 11.1809C98.8902 11.3998 98.8804 11.5991 98.864 11.7886C98.5961 14.7979 96.3318 17.3105 93.3618 17.9019C92.9174 17.9901 92.46 18.0358 91.9993 18.0358H69.3205V4.32271H76.1493L76.231 4.21815C78.0117 1.87872 80.7138 0.532571 83.6447 0.532571Z" fill="#A83617"/>
<path d="M90.9078 27.789C90.7117 26.2664 90.0517 24.8647 88.9997 23.7342C88.8657 23.5905 88.1599 22.852 87.4379 22.5384L71.2938 22.5155V32.2555H75.0056L74.8552 31.8536C74.5612 31.0237 74.3848 30.1546 74.3325 29.2691C74.3227 29.0894 74.3161 28.9097 74.3161 28.7268C74.3161 28.1517 74.3684 27.5766 74.473 27.0212H76.5151C76.4269 27.3871 76.368 27.7596 76.3386 28.1256C76.3354 28.1582 76.3321 28.1876 76.3321 28.2007C76.319 28.3739 76.3158 28.5471 76.3158 28.7268C76.3158 28.9097 76.3223 29.0992 76.3386 29.3083C76.417 30.3016 76.6882 31.2459 77.1489 32.115C77.6783 33.1312 78.4559 34.0231 79.4001 34.6962L79.459 34.742C80.6875 35.6013 82.1317 36.0554 83.6379 36.0554C85.1442 36.0554 86.5883 35.6013 87.8201 34.742L88.5128 34.2584L82.9779 34.2617C81.5729 34.0918 80.2856 33.3664 79.4067 32.2588H90.0583L90.1334 32.115C90.5909 31.2426 90.8653 30.2951 90.9437 29.3051C90.9601 29.096 90.9666 28.9065 90.9666 28.7268C90.9666 28.4229 90.947 28.1092 90.9111 27.825L90.9078 27.789ZM78.4003 31.7229L78.6683 32.1346C79.6289 33.6082 81.1841 34.5753 82.9485 34.7877H86.7125C85.765 35.268 84.7161 35.5229 83.6412 35.5229C82.246 35.5229 80.9031 35.1014 79.7694 34.3074L79.7105 34.2649C78.8316 33.6409 78.1095 32.811 77.6194 31.8667C77.1914 31.0597 76.9398 30.184 76.8679 29.2659C76.8549 29.0731 76.8451 28.8967 76.8451 28.7268C76.8451 28.5601 76.8516 28.4 76.8614 28.2203L76.7111 28.2105L76.8679 28.1811C76.9039 27.727 76.9888 27.2728 77.113 26.8284L77.211 26.4886H74.0384L73.9927 26.6977C73.8522 27.3577 73.7803 28.0373 73.7803 28.7235C73.7803 28.9195 73.7868 29.109 73.7966 29.2985C73.8456 30.1252 73.9959 30.9388 74.2442 31.7229H71.8231V23.0481H87.2712C87.745 23.2703 88.2841 23.7473 88.6043 24.0969C89.5812 25.1425 90.1922 26.4396 90.3719 27.838L90.3752 27.8707C90.4111 28.155 90.4308 28.4425 90.4308 28.7235C90.4308 28.8901 90.4242 29.0666 90.4079 29.2626C90.3393 30.1285 90.1138 30.9551 89.7315 31.7229H78.4003Z" fill="#A83617"/>
<path d="M99.4225 26.7303C99.1317 23.4825 96.691 20.7706 93.4825 20.1302C93.0022 20.0322 92.5088 19.9832 92.0122 19.9832H68.7649V34.7843H75.8714C77.7567 37.1989 80.5862 38.581 83.6412 38.581C86.6994 38.581 89.5257 37.1989 91.411 34.7843H92.0154C92.5023 34.7843 92.9956 34.7353 93.4792 34.6405C96.1976 34.0982 98.4391 32.0234 99.1808 29.354C99.3605 28.7168 99.4519 28.0535 99.4519 27.3837C99.4519 27.1485 99.4421 26.9361 99.4225 26.7303ZM92.0154 34.255H91.1496L91.0712 34.3595C89.2872 36.7055 86.5818 38.0517 83.6445 38.0517C80.7104 38.0517 78.0017 36.7055 76.2177 34.3595L76.1393 34.255H69.3007V20.5157H92.0187C92.4794 20.5157 92.9401 20.5615 93.3845 20.6497C96.361 21.2411 98.6286 23.7602 98.8965 26.776C98.9161 26.9688 98.9226 27.1681 98.9226 27.3837C98.9226 28.0045 98.8377 28.6188 98.671 29.2102C97.9816 31.6901 95.9036 33.6146 93.3779 34.121C92.927 34.2093 92.4696 34.255 92.0154 34.255Z" fill="#A83617"/>
<path d="M92.9859 22.6103C92.6689 22.5482 92.3422 22.5155 92.0155 22.5155H90.6268L91.0026 23.0023C91.0418 23.0546 91.0843 23.1036 91.1235 23.1624C92.3324 24.7831 92.9695 26.7075 92.9695 28.7235C92.9695 29.7952 92.7865 30.8473 92.4271 31.8536L92.2899 32.262L92.7179 32.2032C92.8094 32.1902 92.9009 32.1771 92.9891 32.1575C94.5248 31.8504 95.8317 30.8179 96.4819 29.3933C96.7695 28.7692 96.9198 28.0733 96.9198 27.3839C96.9198 27.1519 96.9034 26.9264 96.8708 26.7141C96.5865 24.6687 95.0247 23.0187 92.9859 22.6103ZM93.5021 28.7235C93.5021 26.6716 92.878 24.7144 91.6985 23.0481H92.0155C92.3095 23.0481 92.6003 23.0775 92.8846 23.133C94.7012 23.4957 96.0931 24.966 96.348 26.7925C96.3774 26.982 96.3905 27.1813 96.3905 27.3871C96.3905 28.0014 96.2565 28.6189 96.0016 29.1744C95.4462 30.3866 94.3614 31.2818 93.0741 31.5988C93.3551 30.6708 93.5021 29.7037 93.5021 28.7235Z" fill="#A83617"/>
<path d="M10.3314 53.647C10.8738 53.9149 11.3018 54.2907 11.6187 54.7775C11.9357 55.2643 12.0958 55.8035 12.0958 56.4014C12.0958 57.9828 11.3802 58.9793 9.94911 59.391V59.4662C11.5795 59.8387 12.3964 60.9103 12.3964 62.678C12.3964 63.3511 12.2297 63.9457 11.903 64.462C11.573 64.9782 11.1221 65.3801 10.5503 65.6676C9.97852 65.9551 9.34792 66.0956 8.66504 66.0956H0V53.2451H8.55395C9.19436 53.2484 9.78901 53.3823 10.3314 53.647ZM4.12014 58.254H6.95948C7.23394 58.254 7.45938 58.1592 7.64236 57.9632C7.82206 57.7704 7.91355 57.5319 7.91355 57.2444V57.0581C7.91355 56.7837 7.81879 56.5517 7.63256 56.3589C7.44632 56.1661 7.22087 56.0681 6.95948 56.0681H4.12014V58.254ZM4.12014 63.1093H7.25681C7.53127 63.1093 7.75672 63.0113 7.93969 62.8185C8.11939 62.6257 8.21088 62.3872 8.21088 62.0997V61.9134C8.21088 61.6259 8.11939 61.3874 7.93969 61.1946C7.75998 61.0018 7.53127 60.9038 7.25681 60.9038H4.12014V63.1093Z" fill="#A83617"/>
<path d="M26.1062 64.9389C24.9986 65.8603 23.4237 66.321 21.3816 66.321C19.3395 66.321 17.7614 65.8603 16.6472 64.9389C15.533 64.0175 14.9743 62.6779 14.9743 60.9233V53.2483H19.101V60.8678C19.101 61.5899 19.2938 62.1649 19.6793 62.5962C20.0649 63.0242 20.6268 63.2399 21.362 63.2399C22.0972 63.2399 22.6591 63.021 23.0512 62.5864C23.4433 62.1519 23.6393 61.5768 23.6393 60.8678V53.2483H27.766V60.9233C27.766 62.6779 27.2138 64.0175 26.1062 64.9389Z" fill="#A83617"/>
<path d="M42.113 54.4509C43.2207 55.405 43.7761 56.7642 43.7761 58.5318H39.8357C39.8357 57.7836 39.6397 57.1922 39.2476 56.7576C38.8555 56.3231 38.2968 56.1042 37.5747 56.1042C36.7415 56.1042 36.1272 56.3656 35.7352 56.8883C35.3431 57.4111 35.147 58.1397 35.147 59.0742V60.2701C35.147 61.1914 35.3431 61.9168 35.7352 62.4461C36.1272 62.9754 36.7284 63.2401 37.5387 63.2401C38.336 63.2401 38.9404 63.0342 39.3489 62.6225C39.7605 62.2109 39.9664 61.6325 39.9664 60.8843H43.7761C43.7761 62.6389 43.237 63.985 42.1588 64.9195C41.0806 65.854 39.558 66.3212 37.591 66.3212C35.3986 66.3212 33.7388 65.7625 32.6148 64.6418C31.4876 63.5211 30.9256 61.8645 30.9256 59.6721C30.9256 57.4797 31.4876 55.8232 32.6148 54.7025C33.7421 53.5818 35.4019 53.0198 37.591 53.0198C39.4959 53.023 41.0021 53.5001 42.113 54.4509Z" fill="#A83617"/>
<path d="M55.5974 66.0956V61.2207H51.0591V66.0956H46.9324V53.2451H51.0591V57.9338H55.5974V53.2451H59.7241V66.0956H55.5974Z" fill="#A83617"/>
<path d="M72.0878 66.0956V61.2207H67.5494V66.0956H63.4227V53.2451H67.5494V57.9338H72.0878V53.2451H76.2144V66.0956H72.0878Z" fill="#A83617"/>
<path d="M88.5258 66.0956L87.9835 64.2823H83.481L82.9387 66.0956H78.7172L83.4059 53.2451H88.2056L92.8943 66.0956H88.5258ZM84.3403 61.4102H87.1241L85.778 56.8327H85.7028L84.3403 61.4102Z" fill="#A83617"/>
<path d="M95.3807 53.2483H99.5074V62.8119H106.101V66.0988H95.3807V53.2483Z" fill="#A83617"/>
<path d="M115.217 56.5353V66.0988H111.09V56.5353H106.869V53.2483H119.419V56.5353H115.217Z" fill="#A83617"/>
<path d="M133.37 64.9389C132.263 65.8603 130.688 66.321 128.646 66.321C126.604 66.321 125.026 65.8603 123.911 64.9389C122.797 64.0175 122.238 62.6779 122.238 60.9233V53.2483H126.365V60.8678C126.365 61.5899 126.558 62.1649 126.943 62.5962C127.329 63.0242 127.891 63.2399 128.626 63.2399C129.361 63.2399 129.923 63.021 130.315 62.5864C130.707 62.1519 130.904 61.5768 130.904 60.8678V53.2483H135.03V60.9233C135.033 62.6779 134.478 64.0175 133.37 64.9389Z" fill="#A83617"/>
<path d="M147.92 66.0956L142.522 59.8583V66.0956H138.732V53.2451H142.336L147.734 59.5773V53.2451H151.524V66.0956H147.92Z" fill="#A83617"/>
<path d="M165.012 53.5817C165.995 53.9542 166.776 54.5064 167.354 55.235C167.933 55.9636 168.223 56.8491 168.223 57.8979H164.283C164.283 57.3621 164.048 56.9308 163.574 56.6008C163.1 56.2708 162.528 56.1074 161.855 56.1074C160.885 56.1074 160.15 56.3655 159.65 56.8818C159.153 57.398 158.902 58.1299 158.902 59.0774V60.2733C158.902 61.2208 159.15 61.9527 159.65 62.469C160.146 62.9852 160.882 63.2433 161.855 63.2433C162.528 63.2433 163.1 63.0832 163.574 62.7663C164.048 62.4494 164.283 62.0409 164.283 61.5443H161.368V58.9304H168.223V66.1023H166.093L165.681 64.8313C164.512 65.8278 162.979 66.3245 161.087 66.3245C158.957 66.3245 157.359 65.769 156.288 64.6516C155.216 63.5374 154.68 61.8776 154.68 59.6754C154.68 57.496 155.288 55.8428 156.5 54.7155C157.715 53.5883 159.441 53.0263 161.682 53.0263C162.917 53.023 164.028 53.2093 165.012 53.5817Z" fill="#A83617"/>
<path d="M51.2453 79.6158C50.6572 79.4132 49.8991 79.2139 48.9875 79.0277C48.2459 78.8806 47.7035 78.7401 47.38 78.6094C47.0729 78.4853 47.0729 78.3415 47.0729 78.2729C47.0729 78.201 47.1415 78.1259 47.2787 78.0507C47.4813 77.9396 47.795 77.8808 48.2099 77.8808C48.6085 77.8808 48.8961 77.9592 49.0692 78.1161C49.2391 78.2696 49.3143 78.4461 49.3143 78.6781V79.0799H53.3462V78.5408C53.3233 77.2894 52.794 76.3321 51.7779 75.6917C50.8075 75.0807 49.5626 74.7736 48.0792 74.7736C46.573 74.7736 45.3052 75.0807 44.312 75.6917C43.2631 76.3321 42.7306 77.3384 42.7306 78.6813C42.7306 79.5962 42.9854 80.3379 43.482 80.8868C43.9623 81.4128 44.5309 81.7951 45.1745 82.0238C45.4849 82.1349 45.8411 82.2427 46.2364 82.3473H42.5508V82.6838C42.5508 84.2849 43.0932 85.4252 44.1649 86.0721C45.1811 86.6864 46.6056 86.9968 48.4027 86.9968C49.9612 86.9968 51.229 86.6537 52.1765 85.9774C53.1567 85.2749 53.6566 84.1966 53.6566 82.7623C53.6435 81.8997 53.3887 81.2005 52.8986 80.6842C52.4281 80.1941 51.8726 79.8347 51.2453 79.6158ZM51.7811 85.4284C50.9512 86.0231 49.8142 86.3237 48.4027 86.3237C46.7331 86.3237 45.4229 86.046 44.5145 85.497C43.7206 85.0167 43.3023 84.2064 43.237 83.0269H45.9587C46.0175 83.5301 46.207 83.8895 46.5338 84.0986C46.8866 84.3273 47.3898 84.4351 48.0792 84.4351C48.5661 84.4351 48.981 84.3796 49.311 84.2718C49.7488 84.128 49.9906 83.8013 49.9906 83.3504C49.9906 83.0629 49.8697 82.6675 49.2849 82.429C48.932 82.2852 48.3831 82.1382 47.6153 81.9814C46.7233 81.7919 45.9783 81.5893 45.4033 81.3867C44.8641 81.1972 44.3871 80.8737 43.9819 80.4326C43.5931 80.0079 43.4036 79.4328 43.4036 78.6813C43.4036 77.577 43.8153 76.7863 44.6616 76.27C45.5503 75.7276 46.7004 75.4532 48.0792 75.4532C49.4352 75.4532 50.5591 75.7276 51.4185 76.27C52.2026 76.7634 52.611 77.4659 52.6666 78.4101H49.9678C49.9122 78.1063 49.7652 77.8416 49.5234 77.6227C49.2228 77.3483 48.7784 77.211 48.2099 77.211C47.6708 77.211 47.2591 77.2927 46.952 77.4626C46.4945 77.7174 46.3965 78.0475 46.3965 78.2762C46.3965 78.5245 46.4913 78.9819 47.1251 79.2368C47.4944 79.3871 48.0629 79.5374 48.8536 79.6942C49.7325 79.8739 50.4644 80.0634 51.0264 80.2595C51.5492 80.4424 52.0164 80.743 52.4085 81.1547C52.7842 81.5501 52.9705 82.0794 52.9803 82.7721C52.9803 83.981 52.5882 84.8501 51.7811 85.4284ZM46.6154 82.6871V82.4453C46.8866 82.5139 47.1709 82.5793 47.4748 82.6446C48.1968 82.7917 48.7196 82.9289 49.0268 83.0563C49.311 83.174 49.311 83.2981 49.311 83.3504C49.311 83.4843 49.2783 83.5693 49.0986 83.6281C48.8372 83.7131 48.4909 83.7588 48.076 83.7588C47.3931 83.7588 47.0598 83.6346 46.8964 83.5301C46.7102 83.4059 46.6154 83.1217 46.6154 82.6871Z" fill="#A83617"/>
<path d="M59.8352 82.4227H65.0238V79.1847H59.8352V78.3189H65.9027V74.9666H55.5778V86.8009H66.017V83.4519H59.8385V82.4227H59.8352ZM65.3374 84.125V86.1246H56.2509V75.6429H65.2263V77.6425H59.1589V79.8578H64.3474V81.7431H59.1589V84.1217H65.3374V84.125Z" fill="#A83617"/>
<path d="M78.7532 80.7661C79.1584 80.1616 79.3609 79.4754 79.3609 78.7305C79.3609 78.0607 79.2008 77.4301 78.8904 76.8583C78.5735 76.28 78.0965 75.8127 77.4757 75.4762C76.8614 75.1429 76.1164 74.973 75.2636 74.973H68.0983V86.8074H72.359V82.733H73.1399L75.1199 86.8041H79.9164L77.345 81.9619C77.9363 81.6777 78.4101 81.2758 78.7532 80.7661ZM78.7859 86.1278H75.5381L73.5581 82.0567H71.6794V86.1278H68.7714V75.6428H75.2604C75.9988 75.6428 76.6359 75.7833 77.1522 76.0643C77.6586 76.3388 78.0442 76.7145 78.299 77.1785C78.5572 77.6523 78.6878 78.1718 78.6878 78.7272C78.6878 79.3448 78.5245 79.8904 78.1945 80.3903C77.8645 80.887 77.394 81.2398 76.7536 81.4783L76.3909 81.6123L78.7859 86.1278Z" fill="#A83617"/>
<path d="M75.3225 77.9038C75.0644 77.6457 74.7409 77.5117 74.3684 77.5117H71.6794V80.2465H74.3684C74.7442 80.2465 75.0644 80.1125 75.3258 79.8446C75.5839 79.58 75.7146 79.2532 75.7146 78.871C75.7113 78.4919 75.5806 78.1652 75.3225 77.9038ZM74.8389 79.3774C74.7082 79.5114 74.5579 79.5767 74.3684 79.5767H72.3557V78.1913H74.3684C74.5612 78.1913 74.7115 78.2534 74.8422 78.3841C74.9729 78.5148 75.035 78.6716 75.035 78.8742C75.035 79.08 74.9729 79.2402 74.8389 79.3774Z" fill="#A83617"/>
<path d="M86.7615 81.7036L84.7423 74.9696H80.1843L84.3829 86.804H89.0127L93.1917 74.9696H88.7971L86.7615 81.7036ZM92.2344 75.6427L88.5324 86.1244H84.8567L81.1384 75.6427H84.2359L86.474 83.1021H87.0425L89.297 75.6427H92.2344Z" fill="#A83617"/>
<path d="M94.8384 86.8009H99.0991V74.9666H94.8384V86.8009ZM95.5148 75.6429H98.4227V86.1246H95.5148V75.6429Z" fill="#A83617"/>
<path d="M111.6 76.097C110.581 75.218 109.185 74.7737 107.454 74.7737C105.467 74.7737 103.932 75.2965 102.892 76.3322C101.853 77.3647 101.324 78.8971 101.324 80.8869C101.324 82.8735 101.85 84.4059 102.892 85.4416C103.932 86.4741 105.467 87.0001 107.454 87.0001C109.238 87.0001 110.646 86.5623 111.639 85.6997C112.649 84.8274 113.159 83.5629 113.159 81.9423V81.6057H109.176V81.9423C109.176 82.5043 109.032 82.9192 108.738 83.2133C108.447 83.5041 107.999 83.6511 107.405 83.6511C106.81 83.6511 106.385 83.4714 106.111 83.0989C105.817 82.7003 105.666 82.1318 105.666 81.4097V80.3707C105.666 79.6388 105.817 79.067 106.111 78.6749C106.385 78.309 106.82 78.1293 107.437 78.1293C107.97 78.1293 108.362 78.2796 108.637 78.5834C108.921 78.9004 109.061 79.3316 109.061 79.8969V80.2334H113.159V79.8969C113.162 78.2632 112.636 76.9857 111.6 76.097ZM109.725 79.5571C109.672 78.9788 109.476 78.4985 109.143 78.1293C108.738 77.6784 108.166 77.4497 107.441 77.4497C106.607 77.4497 105.98 77.7241 105.572 78.2665C105.189 78.7795 104.993 79.4852 104.993 80.3674V81.4064C104.993 82.2755 105.186 82.9813 105.572 83.4975C105.977 84.0465 106.598 84.3242 107.408 84.3242C108.189 84.3242 108.8 84.1118 109.221 83.6903C109.574 83.3374 109.783 82.8637 109.839 82.2821H112.479C112.417 83.5465 111.999 84.5006 111.201 85.1933C110.332 85.9448 109.074 86.3271 107.457 86.3271C105.657 86.3271 104.281 85.8696 103.373 84.9646C102.464 84.0628 102.004 82.6905 102.004 80.8902C102.004 79.0899 102.464 77.7176 103.373 76.8158C104.281 75.914 105.653 75.4533 107.457 75.4533C109.019 75.4533 110.267 75.8421 111.162 76.6132C111.982 77.319 112.417 78.2861 112.479 79.5636H109.725V79.5571Z" fill="#A83617"/>
<path d="M119.487 83.4517V82.4257H124.676V79.1878H119.487V78.3219H125.555V74.9696H115.23V86.804H125.669V83.4517H119.487ZM124.99 86.1276H115.903V75.6427H124.879V77.6423H118.811V79.8576H124V81.7428H118.811V84.1215H124.99V86.1276Z" fill="#A83617"/>
</svg>
