<svg width="169" height="87" viewBox="0 0 169 87" fill="none" xmlns="http://www.w3.org/2000/svg">
<path d="M74.3357 9.84457C74.3357 8.75327 74.522 7.68811 74.8912 6.67523L75.0219 6.31909H71.3199V16.0428H76.6751L76.2896 15.5428C76.2537 15.4971 76.2177 15.4514 76.1818 15.3958C74.9728 13.7785 74.3357 11.8573 74.3357 9.84457ZM73.8031 9.84457C73.8031 11.8932 74.4239 13.8471 75.6035 15.5102H71.8493V6.85166H74.2671C73.96 7.81553 73.8031 8.82188 73.8031 9.84457Z" fill="white"/>
<path d="M76.3909 10.779C76.5837 12.2984 77.2437 13.6968 78.2958 14.8273C78.4297 14.9711 79.1355 15.7095 79.8772 16.033L79.9066 16.046H92.0024C92.3291 16.046 92.6558 16.0134 92.9728 15.9513C95.0083 15.5461 96.5669 13.8994 96.8544 11.854C96.8871 11.6416 96.9034 11.4162 96.9034 11.1842C96.9034 10.4948 96.7531 9.8021 96.4656 9.17804C95.8121 7.75347 94.5084 6.72098 92.976 6.41711C92.8878 6.40078 92.7931 6.38445 92.7048 6.37138L92.2735 6.31256L92.4206 6.72425C92.7146 7.55416 92.8911 8.42001 92.9401 9.30546C92.9499 9.48516 92.9564 9.66487 92.9564 9.84784C92.9564 10.4229 92.9041 10.9947 92.7996 11.5501H90.7608C90.849 11.1842 90.9078 10.8117 90.9372 10.449C90.9405 10.4164 90.9437 10.3837 90.9437 10.3739C90.9568 10.1975 90.9601 10.0275 90.9601 9.84784C90.9601 9.6616 90.9535 9.4721 90.9372 9.26952C90.8588 8.27625 90.5876 7.33525 90.1269 6.46286L90.0517 6.32236H79.423C80.2987 5.21799 81.5762 4.49591 82.955 4.326H88.5128L87.8201 3.84243C86.5949 2.98312 85.1507 2.53223 83.6477 2.53223C82.1447 2.53223 80.7005 2.98638 79.472 3.84243C78.5049 4.51551 77.7076 5.42057 77.162 6.46286C76.7046 7.33525 76.4301 8.27951 76.355 9.26625C76.3386 9.4721 76.3321 9.6616 76.3321 9.84457C76.3321 10.1484 76.3517 10.4588 76.3909 10.7464V10.779ZM83.6444 3.06154C84.7161 3.06154 85.765 3.31312 86.7092 3.79342L82.9224 3.79669C81.1874 4.0058 79.6387 4.96967 78.6813 6.44325L78.4134 6.85494H89.7315C90.1138 7.6195 90.3425 8.44615 90.4079 9.30873C90.4209 9.5015 90.4308 9.67794 90.4308 9.84784C90.4308 10.0145 90.4242 10.1746 90.4144 10.3543L90.4112 10.3902C90.3752 10.8444 90.2903 11.2986 90.1661 11.7396L90.0681 12.0794H93.2374L93.2832 11.8703C93.4237 11.2136 93.4955 10.5307 93.4955 9.84784C93.4955 9.6518 93.489 9.46556 93.4792 9.27278C93.4335 8.49515 93.2962 7.72406 93.0708 6.9791C94.3549 7.29603 95.4364 8.18802 95.9885 9.39695C96.2434 9.94913 96.3773 10.5667 96.3773 11.1809C96.3773 11.3868 96.3643 11.5861 96.3349 11.7756C96.08 13.5988 94.6914 15.0658 92.878 15.4252C92.597 15.4808 92.3062 15.5102 92.0122 15.5102H80.0275C79.557 15.288 79.0179 14.811 78.6944 14.4646C77.7174 13.4191 77.1097 12.1252 76.93 10.7268L76.9267 10.6941C76.8908 10.4131 76.8712 10.1256 76.8712 9.84457C76.8712 9.67467 76.8777 9.49823 76.8941 9.30546C76.966 8.3906 77.2175 7.51495 77.6423 6.70791C78.1487 5.74077 78.8872 4.90106 79.7857 4.277C80.9129 3.47976 82.2526 3.06154 83.6444 3.06154Z" fill="white"/>
<path d="M93.4663 18.4246C96.6684 17.7875 99.1058 15.0789 99.3966 11.8376C99.4162 11.6318 99.426 11.4161 99.426 11.1809C99.426 10.5111 99.3345 9.85109 99.1548 9.21395C98.4131 6.54779 96.1782 4.47628 93.4631 3.9339C92.9828 3.83914 92.4927 3.79013 92.0026 3.79013H91.4046C89.5226 1.37882 86.6996 0 83.6479 0C80.5962 0 77.7732 1.37882 75.8912 3.79013H68.7945V18.5684H92.0026C92.4959 18.5684 92.9893 18.5194 93.4663 18.4246ZM83.6447 0.532571C86.5722 0.532571 89.2743 1.87546 91.0583 4.21815L91.1367 4.32271H91.9993C92.4535 4.32271 92.9109 4.36846 93.3552 4.45668C95.8744 4.95985 97.9492 6.88432 98.6386 9.35772C98.8052 9.94584 98.8902 10.5601 98.8902 11.1809C98.8902 11.3998 98.8804 11.5991 98.864 11.7886C98.5961 14.7979 96.3318 17.3105 93.3618 17.9019C92.9174 17.9901 92.46 18.0358 91.9993 18.0358H69.3205V4.32271H76.1493L76.231 4.21815C78.0117 1.87872 80.7138 0.532571 83.6447 0.532571Z" fill="white"/>
<path d="M90.9078 27.7889C90.7117 26.2663 90.0517 24.8646 88.9997 23.7341C88.8657 23.5903 88.1599 22.8519 87.4379 22.5383L71.2938 22.5154V32.2554H75.0056L74.8552 31.8535C74.5612 31.0236 74.3848 30.1545 74.3325 29.269C74.3227 29.0893 74.3161 28.9096 74.3161 28.7266C74.3161 28.1516 74.3684 27.5765 74.473 27.0211H76.5151C76.4269 27.387 76.368 27.7595 76.3386 28.1254C76.3354 28.1581 76.3321 28.1875 76.3321 28.2006C76.319 28.3738 76.3158 28.5469 76.3158 28.7266C76.3158 28.9096 76.3223 29.0991 76.3386 29.3082C76.417 30.3015 76.6882 31.2458 77.1489 32.1149C77.6783 33.131 78.4559 34.023 79.4001 34.6961L79.459 34.7418C80.6875 35.6012 82.1317 36.0553 83.6379 36.0553C85.1442 36.0553 86.5883 35.6012 87.8201 34.7418L88.5128 34.2583L82.9779 34.2615C81.5729 34.0916 80.2856 33.3663 79.4067 32.2587H90.0583L90.1334 32.1149C90.5909 31.2425 90.8653 30.295 90.9437 29.305C90.9601 29.0958 90.9666 28.9063 90.9666 28.7266C90.9666 28.4228 90.947 28.1091 90.9111 27.8248L90.9078 27.7889ZM78.4003 31.7228L78.6683 32.1345C79.6289 33.6081 81.1841 34.5752 82.9485 34.7876H86.7125C85.765 35.2679 84.7161 35.5227 83.6412 35.5227C82.246 35.5227 80.9031 35.1013 79.7694 34.3073L79.7105 34.2648C78.8316 33.6408 78.1095 32.8108 77.6194 31.8666C77.1914 31.0595 76.9398 30.1839 76.8679 29.2657C76.8549 29.073 76.8451 28.8965 76.8451 28.7266C76.8451 28.56 76.8516 28.3999 76.8614 28.2202L76.7111 28.2104L76.8679 28.181C76.9039 27.7268 76.9888 27.2727 77.113 26.8283L77.211 26.4885H74.0384L73.9927 26.6976C73.8522 27.3576 73.7803 28.0372 73.7803 28.7234C73.7803 28.9194 73.7868 29.1089 73.7966 29.2984C73.8456 30.1251 73.9959 30.9386 74.2442 31.7228H71.8231V23.048H87.2712C87.745 23.2701 88.2841 23.7472 88.6043 24.0968C89.5812 25.1423 90.1922 26.4395 90.3719 27.8379L90.3752 27.8706C90.4111 28.1549 90.4308 28.4424 90.4308 28.7234C90.4308 28.89 90.4242 29.0664 90.4079 29.2625C90.3393 30.1283 90.1138 30.955 89.7315 31.7228H78.4003Z" fill="white"/>
<path d="M99.4225 26.7303C99.1317 23.4825 96.691 20.7706 93.4825 20.1302C93.0022 20.0322 92.5088 19.9832 92.0122 19.9832H68.7649V34.7843H75.8714C77.7567 37.1989 80.5862 38.581 83.6412 38.581C86.6994 38.581 89.5257 37.1989 91.411 34.7843H92.0154C92.5023 34.7843 92.9956 34.7353 93.4792 34.6405C96.1976 34.0982 98.4391 32.0234 99.1808 29.354C99.3605 28.7168 99.4519 28.0535 99.4519 27.3837C99.4519 27.1485 99.4421 26.9361 99.4225 26.7303ZM92.0154 34.255H91.1496L91.0712 34.3595C89.2872 36.7055 86.5818 38.0517 83.6445 38.0517C80.7104 38.0517 78.0017 36.7055 76.2177 34.3595L76.1393 34.255H69.3007V20.5157H92.0187C92.4794 20.5157 92.9401 20.5615 93.3845 20.6497C96.361 21.2411 98.6286 23.7602 98.8965 26.776C98.9161 26.9688 98.9226 27.1681 98.9226 27.3837C98.9226 28.0045 98.8377 28.6188 98.671 29.2102C97.9816 31.6901 95.9036 33.6146 93.3779 34.121C92.927 34.2093 92.4696 34.255 92.0154 34.255Z" fill="white"/>
<path d="M92.9859 22.6101C92.6689 22.5481 92.3422 22.5154 92.0155 22.5154H90.6268L91.0026 23.0022C91.0418 23.0545 91.0843 23.1035 91.1235 23.1623C92.3324 24.7829 92.9695 26.7074 92.9695 28.7234C92.9695 29.7951 92.7865 30.8472 92.4271 31.8535L92.2899 32.2619L92.7179 32.2031C92.8094 32.19 92.9009 32.177 92.9891 32.1574C94.5248 31.8502 95.8317 30.8178 96.4819 29.3932C96.7695 28.7691 96.9198 28.0732 96.9198 27.3838C96.9198 27.1518 96.9034 26.9263 96.8708 26.7139C96.5865 24.6686 95.0247 23.0186 92.9859 22.6101ZM93.5021 28.7234C93.5021 26.6715 92.878 24.7143 91.6985 23.048H92.0155C92.3095 23.048 92.6003 23.0774 92.8846 23.1329C94.7012 23.4956 96.0931 24.9659 96.348 26.7924C96.3774 26.9819 96.3905 27.1812 96.3905 27.387C96.3905 28.0013 96.2565 28.6188 96.0016 29.1743C95.4462 30.3865 94.3614 31.2817 93.0741 31.5987C93.3551 30.6707 93.5021 29.7036 93.5021 28.7234Z" fill="white"/>
<path d="M10.3314 53.647C10.8738 53.9149 11.3018 54.2907 11.6187 54.7775C11.9357 55.2643 12.0958 55.8035 12.0958 56.4014C12.0958 57.9828 11.3802 58.9793 9.94911 59.391V59.4662C11.5795 59.8387 12.3964 60.9103 12.3964 62.678C12.3964 63.3511 12.2297 63.9457 11.903 64.462C11.573 64.9782 11.1221 65.3801 10.5503 65.6676C9.97852 65.9551 9.34792 66.0956 8.66504 66.0956H0V53.2451H8.55395C9.19436 53.2484 9.78901 53.3823 10.3314 53.647ZM4.12014 58.254H6.95948C7.23394 58.254 7.45938 58.1592 7.64236 57.9632C7.82206 57.7704 7.91355 57.5319 7.91355 57.2444V57.0581C7.91355 56.7837 7.81879 56.5517 7.63256 56.3589C7.44632 56.1661 7.22087 56.0681 6.95948 56.0681H4.12014V58.254ZM4.12014 63.1093H7.25681C7.53127 63.1093 7.75672 63.0113 7.93969 62.8185C8.11939 62.6257 8.21088 62.3872 8.21088 62.0997V61.9134C8.21088 61.6259 8.11939 61.3874 7.93969 61.1946C7.75998 61.0018 7.53127 60.9038 7.25681 60.9038H4.12014V63.1093Z" fill="white"/>
<path d="M26.1062 64.9387C24.9986 65.8601 23.4237 66.3208 21.3816 66.3208C19.3395 66.3208 17.7614 65.8601 16.6472 64.9387C15.533 64.0173 14.9743 62.6777 14.9743 60.9231V53.248H19.101V60.8675C19.101 61.5896 19.2938 62.1647 19.6793 62.596C20.0649 63.024 20.6268 63.2396 21.362 63.2396C22.0972 63.2396 22.6591 63.0207 23.0512 62.5862C23.4433 62.1516 23.6393 61.5766 23.6393 60.8675V53.248H27.766V60.9231C27.766 62.6777 27.2138 64.0173 26.1062 64.9387Z" fill="white"/>
<path d="M42.113 54.4506C43.2207 55.4047 43.7761 56.7639 43.7761 58.5316H39.8357C39.8357 57.7833 39.6397 57.192 39.2476 56.7574C38.8555 56.3228 38.2968 56.1039 37.5747 56.1039C36.7415 56.1039 36.1272 56.3653 35.7352 56.8881C35.3431 57.4109 35.147 58.1395 35.147 59.074V60.2698C35.147 61.1912 35.3431 61.9166 35.7352 62.4459C36.1272 62.9752 36.7284 63.2398 37.5387 63.2398C38.336 63.2398 38.9404 63.034 39.3489 62.6223C39.7605 62.2106 39.9664 61.6323 39.9664 60.8841H43.7761C43.7761 62.6386 43.237 63.9848 42.1588 64.9193C41.0806 65.8537 39.558 66.321 37.591 66.321C35.3986 66.321 33.7388 65.7622 32.6148 64.6415C31.4876 63.5208 30.9256 61.8643 30.9256 59.6719C30.9256 57.4795 31.4876 55.8229 32.6148 54.7022C33.7421 53.5815 35.4019 53.0195 37.591 53.0195C39.4959 53.0228 41.0021 53.4998 42.113 54.4506Z" fill="white"/>
<path d="M55.5974 66.0956V61.2207H51.0591V66.0956H46.9324V53.2451H51.0591V57.9338H55.5974V53.2451H59.7241V66.0956H55.5974Z" fill="white"/>
<path d="M72.0878 66.0956V61.2207H67.5494V66.0956H63.4227V53.2451H67.5494V57.9338H72.0878V53.2451H76.2144V66.0956H72.0878Z" fill="white"/>
<path d="M88.5258 66.0956L87.9835 64.2823H83.481L82.9387 66.0956H78.7172L83.4059 53.2451H88.2056L92.8943 66.0956H88.5258ZM84.3403 61.4102H87.1241L85.778 56.8327H85.7028L84.3403 61.4102Z" fill="white"/>
<path d="M95.3807 53.248H99.5074V62.8116H106.101V66.0986H95.3807V53.248Z" fill="white"/>
<path d="M115.217 56.535V66.0986H111.09V56.535H106.869V53.248H119.419V56.535H115.217Z" fill="white"/>
<path d="M133.37 64.9387C132.263 65.8601 130.688 66.3208 128.646 66.3208C126.604 66.3208 125.026 65.8601 123.911 64.9387C122.797 64.0173 122.238 62.6777 122.238 60.9231V53.248H126.365V60.8675C126.365 61.5896 126.558 62.1647 126.943 62.596C127.329 63.024 127.891 63.2396 128.626 63.2396C129.361 63.2396 129.923 63.0207 130.315 62.5862C130.707 62.1516 130.904 61.5766 130.904 60.8675V53.248H135.03V60.9231C135.033 62.6777 134.478 64.0173 133.37 64.9387Z" fill="white"/>
<path d="M147.92 66.0956L142.522 59.8583V66.0956H138.732V53.2451H142.336L147.734 59.5773V53.2451H151.524V66.0956H147.92Z" fill="white"/>
<path d="M165.012 53.5816C165.995 53.9541 166.776 54.5063 167.354 55.2349C167.933 55.9635 168.223 56.849 168.223 57.8978H164.283C164.283 57.362 164.048 56.9307 163.574 56.6007C163.1 56.2707 162.528 56.1073 161.855 56.1073C160.885 56.1073 160.15 56.3654 159.65 56.8817C159.153 57.3979 158.902 58.1298 158.902 59.0773V60.2732C158.902 61.2207 159.15 61.9526 159.65 62.4688C160.146 62.9851 160.882 63.2432 161.855 63.2432C162.528 63.2432 163.1 63.0831 163.574 62.7662C164.048 62.4492 164.283 62.0408 164.283 61.5442H161.368V58.9303H168.223V66.1021H166.093L165.681 64.8311C164.512 65.8277 162.979 66.3243 161.087 66.3243C158.957 66.3243 157.359 65.7689 156.288 64.6514C155.216 63.5373 154.68 61.8774 154.68 59.6752C154.68 57.4959 155.288 55.8426 156.5 54.7154C157.715 53.5882 159.441 53.0262 161.682 53.0262C162.917 53.0229 164.028 53.2091 165.012 53.5816Z" fill="white"/>
<path d="M51.2453 79.6157C50.6572 79.4131 49.8991 79.2138 48.9875 79.0275C48.2459 78.8805 47.7035 78.74 47.38 78.6093C47.0729 78.4852 47.0729 78.3414 47.0729 78.2728C47.0729 78.2009 47.1415 78.1258 47.2787 78.0506C47.4813 77.9395 47.795 77.8807 48.2099 77.8807C48.6085 77.8807 48.8961 77.9591 49.0692 78.1159C49.2391 78.2695 49.3143 78.446 49.3143 78.6779V79.0798H53.3462V78.5407C53.3233 77.2893 52.794 76.332 51.7779 75.6916C50.8075 75.0806 49.5626 74.7734 48.0792 74.7734C46.573 74.7734 45.3052 75.0806 44.312 75.6916C43.2631 76.332 42.7306 77.3383 42.7306 78.6812C42.7306 79.5961 42.9854 80.3378 43.482 80.8867C43.9623 81.4127 44.5309 81.795 45.1745 82.0237C45.4849 82.1348 45.8411 82.2426 46.2364 82.3472H42.5508V82.6837C42.5508 84.2847 43.0932 85.425 44.1649 86.072C45.1811 86.6862 46.6056 86.9966 48.4027 86.9966C49.9612 86.9966 51.229 86.6536 52.1765 85.9772C53.1567 85.2747 53.6566 84.1965 53.6566 82.7621C53.6435 81.8996 53.3887 81.2003 52.8986 80.6841C52.4281 80.194 51.8726 79.8346 51.2453 79.6157ZM51.7811 85.4283C50.9512 86.023 49.8142 86.3236 48.4027 86.3236C46.7331 86.3236 45.4229 86.0458 44.5145 85.4969C43.7206 85.0166 43.3023 84.2063 43.237 83.0268H45.9587C46.0175 83.53 46.207 83.8894 46.5338 84.0985C46.8866 84.3272 47.3898 84.435 48.0792 84.435C48.5661 84.435 48.981 84.3795 49.311 84.2717C49.7488 84.1279 49.9906 83.8012 49.9906 83.3503C49.9906 83.0627 49.8697 82.6674 49.2849 82.4289C48.932 82.2851 48.3831 82.1381 47.6153 81.9812C46.7233 81.7917 45.9783 81.5891 45.4033 81.3866C44.8641 81.1971 44.3871 80.8736 43.9819 80.4325C43.5931 80.0078 43.4036 79.4327 43.4036 78.6812C43.4036 77.5768 43.8153 76.7861 44.6616 76.2699C45.5503 75.7275 46.7004 75.4531 48.0792 75.4531C49.4352 75.4531 50.5591 75.7275 51.4185 76.2699C52.2026 76.7633 52.611 77.4657 52.6666 78.41H49.9678C49.9122 78.1061 49.7652 77.8415 49.5234 77.6226C49.2228 77.3481 48.7784 77.2109 48.2099 77.2109C47.6708 77.2109 47.2591 77.2926 46.952 77.4625C46.4945 77.7173 46.3965 78.0473 46.3965 78.2761C46.3965 78.5244 46.4913 78.9818 47.1251 79.2367C47.4944 79.387 48.0629 79.5372 48.8536 79.6941C49.7325 79.8738 50.4644 80.0633 51.0264 80.2593C51.5492 80.4423 52.0164 80.7429 52.4085 81.1546C52.7842 81.55 52.9705 82.0793 52.9803 82.7719C52.9803 83.9809 52.5882 84.85 51.7811 85.4283ZM46.6154 82.687V82.4452C46.8866 82.5138 47.1709 82.5792 47.4748 82.6445C48.1968 82.7915 48.7196 82.9288 49.0268 83.0562C49.311 83.1738 49.311 83.298 49.311 83.3503C49.311 83.4842 49.2783 83.5692 49.0986 83.628C48.8372 83.7129 48.4909 83.7587 48.076 83.7587C47.3931 83.7587 47.0598 83.6345 46.8964 83.53C46.7102 83.4058 46.6154 83.1216 46.6154 82.687Z" fill="white"/>
<path d="M59.8352 82.4224H65.0238V79.1845H59.8352V78.3186H65.9027V74.9663H55.5778V86.8007H66.017V83.4516H59.8385V82.4224H59.8352ZM65.3374 84.1247V86.1243H56.2509V75.6427H65.2263V77.6423H59.1589V79.8575H64.3474V81.7428H59.1589V84.1214H65.3374V84.1247Z" fill="white"/>
<path d="M78.7532 80.7659C79.1584 80.1615 79.3609 79.4753 79.3609 78.7304C79.3609 78.0606 79.2008 77.43 78.8904 76.8582C78.5735 76.2799 78.0965 75.8126 77.4757 75.4761C76.8614 75.1428 76.1164 74.9729 75.2636 74.9729H68.0983V86.8073H72.359V82.7329H73.1399L75.1199 86.804H79.9164L77.345 81.9618C77.9363 81.6775 78.4101 81.2757 78.7532 80.7659ZM78.7859 86.1277H75.5381L73.5581 82.0566H71.6794V86.1277H68.7714V75.6427H75.2604C75.9988 75.6427 76.6359 75.7832 77.1522 76.0642C77.6586 76.3387 78.0442 76.7144 78.299 77.1784C78.5572 77.6521 78.6878 78.1717 78.6878 78.7271C78.6878 79.3446 78.5245 79.8903 78.1945 80.3902C77.8645 80.8868 77.394 81.2397 76.7536 81.4782L76.3909 81.6122L78.7859 86.1277Z" fill="white"/>
<path d="M75.3225 77.9036C75.0644 77.6454 74.7409 77.5115 74.3684 77.5115H71.6794V80.2463H74.3684C74.7442 80.2463 75.0644 80.1123 75.3258 79.8444C75.5839 79.5797 75.7146 79.253 75.7146 78.8707C75.7113 78.4917 75.5806 78.165 75.3225 77.9036ZM74.8389 79.3771C74.7082 79.5111 74.5579 79.5764 74.3684 79.5764H72.3557V78.1911H74.3684C74.5612 78.1911 74.7115 78.2532 74.8422 78.3839C74.9729 78.5145 75.035 78.6714 75.035 78.874C75.035 79.0798 74.9729 79.2399 74.8389 79.3771Z" fill="white"/>
<path d="M86.7615 81.7035L84.7423 74.9695H80.1843L84.3829 86.8039H89.0127L93.1917 74.9695H88.7971L86.7615 81.7035ZM92.2344 75.6426L88.5324 86.1242H84.8567L81.1384 75.6426H84.2359L86.474 83.1019H87.0425L89.297 75.6426H92.2344Z" fill="white"/>
<path d="M94.8384 86.8007H99.0991V74.9663H94.8384V86.8007ZM95.5148 75.6427H98.4227V86.1243H95.5148V75.6427Z" fill="white"/>
<path d="M111.6 76.097C110.581 75.218 109.185 74.7737 107.454 74.7737C105.467 74.7737 103.932 75.2965 102.892 76.3322C101.853 77.3647 101.324 78.8971 101.324 80.8869C101.324 82.8735 101.85 84.4059 102.892 85.4416C103.932 86.4741 105.467 87.0001 107.454 87.0001C109.238 87.0001 110.646 86.5623 111.639 85.6997C112.649 84.8274 113.159 83.5629 113.159 81.9423V81.6057H109.176V81.9423C109.176 82.5043 109.032 82.9192 108.738 83.2133C108.447 83.5041 107.999 83.6511 107.405 83.6511C106.81 83.6511 106.385 83.4714 106.111 83.0989C105.817 82.7003 105.666 82.1318 105.666 81.4097V80.3707C105.666 79.6388 105.817 79.067 106.111 78.6749C106.385 78.309 106.82 78.1293 107.437 78.1293C107.97 78.1293 108.362 78.2796 108.637 78.5834C108.921 78.9004 109.061 79.3316 109.061 79.8969V80.2334H113.159V79.8969C113.162 78.2632 112.636 76.9857 111.6 76.097ZM109.725 79.5571C109.672 78.9788 109.476 78.4985 109.143 78.1293C108.738 77.6784 108.166 77.4497 107.441 77.4497C106.607 77.4497 105.98 77.7241 105.572 78.2665C105.189 78.7795 104.993 79.4852 104.993 80.3674V81.4064C104.993 82.2755 105.186 82.9813 105.572 83.4975C105.977 84.0465 106.598 84.3242 107.408 84.3242C108.189 84.3242 108.8 84.1118 109.221 83.6903C109.574 83.3374 109.783 82.8637 109.839 82.2821H112.479C112.417 83.5465 111.999 84.5006 111.201 85.1933C110.332 85.9448 109.074 86.3271 107.457 86.3271C105.657 86.3271 104.281 85.8696 103.373 84.9646C102.464 84.0628 102.004 82.6905 102.004 80.8902C102.004 79.0899 102.464 77.7176 103.373 76.8158C104.281 75.914 105.653 75.4533 107.457 75.4533C109.019 75.4533 110.267 75.8421 111.162 76.6132C111.982 77.319 112.417 78.2861 112.479 79.5636H109.725V79.5571Z" fill="white"/>
<path d="M119.487 83.4515V82.4256H124.676V79.1876H119.487V78.3218H125.555V74.9695H115.23V86.8039H125.669V83.4515H119.487ZM124.99 86.1275H115.903V75.6426H124.879V77.6422H118.811V79.8574H124V81.7427H118.811V84.1213H124.99V86.1275Z" fill="white"/>
</svg>
