<svg width="459" height="383" viewBox="0 0 459 383" fill="none" xmlns="http://www.w3.org/2000/svg">
<g clip-path="url(#clip0)">
<path d="M191.696 279.335L200.388 290.642L224.916 293.856V298.021L197.888 300.402L184.791 286.119L191.696 279.335Z" fill="#08153F"/>
<path d="M224.916 294.451C224.916 294.451 227.059 294.213 227.416 295.879C227.774 297.545 224.916 297.307 224.916 297.307V294.451Z" fill="#F1FAE3"/>
<path d="M357.437 298.021C357.437 298.021 355.293 297.783 354.936 299.449C354.579 301.116 357.437 300.878 357.437 300.878V298.021Z" fill="#F1FAE3"/>
<path d="M357.079 299.092L375.058 293.618L388.513 289.928L391.251 298.973L376.725 301.116L357.556 303.139L357.079 299.092Z" fill="#08153F"/>
<path d="M349.221 377.525C349.221 380.62 321.955 383.119 288.259 383.119C254.563 383.119 227.297 380.62 227.297 377.525C227.297 374.431 254.563 371.931 288.259 371.931C321.955 371.931 349.221 374.431 349.221 377.525Z" fill="#C0C0C0"/>
<path d="M128.472 367.528C128.472 369.313 112.279 370.86 92.1572 370.86C72.035 370.86 55.842 369.432 55.842 367.528C55.842 365.742 72.035 364.195 92.1572 364.195C112.279 364.195 128.472 365.623 128.472 367.528Z" fill="#C0C0C0"/>
<path d="M70.9634 71.4109V61.2943H63.4622C62.8669 58.0808 61.5572 55.1054 59.7712 52.487L65.0101 47.2502L57.8661 40.1091L52.6272 45.3459C50.0078 43.5606 47.0311 42.3704 43.8163 41.6563V34.1582H33.6957V41.6563C30.4809 42.2514 27.5043 43.5606 24.8848 45.3459L19.6459 40.1091L12.5019 47.2502L17.7409 52.487C15.9549 55.1054 14.7642 58.0808 14.0498 61.2943H6.78677V71.4109H14.2879C14.8833 74.6243 16.193 77.5998 17.979 80.2182L12.7401 85.455L19.884 92.5961L25.123 87.3593C27.7424 89.1445 30.7191 90.3347 33.9338 91.0488V98.547H44.0545V91.0488C47.2693 90.4537 50.2459 89.1445 52.8654 87.3593L58.1043 92.5961L65.2482 85.455L60.0093 80.2182C61.7953 77.5998 62.986 74.6243 63.7004 71.4109H70.9634ZM38.8156 79.3851C31.6716 79.3851 25.8373 73.5532 25.8373 66.4121C25.8373 59.271 31.6716 53.4391 38.8156 53.4391C45.9595 53.4391 51.7938 59.271 51.7938 66.4121C51.9128 73.5532 46.0786 79.3851 38.8156 79.3851Z" fill="#F4DEDA"/>
<path d="M337.91 253.746V236.132H325.051C323.86 230.538 321.717 225.42 318.74 220.897L327.908 211.733L315.525 199.355L306.357 208.52C301.833 205.544 296.594 203.283 291.117 202.212V189.239H273.495V202.212C267.899 203.402 262.779 205.544 258.254 208.52L249.086 199.355L236.704 211.733L245.872 220.897C242.895 225.42 240.633 230.657 239.561 236.132H226.583V253.746H239.323C240.514 259.34 242.657 264.458 245.633 268.981L236.465 278.145L248.848 290.523L258.016 281.359C262.541 284.334 267.78 286.595 273.257 287.666V300.639H290.879V287.666C296.475 286.476 301.595 284.334 306.119 281.359L315.287 290.523L327.67 278.145L318.502 268.981C321.479 264.458 323.741 259.221 324.812 253.746H337.91ZM282.187 267.552C269.685 267.552 259.564 257.436 259.564 244.939C259.564 232.442 269.685 222.326 282.187 222.326C294.689 222.326 304.809 232.442 304.809 244.939C304.809 257.436 294.689 267.552 282.187 267.552Z" fill="#F4DEDA"/>
<path d="M355.651 308.733L373.272 279.216L362.914 273.027C366.605 262.554 368.034 251.723 367.557 241.131L379.345 238.155L370.891 204.83L359.104 207.806C354.46 198.165 348.03 189.358 339.815 181.979L346.006 171.624L316.478 154.009L310.286 164.364C299.809 160.674 288.974 159.246 278.377 159.722L275.4 147.939L242.061 156.39L245.038 168.173C235.394 172.814 226.583 179.241 219.201 187.453L208.842 181.264L191.22 210.781L201.579 216.97C197.888 227.443 196.459 238.274 196.935 248.867L185.148 251.842L193.602 285.167L205.389 282.192C210.033 291.832 216.462 300.64 224.678 308.019L218.486 318.373L248.015 335.988L254.206 325.633C264.684 329.323 275.519 330.751 286.116 330.275L289.093 342.058L322.431 333.608L319.454 321.825C329.099 317.183 337.91 310.756 345.292 302.544L355.651 308.733ZM339.458 283.858C339.219 284.215 338.981 284.572 338.743 284.81C338.148 285.643 337.672 286.357 337.076 287.072C336.838 287.429 336.481 287.786 336.243 288.143C335.647 288.857 335.052 289.571 334.457 290.285C334.219 290.523 333.981 290.88 333.742 291.118C332.909 292.07 331.956 293.022 331.004 293.975C326.36 298.616 321.002 302.544 315.287 305.638C312.787 307.067 310.167 308.257 307.548 309.209C307.429 309.209 307.31 309.328 307.191 309.328C306 309.804 304.69 310.28 303.381 310.637C303.262 310.637 303.262 310.637 303.142 310.756C300.404 311.589 297.665 312.303 294.927 312.898C294.808 312.898 294.808 312.898 294.689 312.898C293.379 313.136 292.069 313.374 290.76 313.493C290.64 313.493 290.521 313.493 290.402 313.493C287.545 313.851 284.687 313.97 281.83 313.97C275.4 313.97 268.851 313.017 262.541 311.232C261.35 310.875 260.04 310.399 258.85 310.042C258.493 309.923 258.135 309.804 257.778 309.685C256.945 309.328 255.992 308.971 255.159 308.614C254.802 308.495 254.325 308.257 253.968 308.138C253.135 307.781 252.301 307.305 251.349 306.947C250.991 306.709 250.634 306.59 250.277 306.352C249.086 305.757 247.896 305.043 246.705 304.329C245.514 303.615 244.443 302.901 243.252 302.187C242.895 301.949 242.538 301.711 242.3 301.473C241.466 300.878 240.752 300.402 240.037 299.806C239.68 299.568 239.323 299.211 238.966 298.973C238.251 298.378 237.537 297.783 236.823 297.188C236.584 296.95 236.227 296.712 235.989 296.474C235.037 295.641 234.084 294.689 233.132 293.737C228.488 289.095 224.559 283.739 221.463 278.026C220.034 275.527 218.844 272.908 217.891 270.29C217.891 270.171 217.772 270.052 217.772 269.933C217.296 268.743 216.819 267.434 216.462 266.124C216.462 266.005 216.462 266.005 216.343 265.886C215.51 263.149 214.795 260.411 214.2 257.674C214.2 257.555 214.2 257.555 214.2 257.436C213.962 256.127 213.724 254.818 213.605 253.508C213.605 253.389 213.605 253.27 213.605 253.151C213.247 250.295 213.128 247.438 213.128 244.582C213.128 238.155 214.081 231.609 215.867 225.301C216.224 224.111 216.7 222.802 217.058 221.612C217.177 221.255 217.296 220.897 217.415 220.54C217.772 219.707 218.129 218.755 218.486 217.922C218.605 217.565 218.844 217.089 218.963 216.732C219.32 215.899 219.796 215.066 220.153 214.113C220.391 213.756 220.511 213.399 220.749 213.042C221.344 211.852 222.058 210.662 222.773 209.472C223.487 208.282 224.202 207.21 224.916 206.02C225.154 205.663 225.392 205.306 225.63 205.068C226.226 204.235 226.702 203.521 227.297 202.807C227.535 202.45 227.893 202.093 228.131 201.736C228.726 201.021 229.321 200.307 229.917 199.593C230.155 199.355 230.393 198.998 230.631 198.76C231.465 197.808 232.417 196.856 233.37 195.904C238.013 191.262 243.371 187.334 249.086 184.24C251.587 182.812 254.206 181.622 256.826 180.669C256.945 180.669 257.064 180.55 257.183 180.55C258.374 180.074 259.683 179.598 260.993 179.241C261.112 179.241 261.112 179.241 261.231 179.122C263.97 178.289 266.708 177.575 269.447 176.98C269.566 176.98 269.566 176.98 269.685 176.98C270.995 176.742 272.304 176.504 273.614 176.385C273.733 176.385 273.852 176.385 273.971 176.385C276.829 176.028 279.686 175.909 282.544 175.909C288.974 175.909 295.522 176.861 301.833 178.646C303.023 179.003 304.333 179.479 305.524 179.836C305.881 179.955 306.238 180.074 306.595 180.193C307.429 180.55 308.381 180.907 309.215 181.264C309.572 181.384 310.048 181.622 310.405 181.741C311.239 182.098 312.072 182.574 313.025 182.931C313.382 183.169 313.739 183.288 314.096 183.526C315.287 184.121 316.478 184.835 317.668 185.549C318.859 186.263 319.931 186.977 321.121 187.691C321.479 187.929 321.836 188.168 322.074 188.406C322.907 189.001 323.622 189.477 324.336 190.072C324.693 190.31 325.051 190.667 325.408 190.905C326.122 191.5 326.837 192.095 327.551 192.69C327.789 192.928 328.146 193.166 328.384 193.404C329.337 194.237 330.29 195.19 331.242 196.142C335.886 200.783 339.815 206.139 342.911 211.852C344.339 214.351 345.53 216.97 346.483 219.588C346.483 219.707 346.602 219.826 346.602 219.945C347.078 221.136 347.554 222.445 347.911 223.754C347.911 223.873 347.911 223.873 348.03 223.992C348.864 226.729 349.578 229.467 350.174 232.204C350.174 232.323 350.174 232.323 350.174 232.442C350.412 233.751 350.65 235.061 350.769 236.37C350.769 236.489 350.769 236.608 350.769 236.727C351.126 239.583 351.245 242.44 351.245 245.296C351.245 251.723 350.293 258.269 348.507 264.577C348.149 265.767 347.673 267.076 347.316 268.267C347.197 268.624 347.078 268.981 346.959 269.338C346.602 270.171 346.244 271.123 345.887 271.956C345.768 272.313 345.53 272.789 345.411 273.146C345.054 273.98 344.577 274.813 344.22 275.765C343.982 276.122 343.863 276.479 343.625 276.836C343.03 278.026 342.315 279.216 341.601 280.406C341.005 281.597 340.291 282.668 339.458 283.858Z" fill="#A83617"/>
<path d="M286.235 39.395L292.188 35.2293L290.76 33.087C292.426 31.4208 293.617 29.3975 294.451 27.3741L296.951 27.8502L298.261 20.7091L295.76 20.2331C295.76 17.9717 295.284 15.7104 294.331 13.5681L296.475 12.1398L292.307 6.18894L290.164 7.61715C288.497 5.9509 286.473 4.76072 284.449 3.9276L284.925 1.42822L277.781 0.119019L277.305 2.6184C275.043 2.6184 272.781 3.09447 270.637 4.04661L269.209 1.90429L263.255 6.06992L264.684 8.21224C263.017 9.8785 261.826 11.9018 260.993 13.9251L258.493 13.449L257.183 20.5901L259.683 21.0662C259.683 23.3275 260.16 25.5889 261.112 27.7312L258.969 29.1594L263.136 35.1103L265.279 33.6821C266.946 35.3484 268.97 36.5385 270.995 37.3717L270.518 39.871L277.662 41.1802L278.139 38.6809C280.401 38.6809 282.663 38.2048 284.806 37.2526L286.235 39.395ZM283.735 30.5876C283.735 30.5876 283.616 30.7066 283.496 30.7066C283.377 30.8257 283.258 30.8257 283.02 30.9447C282.901 30.9447 282.901 31.0637 282.782 31.0637C282.663 31.1827 282.544 31.1827 282.306 31.3017C282.306 31.3017 282.187 31.3017 282.187 31.4208C281.949 31.5398 281.83 31.5398 281.591 31.6588C280.52 32.0158 279.448 32.2539 278.377 32.3729C277.9 32.3729 277.424 32.3729 276.948 32.3729C276.71 32.3729 276.472 32.3729 276.233 32.3729C275.757 32.3729 275.281 32.2539 274.805 32.1349C274.567 32.1349 274.328 32.0158 274.209 31.8968C273.733 31.7778 273.257 31.5398 272.9 31.4208C271.947 30.9447 270.995 30.3496 270.161 29.6355C270.042 29.5165 269.804 29.3975 269.685 29.1594L269.566 29.0404C269.447 28.9214 269.328 28.8024 269.209 28.6833L269.089 28.5643C268.97 28.4453 268.851 28.3263 268.732 28.2073L268.613 28.0883C268.494 27.8502 268.375 27.7312 268.256 27.4932C268.137 27.2551 268.018 27.1361 267.899 26.8981C267.899 26.8981 267.78 26.7791 267.78 26.66C267.661 26.541 267.661 26.422 267.542 26.184C267.542 26.0649 267.423 26.0649 267.423 25.9459C267.303 25.8269 267.303 25.7079 267.184 25.4699C267.184 25.4699 267.184 25.3508 267.065 25.3508C266.946 25.1128 266.946 24.9938 266.827 24.7557C266.47 23.6846 266.232 22.6134 266.113 21.5423C266.113 21.0662 266.113 20.5901 266.113 20.114C266.113 19.876 266.113 19.638 266.113 19.3999C266.113 18.9239 266.232 18.4478 266.351 17.9717C266.351 17.7337 266.47 17.4956 266.589 17.3766C266.708 16.9006 266.946 16.4245 267.065 16.0674C267.542 15.1153 268.137 14.1631 268.851 13.33C268.97 13.211 269.089 12.973 269.328 12.8539L269.447 12.7349C269.566 12.6159 269.685 12.4969 269.804 12.3779L269.923 12.2589C270.042 12.1398 270.161 12.0208 270.28 11.9018L270.399 11.7828C270.637 11.6638 270.756 11.5447 270.995 11.4257C271.233 11.3067 271.352 11.1877 271.59 11.0687C271.59 11.0687 271.709 10.9497 271.828 10.9497C271.947 10.8306 272.066 10.8306 272.304 10.7116C272.423 10.7116 272.423 10.5926 272.542 10.5926C272.661 10.4736 272.781 10.4736 273.019 10.3546C273.019 10.3546 273.138 10.3546 273.138 10.2355C273.376 10.1165 273.495 10.1165 273.733 9.99751C274.805 9.64046 275.876 9.40242 276.948 9.28341C277.424 9.28341 277.9 9.28341 278.377 9.28341C278.615 9.28341 278.853 9.28341 279.091 9.28341C279.567 9.28341 280.044 9.40242 280.52 9.52144C280.758 9.52144 280.996 9.64046 281.115 9.75948C281.591 9.8785 282.068 10.1165 282.425 10.2355C283.377 10.7116 284.33 11.3067 285.163 12.0208C285.282 12.1398 285.521 12.2589 285.64 12.4969L285.759 12.6159C285.878 12.7349 285.997 12.8539 286.116 12.973L286.235 13.092C286.354 13.211 286.473 13.33 286.592 13.449L286.711 13.5681C286.83 13.8061 286.949 13.9251 287.068 14.1631C287.188 14.4012 287.307 14.5202 287.426 14.7582C287.426 14.7582 287.545 14.8773 287.545 14.9963C287.664 15.1153 287.664 15.2343 287.783 15.4723C287.783 15.5914 287.902 15.5914 287.902 15.7104C288.021 15.8294 288.021 15.9484 288.14 16.1865C288.14 16.1865 288.14 16.3055 288.259 16.3055C288.378 16.5435 288.378 16.6625 288.497 16.9006C288.854 17.9717 289.093 19.0429 289.212 20.114C289.212 20.5901 289.212 21.0662 289.212 21.5423C289.212 21.7803 289.212 22.0183 289.212 22.2564C289.212 22.7324 289.093 23.2085 288.974 23.6846C288.974 23.9226 288.854 24.1607 288.735 24.2797C288.616 24.7557 288.378 25.2318 288.259 25.5889C287.783 26.541 287.188 27.4932 286.473 28.3263C286.354 28.4453 286.235 28.6833 285.997 28.8024L285.878 28.9214C285.759 29.0404 285.64 29.1594 285.521 29.2784L285.402 29.3975C285.282 29.5165 285.163 29.6355 285.044 29.7545L284.925 29.8735C284.687 29.9925 284.568 30.1116 284.33 30.2306C284.092 30.3496 283.973 30.4686 283.735 30.5876Z" fill="#A83617"/>
<path d="M144.784 132.11C128.83 128.539 112.875 138.656 109.422 154.723C105.85 170.672 115.97 186.62 132.044 190.072C147.999 193.642 163.954 183.526 167.407 167.458C170.979 151.629 160.858 135.681 144.784 132.11ZM133.711 182.098C122.162 179.598 114.899 168.053 117.399 156.509C119.9 144.964 131.449 137.704 142.998 140.203C154.548 142.703 161.811 154.247 159.311 165.792C156.81 177.337 145.261 184.597 133.711 182.098Z" fill="#C0401E"/>
<path d="M188.244 180.669L191.816 164.364L179.79 161.745C179.909 156.39 178.956 151.153 177.051 146.273L187.41 139.727L178.48 125.683L168.121 132.229C164.549 128.539 160.144 125.445 155.262 123.184L157.882 111.163L141.57 107.592L138.95 119.613C133.592 119.494 128.353 120.446 123.472 122.351L116.923 111.996L102.873 120.922L109.422 131.277C105.731 134.847 102.635 139.251 100.373 144.131L88.3471 141.512L84.7751 157.818L96.8008 160.436C96.6817 165.792 97.6342 171.029 99.5393 175.909L89.1806 182.455L98.1105 196.499L108.469 189.953C112.041 193.642 116.447 196.737 121.328 198.998L118.709 211.019L135.021 214.589L137.64 202.569C142.998 202.688 148.237 201.736 153.119 199.831L159.668 210.186L173.718 201.259L167.169 190.905C170.86 187.334 173.956 182.931 176.218 178.051L188.244 180.669ZM131.211 193.523C113.351 189.596 102.04 171.743 105.969 153.89C109.898 136.038 127.758 124.731 145.618 128.658C163.478 132.586 174.789 150.439 170.86 168.291C166.931 186.263 149.071 197.57 131.211 193.523Z" fill="#C0401E"/>
<path d="M152.762 277.907V268.505H145.975C145.856 266.719 145.618 264.934 145.261 263.149L151.809 261.364L149.309 252.318L142.76 254.104C142.284 252.675 141.689 251.366 141.093 250.057L146.928 246.724L142.284 238.631L136.45 241.964C135.497 240.536 134.426 239.226 133.354 237.798L138.117 233.037L131.449 226.372L126.686 231.133C125.377 229.943 123.948 228.872 122.519 227.92L125.853 222.088L117.756 217.446L114.423 223.278C112.875 222.564 111.327 221.969 109.779 221.374L111.446 214.828L102.397 212.447L100.73 218.993C99.1821 218.755 97.6342 218.517 95.9673 218.398V211.614H86.5611V218.398C84.7751 218.517 82.9891 218.755 81.2031 219.112L79.4171 212.566L70.3681 215.066L72.1541 221.612C70.7253 222.088 69.4156 222.683 68.1058 223.278L64.772 217.446L56.6755 222.088L60.0093 227.92C58.5806 228.872 57.2708 229.943 55.842 231.014L51.0794 226.253L44.4117 232.918L49.1743 237.679C47.9837 238.988 46.9121 240.416 45.9595 241.845L40.1253 238.512L35.4817 246.605L41.316 249.938C40.6016 251.485 40.0062 253.032 39.4109 254.58L32.8623 252.913L30.4809 261.959L37.0296 263.625C36.7915 265.172 36.5533 266.719 36.4343 268.386H29.6475V277.788H36.4343C36.5533 279.573 36.7915 281.359 37.1487 283.144L30.6 284.929L33.1004 293.975L39.649 292.189C40.1253 293.618 40.7206 294.927 41.316 296.236L35.4817 299.568L40.1253 307.662L45.9595 304.329C46.9121 305.757 47.9837 307.067 49.0553 308.495L44.2926 313.256L50.9603 319.92L55.723 315.16C57.0327 316.35 58.4615 317.421 59.8903 318.373L56.5564 324.205L64.6529 328.847L67.9868 323.015C69.5346 323.729 71.0825 324.324 72.6304 324.919L70.9634 331.465L80.0125 333.846L81.6794 327.3C83.2272 327.538 84.7751 327.776 86.442 327.895V334.679H95.8483V327.895C97.6342 327.776 99.4202 327.538 101.206 327.181L102.992 333.727L112.041 331.227L110.255 324.681C111.684 324.205 112.994 323.61 114.304 323.015L117.637 328.847L125.734 324.205L122.4 318.373C123.829 317.421 125.139 316.35 126.567 315.279L131.33 320.04L137.998 313.375L133.235 308.614C134.426 307.305 135.497 305.876 136.45 304.448L142.284 307.781L146.928 299.687L141.093 296.355C141.808 294.808 142.403 293.26 142.998 291.713L149.547 293.379L151.928 284.334L145.38 282.668C145.618 281.121 145.856 279.573 145.975 277.907H152.762ZM140.974 269.933H115.851C114.304 258.507 105.135 249.581 93.586 248.51V223.516C118.828 224.587 139.307 244.701 140.974 269.933ZM91.2047 286C84.1798 286 78.4646 280.288 78.4646 273.265C78.4646 266.243 84.1798 260.531 91.2047 260.531C98.2296 260.531 103.945 266.243 103.945 273.265C103.945 280.288 98.2296 286 91.2047 286ZM88.8233 223.516V248.51C77.2739 249.581 67.9868 258.507 66.558 269.933H41.435C43.102 244.701 63.4623 224.587 88.8233 223.516ZM41.316 274.575H66.3199C67.0343 286.834 76.5595 296.831 88.8233 297.902V322.896C62.8669 321.825 42.0304 300.759 41.316 274.575ZM93.4669 323.015V298.021C105.612 296.95 115.256 286.953 115.97 274.694H140.974C140.26 300.759 119.542 321.825 93.4669 323.015Z" fill="#E04700"/>
<path d="M429.233 83.7887V74.3862H422.447C422.328 72.601 422.09 70.8157 421.732 69.0304L428.281 67.2451L425.781 58.1998L419.232 59.985C418.756 58.5568 418.16 57.2476 417.565 55.9384L423.399 52.6059L418.756 44.5127L412.921 47.8452C411.969 46.417 410.897 45.1078 409.826 43.6796L414.588 38.9189L407.921 32.2538L403.158 37.0146C401.848 35.8244 400.419 34.7532 398.991 33.8011L402.325 27.9692L394.228 23.3275L390.894 29.1594C389.346 28.4453 387.798 27.8502 386.251 27.2551L387.918 20.7091L378.869 18.3287L377.202 24.8747C375.654 24.6367 374.106 24.3987 372.439 24.2796V17.4956H363.033V24.2796C361.247 24.3987 359.461 24.6367 357.675 24.9937L355.889 18.4478L346.84 20.9471L348.626 27.4931C347.197 27.9692 345.887 28.5643 344.577 29.1594L341.244 23.3275L333.147 27.9692L336.481 33.8011C335.052 34.7532 333.742 35.8244 332.314 36.8955L327.551 32.1348L320.883 38.7998L325.646 43.5606C324.455 44.8698 323.384 46.298 322.431 47.7262L316.597 44.3937L311.953 52.4869L317.788 55.8194C317.073 57.3666 316.478 58.9139 315.882 60.4611L309.334 58.7949L306.953 67.8402L313.501 69.5065C313.263 71.0537 313.025 72.601 312.906 74.2672H306.119V83.6696H312.906C313.025 85.4549 313.263 87.2402 313.62 89.0255L307.072 90.8107L309.572 99.9751L316.121 98.1898C316.597 99.6181 317.192 100.927 317.788 102.236L311.953 105.569L316.597 113.662L322.431 110.33C323.384 111.758 324.455 113.067 325.527 114.495L320.764 119.256L327.432 125.921L332.195 121.16C333.504 122.351 334.933 123.422 336.362 124.374L333.028 130.206L341.125 134.847L344.458 129.016C346.006 129.73 347.554 130.325 349.102 130.92L347.435 137.466L356.484 139.846L358.151 133.3C359.699 133.538 361.247 133.776 362.914 133.895V140.679H372.32V133.895C374.106 133.776 375.892 133.538 377.678 133.181L379.464 139.727L388.513 137.228L386.727 130.682C388.156 130.206 389.465 129.611 390.775 129.016L394.109 134.847L402.205 130.206L398.872 124.374C400.3 123.422 401.61 122.351 403.039 121.279L407.802 126.04L414.469 119.375L409.707 114.614C410.897 113.305 411.969 111.877 412.921 110.449L418.756 113.781L423.399 105.688L417.565 102.355C418.279 100.808 418.875 99.261 419.47 97.7138L426.019 99.38L428.4 90.3346L421.851 88.6684C422.09 87.1212 422.328 85.5739 422.447 83.9077H429.233V83.7887ZM417.446 75.8144H392.323C390.775 64.3887 381.607 55.4624 370.058 54.3912V29.3974C395.3 30.4686 415.779 50.5826 417.446 75.8144ZM367.676 91.8819C360.651 91.8819 354.936 86.169 354.936 79.1469C354.936 72.1249 360.651 66.412 367.676 66.412C374.701 66.412 380.416 72.1249 380.416 79.1469C380.416 86.169 374.701 91.8819 367.676 91.8819ZM365.295 29.3974V54.3912C353.746 55.4624 344.458 64.3887 343.03 75.8144H317.907C319.574 50.5826 339.934 30.4686 365.295 29.3974ZM317.907 80.4561H342.911C343.625 92.715 353.15 102.713 365.414 103.784V128.777C339.339 127.706 318.621 106.64 317.907 80.4561ZM369.939 128.896V103.903C382.202 102.713 391.728 92.834 392.442 80.4561H417.446C416.732 106.64 396.014 127.706 369.939 128.896Z" fill="#E04700"/>
<path d="M377.927 360.751H459.011V358.608H377.927V360.751Z" fill="#C0C0C0"/>
<path d="M358.627 296.117C358.627 296.117 356.484 295.998 356.246 297.545C356.008 299.211 358.865 298.973 358.865 298.973L358.627 296.117Z" fill="#F1FAE3"/>
<path d="M373.987 274.694C373.987 274.694 371.367 275.527 369.7 272.67C369.7 272.67 373.272 273.146 377.559 269.933C381.845 266.719 388.394 271.48 387.441 277.074C386.489 282.668 380.416 278.74 380.416 278.74L376.963 276.36L373.987 274.694Z" fill="#08153F"/>
<path d="M373.987 274.694L375.654 282.43L377.678 281.359L379.94 285.405L384.107 283.382L389.465 287.667L392.085 279.454L388.275 276.598L387.56 275.289L383.988 275.408C383.988 275.408 382.679 272.551 381.488 274.575L381.369 276.598L379.345 277.55L377.321 274.218C377.202 274.218 376.368 272.551 373.987 274.694Z" fill="#E6E6E6"/>
<path d="M402.205 327.657L421.613 318.968L405.539 289.809C402.325 283.977 396.967 279.692 390.537 277.907L386.132 287.191L388.037 297.069L402.205 327.657Z" fill="#08153F"/>
<path d="M393.99 356.102L393.156 358.363L388.632 360.03H399.943V356.34L393.99 356.102Z" fill="#061435"/>
<path d="M414.826 306.828L379.226 328.847L392.799 356.935H400.419L393.037 333.846L413.755 322.063L414.826 306.828Z" fill="#061435"/>
<path d="M418.637 313.732L432.567 336.345L451.975 351.103L448.76 356.935L425.661 342.058L403.991 323.61L418.637 313.732Z" fill="#061435"/>
<path d="M451.261 351.936L455.309 353.722L452.69 359.791L447.57 359.911L450.665 358.244L449.356 354.674L451.261 351.936Z" fill="#061435"/>
<path d="M388.751 288.262C388.751 288.262 389.108 286.952 389.108 285.048L387.203 284.81C387.203 284.81 386.727 286.238 386.846 288.024L386.489 289.571C386.489 289.571 385.298 294.213 384.346 298.14C383.393 302.068 382.441 315.279 382.441 315.279L383.988 319.325L386.846 316.469C386.846 316.469 388.275 301.473 388.394 290.642L388.751 288.262Z" fill="#A83617"/>
<path d="M358.508 295.641L376.487 290.047L389.823 286.476L392.68 295.403L378.154 297.545L358.984 299.687L358.508 295.641Z" fill="#08153F"/>
<path d="M218.248 358.72H142.76V360.863H218.248V358.72Z" fill="#C0C0C0"/>
<path d="M204.198 264.577C204.198 264.577 206.937 264.22 207.294 260.887C207.294 260.887 204.198 262.792 198.96 261.602C193.721 260.53 189.672 267.433 192.887 272.194C196.102 276.836 199.912 270.885 199.912 270.885L202.055 267.314L204.198 264.577Z" fill="#151515"/>
<path d="M204.198 264.577L205.865 272.313L203.603 272.194L203.246 276.836L198.602 276.598L195.507 282.787L189.791 276.36L192.054 272.075L192.173 270.647L195.507 269.219C195.507 269.219 195.507 266.124 197.531 267.433L198.483 269.338H200.626L201.103 265.529C201.103 265.529 201.103 263.625 204.198 264.577Z" fill="#E5E5E5"/>
<path d="M200.15 324.443H178.837L181.457 291.237C181.933 284.572 185.148 278.502 190.149 274.217L198.007 280.882L200.388 290.761L200.15 324.443Z" fill="#08153F"/>
<path d="M201.341 355.983L202.174 358.244L206.58 359.91H195.388V356.816L201.341 355.983Z" fill="#061435"/>
<path d="M189.196 306.828L224.678 328.847L202.651 356.935L194.197 356.816L209.914 334.084L190.268 322.063L189.196 306.828Z" fill="#061435"/>
<path d="M185.386 313.731L173.956 340.153L152.405 350.865L154.31 356.102L177.885 348.604L200.031 323.61L185.386 313.731Z" fill="#061435"/>
<path d="M152.762 351.936L148.714 353.722L151.333 359.791L156.453 359.91L153.357 358.244L154.667 354.674L152.762 351.936Z" fill="#061435"/>
<path d="M196.34 285.048C196.34 285.048 195.983 283.739 195.983 281.835L197.888 281.597C197.888 281.597 198.364 283.025 198.245 284.81L198.602 286.357C198.602 286.357 199.793 290.999 200.746 294.927C201.698 298.854 202.651 312.065 202.651 312.065L201.103 316.112L198.245 313.255C198.245 313.255 196.816 298.259 196.697 287.428L196.34 285.048Z" fill="#A83617"/>
<path d="M188.839 280.882L200.15 288.619L224.321 283.025L225.392 286.952L200.269 298.854L184.076 289.928L188.839 280.882Z" fill="#08153F"/>
<path d="M224.44 283.501C224.44 283.501 226.345 282.549 227.178 284.096C228.012 285.524 225.154 286.357 225.154 286.357L224.44 283.501Z" fill="#F1FAE3"/>
<path d="M426.138 178.408H416.255V179.36H426.138V178.408Z" fill="#393535"/>
<path d="M421.732 173.885H420.78V183.764H421.732V173.885Z" fill="#393535"/>
<path d="M208.247 14.9963H198.364V15.9485H208.247V14.9963Z" fill="#393535"/>
<path d="M203.841 10.4736H202.889V20.3521H203.841V10.4736Z" fill="#393535"/>
<path d="M5.23891 229.11C2.38132 229.11 0 226.729 0 223.873C0 221.016 2.38132 218.636 5.23891 218.636C8.0965 218.636 10.4778 221.016 10.4778 223.873C10.4778 226.848 8.0965 229.11 5.23891 229.11ZM5.23891 219.588C2.85759 219.588 0.952529 221.493 0.952529 223.873C0.952529 226.253 2.85759 228.158 5.23891 228.158C7.62023 228.158 9.52529 226.253 9.52529 223.873C9.52529 221.493 7.62023 219.588 5.23891 219.588Z" fill="#393535"/>
<path d="M402.682 259.578H401.848C401.967 258.15 401.967 256.722 402.086 255.413H402.92C402.92 256.722 402.801 258.15 402.682 259.578ZM403.039 249.938H402.086C402.086 249.462 402.086 248.986 402.086 248.51C402.086 247.2 402.086 245.891 402.086 244.582H403.039C403.039 245.891 403.039 247.2 403.039 248.51C403.039 248.986 403.039 249.462 403.039 249.938ZM401.848 239.345C401.729 237.56 401.61 235.775 401.491 233.989L402.325 233.87C402.444 235.656 402.682 237.441 402.682 239.226L401.848 239.345ZM400.896 228.634C400.658 226.848 400.419 225.063 400.062 223.397L400.896 223.278C401.253 225.063 401.491 226.848 401.729 228.634H400.896ZM398.991 218.16C398.633 216.375 398.157 214.709 397.681 213.042L398.514 212.804C398.991 214.47 399.467 216.256 399.824 218.041L398.991 218.16ZM396.133 207.924C395.538 206.258 394.942 204.592 394.347 202.926L395.181 202.569C395.776 204.235 396.49 205.901 396.967 207.686L396.133 207.924ZM392.323 197.927C391.609 196.261 390.775 194.713 389.942 193.166L390.775 192.809C391.609 194.356 392.442 196.023 393.156 197.689L392.323 197.927ZM387.322 188.525C386.37 186.977 385.417 185.549 384.465 184.002L385.179 183.526C386.251 184.954 387.203 186.501 388.156 188.048L387.322 188.525ZM381.25 179.836C380.178 178.408 378.988 177.099 377.797 175.79L378.511 175.195C379.702 176.504 380.893 177.932 381.964 179.241L381.25 179.836ZM373.987 171.981C372.677 170.791 371.367 169.601 369.939 168.53L370.534 167.815C371.963 168.887 373.272 170.077 374.582 171.386L373.987 171.981ZM365.771 165.316C363.033 163.412 361.247 162.698 361.247 162.698L361.604 161.865C361.723 161.865 363.509 162.698 366.367 164.602L365.771 165.316Z" fill="#393535"/>
<path d="M361.723 166.982L360.175 161.865L365.295 160.317L365.652 161.15L361.247 162.46L362.675 166.744L361.723 166.982Z" fill="#393535"/>
<path d="M11.6685 251.128C13.6412 251.128 15.2405 249.53 15.2405 247.558C15.2405 245.586 13.6412 243.987 11.6685 243.987C9.69572 243.987 8.09649 245.586 8.09649 247.558C8.09649 249.53 9.69572 251.128 11.6685 251.128Z" fill="#393535"/>
<path d="M405.658 164.721C407.631 164.721 409.23 163.122 409.23 161.15C409.23 159.178 407.631 157.58 405.658 157.58C403.686 157.58 402.086 159.178 402.086 161.15C402.086 163.122 403.686 164.721 405.658 164.721Z" fill="#393535"/>
<path d="M63.5813 11.7828V10.9497L68.9393 10.7117V11.5448L63.5813 11.7828ZM74.2973 11.3067V10.4736L79.6553 10.2356V11.0687L74.2973 11.3067ZM85.0132 10.8307V9.99755L90.3712 9.75951V10.5926L85.0132 10.8307ZM95.7292 10.3546V9.52148L101.087 9.28344V10.1166L95.7292 10.3546ZM106.445 9.75951V8.92639L111.803 8.68835V9.52148L106.445 9.75951ZM117.161 9.28344V8.45032L122.519 8.21228V9.04541L117.161 9.28344Z" fill="#393535"/>
<path d="M120.257 11.9018L119.662 11.3067L122.4 8.68834L119.423 6.30798L119.9 5.59387L123.829 8.56932L120.257 11.9018Z" fill="#393535"/>
<path d="M441.021 79.147H440.069C440.069 78.6709 440.069 78.3139 440.069 77.8378C440.069 76.5286 440.069 75.1004 439.949 73.7912H440.783C440.902 75.1004 440.902 76.5286 440.902 77.8378C441.021 78.3139 441.021 78.6709 441.021 79.147ZM439.592 68.5544C439.354 66.7691 439.116 64.9839 438.759 63.3176L439.592 63.0796C439.949 64.8649 440.307 66.6501 440.426 68.4354L439.592 68.5544ZM437.449 58.0808C436.973 56.4146 436.377 54.6293 435.782 52.9631L436.616 52.606C437.211 54.2722 437.806 56.0575 438.283 57.7238L437.449 58.0808ZM433.758 48.0833C433.044 46.4171 432.21 44.8698 431.377 43.3226L432.21 42.8465C433.044 44.3937 433.877 46.06 434.591 47.7263L433.758 48.0833ZM301.833 46.179L300.999 45.822C301.833 44.1557 302.666 42.6085 303.5 41.0612L304.214 41.5373C303.5 43.0846 302.666 44.6318 301.833 46.179ZM428.757 38.6809C427.805 37.1336 426.733 35.7054 425.781 34.2772L426.495 33.8011C427.567 35.2294 428.638 36.7766 429.591 38.2048L428.757 38.6809ZM307.191 37.0146L306.476 36.5386C307.429 35.1103 308.5 33.5631 309.691 32.1349L310.405 32.73C309.215 34.1582 308.143 35.5864 307.191 37.0146ZM422.328 30.2306C421.137 28.9214 419.946 27.6122 418.637 26.303L419.232 25.7079C420.542 27.0171 421.732 28.3263 422.923 29.6355L422.328 30.2306ZM313.739 28.6834L313.025 28.0883C314.216 26.7791 315.525 25.4699 316.835 24.2797L317.43 24.8748C316.24 26.065 315.049 27.3742 313.739 28.6834ZM414.826 22.7325C413.517 21.5423 412.088 20.4711 410.659 19.4L411.135 18.6859C412.564 19.757 413.993 20.8282 415.303 22.0184L414.826 22.7325ZM321.598 21.4233L321.002 20.7092C322.431 19.638 323.86 18.4478 325.289 17.4957L325.765 18.2098C324.336 19.1619 322.907 20.2331 321.598 21.4233ZM406.254 16.4245C404.706 15.4724 403.158 14.6392 401.61 13.8061L402.086 12.973C403.634 13.8061 405.182 14.7583 406.73 15.7104L406.254 16.4245ZM330.29 15.3533L329.813 14.6392C330.409 14.2822 331.123 13.9251 331.718 13.5681C332.671 13.092 333.623 12.6159 334.457 12.1399L334.814 12.973C333.862 13.4491 332.909 13.9251 332.075 14.4012C331.599 14.6392 330.885 14.9963 330.29 15.3533ZM396.847 11.4258C395.181 10.7116 393.514 9.99753 391.847 9.40244L392.204 8.56932C393.871 9.16441 395.538 9.87852 397.205 10.5926L396.847 11.4258ZM339.815 10.5926L339.458 9.7595C341.125 9.04539 342.791 8.4503 344.458 7.85521L344.697 8.68834C343.149 9.28343 341.482 9.87852 339.815 10.5926ZM386.846 7.85521C385.179 7.37914 383.393 7.02208 381.607 6.66503L381.726 5.8319C383.512 6.18896 385.298 6.54601 386.965 7.1411L386.846 7.85521ZM349.935 7.26012L349.697 6.42699C351.483 5.95092 353.269 5.59387 354.936 5.35583L355.055 6.18896C353.388 6.42699 351.602 6.90306 349.935 7.26012ZM376.368 5.71288C374.582 5.47485 372.796 5.35583 371.01 5.23681V4.40369C372.796 4.5227 374.582 4.64172 376.368 4.87976V5.71288ZM360.413 5.47485L360.294 4.64172C362.08 4.5227 363.866 4.40369 365.652 4.28467V5.23681C363.985 5.23681 362.199 5.35583 360.413 5.47485Z" fill="#393535"/>
<path d="M440.426 84.5028L436.616 79.623L437.33 79.028L440.545 83.1936L443.998 79.385L444.712 79.9801L440.426 84.5028Z" fill="#393535"/>
<path d="M68.1058 346.938C66.4389 346.462 64.6529 345.866 62.986 345.271L63.3432 344.438C65.0101 345.033 66.677 345.628 68.463 346.104L68.1058 346.938ZM57.9852 343.248C56.3183 342.534 54.7704 341.701 53.1035 340.868L53.5798 340.035C55.1276 340.868 56.7946 341.701 58.3424 342.415L57.9852 343.248ZM48.4599 338.13C46.9121 337.178 45.4833 336.107 44.0545 335.036L44.5307 334.322C45.9595 335.393 47.3883 336.345 48.9362 337.297L48.4599 338.13ZM39.7681 331.703C38.4584 330.513 37.0296 329.323 35.8389 328.014L36.4342 327.419C37.6249 328.609 39.0537 329.918 40.3634 330.989L39.7681 331.703ZM32.1479 324.086C30.9572 322.777 29.8856 321.349 28.814 319.92L29.5284 319.444C30.6 320.873 31.6716 322.301 32.8623 323.61L32.1479 324.086ZM25.7183 315.517C24.7658 313.97 23.8132 312.422 22.9798 310.875L23.8132 310.399C24.6467 311.946 25.5992 313.494 26.5517 315.041L25.7183 315.517ZM20.7175 305.995C20.0031 304.329 19.2887 302.663 18.6934 300.997L19.5268 300.64C20.1222 302.306 20.8366 303.972 21.551 305.519L20.7175 305.995ZM17.0265 295.879C16.5502 294.332 16.193 292.903 15.9549 291.356L15.8358 290.642L16.6693 290.404L16.7883 291.118C17.1455 292.665 17.5027 294.094 17.8599 295.641L17.0265 295.879Z" fill="#393535"/>
<path d="M13.3354 294.927L12.621 294.451L15.9548 289.214L20.5984 293.26L20.0031 293.975L16.0739 290.523L13.3354 294.927Z" fill="#393535"/>
<path d="M57.7471 111.758C57.7471 111.758 59.414 109.616 57.509 106.997C57.509 106.997 56.5564 110.449 52.0319 113.305C47.5074 116.162 49.4125 123.898 54.8895 125.207C60.4856 126.397 59.0568 119.375 59.0568 119.375L58.1043 115.328L57.7471 111.758Z" fill="#151515"/>
<path d="M57.7471 111.758L64.2957 116.162L62.5098 117.59L65.4864 121.16L62.0335 124.255L65.4864 132.586H56.5564L54.1751 125.564L53.2226 124.374L54.6514 121.041C54.6514 121.041 52.5082 118.78 54.8895 118.423L56.7946 119.137L58.3424 117.59L56.0802 114.495C56.0802 114.495 54.7705 113.186 57.7471 111.758Z" fill="#E5E5E5"/>
<path d="M68.5821 175.552H47.2693L49.8887 142.345C50.365 135.68 53.5798 129.611 58.5806 125.326L66.4389 131.991L68.8203 141.869L68.5821 175.552Z" fill="#08153F"/>
<path d="M64.772 136.038C64.772 136.038 64.4148 134.728 64.4148 132.824L66.3199 132.586C66.3199 132.586 66.7961 134.014 66.6771 135.8L67.0342 137.347C67.0342 137.347 68.2249 141.988 69.1774 145.916C70.13 149.844 71.0825 163.055 71.0825 163.055L69.5346 167.101L66.6771 164.245C66.6771 164.245 65.2483 149.249 65.1292 138.418L64.772 136.038Z" fill="#A83617"/>
<path d="M57.3899 131.991L74.2973 121.994L90.9665 101.165L94.6576 102.832L82.1557 128.54L61.2 142.941L57.3899 131.991Z" fill="#08153F"/>
<path d="M91.4428 101.403C91.4428 101.403 92.0381 99.3801 93.586 99.6181C95.2529 99.9752 94.0623 102.594 94.0623 102.594L91.4428 101.403Z" fill="#F1FAE3"/>
<path d="M57.3899 126.397L71.3206 113.662L83.7035 91.2869L87.7518 91.882L80.7269 117.828L63.5813 134.371L57.3899 126.397Z" fill="#08153F"/>
<path d="M84.2988 91.2868C84.2988 91.2868 84.2988 89.1445 85.9658 89.0255C87.6327 88.9065 87.1564 91.7629 87.1564 91.7629L84.2988 91.2868Z" fill="#F1FAE3"/>
<path d="M85.8467 177.456L86.6802 179.717L91.2047 181.503L79.8934 181.384V178.408L85.8467 177.456Z" fill="#061435"/>
<path d="M59.2949 152.105L79.6553 146.868L87.2755 178.408H79.179L73.821 160.555L60.4856 167.101L59.2949 152.105Z" fill="#061435"/>
<path d="M49.6506 168.887L56.1992 193.285L55.842 219.826H63.2241L65.1292 195.785L66.558 163.888L49.6506 168.887Z" fill="#061435"/>
<path d="M62.3907 218.755L63.2241 221.016L67.7486 222.683H56.4374V219.588L62.3907 218.755Z" fill="#061435"/>
<path d="M142.046 59.271L120.257 84.3838L120.495 110.925H113.113L111.208 81.5273L125.138 54.2722L142.046 59.271Z" fill="#061435"/>
<path d="M113.946 109.854L113.113 111.996L108.707 113.781L119.9 113.662V110.687L113.946 109.854Z" fill="#061435"/>
<path d="M92.5149 42.4895L93.2293 62.1275L84.5375 87.3593L87.9904 89.5016L102.874 65.2219L103.707 39.7521L92.5149 42.4895Z" fill="#08153F"/>
<path d="M85.0132 87.5973C85.0132 87.5973 83.5844 89.1445 84.7751 90.3347C85.9658 91.5249 87.5136 89.1445 87.5136 89.1445L85.0132 87.5973Z" fill="#F1FAE3"/>
<path d="M78.7027 40.3472C78.7027 40.3472 76.3214 41.5373 74.0591 39.157C74.0591 39.157 77.6311 38.9189 81.3222 35.1104C85.0132 31.1828 92.2763 34.7533 92.2763 40.3472C92.2763 45.941 85.7276 43.3226 85.7276 43.3226L81.9175 41.5373L78.7027 40.3472Z" fill="#151515"/>
<path d="M78.7027 40.3471L81.6794 47.6072L83.4654 46.179L86.442 49.8686L90.1331 47.1312L102.873 50.4637L97.2771 41.8944L92.9907 39.752L92.0381 38.5619L88.4662 39.276C88.4662 39.276 86.6802 36.7766 85.8467 38.9189L86.0848 40.9422L84.2988 42.1324L81.7984 39.276C81.7984 39.276 80.7269 37.6097 78.7027 40.3471Z" fill="#E5E5E5"/>
<path d="M140.974 61.6514L145.975 40.9422L113.113 35.7054C106.564 34.6343 99.8965 36.3005 94.5385 40.1091L97.3961 50.9398L108.112 53.7962L140.974 61.6514Z" fill="#08153F"/>
<path d="M104.302 48.7975C104.302 48.7975 103.349 47.8453 101.802 46.7742L100.611 48.3214C100.611 48.3214 101.563 49.5116 103.111 50.3447L104.302 51.4159C104.302 51.4159 107.517 54.9864 110.374 57.8428C113.113 60.6993 123.829 68.6735 123.829 68.6735L128.115 69.5066L127.282 65.579C127.282 65.579 115.494 56.2956 106.326 50.3447L104.302 48.7975Z" fill="#A83617"/>
<path d="M95.491 43.5606L100.135 62.6035L96.9198 89.0256L100.73 90.4538L110.255 63.6747L105.85 38.5619L95.491 43.5606Z" fill="#08153F"/>
<path d="M97.3961 89.2635C97.3961 89.2635 96.3245 91.0488 97.6342 92.001C99.063 92.9531 100.016 90.2157 100.016 90.2157L97.3961 89.2635Z" fill="#F1FAE3"/>
<path d="M143.475 99.7372L147.523 101.522L144.904 107.592L139.784 107.711L142.879 106.045L141.57 102.475L143.475 99.7372Z" fill="#061435"/>
<path d="M149.309 52.487L144.665 45.584L144.904 44.6318L144.189 44.7508L143.594 43.7987L142.879 44.9889L127.52 47.2502L128.234 83.0747L140.379 103.665L147.047 100.689L137.164 79.8612L149.309 52.487Z" fill="#061435"/>
<path d="M300.166 136.871C300.166 136.871 303.261 137.228 305.286 137.823C306.833 138.299 306.714 140.441 305.166 140.679C303.261 141.036 300.999 141.274 298.499 141.036L298.618 141.631L296.951 141.869L296.356 138.061C296.356 138.061 297.189 137.466 298.142 137.228C299.213 136.871 300.166 136.871 300.166 136.871Z" fill="#061435"/>
<path d="M221.225 145.678C221.225 145.678 219.796 148.415 218.486 150.082C217.534 151.272 215.51 150.439 215.867 148.892C216.224 146.987 216.819 144.726 218.01 142.584L217.534 142.465L217.891 140.798L221.582 141.631C221.582 141.631 221.82 142.584 221.701 143.655C221.582 144.726 221.225 145.678 221.225 145.678Z" fill="#061435"/>
<path d="M284.568 110.568L268.375 101.403L260.874 111.282L279.329 116.281C279.329 116.281 281.234 124.255 296.594 138.18C296.594 138.18 298.261 138.656 300.285 137.585L284.568 110.568Z" fill="#E5E5E5"/>
<path d="M277.186 42.3704C277.186 42.3704 277.424 40.2281 275.757 39.99C274.09 39.752 274.328 42.6084 274.328 42.6084L277.186 42.3704Z" fill="#F1FAE3"/>
<path d="M260.04 65.9359L268.851 63.3175L273.852 42.3704L277.662 41.7753L274.567 69.0304L258.85 75.9334L260.04 65.9359Z" fill="#08153F"/>
<path d="M247.419 117.59L248.134 131.396C248.134 131.396 235.037 134.014 220.868 141.869C220.868 141.869 219.439 142.465 220.034 145.797L254.087 136.157L260.755 110.33L247.419 117.59Z" fill="#E5E5E5"/>
<path d="M254.802 47.9642C250.634 47.9642 248.967 49.9875 248.253 54.0342C247.539 57.8427 249.444 60.5801 253.373 61.2943C253.373 61.2943 259.088 62.4844 259.445 52.1299C259.326 52.0108 259.326 47.9642 254.802 47.9642Z" fill="#151515"/>
<path d="M253.135 51.1777C253.016 52.963 251.468 54.3912 249.563 54.2722C247.777 54.1531 246.348 52.6059 246.467 50.7016C246.586 48.9164 248.134 47.4881 250.039 47.6072C251.825 47.7262 253.254 49.2734 253.135 51.1777Z" fill="#151515"/>
<path d="M252.42 62.0084L251.468 65.8169L258.493 74.3862L258.731 62.3654L262.66 60.8182L261.231 56.8906L263.136 56.1765L258.969 50.4636C255.992 50.7017 256.707 52.3679 256.707 52.3679L257.659 55.7004L255.873 56.5335L254.444 55.3434C252.301 54.9863 253.492 57.4857 253.492 57.4857C253.492 57.4857 252.896 59.866 250.515 60.2231L252.42 62.0084Z" fill="#E5E5E5"/>
<path d="M244.919 66.1741L250.396 89.9777L243.847 102.117C243.847 102.117 260.16 100.808 264.803 95.3335L260.636 86.0501L266.946 64.2698L258.731 65.2219L258.612 71.7679L252.063 63.4366L245.633 64.1508L244.919 66.1741Z" fill="#08153F"/>
<path d="M245.038 102.117C245.038 102.117 244.8 110.568 246.11 118.066C246.11 118.066 266.589 112.948 272.781 103.427L263.732 96.4045L245.038 102.117Z" fill="#061435"/>
<path d="M224.679 46.774C224.679 46.774 223.845 44.7507 225.393 44.0366C226.941 43.3225 227.536 46.1789 227.536 46.1789L224.679 46.774Z" fill="#F1FAE3"/>
<path d="M248.015 64.1507L238.847 64.2697L227.893 45.7029L224.082 46.298L235.156 71.4108L252.182 73.3151L248.015 64.1507Z" fill="#08153F"/>
</g>
<defs>
<clipPath id="clip0">
<rect width="459" height="383" fill="white"/>
</clipPath>
</defs>
</svg>
