<svg width="457" height="313" viewBox="0 0 457 313" fill="none" xmlns="http://www.w3.org/2000/svg">
<g clip-path="url(#clip0)">
<path opacity="0.36" d="M112.489 310.03C112.489 311.653 93.9195 313 71.035 313C48.1505 313 29.5805 311.688 29.5805 310.03C29.5805 308.407 48.1505 307.06 71.035 307.06C93.954 307.095 112.489 308.407 112.489 310.03Z" fill="#A1A1A1"/>
<path opacity="0.36" d="M362.701 310.03C362.701 311.653 344.131 313 321.246 313C298.362 313 279.792 311.688 279.792 310.03C279.792 308.407 298.362 307.06 321.246 307.06C344.131 307.06 362.701 308.407 362.701 310.03Z" fill="#A1A1A1"/>
<path opacity="0.36" d="M434.737 307.095C432.183 307.095 429.732 307.164 427.454 307.268C424.485 307.13 421.241 307.095 417.893 307.095C414.061 307.095 410.437 307.164 407.158 307.337C404.638 307.199 401.877 307.095 398.978 307.095C387.553 307.095 378.302 308.407 378.302 310.065C378.302 311.688 387.553 313.035 398.978 313.035C401.877 313.035 404.638 312.966 407.158 312.793C410.472 312.931 414.096 313.035 417.893 313.035C421.275 313.035 424.485 312.966 427.454 312.862C429.732 313 432.183 313.035 434.737 313.035C446.162 313.035 455.412 311.722 455.412 310.065C455.412 308.407 446.162 307.095 434.737 307.095Z" fill="#A1A1A1"/>
<path d="M322.856 34.8853C330.771 31.1984 334.2 21.7899 330.515 13.8709C326.83 5.95197 317.426 2.52124 309.51 6.2082C301.595 9.89516 298.166 19.3036 301.851 27.2226C305.536 35.1416 314.94 38.5723 322.856 34.8853Z" fill="#B8C7E0"/>
<path d="M313.193 21.1001C313.492 9.75589 304.542 0.316992 293.203 0.0177321C281.864 -0.281528 272.429 8.67217 272.13 20.0164C271.831 31.3606 280.781 40.7995 292.12 41.0987C303.459 41.398 312.894 32.4443 313.193 21.1001Z" fill="#B8C7E0"/>
<path d="M271.093 51.6605H333.775C342.37 51.6605 349.308 44.685 349.308 36.121C349.308 27.5225 342.335 20.5815 333.775 20.5815H271.093C262.499 20.5815 255.561 27.557 255.561 36.121C255.561 44.685 262.533 51.6605 271.093 51.6605Z" fill="#B8C7E0"/>
<path d="M138.86 99.1076L138.826 99.3839L138.481 99.3148L138.584 98.7623C139.378 94.1695 136.617 89.6803 132.164 88.3681L123.88 85.8818C123.846 85.6401 123.777 85.3983 123.742 85.1911V85.1221L129.748 86.3652C135.616 87.6084 139.585 93.1335 138.86 99.1076Z" fill="#D8AF93"/>
<path opacity="0.27" d="M141.449 95.62L140.034 95.1711C136.686 94.1006 134.788 90.5783 135.65 87.1941L136.755 82.9812C136.997 82.0834 137.825 81.4272 138.757 81.4272H143.934L141.449 95.62Z" fill="#D694C8"/>
<path d="M268.159 24H124.018L83.9442 47.1711V70.3422C83.9442 150.526 126.71 224.598 196.089 264.69C265.467 224.563 308.233 150.492 308.233 70.3077V47.1366L268.159 24Z" fill="#030B19"/>
<path d="M196.089 255.02C165.369 236.269 139.723 209.99 121.706 178.773C102.825 146.071 92.8497 108.811 92.8497 71.0324V53.0066L126.4 33.634H265.778L299.328 53.0066V71.0324C299.328 108.811 289.353 146.071 270.472 178.773C252.455 210.025 226.809 236.269 196.089 255.02Z" fill="#FBFBFB"/>
<path d="M230.654 162.67C251.925 141.337 251.925 106.748 230.654 85.4146C209.383 64.081 174.896 64.081 153.625 85.4146C132.354 106.748 132.354 141.337 153.625 162.67C174.896 184.004 209.383 184.004 230.654 162.67Z" fill="#95CC28"/>
<path d="M254.456 90.5785L186.597 158.434L151.597 123.384L163.885 111.091L186.597 133.813L242.134 78.2505L254.456 90.5785Z" fill="#8BBD27"/>
<path d="M82.46 288.965H56.6761V305.817H82.46V288.965Z" fill="#0C172A"/>
<path d="M89.2258 305.852H49.9114V310.824H89.2258V305.852Z" fill="#030B19"/>
<path opacity="0.36" d="M82.46 288.965H56.6761V292.349H82.46V288.965Z" fill="#B1C1E5"/>
<path d="M140.345 277.224H0V189.581C0 186.784 2.24358 184.54 5.03943 184.54H135.305C138.101 184.54 140.345 186.784 140.345 189.581V277.224Z" fill="#030B19"/>
<path d="M134.94 272.337L134.94 189.943L5.39886 189.943L5.39886 272.337H134.94Z" fill="#FBFBFB"/>
<path d="M140.345 277.224H0V283.82C0 286.686 2.31261 288.999 5.17749 288.999H135.167C138.032 288.999 140.345 286.686 140.345 283.82V277.224Z" fill="#0C172A"/>
<path d="M332.843 288.965H307.059V305.817H332.843V288.965Z" fill="#0C172A"/>
<path d="M339.574 305.852H300.26V310.824H339.574V305.852Z" fill="#030B19"/>
<path opacity="0.36" d="M332.843 288.965H307.059V292.349H332.843V288.965Z" fill="#B1C1E5"/>
<path d="M390.728 277.224H250.383V189.581C250.383 186.784 252.627 184.54 255.423 184.54H385.688C388.484 184.54 390.728 186.784 390.728 189.581V277.224Z" fill="#030B19"/>
<path d="M385.311 272.347V189.954L255.771 189.954L255.771 272.347H385.311Z" fill="#FBFBFB"/>
<path d="M390.728 277.224H250.383V283.82C250.383 286.686 252.696 288.999 255.561 288.999H385.55C388.415 288.999 390.728 286.686 390.728 283.82V277.224Z" fill="#0C172A"/>
<path d="M359.801 261.72H316.276V216.172L326.251 205.433H359.801V261.72Z" fill="#D7ECFA"/>
<path opacity="0.36" d="M316.276 216.172H326.251V205.433L316.276 216.172Z" fill="#D7ECFA"/>
<path d="M356.073 221.318H321.177V223.39H356.073V221.318Z" fill="#030B19"/>
<path d="M356.073 228.915H321.177V230.987H356.073V228.915Z" fill="#030B19"/>
<path d="M356.073 236.477H321.177V238.549H356.073V236.477Z" fill="#030B19"/>
<path d="M356.073 244.04H321.177V246.112H356.073V244.04Z" fill="#030B19"/>
<path d="M366.752 213.311C370.603 209.449 370.603 203.188 366.752 199.326C362.902 195.465 356.659 195.465 352.809 199.326C348.959 203.188 348.959 209.449 352.809 213.311C356.659 217.172 362.902 217.172 366.752 213.311Z" fill="#A83617"/>
<path d="M356.073 211.476L364.737 206.33L356.073 201.185L355.694 201.876L363.218 206.33L355.694 210.785L356.073 211.476Z" fill="white"/>
<path d="M355.867 202.912C356.61 202.912 357.213 202.293 357.213 201.53C357.213 200.768 356.61 200.149 355.867 200.149C355.123 200.149 354.52 200.768 354.52 201.53C354.52 202.293 355.123 202.912 355.867 202.912Z" fill="white"/>
<path d="M354.934 210.164C354.417 210.716 354.417 211.579 354.934 212.132C355.452 212.684 356.315 212.684 356.833 212.132C357.351 211.579 357.351 210.716 356.833 210.164C356.315 209.611 355.452 209.611 354.934 210.164Z" fill="white"/>
<path d="M362.736 205.329C362.218 205.882 362.218 206.745 362.736 207.297C363.253 207.85 364.116 207.85 364.634 207.297C365.152 206.745 365.152 205.882 364.634 205.329C364.116 204.811 363.288 204.811 362.736 205.329Z" fill="white"/>
<path d="M247.174 151.424L248.658 154.911L249.21 159.884L250.039 159.504L253.559 163.372C253.628 163.475 253.767 163.51 253.87 163.441L258.633 161.611L256.01 163.199L256.977 165.824L259.324 165.582L261.636 164.442L264.639 161.369L263.742 158.848L261.395 152.114L258.599 148.04L249.935 148.868L247.174 151.424Z" fill="#E5E5E5"/>
<path d="M246.38 145.864L245.793 148.04L247.036 151.907L254.181 150.353L256.286 149.386L257.08 152.494L258.737 152.978L259.91 157.363L263.88 159.09L263.189 147.453L259.945 144.656L258.771 145.312L257.701 144.345L246.38 145.864Z" fill="#030B19"/>
<path d="M254.388 166.928L252.593 179.464L235.922 184.195L236.957 189.513L255.596 186.059L265.779 172.315L254.388 166.928Z" fill="#081735"/>
<path d="M235.922 184.194L232.608 183.745L231.642 183.573L230.019 183.884L230.365 184.54L231.676 184.816L230.951 185.817L228.984 186.646L226.499 186.922L226.602 187.855L228.88 190.652L233.126 190.514L236.681 188.166L235.922 184.194Z" fill="#E5E5E5"/>
<path d="M256.459 164.304L254.422 166.894L258.219 193.829L263.051 208.575C264.432 212.822 267.677 216.206 271.853 217.795L280.62 215.93L264.329 188.822L259.117 179.775L256.976 165.824L256.459 164.304Z" fill="#081735"/>
<path d="M257.011 165.858L255.941 169.381L256.804 170.693L256.148 172.212L257.874 180.914L264.363 188.857L259.151 179.809L257.425 166.86L257.011 165.858Z" fill="#122554"/>
<path d="M257.011 165.858L257.149 177.426L264.708 198.284L268.16 205.639H286.695L286.419 194.071L279.378 179.636L264.708 161.403L261.222 164.097L257.011 165.858Z" fill="#FCFCFC"/>
<path d="M289.595 205.881L296.222 272.321H289.629L278.101 225.012L282.036 243.936L281.138 272.321H274.2L268.16 205.639L289.595 205.881Z" fill="#040F26"/>
<path d="M257.149 167.585L255.941 169.104L256.735 170.762L257.494 170.589L256.838 170.969L258.219 195.003L260.462 197.179L258.288 170.244V166.928L257.149 167.585Z" fill="#AA3333"/>
<path d="M264.709 161.403L274.925 162.612L288.111 194.243L291.735 201.633L293.668 219.176H285.177C285.177 219.176 274.097 219.763 271.715 209.403L261.982 188.615L271.853 181.156L261.395 187.337L259.186 182.606L260.152 168.172L264.709 161.403Z" fill="#081735"/>
<path d="M264.709 161.403L263.017 169.795L260.981 172.35L262.845 173.421L260.877 182.364L259.186 182.33L260.152 168.172L264.709 161.403Z" fill="#122554"/>
<path d="M144.038 151.424L142.554 154.911L141.967 159.884L141.139 159.504L137.618 163.372C137.549 163.475 137.411 163.51 137.307 163.441L132.544 161.611L135.167 163.199L134.201 165.824L131.854 165.582L129.541 164.442L126.538 161.369L127.436 158.848L129.783 152.114L132.579 148.04L141.242 148.868L144.038 151.424Z" fill="#E5E5E5"/>
<path d="M144.797 145.864L145.384 148.04L144.142 151.907L137.031 150.353L134.891 149.386L134.097 152.494L132.44 152.978L131.301 157.363L127.297 159.09L127.988 147.453L131.232 144.656L132.44 145.312L133.51 144.345L144.797 145.864Z" fill="#030B19"/>
<path d="M136.79 166.929L138.585 179.464L155.291 184.195L154.221 189.513L135.616 186.06L125.399 172.316L136.79 166.929Z" fill="#081735"/>
<path d="M155.291 184.195L158.604 183.746L159.571 183.573L161.193 183.884L160.813 184.54L159.536 184.816L160.227 185.818L162.194 186.647L164.714 186.923L164.576 187.855L162.298 190.652L158.052 190.514L154.497 188.166L155.291 184.195Z" fill="#E5E5E5"/>
<path d="M134.718 164.304L136.755 166.894L132.958 193.829L128.126 208.575C126.745 212.822 123.501 216.206 119.324 217.795L110.557 215.93L126.849 188.822L132.061 179.775L134.201 165.824L134.718 164.304Z" fill="#081735"/>
<path d="M134.166 165.858L135.271 169.381L134.373 170.693L135.029 172.212L133.338 180.914L126.849 188.857L132.026 179.809L133.786 166.86L134.166 165.858Z" fill="#122554"/>
<path d="M134.166 165.858L134.028 177.426L126.504 198.284L123.017 205.639H104.516L104.758 194.071L111.834 179.636L126.504 161.403L129.955 164.097L134.166 165.858Z" fill="#FCFCFC"/>
<path d="M101.617 205.881L94.9555 272.321H101.583L113.111 225.012L109.176 243.936L110.039 272.321H117.012L123.018 205.639L101.617 205.881Z" fill="#040F26"/>
<path d="M134.029 167.585L135.271 169.104L134.443 170.762L133.718 170.589L134.374 170.969L132.959 195.003L130.715 197.179L132.89 170.244L132.924 166.928L134.029 167.585Z" fill="#AA3333"/>
<path d="M126.504 161.403L116.287 162.612L103.102 194.243L99.4773 201.633L97.5443 219.176H106.035C106.035 219.176 117.115 219.763 119.497 209.403L129.231 188.615L119.359 181.156L129.817 187.337L132.026 182.606L131.06 168.172L126.504 161.403Z" fill="#081735"/>
<path d="M126.503 161.403L128.16 169.795L130.231 172.35L128.333 173.421L130.3 182.364L131.992 182.33L131.025 168.172L126.503 161.403Z" fill="#122554"/>
<path d="M184.181 172.696H160.917V180.258H188.288L184.181 172.696Z" fill="#0A1D44"/>
<path d="M227.155 180.258H160.917V231.262H227.155V180.258Z" fill="#0A1D44"/>
<path d="M229.666 182.312L224.188 230.797H163.917L158.405 182.312H229.666Z" fill="#D7ECFA" stroke="#E5E5E5"/>
<path d="M202.017 185.977C202.017 185.169 201.474 181.259 200.689 181.259H198.033C197.734 180.206 197.304 179.191 196.799 178.232L199.324 176.353L199.006 173.157L195.06 170.638C194.499 170.074 193.564 170.074 193.003 170.638L191.974 171.672V173.289H174.75V170.356C174.208 170.093 173.535 170.187 173.086 170.638L169.028 172.875C168.467 173.439 168.897 175.789 169.458 176.371L171.328 178.251C170.805 179.191 170.393 180.206 170.094 181.277H167.438C166.634 181.277 165.867 185.338 165.867 186.146L165.98 187.913C165.98 188.721 166.634 189.379 167.438 189.379H170.094C170.393 190.432 170.823 191.447 171.328 192.406L168.916 193.421L169.121 196.015L173.105 200.019C173.666 200.583 174.601 200.583 175.162 200.019L177.032 198.139C177.967 198.665 178.865 199.041 179.912 199.361L180.024 202.068C180.024 202.876 180.679 203.534 181.483 203.534H186.626C187.43 203.534 188.084 202.876 188.084 202.068V199.398C189.132 199.098 190.141 198.665 191.095 198.158L192.965 200.037C193.526 200.601 194.461 200.601 195.022 200.037L198.65 196.391L198.987 193.383L196.78 192.443C197.304 191.503 197.715 190.488 198.014 189.417H200.67C201.474 189.417 202.129 188.759 202.129 187.951L202.017 185.977ZM184.064 192.913C179.893 192.913 176.508 189.511 176.508 185.319C176.508 181.127 179.893 177.725 184.064 177.725C188.234 177.725 191.619 181.127 191.619 185.319C191.619 189.511 188.234 192.913 184.064 192.913Z" fill="#7D250D"/>
<path d="M200.558 179.341H197.902C197.603 178.289 197.173 177.274 196.668 176.315L198.538 174.435C199.099 173.871 199.099 172.931 198.538 172.367L194.91 168.721C194.349 168.157 193.414 168.157 192.853 168.721L190.983 170.6C190.048 170.074 189.038 169.661 187.972 169.36V166.691C187.972 165.882 187.317 165.224 186.513 165.224H181.371C180.566 165.224 179.912 165.882 179.912 166.691V169.36C178.865 169.661 177.855 170.093 176.901 170.6L175.031 168.721C174.47 168.157 173.535 168.157 172.974 168.721L169.346 172.386C168.785 172.95 168.785 173.89 169.346 174.454L171.216 176.334C170.692 177.274 170.281 178.289 169.982 179.36H167.326C166.522 179.36 165.867 180.018 165.867 180.826V185.996C165.867 186.804 166.522 187.462 167.326 187.462H169.982C170.281 188.514 170.711 189.53 171.216 190.488L169.346 192.368C168.785 192.932 168.785 193.872 169.346 194.436L172.974 198.064C173.535 198.628 174.47 198.628 175.031 198.064L176.901 196.184C177.836 196.71 178.846 197.124 179.912 197.424V200.094C179.912 200.902 180.566 201.56 181.371 201.56H186.513C187.317 201.56 187.972 200.902 187.972 200.094V197.424C189.019 197.124 190.029 196.691 190.983 196.184L192.853 198.064C193.414 198.628 194.349 198.628 194.91 198.064L198.538 194.417C199.099 193.853 199.099 192.913 198.538 192.349L196.668 190.469C197.192 189.53 197.603 188.514 197.902 187.443H200.558C201.362 187.443 202.016 186.785 202.016 185.977V180.807C202.016 179.999 201.362 179.341 200.558 179.341ZM183.933 190.996C179.762 190.996 176.377 187.593 176.377 183.402C176.377 179.21 179.762 175.807 183.933 175.807C188.103 175.807 191.488 179.21 191.488 183.402C191.488 187.593 188.122 190.996 183.933 190.996Z" fill="#787878"/>
<path d="M200.558 179.341H197.902C197.603 178.289 197.173 177.274 196.668 176.315L198.538 174.435C199.099 173.871 199.099 172.931 198.538 172.367L194.91 168.721C194.349 168.157 193.414 168.157 192.853 168.721L190.983 170.6C190.048 170.074 189.038 169.661 187.972 169.36V166.691C187.972 165.882 187.317 165.224 186.513 165.224H181.371C180.566 165.224 179.912 165.882 179.912 166.691V169.36C178.865 169.661 177.855 170.093 176.901 170.6L175.031 168.721C174.47 168.157 173.535 168.157 172.974 168.721L169.346 172.386C168.785 172.95 168.785 173.89 169.346 174.454L171.216 176.334C170.692 177.274 170.281 178.289 169.982 179.36H167.326C166.522 179.36 165.867 180.018 165.867 180.826V185.996C165.867 186.804 166.522 187.462 167.326 187.462H169.982C170.281 188.514 170.711 189.53 171.216 190.488L169.346 192.368C168.785 192.932 168.785 193.872 169.346 194.436L172.974 198.064C173.535 198.628 174.47 198.628 175.031 198.064L176.901 196.184C177.836 196.71 178.846 197.124 179.912 197.424V200.094C179.912 200.902 180.566 201.56 181.371 201.56H186.513C187.317 201.56 187.972 200.902 187.972 200.094V197.424C189.019 197.124 190.029 196.691 190.983 196.184L192.853 198.064C193.414 198.628 194.349 198.628 194.91 198.064L198.538 194.417C199.099 193.853 199.099 192.913 198.538 192.349L196.668 190.469C197.192 189.53 197.603 188.514 197.902 187.443H200.558C201.362 187.443 202.016 186.785 202.016 185.977V180.807C202.016 179.999 201.362 179.341 200.558 179.341ZM183.933 190.996C179.762 190.996 176.377 187.593 176.377 183.402C176.377 179.21 179.762 175.807 183.933 175.807C188.103 175.807 191.488 179.21 191.488 183.402C191.488 187.593 188.122 190.996 183.933 190.996Z" fill="#A83617"/>
<path d="M225.804 171.935C225.804 171.258 225.355 167.987 224.682 167.987H222.456C222.195 167.104 221.858 166.258 221.409 165.45L223.522 163.871L223.242 161.183L219.932 159.059C219.464 158.589 218.679 158.589 218.211 159.059L217.351 159.923V161.314H202.951V158.852C202.503 158.626 201.941 158.701 201.567 159.096L198.145 160.957C197.678 161.427 198.033 163.401 198.519 163.889L200.09 165.45C199.66 166.239 199.305 167.085 199.043 167.987H196.817C196.144 167.987 195.508 171.39 195.508 172.066L195.602 173.533C195.602 174.209 196.144 174.754 196.817 174.754H199.043C199.305 175.638 199.641 176.484 200.09 177.292L198.07 178.138L198.239 180.318L201.567 183.664C202.035 184.134 202.82 184.134 203.288 183.664L204.859 182.085C205.644 182.518 206.392 182.856 207.271 183.1L207.383 185.375C207.383 186.052 207.926 186.597 208.599 186.597H212.919C213.592 186.597 214.135 186.052 214.135 185.375V183.138C215.013 182.875 215.855 182.537 216.659 182.085L218.23 183.664C218.698 184.134 219.483 184.134 219.951 183.664L222.999 180.6L223.279 178.063L221.428 177.273C221.858 176.484 222.213 175.638 222.475 174.736H224.701C225.374 174.736 225.916 174.19 225.916 173.514L225.804 171.935ZM210.75 177.743C207.253 177.743 204.41 174.886 204.41 171.371C204.41 167.856 207.253 164.999 210.75 164.999C214.247 164.999 217.089 167.856 217.089 171.371C217.089 174.905 214.247 177.743 210.75 177.743Z" fill="#7D250D"/>
<path d="M224.588 166.39H222.363C222.101 165.506 221.765 164.66 221.316 163.852L222.887 162.273C223.354 161.803 223.354 161.014 222.887 160.544L219.838 157.48C219.371 157.01 218.585 157.01 218.118 157.48L216.547 159.059C215.762 158.626 214.92 158.269 214.022 158.006V155.769C214.022 155.092 213.48 154.547 212.807 154.547H208.506C207.832 154.547 207.29 155.092 207.29 155.769V158.006C206.411 158.269 205.569 158.608 204.765 159.059L203.194 157.48C202.727 157.01 201.942 157.01 201.474 157.48L198.426 160.544C197.958 161.014 197.958 161.803 198.426 162.273L199.997 163.852C199.566 164.642 199.211 165.488 198.949 166.39H196.724C196.051 166.39 195.508 166.935 195.508 167.612V171.954C195.508 172.631 196.051 173.176 196.724 173.176H198.949C199.211 174.059 199.548 174.905 199.997 175.713L198.426 177.292C197.958 177.762 197.958 178.552 198.426 179.022L201.474 182.086C201.942 182.556 202.727 182.556 203.194 182.086L204.765 180.507C205.551 180.939 206.392 181.296 207.29 181.559V183.796C207.29 184.473 207.832 185.018 208.506 185.018H212.807C213.48 185.018 214.022 184.473 214.022 183.796V181.559C214.901 181.296 215.743 180.958 216.547 180.507L218.118 182.086C218.585 182.556 219.371 182.556 219.838 182.086L222.887 179.022C223.354 178.552 223.354 177.762 222.887 177.292L221.316 175.713C221.746 174.924 222.101 174.078 222.363 173.176H224.588C225.262 173.176 225.804 172.631 225.804 171.954V167.612C225.804 166.935 225.262 166.39 224.588 166.39ZM210.656 176.146C207.159 176.146 204.317 173.288 204.317 169.773C204.317 166.258 207.159 163.401 210.656 163.401C214.153 163.401 216.996 166.258 216.996 169.773C216.996 173.288 214.153 176.146 210.656 176.146Z" fill="#A83617"/>
<path d="M227.154 231.297H160.917L154.945 184.195H233.126L227.154 231.297Z" fill="#0A1D44"/>
<path d="M121.05 169.07L137.549 183.505L159.329 185.784V191.102L136.341 191.205L117.564 180.12L121.05 169.07Z" fill="#081735"/>
<path d="M159.329 185.818L162.47 184.679L163.368 184.299L165.024 184.264L164.817 184.99L163.609 185.508L164.507 186.371L166.612 186.785L169.097 186.509L169.166 187.441L167.51 190.653L163.333 191.413L159.329 189.824V185.818Z" fill="#E5E5E5"/>
<path d="M270.128 169.07L253.629 183.505L231.849 185.784V191.102L254.871 191.205L273.648 180.12L270.128 169.07Z" fill="#081735"/>
<path d="M231.883 185.818L228.742 184.679L227.81 184.299L226.153 184.264L226.395 184.99L227.603 185.508L226.706 186.371L224.6 186.785L222.081 186.509L222.012 187.441L223.668 190.653L227.845 191.413L231.849 189.824L231.883 185.818Z" fill="#E5E5E5"/>
<path d="M286.246 48.8148C295.398 39.6581 295.398 24.8122 286.246 15.6555C277.093 6.4988 262.254 6.4988 253.101 15.6555C243.949 24.8122 243.949 39.6581 253.101 48.8147C262.254 57.9714 277.093 57.9714 286.246 48.8148Z" fill="#DCE6F9"/>
<path d="M312.514 36.1615C313.497 27.7126 307.448 20.0662 299.002 19.083C290.557 18.0997 282.914 24.1518 281.932 32.6008C280.949 41.0497 286.998 48.696 295.443 49.6793C303.888 50.6626 311.531 44.6105 312.514 36.1615Z" fill="#DCE6F9"/>
<path d="M317.173 67.2686H246.518C236.853 67.2686 229.018 59.4298 229.018 49.7608C229.018 40.0917 236.853 32.2529 246.518 32.2529H317.173C326.838 32.2529 334.673 40.0917 334.673 49.7608C334.708 59.4298 326.838 67.2686 317.173 67.2686Z" fill="#DCE6F9"/>
<path d="M68.4806 261.719H24.9897V216.171L34.9305 205.432H68.4806V261.719Z" fill="#D7ECFA"/>
<path opacity="0.36" d="M24.9897 216.171H34.9305V205.432L24.9897 216.171Z" fill="#D7ECFA"/>
<path d="M64.7872 221.316H29.8909V223.388H64.7872V221.316Z" fill="#030B19"/>
<path d="M64.7872 228.914H29.8909V230.985H64.7872V228.914Z" fill="#030B19"/>
<path d="M64.7872 236.476H29.8909V238.548H64.7872V236.476Z" fill="#030B19"/>
<path d="M64.7872 244.039H29.8909V246.111H64.7872V244.039Z" fill="#030B19"/>
<path d="M78.0845 208.622C79.3344 203.313 76.047 197.99 70.7418 196.734C65.4365 195.478 60.1226 198.763 58.8726 204.072C57.6227 209.381 60.9102 214.703 66.2154 215.959C71.5206 217.216 76.8345 213.931 78.0845 208.622Z" fill="#A83617"/>
<path d="M64.7531 211.475L73.4513 206.329L64.7531 201.184L64.3734 201.875L71.9325 206.329L64.3734 210.784L64.7531 211.475Z" fill="white"/>
<path d="M63.6142 200.528C63.0965 201.081 63.0965 201.944 63.6142 202.497C64.132 203.049 64.9949 203.049 65.5126 202.497C66.0304 201.944 66.0304 201.081 65.5126 200.528C64.9949 200.01 64.1665 200.01 63.6142 200.528Z" fill="white"/>
<path d="M63.6142 210.163C63.0965 210.715 63.0965 211.578 63.6142 212.131C64.132 212.684 64.9949 212.684 65.5126 212.131C66.0304 211.578 66.0304 210.715 65.5126 210.163C64.9949 209.61 64.1665 209.61 63.6142 210.163Z" fill="white"/>
<path d="M72.3815 207.711C73.1249 207.711 73.7276 207.093 73.7276 206.33C73.7276 205.567 73.1249 204.949 72.3815 204.949C71.638 204.949 71.0354 205.567 71.0354 206.33C71.0354 207.093 71.638 207.711 72.3815 207.711Z" fill="white"/>
<path d="M431.699 187.958L427.178 190.168L421.724 204.775L422.415 219.072C422.415 219.072 420.792 227.36 420.792 227.532C420.792 227.981 420.827 243.106 420.827 243.106H426.004L431.699 187.958Z" fill="#102043"/>
<path opacity="0.36" d="M431.7 187.958L429.146 190.479L429.663 191.342L428.559 192.62L426.246 200.045L425.901 205.639L426.764 200.286L431.7 187.958Z" fill="#12254D"/>
<path d="M427.765 171.59L427.903 175.285L426.695 180.051L427.592 179.982L429.456 184.747C429.491 184.851 429.594 184.92 429.732 184.92H434.737L431.769 185.472L431.493 189.064L433.978 188.856L436.498 188.615L440.329 186.854L440.398 184.229L440.605 177.219L439.466 172.488L431.251 170.209L427.765 171.59Z" fill="#E5E5E5"/>
<path d="M429.008 166.238L427.731 167.654L427.248 171.521L436.187 173.351L436.843 172.937L436.187 178.911L437.741 178.117L437.361 181.536L440.364 184.471L443.85 173.593L441.848 169.898L440.536 170.071L439.915 168.793L429.008 166.238Z" fill="#030B19"/>
<path d="M431.699 187.958L426.764 200.286L421.724 230.986H438.154L443.193 209.748L440.398 186.335L435.048 188.338L431.492 189.133L431.699 187.958Z" fill="#FCFCFC"/>
<path d="M431.078 190.583L429.387 191.481L429.491 193.311L430.25 193.414L429.491 193.484L426.764 201.357L425.728 213.823L426.246 216.793L428.455 201.357L431.113 193.414L432.217 190.479L431.078 190.583Z" fill="#AA3333"/>
<path d="M441.675 231.228L448.268 307.267L449.89 309.685L450.062 310.824H443.608L444.505 307.406L429.387 249.979L434.737 276.188L431.078 307.578L431.216 310.824H429.387L429.249 310.41L428.49 310.824H419.412L419.757 309.512L426.522 307.509L421.724 230.986L441.675 231.228Z" fill="#070F30"/>
<path d="M440.398 186.335L448.302 190.825L443.09 227.049L444.988 244.28H436.635C436.635 244.28 425.763 244.867 423.45 234.68L426.246 205.881L435.565 189.581L440.398 186.335Z" fill="#102043"/>
<path opacity="0.36" d="M440.398 186.335L438.258 190.479L435.876 191.066L436.774 192.655L426.246 205.881L435.566 189.581L440.398 186.335Z" fill="#12254D"/>
<path d="M448.302 190.824L457.001 213.478L438.154 230.985L436.774 222.767L447.405 212.442L439.19 202.358L448.302 190.824Z" fill="#102043"/>
<path d="M389.9 172.039L390.625 175.665L390.211 180.569L391.074 180.362L393.697 184.782C393.766 184.885 393.869 184.954 394.007 184.92L398.978 184.126L396.113 185.127L395.561 187.786L395.457 188.822L399.91 188.028L404.639 186.681L404.466 182.503L403.534 175.562L401.67 171.073L393.179 170.14L389.9 172.039Z" fill="#E5E5E5"/>
<path d="M387.518 166.583L389.382 172.039L398.494 172.419L399.081 171.901L399.392 177.91L400.807 176.839L400.979 180.292L404.397 182.71L406.122 171.418L403.534 168.102L402.257 168.482L401.428 167.343L387.518 166.583Z" fill="#030B19"/>
<path d="M391.004 191.136L382.099 209.921L382.548 217.035L385.965 217.725L388.001 213.685L391.556 190.859L391.004 191.136Z" fill="#08153F"/>
<path d="M395.526 187.82L393.421 189.063L391.005 191.17L389.072 206.744C389.072 206.744 384.999 227.049 385.033 227.463C385.033 227.912 385.068 243.037 385.068 243.037H390.245L395.526 187.82Z" fill="#0A1A4D"/>
<path d="M395.526 187.82L395.422 188.856L391.004 200.217L388.485 210.577L390.176 199.941L392.005 194.623L393.006 193.622L392.834 192.344L395.526 187.82Z" fill="#122554"/>
<path d="M395.422 188.856L391.004 200.217L385.965 230.916H402.395L407.468 209.679L404.604 186.163L400.047 187.993L395.422 188.856Z" fill="#FCFCFC"/>
<path d="M395.25 189.996L393.559 190.894L393.662 192.724L394.387 192.828L393.662 192.897L390.936 214.445L391.971 218.865L395.25 192.828L396.355 189.892L395.25 189.996Z" fill="#AA3333"/>
<path d="M405.95 231.158L412.508 307.267L414.303 309.926V310.824H407.848L408.745 307.406L393.351 249.564L398.011 271.768L395.319 307.578L395.491 310.824H393.627L393.489 310.41L392.73 310.824H383.617L383.893 309.65L390.762 307.509L385.964 230.917L405.95 231.158Z" fill="#061435"/>
<path d="M404.604 186.163L414.303 194.278L407.331 226.98L409.229 244.211H400.876C400.876 244.211 390.004 244.798 387.656 234.611L387.484 221.385L407.296 210.128L388.347 219.935L390.073 201.357L399.979 188.96L404.604 186.163Z" fill="#08153F"/>
<path d="M404.604 186.163L400.013 188.96L390.107 201.357L388.485 210.577L391.557 202.6L397.769 196.729L396.665 194.381L399.668 193.518L401.704 189.547L404.604 186.163Z" fill="#122554"/>
<path d="M385.102 212.683L384.653 211.026L385.895 208.643L388.277 208.505L385.102 212.683Z" fill="#E5E5E5"/>
<path d="M383.997 212.269L384.17 217.345L388.381 219.935L408.021 209.783L404.362 196.281L386.759 210.681L383.997 212.269Z" fill="#08153F"/>
<path d="M390.659 209.921L391.66 209.541L390.21 207.469L392.177 209.334L393.213 208.92L391.832 206.571L393.765 208.712L395.042 208.194L393.247 205.57L395.457 207.746L396.078 206.71L394.628 204.292C394.456 204.016 394.076 203.947 393.834 204.154L389.14 207.884C388.967 208.022 388.933 208.298 389.105 208.471C389.589 208.92 390.659 209.921 390.659 209.921Z" fill="#E5E5E5"/>
</g>
<defs>
<clipPath id="clip0">
<rect width="457" height="313" fill="white"/>
</clipPath>
</defs>
</svg>
