<svg width="456" height="428" viewBox="0 0 456 428" fill="none" xmlns="http://www.w3.org/2000/svg">
<path opacity="0.36" d="M153.963 419.98C147.498 419.98 141.476 420.157 136.295 420.423C123.1 419.049 100.162 418.163 74.0369 418.163C33.1218 418.163 0 420.378 0 423.081C0 425.784 33.166 428 74.0369 428C100.162 428 123.1 427.114 136.295 425.74C141.432 426.006 147.498 426.183 153.963 426.183C172.871 426.183 188.192 424.81 188.192 423.081C188.192 421.353 172.871 419.98 153.963 419.98Z" fill="#7B7B7B"/>
<path opacity="0.36" d="M421.771 419.98C410.258 419.98 400.074 420.511 393.875 421.265C387.675 420.467 377.491 419.98 365.978 419.98C347.07 419.98 331.749 421.353 331.749 423.082C331.749 424.81 347.07 426.183 365.978 426.183C377.491 426.183 387.675 425.652 393.875 424.898C400.074 425.696 410.258 426.183 421.771 426.183C440.679 426.183 456 424.81 456 423.082C456 421.353 440.679 419.98 421.771 419.98Z" fill="#7B7B7B"/>
<path opacity="0.27" d="M339.631 100.63L341.934 101.339C343.483 101.827 345.21 101.517 346.495 100.453L350.745 97.0411C351.41 96.5094 351.587 95.5788 351.188 94.8256L350.967 94.4268L339.631 100.63Z" fill="#CD8DBF"/>
<path d="M285.432 347.753H237.432V246.857C237.432 200.286 264.709 186.328 294.332 169.755H293.845C311.247 159.387 329.092 149.062 330.066 118C330.996 85.3873 306.066 53.8379 260.945 53.8379C228.487 53.8379 204.044 75.0628 188.989 109.227L150.421 84.8999C170.657 37.2656 207.365 0 260.945 0C337.107 0 381.299 57.4271 380.369 119.019C378.952 180.612 343.705 199.222 314.081 216.814C299.026 225.632 284.945 232.854 284.945 247.344L285.432 347.753ZM291.985 392.95C291.985 407.528 279.277 423.081 260.945 423.081C244.472 423.081 231.321 407.573 231.321 392.95C231.321 374.605 244.472 361.888 260.945 361.888C279.277 361.888 291.985 374.605 291.985 392.95Z" fill="url(#paint0_linear)"/>
<path d="M305.712 314.21C305.314 314.608 304.605 314.608 304.207 314.21L293.934 303.974C293.535 303.575 293.535 302.91 293.934 302.467C294.332 302.068 295.041 302.068 295.439 302.467L305.756 312.703C306.155 313.146 306.155 313.811 305.712 314.21Z" fill="#040F26"/>
<path d="M315.365 323.736C314.524 324.578 313.196 324.578 312.354 323.736L298.76 310.31C297.919 309.468 297.919 308.139 298.76 307.341C299.601 306.499 300.93 306.499 301.771 307.341L315.365 320.768C316.207 321.565 316.207 322.895 315.365 323.736Z" fill="#08153F"/>
<path d="M270.509 279.337C263.601 286.161 263.601 297.283 270.509 304.151C277.417 310.975 288.664 310.975 295.572 304.151C302.48 297.327 302.48 286.205 295.572 279.337C288.62 272.468 277.417 272.468 270.509 279.337ZM293.358 301.935C287.646 307.563 278.391 307.563 272.679 301.935C266.967 296.308 266.967 287.091 272.679 281.464C278.391 275.836 287.646 275.836 293.358 281.464C299.07 287.135 299.07 296.308 293.358 301.935Z" fill="#040F26"/>
<path opacity="0.36" d="M296.9 296.308C296.059 298.745 294.642 300.872 292.782 302.467C291.941 303.22 291.055 303.841 290.081 304.372C289.594 304.638 289.107 304.904 288.576 305.081C287.956 305.347 287.38 305.524 286.716 305.657C284.059 306.366 281.181 306.322 278.391 305.392C270.731 302.866 266.613 294.624 269.181 287.047C270.111 284.255 271.838 281.951 274.007 280.311C274.494 279.913 275.026 279.558 275.601 279.248C276.089 278.982 276.576 278.716 277.107 278.495C278.125 278.052 279.188 277.697 280.251 277.52C282.642 277.032 285.21 277.165 287.69 278.007C295.306 280.533 299.469 288.731 296.9 296.308Z" fill="#DCE2EF"/>
<path opacity="0.36" d="M288.576 305.126C287.956 305.392 287.38 305.569 286.716 305.702L273.963 280.356C274.45 279.957 274.982 279.603 275.557 279.292L288.576 305.126Z" fill="#A83617"/>
<path opacity="0.36" d="M292.782 302.467C291.941 303.22 291.055 303.841 290.081 304.372L277.063 278.495C278.081 278.052 279.144 277.697 280.207 277.52L292.782 302.467Z" fill="#A83617"/>
<path d="M326.258 275.792L327.852 279.558L328.517 284.964L329.402 284.565L333.21 288.775C333.299 288.864 333.432 288.908 333.565 288.864L338.745 286.87L335.867 288.598L336.93 291.478L339.498 291.212L342.022 289.971L345.299 286.648L344.325 283.945L341.757 276.634L338.745 272.203L329.358 273.089L326.258 275.792Z" fill="#E5E5E5"/>
<path d="M325.417 269.765L324.797 272.158L326.125 276.323L333.875 274.64L336.177 273.621L337.018 276.988L338.834 277.52L340.074 282.261L344.413 284.167L343.66 271.494L340.162 268.48L338.834 269.189L337.683 268.126L325.417 269.765Z" fill="#151515"/>
<path d="M334.14 292.63L332.148 306.278L336.664 317.045L339.631 322.318L341.756 313.811L346.494 298.523L334.14 292.63Z" fill="#081735"/>
<path d="M336.354 289.838L334.14 292.674L338.258 321.92L343.483 337.916C344.989 342.524 348.531 346.202 353.048 347.93L362.568 345.892L344.9 316.425L339.277 306.632L336.974 291.478L336.354 289.838Z" fill="#081735"/>
<path d="M336.93 291.478L335.779 295.333L336.753 296.751L336 298.391L337.86 307.829L344.9 316.469L339.277 306.632L337.373 292.586L336.93 291.478Z" fill="#162F60"/>
<path d="M336.974 291.478L337.107 304.062L345.299 326.749L349.063 334.681L369.166 334.725L368.9 322.141L361.24 306.455L345.299 286.648L341.535 289.617L336.974 291.478Z" fill="#FCFCFC"/>
<path d="M372.31 334.947L380.723 419.138L382.716 421.797L382.937 423.037H375.808L376.605 419.271L359.823 355.729L364.118 376.333L361.771 419.492L362.125 423.037H360.089L359.911 422.638L359.114 423.037H349.063L349.373 421.619L356.723 419.404L349.063 334.681L372.31 334.947Z" fill="#040F26"/>
<path d="M337.107 293.383L335.779 295.023L336.664 296.839L337.461 296.662L336.753 297.061L338.258 323.16L340.694 325.509L338.347 296.263L338.303 292.63L337.107 293.383Z" fill="#A83617"/>
<path d="M345.299 286.648L356.369 287.977L370.672 322.363L374.613 330.383L376.738 349.437H367.528C367.528 349.437 355.483 350.101 352.915 338.802L342.332 316.203L353.048 308.094L341.668 314.785L339.277 309.645L340.34 293.959L345.299 286.648Z" fill="#081735"/>
<path d="M345.299 286.648L343.483 295.776L341.269 298.523L343.262 299.72L341.181 309.424L339.321 309.38L340.339 294.004L345.299 286.648Z" fill="#162F60"/>
<path d="M351.188 295.023L333.299 310.664L309.653 313.146V318.02L334.627 319.039L354.996 306.987L351.188 295.023Z" fill="#081735"/>
<path d="M309.653 313.146L307.749 312.481L306.686 311.595L305.978 311.462L306.642 312.526L306.465 312.747L305.269 313.146H302.258L301.904 313.899L304.871 317.045H305.314H308.148L309.653 316.779V313.146Z" fill="#E5E5E5"/>
<path d="M159.454 286.87L164.28 289.44L166.45 306.854C166.45 306.854 170.967 329.497 170.967 329.984C170.967 330.472 170.923 347.398 170.923 347.398H165.166L159.454 286.87Z" fill="#08153F"/>
<path d="M162.111 267.55L162.244 271.671L163.926 276.9H162.908L161.181 282.35C161.137 282.483 161.048 282.571 160.871 282.571L155.292 282.97L158.657 283.369L159.321 286.825L156.443 287.268L153.609 287.18L149.181 285.496L148.915 282.616L148.162 274.817L149.048 269.5L158.037 266.354L162.111 267.55Z" fill="#E5E5E5"/>
<path d="M163.306 260.726L162.686 267.417L152.856 270.12L152.103 269.721L153.299 276.324L151.483 275.57L152.192 279.337L149.048 282.837L144.354 271.006L146.303 266.708L147.764 266.797L148.384 265.379L163.306 260.726Z" fill="#151515"/>
<path d="M159.454 286.87L164.236 299.543L169.904 333.839H151.528L145.904 310.133L153.432 285.983L159.454 286.87Z" fill="#FCFCFC"/>
<path d="M159.277 287.401L161.181 288.42L161.048 290.459L160.251 290.592L161.048 290.68L164.103 314.741L162.952 319.66L159.277 290.592L158.037 287.268L159.277 287.401Z" fill="#A83617"/>
<path d="M147.587 334.105L140.236 419.094L138.244 422.062V423.037H145.461L144.443 419.227L161.624 354.621L156.443 379.48L159.454 419.448L159.277 423.037H161.314L161.491 422.594L162.332 423.037H172.517L172.207 421.752L164.546 419.359L169.904 333.839L147.587 334.105Z" fill="#061435"/>
<path d="M149.092 283.856L138.244 292.94L146.037 329.452L143.912 348.728H153.21C153.21 348.728 165.343 349.392 167.956 338.004L168.177 323.249L146.037 310.62L167.203 321.565L165.255 300.828L153.432 285.983L149.092 283.856Z" fill="#08153F"/>
<path d="M164.369 290.636L167.292 305.746L164.856 290.37L164.59 288.155L168.354 284.831L177.078 309.778L171.498 315.716L167.38 314.431L164.369 290.636Z" fill="#08153F"/>
<path d="M171.852 315.716L172.295 313.944L170.967 311.374L168.399 311.196L171.852 315.716Z" fill="#D8AF93"/>
<path d="M171.852 314.83L171.72 318.818L167.203 321.609L146.081 310.665L150.022 296.131L168.93 311.595L170.613 312.57C171.41 313.057 171.852 313.899 171.852 314.83Z" fill="#08153F"/>
<path d="M167.912 285.23L165.963 282.749C165.875 282.66 165.786 282.616 165.697 282.571L159.011 281.198V281.685L162.686 282.97L161.801 283.059L161.225 283.945H159.941L160.959 286.427C161.048 286.604 161.181 286.737 161.314 286.781L163.483 287.534L165.033 287.8L167.912 285.23Z" fill="#E5E5E5"/>
<path d="M122.033 112.854L119.402 114.733L138.716 141.821L141.348 139.942L122.033 112.854Z" fill="#040F26"/>
<path d="M147.897 151.898C146.745 152.696 145.151 152.43 144.354 151.322L126.996 126.995C126.731 126.597 126.819 126.065 127.218 125.755L129.919 123.805C130.317 123.539 130.849 123.628 131.159 124.027L148.517 148.353C149.314 149.505 149.048 151.056 147.897 151.898Z" fill="#08153F"/>
<path d="M125.491 119.95C128.369 117.912 126.465 110.379 121.328 103.156C116.148 95.9334 109.638 91.6795 106.805 93.7179L105.299 95.0029L123.985 121.235L125.491 119.95Z" fill="#040F26"/>
<path d="M123.963 121.257C126.83 119.21 124.962 111.673 119.792 104.422C114.622 97.1708 108.107 92.9519 105.24 94.9986C102.374 97.0454 104.241 104.583 109.411 111.834C114.582 119.085 121.097 123.304 123.963 121.257Z" fill="url(#paint1_linear)"/>
<path d="M123.963 121.257C126.83 119.21 124.962 111.673 119.792 104.422C114.622 97.1708 108.107 92.9519 105.24 94.9986C102.374 97.0454 104.241 104.583 109.411 111.834C114.582 119.085 121.097 123.304 123.963 121.257Z" fill="#DCE2EF" fill-opacity="0.5"/>
<path opacity="0.36" d="M119.247 104.796C124.074 111.575 125.845 118.621 123.188 120.57C120.531 122.476 114.421 118.532 109.594 111.708C104.768 104.928 102.996 97.883 105.653 95.9333C108.31 94.0279 114.421 98.0159 119.247 104.796Z" fill="#DCE2EF" fill-opacity="0.5"/>
<path opacity="0.63" d="M110.17 111.265C105.52 104.707 103.705 97.9717 105.963 95.7561C105.875 95.8004 105.742 95.889 105.653 95.9333C102.996 97.8387 104.723 104.884 109.594 111.708C114.421 118.488 120.531 122.476 123.188 120.57C123.277 120.482 123.365 120.437 123.454 120.349C120.62 121.722 114.819 117.823 110.17 111.265Z" fill="#C28680"/>
<path d="M96.6643 147.246L101.491 149.816L103.661 167.23C103.661 167.23 108.177 189.873 108.177 190.36C108.177 190.848 108.133 207.774 108.133 207.774H102.376L96.6643 147.246Z" fill="#08153F"/>
<path d="M94.5831 126.685L96.0001 130.585L99.2325 135.016L98.2584 135.326L98.3469 141.042C98.3469 141.175 98.2584 141.308 98.1255 141.352L92.9447 143.479L96.2658 142.77L96.5757 147.246L95.3801 147.201L92.679 147.999L87.9853 147.777L86.834 145.119L83.6901 137.94L82.8931 132.579L90.4207 126.774L94.5831 126.685Z" fill="#E5E5E5"/>
<path d="M93.5647 119.861L95.0702 126.375L86.6126 132.047L85.7713 131.87L88.9595 137.763L87.0112 137.586L88.8709 140.998L86.9669 145.296L78.775 135.503L79.3064 130.85L80.7233 130.452L80.8562 128.901L93.5647 119.861Z" fill="#151515"/>
<path d="M96.6643 147.245L101.447 159.963L107.114 194.259H88.7381L83.1145 170.509L90.6421 146.404L96.6643 147.245Z" fill="#FCFCFC"/>
<path d="M96.4872 147.822L98.3912 148.796L98.2584 150.835L97.417 150.968L98.2584 151.056L101.314 175.117L100.162 180.036L96.4872 150.968L95.2473 147.689L96.4872 147.822Z" fill="#AA3333"/>
<path d="M84.7971 194.481L77.4466 279.47L75.4539 282.438V283.458H82.6274L81.6532 279.603L98.834 215.041L93.6532 239.856L96.6643 279.824L96.4872 283.458H98.5241L98.7012 283.015L99.5425 283.458H109.727L109.417 282.173L101.757 279.735L107.114 194.26L84.7971 194.481Z" fill="#061435"/>
<path d="M86.2584 144.232L79.882 149.594L77.668 158.368L83.203 189.828L81.0776 209.104H90.3765C90.3765 209.104 102.509 209.768 105.122 198.38L104.369 181.985L102.421 161.248L90.5979 146.404L86.2584 144.232Z" fill="#08153F"/>
<path d="M83.4244 147.246L107.203 145.783L125.757 130.895L129.166 134.395L112.118 152.651L89.1366 158.412L83.4244 147.246Z" fill="#08153F"/>
<path d="M125.889 131.072L126.819 129.654L126.731 127.837L127.041 126.995L127.838 128.147L128.502 128.059L129.388 127.616L131.912 125.09L132.221 125.046L132.664 125.533L133.904 127.527L132.443 130.762L130.185 133.022L128.768 133.996L125.889 131.072Z" fill="#E5E5E5"/>
<path d="M113.402 320.59H72.7971L64.3395 283.458H104.945L113.402 320.59ZM75.3654 317.488H109.417L102.376 286.559H68.3248L75.3654 317.488Z" fill="#7C2811"/>
<path d="M121.196 354.754H80.5905L72.1329 317.621H112.738L121.196 354.754ZM83.1587 351.652H117.21L110.17 320.723H76.1181L83.1587 351.652Z" fill="#7C2811"/>
<path d="M128.989 388.918H88.3838L79.9263 351.785H120.531L128.989 388.918ZM90.9521 385.816H125.004L117.963 354.887H83.9115L90.9521 385.816Z" fill="#7C2811"/>
<path d="M136.782 423.082H96.1772L87.7196 385.949H128.325L136.782 423.082ZM98.7455 419.98H132.797L125.757 389.051H91.7049L98.7455 419.98Z" fill="#7C2811"/>
<path d="M105.653 286.559H51.3211L51.6753 283.458H104.945L105.653 286.559Z" fill="#7C2811"/>
<path d="M81.2104 320.59H40.6052L49.0628 283.458H89.668L81.2104 320.59ZM44.5905 317.488H78.6421L85.6827 286.559H51.6311L44.5905 317.488Z" fill="#A83617"/>
<path d="M73.417 354.754H32.8119L41.2694 317.621H81.8746L73.417 354.754ZM36.7971 351.652H70.8488L77.8894 320.723H43.8377L36.7971 351.652Z" fill="#A83617"/>
<path d="M65.6237 388.918H25.0185L33.4761 351.785H74.0812L65.6237 388.918ZM29.0038 385.816H63.0554L70.096 354.887H36.0443L29.0038 385.816Z" fill="#A83617"/>
<path d="M57.8303 423.082H17.2694L25.727 385.949H66.3322L57.8303 423.082ZM21.2104 419.98H55.262L62.3026 389.051H28.251L21.2104 419.98Z" fill="#A83617"/>
<path d="M421.196 265.955L420.576 270.031L418.273 275.038L419.247 275.171L420.31 280.799C420.354 280.932 420.443 281.02 420.576 281.065L426.066 282.128H424.472L424.162 284.034L421.196 285.762L426.288 287.002L432.709 283.989L432.399 282.527L434.081 274.906L433.816 269.5L425.269 265.29L421.196 265.955Z" fill="#E5E5E5"/>
<path d="M423.675 260.327L421.86 262.011L420.797 266.309L428.325 269.012L430.849 269.322L429.786 272.69L431.07 274.064L429.609 278.805L432.354 282.704L438.376 271.494L436.959 267.018L435.498 266.929L435.055 265.423L423.675 260.327Z" fill="#151515"/>
<path d="M424.162 283.989L416.679 286.16L413.004 302.024L411.365 317.887C411.365 317.887 410.568 327.99 410.524 328.212C410.48 328.699 409.24 344.429 409.24 344.429L414.952 345.316L424.162 283.989Z" fill="#0A1D43"/>
<path d="M424.162 283.989L420.31 286.958L419.557 288.287L419.69 289.44L418.583 289.927L416.369 293.206L413.579 302.556L412.074 309.557L417.078 293.516L424.074 284.698L424.162 283.989Z" fill="#19366E"/>
<path d="M424.162 283.989L416.148 294.003L410.834 331.358L430.362 333.972L432.177 310.266L432.753 283.945L428.103 285.274L424.251 285.186L424.162 283.989Z" fill="#FCFCFC"/>
<path d="M422.568 286.736L420.576 287.445L420.399 289.439L421.151 289.705L420.354 289.661L416.015 298.479L412.03 313.5L412.472 318.507L418.185 299.055L422.125 289.838L424.03 286.736H422.568Z" fill="#A83617"/>
<path d="M435.675 331.624L438.863 418.96L440.768 421.752L440.856 423.037H432.841L434.17 419.138L419.159 353.203L424.074 383.246L417.432 419.359V423.037H415.129L414.996 422.594L414.022 423.037H402.731L403.218 421.575L411.764 419.271L410.834 331.358L435.675 331.624Z" fill="#040F26"/>
<path d="M432.753 283.945L440.723 290.193L436.517 330.427L435.72 349.747L426.509 348.329C426.509 348.329 414.421 347.132 413.579 335.523L416.059 301.492L424.694 287.977L432.753 283.945Z" fill="#0A1D43"/>
<path d="M440.679 290.237L452.148 312.791L447.055 335.656L442.406 334.415L444.62 313.855L431.911 298.435L440.679 290.237Z" fill="#0A1D43"/>
<path d="M432.753 283.945L427.705 288.243L426.421 290.857L423.055 292.098L424.162 294.181L418.14 301.625L414.199 310.266L416.059 301.492L424.649 288.021L432.753 283.945Z" fill="#19366E"/>
<path d="M425.668 283.768L404.723 281.331L387.542 270.474L386.126 275.349L402.421 288.863L415.483 291.433L425.668 283.768Z" fill="#0A1D43"/>
<path d="M447.011 335.612L446.834 337.207L446.347 341.239L442.893 341.771L441.432 340.663L441.565 339.732L440.856 339.289L441.166 337.34L442.45 336.099L442.76 334.504L447.011 335.612Z" fill="#E5E5E5"/>
<path d="M387.542 270.474L385.417 269.056L382.185 266.088L376.694 263.739L376.827 264.625L380.413 267.461L379.926 269.499L381.963 272.247L384.133 272.468L386.568 273.842L387.542 270.474Z" fill="#E5E5E5"/>
<defs>
<linearGradient id="paint0_linear" x1="265.402" y1="0" x2="265.402" y2="423.081" gradientUnits="userSpaceOnUse">
<stop stop-color="#A83617"/>
<stop offset="1" stop-color="#A83617" stop-opacity="0.79"/>
</linearGradient>
<linearGradient id="paint1_linear" x1="105.24" y1="94.9986" x2="123.98" y2="121.245" gradientUnits="userSpaceOnUse">
<stop stop-color="#A83617"/>
<stop offset="1" stop-color="#A83617" stop-opacity="0.79"/>
</linearGradient>
</defs>
</svg>
