<svg width="263" height="373" viewBox="0 0 263 373" fill="none" xmlns="http://www.w3.org/2000/svg">
<path d="M16.243 0H0V372.043H16.243V0Z" fill="url(#paint0_linear)"/>
<path d="M262.205 0H245.962V372.043H262.205V0Z" fill="url(#paint1_linear)"/>
<path d="M246.221 1.03125H16.2402V17.2743H246.221V1.03125Z" fill="url(#paint2_linear)"/>
<path d="M246.221 354.511H16.2402V370.754H246.221V354.511Z" fill="url(#paint3_linear)"/>
<path d="M245.971 29.6812H15.9902V33.5485H245.971V29.6812Z" fill="url(#paint4_linear)"/>
<path d="M159.336 31.486C159.336 38.4473 157.016 44.1195 153.922 44.1195C150.828 44.1195 148.508 38.4473 148.508 31.486C148.508 24.5247 150.828 18.8525 153.922 18.8525C156.758 19.1104 159.336 24.5247 159.336 31.486Z" fill="url(#paint5_linear)"/>
<path d="M170.169 31.486C170.169 38.4473 167.848 44.1195 164.754 44.1195C161.66 44.1195 159.34 38.4473 159.34 31.486C159.34 24.5247 161.66 18.8525 164.754 18.8525C167.59 19.1104 170.169 24.5247 170.169 31.486Z" fill="url(#paint6_linear)"/>
<path d="M180.995 31.486C180.995 38.4473 178.674 44.1195 175.58 44.1195C172.486 44.1195 170.166 38.4473 170.166 31.486C170.166 24.5247 172.486 18.8525 175.58 18.8525C178.416 19.1104 180.995 24.5247 180.995 31.486Z" fill="url(#paint7_linear)"/>
<path d="M191.827 31.486C191.827 38.4473 189.506 44.1195 186.412 44.1195C183.318 44.1195 180.998 38.4473 180.998 31.486C180.998 24.5247 183.318 18.8525 186.412 18.8525C189.249 19.1104 191.827 24.5247 191.827 31.486Z" fill="url(#paint8_linear)"/>
<path d="M202.655 31.486C202.655 38.4473 200.334 44.1195 197.241 44.1195C194.147 44.1195 191.826 38.4473 191.826 31.486C191.826 24.5247 194.147 18.8525 197.241 18.8525C200.077 19.1104 202.655 24.5247 202.655 31.486Z" fill="url(#paint9_linear)"/>
<path d="M213.479 31.486C213.479 38.4473 211.159 44.1195 208.065 44.1195C204.971 44.1195 202.65 38.4473 202.65 31.486C202.65 24.5247 204.971 18.8525 208.065 18.8525C210.901 19.1104 213.479 24.5247 213.479 31.486Z" fill="url(#paint10_linear)"/>
<path d="M224.311 31.486C224.311 38.4473 221.991 44.1195 218.897 44.1195C215.803 44.1195 213.482 38.4473 213.482 31.486C213.482 24.5247 215.803 18.8525 218.897 18.8525C221.733 19.1104 224.311 24.5247 224.311 31.486Z" fill="url(#paint11_linear)"/>
<path d="M235.139 31.486C235.139 38.4473 232.819 44.1195 229.725 44.1195C226.631 44.1195 224.311 38.4473 224.311 31.486C224.311 24.5247 226.631 18.8525 229.725 18.8525C232.819 18.8525 235.139 24.5247 235.139 31.486Z" fill="url(#paint12_linear)"/>
<path d="M245.969 31.486C245.969 38.4473 243.649 44.1195 240.555 44.1195C237.461 44.1195 235.141 38.4473 235.141 31.486C235.141 24.5247 237.461 18.8525 240.555 18.8525C243.649 19.1104 245.969 24.5247 245.969 31.486Z" fill="url(#paint13_linear)"/>
<path d="M245.971 59.8469H15.9902V63.7143H245.971V59.8469Z" fill="url(#paint14_linear)"/>
<path d="M159.336 61.9099C159.336 68.8712 157.016 74.5433 153.922 74.5433C150.828 74.5433 148.508 68.8712 148.508 61.9099C148.508 54.9485 150.828 49.2764 153.922 49.2764C156.758 49.2764 159.336 54.9485 159.336 61.9099Z" fill="url(#paint15_linear)"/>
<path d="M170.169 61.9099C170.169 68.8712 167.848 74.5433 164.754 74.5433C161.66 74.5433 159.34 68.8712 159.34 61.9099C159.34 54.9485 161.66 49.2764 164.754 49.2764C167.59 49.2764 170.169 54.9485 170.169 61.9099Z" fill="url(#paint16_linear)"/>
<path d="M180.995 61.9099C180.995 68.8712 178.674 74.5433 175.58 74.5433C172.486 74.5433 170.166 68.8712 170.166 61.9099C170.166 54.9485 172.486 49.2764 175.58 49.2764C178.416 49.2764 180.995 54.9485 180.995 61.9099Z" fill="url(#paint17_linear)"/>
<path d="M191.827 61.9099C191.827 68.8712 189.506 74.5433 186.412 74.5433C183.318 74.5433 180.998 68.8712 180.998 61.9099C180.998 54.9485 183.318 49.2764 186.412 49.2764C189.249 49.2764 191.827 54.9485 191.827 61.9099Z" fill="url(#paint18_linear)"/>
<path d="M202.655 61.9099C202.655 68.8712 200.334 74.5433 197.241 74.5433C194.147 74.5433 191.826 68.8712 191.826 61.9099C191.826 54.9485 194.147 49.2764 197.241 49.2764C200.077 49.2764 202.655 54.9485 202.655 61.9099Z" fill="url(#paint19_linear)"/>
<path d="M213.479 61.9099C213.479 68.8712 211.159 74.5433 208.065 74.5433C204.971 74.5433 202.65 68.8712 202.65 61.9099C202.65 54.9485 204.971 49.2764 208.065 49.2764C210.901 49.2764 213.479 54.9485 213.479 61.9099Z" fill="url(#paint20_linear)"/>
<path d="M224.311 61.9099C224.311 68.8712 221.991 74.5433 218.897 74.5433C215.803 74.5433 213.482 68.8712 213.482 61.9099C213.482 54.9485 215.803 49.2764 218.897 49.2764C221.733 49.2764 224.311 54.9485 224.311 61.9099Z" fill="url(#paint21_linear)"/>
<path d="M235.139 61.9099C235.139 68.8712 232.819 74.5433 229.725 74.5433C226.631 74.5433 224.311 68.8712 224.311 61.9099C224.311 54.9485 226.631 49.2764 229.725 49.2764C232.819 49.2764 235.139 54.9485 235.139 61.9099Z" fill="url(#paint22_linear)"/>
<path d="M245.969 61.9099C245.969 68.8712 243.649 74.5433 240.555 74.5433C237.461 74.5433 235.141 68.8712 235.141 61.9099C235.141 54.9485 237.461 49.2764 240.555 49.2764C243.649 49.2764 245.969 54.9485 245.969 61.9099Z" fill="url(#paint23_linear)"/>
<path d="M245.971 90.2705H15.9902V94.1379H245.971V90.2705Z" fill="url(#paint24_linear)"/>
<path d="M159.336 92.0751C159.336 99.0364 157.016 104.709 153.922 104.709C150.828 104.709 148.508 99.0364 148.508 92.0751C148.508 85.1138 150.828 79.4417 153.922 79.4417C156.758 79.4417 159.336 85.1138 159.336 92.0751Z" fill="url(#paint25_linear)"/>
<path d="M170.169 92.0751C170.169 99.0364 167.848 104.709 164.754 104.709C161.66 104.709 159.34 99.0364 159.34 92.0751C159.34 85.1138 161.66 79.4417 164.754 79.4417C167.59 79.4417 170.169 85.1138 170.169 92.0751Z" fill="url(#paint26_linear)"/>
<path d="M180.995 92.0751C180.995 99.0364 178.674 104.709 175.58 104.709C172.486 104.709 170.166 99.0364 170.166 92.0751C170.166 85.1138 172.486 79.4417 175.58 79.4417C178.416 79.4417 180.995 85.1138 180.995 92.0751Z" fill="url(#paint27_linear)"/>
<path d="M191.827 92.0751C191.827 99.0364 189.506 104.709 186.412 104.709C183.318 104.709 180.998 99.0364 180.998 92.0751C180.998 85.1138 183.318 79.4417 186.412 79.4417C189.249 79.4417 191.827 85.1138 191.827 92.0751Z" fill="url(#paint28_linear)"/>
<path d="M202.655 92.0751C202.655 99.0364 200.334 104.709 197.241 104.709C194.147 104.709 191.826 99.0364 191.826 92.0751C191.826 85.1138 194.147 79.4417 197.241 79.4417C200.077 79.4417 202.655 85.1138 202.655 92.0751Z" fill="url(#paint29_linear)"/>
<path d="M213.479 92.0751C213.479 99.0364 211.159 104.709 208.065 104.709C204.971 104.709 202.65 99.0364 202.65 92.0751C202.65 85.1138 204.971 79.4417 208.065 79.4417C210.901 79.4417 213.479 85.1138 213.479 92.0751Z" fill="url(#paint30_linear)"/>
<path d="M224.311 92.0751C224.311 99.0364 221.991 104.709 218.897 104.709C215.803 104.709 213.482 99.0364 213.482 92.0751C213.482 85.1138 215.803 79.4417 218.897 79.4417C221.733 79.4417 224.311 85.1138 224.311 92.0751Z" fill="url(#paint31_linear)"/>
<path d="M235.139 92.0751C235.139 99.0364 232.819 104.709 229.725 104.709C226.631 104.709 224.311 99.0364 224.311 92.0751C224.311 85.1138 226.631 79.4417 229.725 79.4417C232.819 79.4417 235.139 85.1138 235.139 92.0751Z" fill="url(#paint32_linear)"/>
<path d="M245.969 92.0751C245.969 99.0364 243.649 104.709 240.555 104.709C237.461 104.709 235.141 99.0364 235.141 92.0751C235.141 85.1138 237.461 79.4417 240.555 79.4417C243.649 79.4417 245.969 85.1138 245.969 92.0751Z" fill="url(#paint33_linear)"/>
<path d="M245.971 120.436H15.9902V124.303H245.971V120.436Z" fill="url(#paint34_linear)"/>
<path d="M159.336 122.241C159.336 129.202 157.016 134.874 153.922 134.874C150.828 134.874 148.508 129.202 148.508 122.241C148.508 115.28 150.828 109.607 153.922 109.607C156.758 109.607 159.336 115.28 159.336 122.241Z" fill="url(#paint35_linear)"/>
<path d="M170.169 122.241C170.169 129.202 167.848 134.874 164.754 134.874C161.66 134.874 159.34 129.202 159.34 122.241C159.34 115.28 161.66 109.607 164.754 109.607C167.59 109.607 170.169 115.28 170.169 122.241Z" fill="url(#paint36_linear)"/>
<path d="M180.995 122.241C180.995 129.202 178.674 134.874 175.58 134.874C172.486 134.874 170.166 129.202 170.166 122.241C170.166 115.28 172.486 109.607 175.58 109.607C178.416 109.607 180.995 115.28 180.995 122.241Z" fill="url(#paint37_linear)"/>
<path d="M191.827 122.241C191.827 129.202 189.506 134.874 186.412 134.874C183.318 134.874 180.998 129.202 180.998 122.241C180.998 115.28 183.318 109.607 186.412 109.607C189.249 109.607 191.827 115.28 191.827 122.241Z" fill="url(#paint38_linear)"/>
<path d="M202.655 122.241C202.655 129.202 200.334 134.874 197.241 134.874C194.147 134.874 191.826 129.202 191.826 122.241C191.826 115.28 194.147 109.607 197.241 109.607C200.077 109.607 202.655 115.28 202.655 122.241Z" fill="url(#paint39_linear)"/>
<path d="M213.479 122.241C213.479 129.202 211.159 134.874 208.065 134.874C204.971 134.874 202.65 129.202 202.65 122.241C202.65 115.28 204.971 109.607 208.065 109.607C210.901 109.607 213.479 115.28 213.479 122.241Z" fill="url(#paint40_linear)"/>
<path d="M224.311 122.241C224.311 129.202 221.991 134.874 218.897 134.874C215.803 134.874 213.482 129.202 213.482 122.241C213.482 115.28 215.803 109.607 218.897 109.607C221.733 109.607 224.311 115.28 224.311 122.241Z" fill="url(#paint41_linear)"/>
<path d="M235.139 122.241C235.139 129.202 232.819 134.874 229.725 134.874C226.631 134.874 224.311 129.202 224.311 122.241C224.311 115.28 226.631 109.607 229.725 109.607C232.819 109.607 235.139 115.28 235.139 122.241Z" fill="url(#paint42_linear)"/>
<path d="M245.969 122.241C245.969 129.202 243.649 134.874 240.555 134.874C237.461 134.874 235.141 129.202 235.141 122.241C235.141 115.28 237.461 109.607 240.555 109.607C243.649 109.607 245.969 115.28 245.969 122.241Z" fill="url(#paint43_linear)"/>
<path d="M245.971 150.602H15.9902V154.469H245.971V150.602Z" fill="url(#paint44_linear)"/>
<path d="M159.336 152.407C159.336 159.368 157.016 165.04 153.922 165.04C150.828 165.04 148.508 159.368 148.508 152.407C148.508 145.445 150.828 139.773 153.922 139.773C156.758 140.031 159.336 145.445 159.336 152.407Z" fill="url(#paint45_linear)"/>
<path d="M170.169 152.407C170.169 159.368 167.848 165.04 164.754 165.04C161.66 165.04 159.34 159.368 159.34 152.407C159.34 145.445 161.66 139.773 164.754 139.773C167.59 140.031 170.169 145.445 170.169 152.407Z" fill="url(#paint46_linear)"/>
<path d="M180.995 152.407C180.995 159.368 178.674 165.04 175.58 165.04C172.486 165.04 170.166 159.368 170.166 152.407C170.166 145.445 172.486 139.773 175.58 139.773C178.416 140.031 180.995 145.445 180.995 152.407Z" fill="url(#paint47_linear)"/>
<path d="M191.827 152.407C191.827 159.368 189.506 165.04 186.412 165.04C183.318 165.04 180.998 159.368 180.998 152.407C180.998 145.445 183.318 139.773 186.412 139.773C189.249 140.031 191.827 145.445 191.827 152.407Z" fill="url(#paint48_linear)"/>
<path d="M202.655 152.407C202.655 159.368 200.334 165.04 197.241 165.04C194.147 165.04 191.826 159.368 191.826 152.407C191.826 145.445 194.147 139.773 197.241 139.773C200.077 140.031 202.655 145.445 202.655 152.407Z" fill="url(#paint49_linear)"/>
<path d="M213.479 152.407C213.479 159.368 211.159 165.04 208.065 165.04C204.971 165.04 202.65 159.368 202.65 152.407C202.65 145.445 204.971 139.773 208.065 139.773C210.901 140.031 213.479 145.445 213.479 152.407Z" fill="url(#paint50_linear)"/>
<path d="M224.311 152.407C224.311 159.368 221.991 165.04 218.897 165.04C215.803 165.04 213.482 159.368 213.482 152.407C213.482 145.445 215.803 139.773 218.897 139.773C221.733 140.031 224.311 145.445 224.311 152.407Z" fill="url(#paint51_linear)"/>
<path d="M235.139 152.407C235.139 159.368 232.819 165.04 229.725 165.04C226.631 165.04 224.311 159.368 224.311 152.407C224.311 145.445 226.631 139.773 229.725 139.773C232.819 139.773 235.139 145.445 235.139 152.407Z" fill="url(#paint52_linear)"/>
<path d="M245.969 152.407C245.969 159.368 243.649 165.04 240.555 165.04C237.461 165.04 235.141 159.368 235.141 152.407C235.141 145.445 237.461 139.773 240.555 139.773C243.649 140.031 245.969 145.445 245.969 152.407Z" fill="url(#paint53_linear)"/>
<path d="M245.971 180.768H15.9902V184.635H245.971V180.768Z" fill="url(#paint54_linear)"/>
<path d="M159.336 182.83C159.336 189.792 157.016 195.464 153.922 195.464C150.828 195.464 148.508 189.792 148.508 182.83C148.508 175.869 150.828 170.197 153.922 170.197C156.758 170.197 159.336 175.869 159.336 182.83Z" fill="url(#paint55_linear)"/>
<path d="M170.169 182.83C170.169 189.792 167.848 195.464 164.754 195.464C161.66 195.464 159.34 189.792 159.34 182.83C159.34 175.869 161.66 170.197 164.754 170.197C167.59 170.197 170.169 175.869 170.169 182.83Z" fill="url(#paint56_linear)"/>
<path d="M180.995 182.83C180.995 189.792 178.674 195.464 175.58 195.464C172.486 195.464 170.166 189.792 170.166 182.83C170.166 175.869 172.486 170.197 175.58 170.197C178.416 170.197 180.995 175.869 180.995 182.83Z" fill="url(#paint57_linear)"/>
<path d="M191.827 182.83C191.827 189.792 189.506 195.464 186.412 195.464C183.318 195.464 180.998 189.792 180.998 182.83C180.998 175.869 183.318 170.197 186.412 170.197C189.249 170.197 191.827 175.869 191.827 182.83Z" fill="url(#paint58_linear)"/>
<path d="M202.655 182.83C202.655 189.792 200.334 195.464 197.241 195.464C194.147 195.464 191.826 189.792 191.826 182.83C191.826 175.869 194.147 170.197 197.241 170.197C200.077 170.197 202.655 175.869 202.655 182.83Z" fill="url(#paint59_linear)"/>
<path d="M213.479 182.83C213.479 189.792 211.159 195.464 208.065 195.464C204.971 195.464 202.65 189.792 202.65 182.83C202.65 175.869 204.971 170.197 208.065 170.197C210.901 170.197 213.479 175.869 213.479 182.83Z" fill="url(#paint60_linear)"/>
<path d="M224.311 182.83C224.311 189.792 221.991 195.464 218.897 195.464C215.803 195.464 213.482 189.792 213.482 182.83C213.482 175.869 215.803 170.197 218.897 170.197C221.733 170.197 224.311 175.869 224.311 182.83Z" fill="url(#paint61_linear)"/>
<path d="M235.139 182.83C235.139 189.792 232.819 195.464 229.725 195.464C226.631 195.464 224.311 189.792 224.311 182.83C224.311 175.869 226.631 170.197 229.725 170.197C232.819 170.197 235.139 175.869 235.139 182.83Z" fill="url(#paint62_linear)"/>
<path d="M245.969 182.83C245.969 189.792 243.649 195.464 240.555 195.464C237.461 195.464 235.141 189.792 235.141 182.83C235.141 175.869 237.461 170.197 240.555 170.197C243.649 170.197 245.969 175.869 245.969 182.83Z" fill="url(#paint63_linear)"/>
<path d="M245.971 211.191H15.9902V215.058H245.971V211.191Z" fill="url(#paint64_linear)"/>
<path d="M159.336 212.996C159.336 219.957 157.016 225.629 153.922 225.629C150.828 225.629 148.508 219.957 148.508 212.996C148.508 206.034 150.828 200.362 153.922 200.362C156.758 200.362 159.336 206.034 159.336 212.996Z" fill="url(#paint65_linear)"/>
<path d="M170.169 212.996C170.169 219.957 167.848 225.629 164.754 225.629C161.66 225.629 159.34 219.957 159.34 212.996C159.34 206.034 161.66 200.362 164.754 200.362C167.59 200.362 170.169 206.034 170.169 212.996Z" fill="url(#paint66_linear)"/>
<path d="M180.995 212.996C180.995 219.957 178.674 225.629 175.58 225.629C172.486 225.629 170.166 219.957 170.166 212.996C170.166 206.034 172.486 200.362 175.58 200.362C178.416 200.362 180.995 206.034 180.995 212.996Z" fill="url(#paint67_linear)"/>
<path d="M191.827 212.996C191.827 219.957 189.506 225.629 186.412 225.629C183.318 225.629 180.998 219.957 180.998 212.996C180.998 206.034 183.318 200.362 186.412 200.362C189.249 200.362 191.827 206.034 191.827 212.996Z" fill="url(#paint68_linear)"/>
<path d="M202.655 212.996C202.655 219.957 200.334 225.629 197.241 225.629C194.147 225.629 191.826 219.957 191.826 212.996C191.826 206.034 194.147 200.362 197.241 200.362C200.077 200.362 202.655 206.034 202.655 212.996Z" fill="url(#paint69_linear)"/>
<path d="M213.479 212.996C213.479 219.957 211.159 225.629 208.065 225.629C204.971 225.629 202.65 219.957 202.65 212.996C202.65 206.034 204.971 200.362 208.065 200.362C210.901 200.362 213.479 206.034 213.479 212.996Z" fill="url(#paint70_linear)"/>
<path d="M224.311 212.996C224.311 219.957 221.991 225.629 218.897 225.629C215.803 225.629 213.482 219.957 213.482 212.996C213.482 206.034 215.803 200.362 218.897 200.362C221.733 200.362 224.311 206.034 224.311 212.996Z" fill="url(#paint71_linear)"/>
<path d="M235.139 212.996C235.139 219.957 232.819 225.629 229.725 225.629C226.631 225.629 224.311 219.957 224.311 212.996C224.311 206.034 226.631 200.362 229.725 200.362C232.819 200.362 235.139 206.034 235.139 212.996Z" fill="url(#paint72_linear)"/>
<path d="M245.969 212.996C245.969 219.957 243.649 225.629 240.555 225.629C237.461 225.629 235.141 219.957 235.141 212.996C235.141 206.034 237.461 200.362 240.555 200.362C243.649 200.362 245.969 206.034 245.969 212.996Z" fill="url(#paint73_linear)"/>
<path d="M245.971 241.357H15.9902V245.224H245.971V241.357Z" fill="url(#paint74_linear)"/>
<path d="M159.336 243.161C159.336 250.123 157.016 255.795 153.922 255.795C150.828 255.795 148.508 250.123 148.508 243.161C148.508 236.2 150.828 230.528 153.922 230.528C156.758 230.528 159.336 236.2 159.336 243.161Z" fill="url(#paint75_linear)"/>
<path d="M170.169 243.161C170.169 250.123 167.848 255.795 164.754 255.795C161.66 255.795 159.34 250.123 159.34 243.161C159.34 236.2 161.66 230.528 164.754 230.528C167.59 230.528 170.169 236.2 170.169 243.161Z" fill="url(#paint76_linear)"/>
<path d="M180.995 243.161C180.995 250.123 178.674 255.795 175.58 255.795C172.486 255.795 170.166 250.123 170.166 243.161C170.166 236.2 172.486 230.528 175.58 230.528C178.416 230.528 180.995 236.2 180.995 243.161Z" fill="url(#paint77_linear)"/>
<path d="M191.827 243.161C191.827 250.123 189.506 255.795 186.412 255.795C183.318 255.795 180.998 250.123 180.998 243.161C180.998 236.2 183.318 230.528 186.412 230.528C189.249 230.528 191.827 236.2 191.827 243.161Z" fill="url(#paint78_linear)"/>
<path d="M202.655 243.161C202.655 250.123 200.334 255.795 197.241 255.795C194.147 255.795 191.826 250.123 191.826 243.161C191.826 236.2 194.147 230.528 197.241 230.528C200.077 230.528 202.655 236.2 202.655 243.161Z" fill="url(#paint79_linear)"/>
<path d="M213.479 243.161C213.479 250.123 211.159 255.795 208.065 255.795C204.971 255.795 202.65 250.123 202.65 243.161C202.65 236.2 204.971 230.528 208.065 230.528C210.901 230.528 213.479 236.2 213.479 243.161Z" fill="url(#paint80_linear)"/>
<path d="M224.311 243.161C224.311 250.123 221.991 255.795 218.897 255.795C215.803 255.795 213.482 250.123 213.482 243.161C213.482 236.2 215.803 230.528 218.897 230.528C221.733 230.528 224.311 236.2 224.311 243.161Z" fill="url(#paint81_linear)"/>
<path d="M235.139 243.161C235.139 250.123 232.819 255.795 229.725 255.795C226.631 255.795 224.311 250.123 224.311 243.161C224.311 236.2 226.631 230.528 229.725 230.528C232.819 230.528 235.139 236.2 235.139 243.161Z" fill="url(#paint82_linear)"/>
<path d="M245.969 243.161C245.969 250.123 243.649 255.795 240.555 255.795C237.461 255.795 235.141 250.123 235.141 243.161C235.141 236.2 237.461 230.528 240.555 230.528C243.649 230.528 245.969 236.2 245.969 243.161Z" fill="url(#paint83_linear)"/>
<path d="M245.971 271.522H15.9902V275.39H245.971V271.522Z" fill="url(#paint84_linear)"/>
<path d="M213.479 273.327C213.479 280.288 211.159 285.961 208.065 285.961C204.971 285.961 202.65 280.288 202.65 273.327C202.65 266.366 204.971 260.694 208.065 260.694C210.901 260.951 213.479 266.366 213.479 273.327Z" fill="url(#paint85_linear)"/>
<path d="M224.311 273.327C224.311 280.288 221.991 285.961 218.897 285.961C215.803 285.961 213.482 280.288 213.482 273.327C213.482 266.366 215.803 260.694 218.897 260.694C221.733 260.951 224.311 266.366 224.311 273.327Z" fill="url(#paint86_linear)"/>
<path d="M235.139 273.327C235.139 280.288 232.819 285.961 229.725 285.961C226.631 285.961 224.311 280.288 224.311 273.327C224.311 266.366 226.631 260.694 229.725 260.694C232.819 260.694 235.139 266.366 235.139 273.327Z" fill="url(#paint87_linear)"/>
<path d="M245.969 273.327C245.969 280.288 243.649 285.961 240.555 285.961C237.461 285.961 235.141 280.288 235.141 273.327C235.141 266.366 237.461 260.694 240.555 260.694C243.649 260.951 245.969 266.366 245.969 273.327Z" fill="url(#paint88_linear)"/>
<path d="M245.971 301.688H15.9902V305.555H245.971V301.688Z" fill="url(#paint89_linear)"/>
<path d="M159.336 303.751C159.336 310.712 157.016 316.384 153.922 316.384C150.828 316.384 148.508 310.712 148.508 303.751C148.508 296.789 150.828 291.117 153.922 291.117C156.758 291.117 159.336 296.789 159.336 303.751Z" fill="url(#paint90_linear)"/>
<path d="M170.169 303.751C170.169 310.712 167.848 316.384 164.754 316.384C161.66 316.384 159.34 310.712 159.34 303.751C159.34 296.789 161.66 291.117 164.754 291.117C167.59 291.117 170.169 296.789 170.169 303.751Z" fill="url(#paint91_linear)"/>
<path d="M180.995 303.751C180.995 310.712 178.674 316.384 175.58 316.384C172.486 316.384 170.166 310.712 170.166 303.751C170.166 296.789 172.486 291.117 175.58 291.117C178.416 291.117 180.995 296.789 180.995 303.751Z" fill="url(#paint92_linear)"/>
<path d="M191.827 303.751C191.827 310.712 189.506 316.384 186.412 316.384C183.318 316.384 180.998 310.712 180.998 303.751C180.998 296.789 183.318 291.117 186.412 291.117C189.249 291.117 191.827 296.789 191.827 303.751Z" fill="url(#paint93_linear)"/>
<path d="M202.655 303.751C202.655 310.712 200.334 316.384 197.241 316.384C194.147 316.384 191.826 310.712 191.826 303.751C191.826 296.789 194.147 291.117 197.241 291.117C200.077 291.117 202.655 296.789 202.655 303.751Z" fill="url(#paint94_linear)"/>
<path d="M213.479 303.751C213.479 310.712 211.159 316.384 208.065 316.384C204.971 316.384 202.65 310.712 202.65 303.751C202.65 296.789 204.971 291.117 208.065 291.117C210.901 291.117 213.479 296.789 213.479 303.751Z" fill="url(#paint95_linear)"/>
<path d="M224.311 303.751C224.311 310.712 221.991 316.384 218.897 316.384C215.803 316.384 213.482 310.712 213.482 303.751C213.482 296.789 215.803 291.117 218.897 291.117C221.733 291.117 224.311 296.789 224.311 303.751Z" fill="url(#paint96_linear)"/>
<path d="M235.139 303.751C235.139 310.712 232.819 316.384 229.725 316.384C226.631 316.384 224.311 310.712 224.311 303.751C224.311 296.789 226.631 291.117 229.725 291.117C232.819 291.117 235.139 296.789 235.139 303.751Z" fill="url(#paint97_linear)"/>
<path d="M245.969 303.751C245.969 310.712 243.649 316.384 240.555 316.384C237.461 316.384 235.141 310.712 235.141 303.751C235.141 296.789 237.461 291.117 240.555 291.117C243.649 291.117 245.969 296.789 245.969 303.751Z" fill="url(#paint98_linear)"/>
<path d="M245.971 331.854H15.9902V335.721H245.971V331.854Z" fill="url(#paint99_linear)"/>
<path d="M159.336 333.916C159.336 340.878 157.016 346.55 153.922 346.55C150.828 346.55 148.508 340.878 148.508 333.916C148.508 326.955 150.828 321.283 153.922 321.283C156.758 321.283 159.336 326.955 159.336 333.916Z" fill="url(#paint100_linear)"/>
<path d="M170.169 333.916C170.169 340.878 167.848 346.55 164.754 346.55C161.66 346.55 159.34 340.878 159.34 333.916C159.34 326.955 161.66 321.283 164.754 321.283C167.59 321.283 170.169 326.955 170.169 333.916Z" fill="url(#paint101_linear)"/>
<path d="M180.995 333.916C180.995 340.878 178.674 346.55 175.58 346.55C172.486 346.55 170.166 340.878 170.166 333.916C170.166 326.955 172.486 321.283 175.58 321.283C178.416 321.283 180.995 326.955 180.995 333.916Z" fill="url(#paint102_linear)"/>
<path d="M191.827 333.916C191.827 340.878 189.506 346.55 186.412 346.55C183.318 346.55 180.998 340.878 180.998 333.916C180.998 326.955 183.318 321.283 186.412 321.283C189.249 321.283 191.827 326.955 191.827 333.916Z" fill="url(#paint103_linear)"/>
<path d="M202.655 333.916C202.655 340.878 200.334 346.55 197.241 346.55C194.147 346.55 191.826 340.878 191.826 333.916C191.826 326.955 194.147 321.283 197.241 321.283C200.077 321.283 202.655 326.955 202.655 333.916Z" fill="url(#paint104_linear)"/>
<path d="M213.479 333.916C213.479 340.878 211.159 346.55 208.065 346.55C204.971 346.55 202.65 340.878 202.65 333.916C202.65 326.955 204.971 321.283 208.065 321.283C210.901 321.283 213.479 326.955 213.479 333.916Z" fill="url(#paint105_linear)"/>
<path d="M224.311 333.916C224.311 340.878 221.991 346.55 218.897 346.55C215.803 346.55 213.482 340.878 213.482 333.916C213.482 326.955 215.803 321.283 218.897 321.283C221.733 321.283 224.311 326.955 224.311 333.916Z" fill="url(#paint106_linear)"/>
<path d="M235.139 333.916C235.139 340.878 232.819 346.55 229.725 346.55C226.631 346.55 224.311 340.878 224.311 333.916C224.311 326.955 226.631 321.283 229.725 321.283C232.819 321.283 235.139 326.955 235.139 333.916Z" fill="url(#paint107_linear)"/>
<path d="M245.969 333.916C245.969 340.878 243.649 346.55 240.555 346.55C237.461 346.55 235.141 340.878 235.141 333.916C235.141 326.955 237.461 321.283 240.555 321.283C243.649 321.283 245.969 326.955 245.969 333.916Z" fill="url(#paint108_linear)"/>
<defs>
<linearGradient id="paint0_linear" x1="-0.00799261" y1="185.905" x2="16.1438" y2="185.905" gradientUnits="userSpaceOnUse">
<stop stop-color="#3C2415"/>
<stop offset="0.0363636" stop-color="#603913"/>
<stop offset="0.5091" stop-color="#754C29"/>
<stop offset="0.9515" stop-color="#603913"/>
<stop offset="1" stop-color="#3C2415"/>
</linearGradient>
<linearGradient id="paint1_linear" x1="246.015" y1="185.905" x2="262.167" y2="185.905" gradientUnits="userSpaceOnUse">
<stop stop-color="#3C2415"/>
<stop offset="0.0363636" stop-color="#603913"/>
<stop offset="0.5091" stop-color="#754C29"/>
<stop offset="0.9515" stop-color="#603913"/>
<stop offset="1" stop-color="#3C2415"/>
</linearGradient>
<linearGradient id="paint2_linear" x1="131.079" y1="17.1247" x2="131.079" y2="0.970403" gradientUnits="userSpaceOnUse">
<stop stop-color="#3C2415"/>
<stop offset="0.0363636" stop-color="#603913"/>
<stop offset="0.5091" stop-color="#754C29"/>
<stop offset="0.9515" stop-color="#603913"/>
<stop offset="1" stop-color="#3C2415"/>
</linearGradient>
<linearGradient id="paint3_linear" x1="131.079" y1="370.692" x2="131.079" y2="354.54" gradientUnits="userSpaceOnUse">
<stop stop-color="#3C2415"/>
<stop offset="0.0363636" stop-color="#603913"/>
<stop offset="0.5091" stop-color="#754C29"/>
<stop offset="0.9515" stop-color="#603913"/>
<stop offset="1" stop-color="#3C2415"/>
</linearGradient>
<linearGradient id="paint4_linear" x1="131.023" y1="33.4676" x2="131.023" y2="29.7033" gradientUnits="userSpaceOnUse">
<stop stop-color="#D8D9DA"/>
<stop offset="0.3333" stop-color="#E6E6E6"/>
<stop offset="0.5091" stop-color="#BABABA"/>
<stop offset="0.6242" stop-color="#E7E7E7"/>
<stop offset="1" stop-color="#A6A6A6"/>
</linearGradient>
<linearGradient id="paint5_linear" x1="153.797" y1="44.1608" x2="153.797" y2="19.0101" gradientUnits="userSpaceOnUse">
<stop stop-color="#3C2415"/>
<stop offset="0.3333" stop-color="#754C29"/>
<stop offset="0.6242" stop-color="#A97C50"/>
<stop offset="1" stop-color="#603913"/>
</linearGradient>
<linearGradient id="paint6_linear" x1="164.629" y1="44.1608" x2="164.629" y2="19.0101" gradientUnits="userSpaceOnUse">
<stop stop-color="#3C2415"/>
<stop offset="0.3333" stop-color="#754C29"/>
<stop offset="0.6242" stop-color="#A97C50"/>
<stop offset="1" stop-color="#603913"/>
</linearGradient>
<linearGradient id="paint7_linear" x1="175.455" y1="44.1608" x2="175.455" y2="19.0101" gradientUnits="userSpaceOnUse">
<stop stop-color="#3C2415"/>
<stop offset="0.3333" stop-color="#754C29"/>
<stop offset="0.6242" stop-color="#A97C50"/>
<stop offset="1" stop-color="#603913"/>
</linearGradient>
<linearGradient id="paint8_linear" x1="186.287" y1="44.1608" x2="186.287" y2="19.0101" gradientUnits="userSpaceOnUse">
<stop stop-color="#2D2D2D"/>
<stop offset="0.3333" stop-color="#EACAC5"/>
<stop offset="0.6242" stop-color="#F4DEDA"/>
<stop offset="1" stop-color="#2D2D2D"/>
</linearGradient>
<linearGradient id="paint9_linear" x1="197.115" y1="44.1608" x2="197.115" y2="19.0101" gradientUnits="userSpaceOnUse">
<stop stop-color="#2D2D2D"/>
<stop offset="0.3333" stop-color="#EACAC5"/>
<stop offset="0.6242" stop-color="#F4DEDA"/>
<stop offset="1" stop-color="#2D2D2D"/>
</linearGradient>
<linearGradient id="paint10_linear" x1="207.939" y1="44.1608" x2="207.939" y2="19.0101" gradientUnits="userSpaceOnUse">
<stop stop-color="#3C2415"/>
<stop offset="0.3333" stop-color="#754C29"/>
<stop offset="0.6242" stop-color="#A97C50"/>
<stop offset="1" stop-color="#603913"/>
</linearGradient>
<linearGradient id="paint11_linear" x1="218.771" y1="44.1608" x2="218.771" y2="19.0101" gradientUnits="userSpaceOnUse">
<stop stop-color="#3C2415"/>
<stop offset="0.3333" stop-color="#754C29"/>
<stop offset="0.6242" stop-color="#A97C50"/>
<stop offset="1" stop-color="#603913"/>
</linearGradient>
<linearGradient id="paint12_linear" x1="229.6" y1="44.1608" x2="229.6" y2="19.0101" gradientUnits="userSpaceOnUse">
<stop stop-color="#3C2415"/>
<stop offset="0.3333" stop-color="#754C29"/>
<stop offset="0.6242" stop-color="#A97C50"/>
<stop offset="1" stop-color="#603913"/>
</linearGradient>
<linearGradient id="paint13_linear" x1="240.43" y1="44.1608" x2="240.43" y2="19.0101" gradientUnits="userSpaceOnUse">
<stop stop-color="#3C2415"/>
<stop offset="0.3333" stop-color="#754C29"/>
<stop offset="0.6242" stop-color="#A97C50"/>
<stop offset="1" stop-color="#603913"/>
</linearGradient>
<linearGradient id="paint14_linear" x1="131.023" y1="63.6334" x2="131.023" y2="59.8691" gradientUnits="userSpaceOnUse">
<stop stop-color="#D8D9DA"/>
<stop offset="0.3333" stop-color="#E6E6E6"/>
<stop offset="0.5091" stop-color="#BABABA"/>
<stop offset="0.6242" stop-color="#E7E7E7"/>
<stop offset="1" stop-color="#A6A6A6"/>
</linearGradient>
<linearGradient id="paint15_linear" x1="153.797" y1="74.5846" x2="153.797" y2="49.4339" gradientUnits="userSpaceOnUse">
<stop stop-color="#3C2415"/>
<stop offset="0.3333" stop-color="#754C29"/>
<stop offset="0.6242" stop-color="#A97C50"/>
<stop offset="1" stop-color="#603913"/>
</linearGradient>
<linearGradient id="paint16_linear" x1="164.629" y1="74.5846" x2="164.629" y2="49.4339" gradientUnits="userSpaceOnUse">
<stop stop-color="#3C2415"/>
<stop offset="0.3333" stop-color="#754C29"/>
<stop offset="0.6242" stop-color="#A97C50"/>
<stop offset="1" stop-color="#603913"/>
</linearGradient>
<linearGradient id="paint17_linear" x1="175.455" y1="74.5846" x2="175.455" y2="49.4339" gradientUnits="userSpaceOnUse">
<stop stop-color="#3C2415"/>
<stop offset="0.3333" stop-color="#754C29"/>
<stop offset="0.6242" stop-color="#A97C50"/>
<stop offset="1" stop-color="#603913"/>
</linearGradient>
<linearGradient id="paint18_linear" x1="186.287" y1="74.5846" x2="186.287" y2="49.4339" gradientUnits="userSpaceOnUse">
<stop stop-color="#2D2D2D"/>
<stop offset="0.3333" stop-color="#EACAC5"/>
<stop offset="0.6242" stop-color="#F4DEDA"/>
<stop offset="1" stop-color="#2D2D2D"/>
</linearGradient>
<linearGradient id="paint19_linear" x1="197.115" y1="74.5846" x2="197.115" y2="49.4339" gradientUnits="userSpaceOnUse">
<stop stop-color="#2D2D2D"/>
<stop offset="0.3333" stop-color="#EACAC5"/>
<stop offset="0.6242" stop-color="#F4DEDA"/>
<stop offset="1" stop-color="#2D2D2D"/>
</linearGradient>
<linearGradient id="paint20_linear" x1="207.939" y1="74.5846" x2="207.939" y2="49.4339" gradientUnits="userSpaceOnUse">
<stop stop-color="#3C2415"/>
<stop offset="0.3333" stop-color="#754C29"/>
<stop offset="0.6242" stop-color="#A97C50"/>
<stop offset="1" stop-color="#603913"/>
</linearGradient>
<linearGradient id="paint21_linear" x1="218.771" y1="74.5846" x2="218.771" y2="49.4339" gradientUnits="userSpaceOnUse">
<stop stop-color="#3C2415"/>
<stop offset="0.3333" stop-color="#754C29"/>
<stop offset="0.6242" stop-color="#A97C50"/>
<stop offset="1" stop-color="#603913"/>
</linearGradient>
<linearGradient id="paint22_linear" x1="229.6" y1="74.5846" x2="229.6" y2="49.4339" gradientUnits="userSpaceOnUse">
<stop stop-color="#3C2415"/>
<stop offset="0.3333" stop-color="#754C29"/>
<stop offset="0.6242" stop-color="#A97C50"/>
<stop offset="1" stop-color="#603913"/>
</linearGradient>
<linearGradient id="paint23_linear" x1="240.43" y1="74.5846" x2="240.43" y2="49.4339" gradientUnits="userSpaceOnUse">
<stop stop-color="#3C2415"/>
<stop offset="0.3333" stop-color="#754C29"/>
<stop offset="0.6242" stop-color="#A97C50"/>
<stop offset="1" stop-color="#603913"/>
</linearGradient>
<linearGradient id="paint24_linear" x1="131.023" y1="94.0569" x2="131.023" y2="90.2927" gradientUnits="userSpaceOnUse">
<stop stop-color="#D8D9DA"/>
<stop offset="0.3333" stop-color="#E6E6E6"/>
<stop offset="0.5091" stop-color="#BABABA"/>
<stop offset="0.6242" stop-color="#E7E7E7"/>
<stop offset="1" stop-color="#A6A6A6"/>
</linearGradient>
<linearGradient id="paint25_linear" x1="153.797" y1="104.75" x2="153.797" y2="79.5992" gradientUnits="userSpaceOnUse">
<stop stop-color="#3C2415"/>
<stop offset="0.3333" stop-color="#754C29"/>
<stop offset="0.6242" stop-color="#A97C50"/>
<stop offset="1" stop-color="#603913"/>
</linearGradient>
<linearGradient id="paint26_linear" x1="164.629" y1="104.75" x2="164.629" y2="79.5992" gradientUnits="userSpaceOnUse">
<stop stop-color="#3C2415"/>
<stop offset="0.3333" stop-color="#754C29"/>
<stop offset="0.6242" stop-color="#A97C50"/>
<stop offset="1" stop-color="#603913"/>
</linearGradient>
<linearGradient id="paint27_linear" x1="175.455" y1="104.75" x2="175.455" y2="79.5992" gradientUnits="userSpaceOnUse">
<stop stop-color="#3C2415"/>
<stop offset="0.3333" stop-color="#754C29"/>
<stop offset="0.6242" stop-color="#A97C50"/>
<stop offset="1" stop-color="#603913"/>
</linearGradient>
<linearGradient id="paint28_linear" x1="186.287" y1="104.75" x2="186.287" y2="79.5992" gradientUnits="userSpaceOnUse">
<stop stop-color="#2D2D2D"/>
<stop offset="0.3333" stop-color="#EACAC5"/>
<stop offset="0.6242" stop-color="#F4DEDA"/>
<stop offset="1" stop-color="#2D2D2D"/>
</linearGradient>
<linearGradient id="paint29_linear" x1="197.115" y1="104.75" x2="197.115" y2="79.5992" gradientUnits="userSpaceOnUse">
<stop stop-color="#2D2D2D"/>
<stop offset="0.3333" stop-color="#EACAC5"/>
<stop offset="0.6242" stop-color="#F4DEDA"/>
<stop offset="1" stop-color="#2D2D2D"/>
</linearGradient>
<linearGradient id="paint30_linear" x1="207.939" y1="104.75" x2="207.939" y2="79.5992" gradientUnits="userSpaceOnUse">
<stop stop-color="#3C2415"/>
<stop offset="0.3333" stop-color="#754C29"/>
<stop offset="0.6242" stop-color="#A97C50"/>
<stop offset="1" stop-color="#603913"/>
</linearGradient>
<linearGradient id="paint31_linear" x1="218.771" y1="104.75" x2="218.771" y2="79.5992" gradientUnits="userSpaceOnUse">
<stop stop-color="#3C2415"/>
<stop offset="0.3333" stop-color="#754C29"/>
<stop offset="0.6242" stop-color="#A97C50"/>
<stop offset="1" stop-color="#603913"/>
</linearGradient>
<linearGradient id="paint32_linear" x1="229.6" y1="104.75" x2="229.6" y2="79.5992" gradientUnits="userSpaceOnUse">
<stop stop-color="#3C2415"/>
<stop offset="0.3333" stop-color="#754C29"/>
<stop offset="0.6242" stop-color="#A97C50"/>
<stop offset="1" stop-color="#603913"/>
</linearGradient>
<linearGradient id="paint33_linear" x1="240.43" y1="104.75" x2="240.43" y2="79.5992" gradientUnits="userSpaceOnUse">
<stop stop-color="#3C2415"/>
<stop offset="0.3333" stop-color="#754C29"/>
<stop offset="0.6242" stop-color="#A97C50"/>
<stop offset="1" stop-color="#603913"/>
</linearGradient>
<linearGradient id="paint34_linear" x1="131.023" y1="124.222" x2="131.023" y2="120.458" gradientUnits="userSpaceOnUse">
<stop stop-color="#D8D9DA"/>
<stop offset="0.3333" stop-color="#E6E6E6"/>
<stop offset="0.5091" stop-color="#BABABA"/>
<stop offset="0.6242" stop-color="#E7E7E7"/>
<stop offset="1" stop-color="#A6A6A6"/>
</linearGradient>
<linearGradient id="paint35_linear" x1="153.797" y1="134.916" x2="153.797" y2="109.765" gradientUnits="userSpaceOnUse">
<stop stop-color="#3C2415"/>
<stop offset="0.3333" stop-color="#754C29"/>
<stop offset="0.6242" stop-color="#A97C50"/>
<stop offset="1" stop-color="#603913"/>
</linearGradient>
<linearGradient id="paint36_linear" x1="164.629" y1="134.916" x2="164.629" y2="109.765" gradientUnits="userSpaceOnUse">
<stop stop-color="#3C2415"/>
<stop offset="0.3333" stop-color="#754C29"/>
<stop offset="0.6242" stop-color="#A97C50"/>
<stop offset="1" stop-color="#603913"/>
</linearGradient>
<linearGradient id="paint37_linear" x1="175.455" y1="134.916" x2="175.455" y2="109.765" gradientUnits="userSpaceOnUse">
<stop stop-color="#3C2415"/>
<stop offset="0.3333" stop-color="#754C29"/>
<stop offset="0.6242" stop-color="#A97C50"/>
<stop offset="1" stop-color="#603913"/>
</linearGradient>
<linearGradient id="paint38_linear" x1="186.287" y1="134.916" x2="186.287" y2="109.765" gradientUnits="userSpaceOnUse">
<stop stop-color="#2D2D2D"/>
<stop offset="0.3333" stop-color="#EACAC5"/>
<stop offset="0.6242" stop-color="#F4DEDA"/>
<stop offset="1" stop-color="#2D2D2D"/>
</linearGradient>
<linearGradient id="paint39_linear" x1="197.115" y1="134.916" x2="197.115" y2="109.765" gradientUnits="userSpaceOnUse">
<stop stop-color="#2D2D2D"/>
<stop offset="0.3333" stop-color="#EACAC5"/>
<stop offset="0.6242" stop-color="#F4DEDA"/>
<stop offset="1" stop-color="#2D2D2D"/>
</linearGradient>
<linearGradient id="paint40_linear" x1="207.939" y1="134.916" x2="207.939" y2="109.765" gradientUnits="userSpaceOnUse">
<stop stop-color="#3C2415"/>
<stop offset="0.3333" stop-color="#754C29"/>
<stop offset="0.6242" stop-color="#A97C50"/>
<stop offset="1" stop-color="#603913"/>
</linearGradient>
<linearGradient id="paint41_linear" x1="218.771" y1="134.916" x2="218.771" y2="109.765" gradientUnits="userSpaceOnUse">
<stop stop-color="#3C2415"/>
<stop offset="0.3333" stop-color="#754C29"/>
<stop offset="0.6242" stop-color="#A97C50"/>
<stop offset="1" stop-color="#603913"/>
</linearGradient>
<linearGradient id="paint42_linear" x1="229.6" y1="134.916" x2="229.6" y2="109.765" gradientUnits="userSpaceOnUse">
<stop stop-color="#3C2415"/>
<stop offset="0.3333" stop-color="#754C29"/>
<stop offset="0.6242" stop-color="#A97C50"/>
<stop offset="1" stop-color="#603913"/>
</linearGradient>
<linearGradient id="paint43_linear" x1="240.43" y1="134.916" x2="240.43" y2="109.765" gradientUnits="userSpaceOnUse">
<stop stop-color="#3C2415"/>
<stop offset="0.3333" stop-color="#754C29"/>
<stop offset="0.6242" stop-color="#A97C50"/>
<stop offset="1" stop-color="#603913"/>
</linearGradient>
<linearGradient id="paint44_linear" x1="131.023" y1="154.388" x2="131.023" y2="150.624" gradientUnits="userSpaceOnUse">
<stop stop-color="#D8D9DA"/>
<stop offset="0.3333" stop-color="#E6E6E6"/>
<stop offset="0.5091" stop-color="#BABABA"/>
<stop offset="0.6242" stop-color="#E7E7E7"/>
<stop offset="1" stop-color="#A6A6A6"/>
</linearGradient>
<linearGradient id="paint45_linear" x1="153.797" y1="165.081" x2="153.797" y2="139.931" gradientUnits="userSpaceOnUse">
<stop stop-color="#3C2415"/>
<stop offset="0.3333" stop-color="#754C29"/>
<stop offset="0.6242" stop-color="#A97C50"/>
<stop offset="1" stop-color="#603913"/>
</linearGradient>
<linearGradient id="paint46_linear" x1="164.629" y1="165.081" x2="164.629" y2="139.931" gradientUnits="userSpaceOnUse">
<stop stop-color="#3C2415"/>
<stop offset="0.3333" stop-color="#754C29"/>
<stop offset="0.6242" stop-color="#A97C50"/>
<stop offset="1" stop-color="#603913"/>
</linearGradient>
<linearGradient id="paint47_linear" x1="175.455" y1="165.081" x2="175.455" y2="139.931" gradientUnits="userSpaceOnUse">
<stop stop-color="#3C2415"/>
<stop offset="0.3333" stop-color="#754C29"/>
<stop offset="0.6242" stop-color="#A97C50"/>
<stop offset="1" stop-color="#603913"/>
</linearGradient>
<linearGradient id="paint48_linear" x1="186.287" y1="165.081" x2="186.287" y2="139.931" gradientUnits="userSpaceOnUse">
<stop stop-color="#2D2D2D"/>
<stop offset="0.3333" stop-color="#EACAC5"/>
<stop offset="0.6242" stop-color="#F4DEDA"/>
<stop offset="1" stop-color="#2D2D2D"/>
</linearGradient>
<linearGradient id="paint49_linear" x1="197.115" y1="165.081" x2="197.115" y2="139.931" gradientUnits="userSpaceOnUse">
<stop stop-color="#2D2D2D"/>
<stop offset="0.3333" stop-color="#EACAC5"/>
<stop offset="0.6242" stop-color="#F4DEDA"/>
<stop offset="1" stop-color="#2D2D2D"/>
</linearGradient>
<linearGradient id="paint50_linear" x1="207.939" y1="165.081" x2="207.939" y2="139.931" gradientUnits="userSpaceOnUse">
<stop stop-color="#3C2415"/>
<stop offset="0.3333" stop-color="#754C29"/>
<stop offset="0.6242" stop-color="#A97C50"/>
<stop offset="1" stop-color="#603913"/>
</linearGradient>
<linearGradient id="paint51_linear" x1="218.771" y1="165.081" x2="218.771" y2="139.931" gradientUnits="userSpaceOnUse">
<stop stop-color="#3C2415"/>
<stop offset="0.3333" stop-color="#754C29"/>
<stop offset="0.6242" stop-color="#A97C50"/>
<stop offset="1" stop-color="#603913"/>
</linearGradient>
<linearGradient id="paint52_linear" x1="229.6" y1="165.081" x2="229.6" y2="139.931" gradientUnits="userSpaceOnUse">
<stop stop-color="#3C2415"/>
<stop offset="0.3333" stop-color="#754C29"/>
<stop offset="0.6242" stop-color="#A97C50"/>
<stop offset="1" stop-color="#603913"/>
</linearGradient>
<linearGradient id="paint53_linear" x1="240.43" y1="165.081" x2="240.43" y2="139.931" gradientUnits="userSpaceOnUse">
<stop stop-color="#3C2415"/>
<stop offset="0.3333" stop-color="#754C29"/>
<stop offset="0.6242" stop-color="#A97C50"/>
<stop offset="1" stop-color="#603913"/>
</linearGradient>
<linearGradient id="paint54_linear" x1="131.023" y1="184.554" x2="131.023" y2="180.79" gradientUnits="userSpaceOnUse">
<stop stop-color="#D8D9DA"/>
<stop offset="0.3333" stop-color="#E6E6E6"/>
<stop offset="0.5091" stop-color="#BABABA"/>
<stop offset="0.6242" stop-color="#E7E7E7"/>
<stop offset="1" stop-color="#A6A6A6"/>
</linearGradient>
<linearGradient id="paint55_linear" x1="153.797" y1="195.505" x2="153.797" y2="170.354" gradientUnits="userSpaceOnUse">
<stop stop-color="#3C2415"/>
<stop offset="0.3333" stop-color="#754C29"/>
<stop offset="0.6242" stop-color="#A97C50"/>
<stop offset="1" stop-color="#603913"/>
</linearGradient>
<linearGradient id="paint56_linear" x1="164.629" y1="195.505" x2="164.629" y2="170.354" gradientUnits="userSpaceOnUse">
<stop stop-color="#3C2415"/>
<stop offset="0.3333" stop-color="#754C29"/>
<stop offset="0.6242" stop-color="#A97C50"/>
<stop offset="1" stop-color="#603913"/>
</linearGradient>
<linearGradient id="paint57_linear" x1="175.455" y1="195.505" x2="175.455" y2="170.354" gradientUnits="userSpaceOnUse">
<stop stop-color="#3C2415"/>
<stop offset="0.3333" stop-color="#754C29"/>
<stop offset="0.6242" stop-color="#A97C50"/>
<stop offset="1" stop-color="#603913"/>
</linearGradient>
<linearGradient id="paint58_linear" x1="186.287" y1="195.505" x2="186.287" y2="170.354" gradientUnits="userSpaceOnUse">
<stop stop-color="#2D2D2D"/>
<stop offset="0.3333" stop-color="#EACAC5"/>
<stop offset="0.6242" stop-color="#F4DEDA"/>
<stop offset="1" stop-color="#2D2D2D"/>
</linearGradient>
<linearGradient id="paint59_linear" x1="197.115" y1="195.505" x2="197.115" y2="170.354" gradientUnits="userSpaceOnUse">
<stop stop-color="#2D2D2D"/>
<stop offset="0.3333" stop-color="#EACAC5"/>
<stop offset="0.6242" stop-color="#F4DEDA"/>
<stop offset="1" stop-color="#2D2D2D"/>
</linearGradient>
<linearGradient id="paint60_linear" x1="207.939" y1="195.505" x2="207.939" y2="170.354" gradientUnits="userSpaceOnUse">
<stop stop-color="#3C2415"/>
<stop offset="0.3333" stop-color="#754C29"/>
<stop offset="0.6242" stop-color="#A97C50"/>
<stop offset="1" stop-color="#603913"/>
</linearGradient>
<linearGradient id="paint61_linear" x1="218.771" y1="195.505" x2="218.771" y2="170.354" gradientUnits="userSpaceOnUse">
<stop stop-color="#3C2415"/>
<stop offset="0.3333" stop-color="#754C29"/>
<stop offset="0.6242" stop-color="#A97C50"/>
<stop offset="1" stop-color="#603913"/>
</linearGradient>
<linearGradient id="paint62_linear" x1="229.6" y1="195.505" x2="229.6" y2="170.354" gradientUnits="userSpaceOnUse">
<stop stop-color="#3C2415"/>
<stop offset="0.3333" stop-color="#754C29"/>
<stop offset="0.6242" stop-color="#A97C50"/>
<stop offset="1" stop-color="#603913"/>
</linearGradient>
<linearGradient id="paint63_linear" x1="240.43" y1="195.505" x2="240.43" y2="170.354" gradientUnits="userSpaceOnUse">
<stop stop-color="#3C2415"/>
<stop offset="0.3333" stop-color="#754C29"/>
<stop offset="0.6242" stop-color="#A97C50"/>
<stop offset="1" stop-color="#603913"/>
</linearGradient>
<linearGradient id="paint64_linear" x1="131.023" y1="214.977" x2="131.023" y2="211.213" gradientUnits="userSpaceOnUse">
<stop stop-color="#D8D9DA"/>
<stop offset="0.3333" stop-color="#E6E6E6"/>
<stop offset="0.5091" stop-color="#BABABA"/>
<stop offset="0.6242" stop-color="#E7E7E7"/>
<stop offset="1" stop-color="#A6A6A6"/>
</linearGradient>
<linearGradient id="paint65_linear" x1="153.797" y1="225.671" x2="153.797" y2="200.52" gradientUnits="userSpaceOnUse">
<stop stop-color="#3C2415"/>
<stop offset="0.3333" stop-color="#754C29"/>
<stop offset="0.6242" stop-color="#A97C50"/>
<stop offset="1" stop-color="#603913"/>
</linearGradient>
<linearGradient id="paint66_linear" x1="164.629" y1="225.671" x2="164.629" y2="200.52" gradientUnits="userSpaceOnUse">
<stop stop-color="#3C2415"/>
<stop offset="0.3333" stop-color="#754C29"/>
<stop offset="0.6242" stop-color="#A97C50"/>
<stop offset="1" stop-color="#603913"/>
</linearGradient>
<linearGradient id="paint67_linear" x1="175.455" y1="225.671" x2="175.455" y2="200.52" gradientUnits="userSpaceOnUse">
<stop stop-color="#3C2415"/>
<stop offset="0.3333" stop-color="#754C29"/>
<stop offset="0.6242" stop-color="#A97C50"/>
<stop offset="1" stop-color="#603913"/>
</linearGradient>
<linearGradient id="paint68_linear" x1="186.287" y1="225.671" x2="186.287" y2="200.52" gradientUnits="userSpaceOnUse">
<stop stop-color="#2D2D2D"/>
<stop offset="0.3333" stop-color="#EACAC5"/>
<stop offset="0.6242" stop-color="#F4DEDA"/>
<stop offset="1" stop-color="#2D2D2D"/>
</linearGradient>
<linearGradient id="paint69_linear" x1="197.115" y1="225.671" x2="197.115" y2="200.52" gradientUnits="userSpaceOnUse">
<stop stop-color="#2D2D2D"/>
<stop offset="0.3333" stop-color="#EACAC5"/>
<stop offset="0.6242" stop-color="#F4DEDA"/>
<stop offset="1" stop-color="#2D2D2D"/>
</linearGradient>
<linearGradient id="paint70_linear" x1="207.939" y1="225.671" x2="207.939" y2="200.52" gradientUnits="userSpaceOnUse">
<stop stop-color="#3C2415"/>
<stop offset="0.3333" stop-color="#754C29"/>
<stop offset="0.6242" stop-color="#A97C50"/>
<stop offset="1" stop-color="#603913"/>
</linearGradient>
<linearGradient id="paint71_linear" x1="218.771" y1="225.671" x2="218.771" y2="200.52" gradientUnits="userSpaceOnUse">
<stop stop-color="#3C2415"/>
<stop offset="0.3333" stop-color="#754C29"/>
<stop offset="0.6242" stop-color="#A97C50"/>
<stop offset="1" stop-color="#603913"/>
</linearGradient>
<linearGradient id="paint72_linear" x1="229.6" y1="225.671" x2="229.6" y2="200.52" gradientUnits="userSpaceOnUse">
<stop stop-color="#3C2415"/>
<stop offset="0.3333" stop-color="#754C29"/>
<stop offset="0.6242" stop-color="#A97C50"/>
<stop offset="1" stop-color="#603913"/>
</linearGradient>
<linearGradient id="paint73_linear" x1="240.43" y1="225.671" x2="240.43" y2="200.52" gradientUnits="userSpaceOnUse">
<stop stop-color="#3C2415"/>
<stop offset="0.3333" stop-color="#754C29"/>
<stop offset="0.6242" stop-color="#A97C50"/>
<stop offset="1" stop-color="#603913"/>
</linearGradient>
<linearGradient id="paint74_linear" x1="131.023" y1="245.143" x2="131.023" y2="241.379" gradientUnits="userSpaceOnUse">
<stop stop-color="#D8D9DA"/>
<stop offset="0.3333" stop-color="#E6E6E6"/>
<stop offset="0.5091" stop-color="#BABABA"/>
<stop offset="0.6242" stop-color="#E7E7E7"/>
<stop offset="1" stop-color="#A6A6A6"/>
</linearGradient>
<linearGradient id="paint75_linear" x1="153.797" y1="255.836" x2="153.797" y2="230.685" gradientUnits="userSpaceOnUse">
<stop stop-color="#3C2415"/>
<stop offset="0.3333" stop-color="#754C29"/>
<stop offset="0.6242" stop-color="#A97C50"/>
<stop offset="1" stop-color="#603913"/>
</linearGradient>
<linearGradient id="paint76_linear" x1="164.629" y1="255.836" x2="164.629" y2="230.685" gradientUnits="userSpaceOnUse">
<stop stop-color="#3C2415"/>
<stop offset="0.3333" stop-color="#754C29"/>
<stop offset="0.6242" stop-color="#A97C50"/>
<stop offset="1" stop-color="#603913"/>
</linearGradient>
<linearGradient id="paint77_linear" x1="175.455" y1="255.836" x2="175.455" y2="230.685" gradientUnits="userSpaceOnUse">
<stop stop-color="#3C2415"/>
<stop offset="0.3333" stop-color="#754C29"/>
<stop offset="0.6242" stop-color="#A97C50"/>
<stop offset="1" stop-color="#603913"/>
</linearGradient>
<linearGradient id="paint78_linear" x1="186.287" y1="255.836" x2="186.287" y2="230.685" gradientUnits="userSpaceOnUse">
<stop stop-color="#2D2D2D"/>
<stop offset="0.3333" stop-color="#EACAC5"/>
<stop offset="0.6242" stop-color="#F4DEDA"/>
<stop offset="1" stop-color="#2D2D2D"/>
</linearGradient>
<linearGradient id="paint79_linear" x1="197.115" y1="255.836" x2="197.115" y2="230.685" gradientUnits="userSpaceOnUse">
<stop stop-color="#2D2D2D"/>
<stop offset="0.3333" stop-color="#EACAC5"/>
<stop offset="0.6242" stop-color="#F4DEDA"/>
<stop offset="1" stop-color="#2D2D2D"/>
</linearGradient>
<linearGradient id="paint80_linear" x1="207.939" y1="255.836" x2="207.939" y2="230.685" gradientUnits="userSpaceOnUse">
<stop stop-color="#3C2415"/>
<stop offset="0.3333" stop-color="#754C29"/>
<stop offset="0.6242" stop-color="#A97C50"/>
<stop offset="1" stop-color="#603913"/>
</linearGradient>
<linearGradient id="paint81_linear" x1="218.771" y1="255.836" x2="218.771" y2="230.685" gradientUnits="userSpaceOnUse">
<stop stop-color="#3C2415"/>
<stop offset="0.3333" stop-color="#754C29"/>
<stop offset="0.6242" stop-color="#A97C50"/>
<stop offset="1" stop-color="#603913"/>
</linearGradient>
<linearGradient id="paint82_linear" x1="229.6" y1="255.836" x2="229.6" y2="230.685" gradientUnits="userSpaceOnUse">
<stop stop-color="#3C2415"/>
<stop offset="0.3333" stop-color="#754C29"/>
<stop offset="0.6242" stop-color="#A97C50"/>
<stop offset="1" stop-color="#603913"/>
</linearGradient>
<linearGradient id="paint83_linear" x1="240.43" y1="255.836" x2="240.43" y2="230.685" gradientUnits="userSpaceOnUse">
<stop stop-color="#3C2415"/>
<stop offset="0.3333" stop-color="#754C29"/>
<stop offset="0.6242" stop-color="#A97C50"/>
<stop offset="1" stop-color="#603913"/>
</linearGradient>
<linearGradient id="paint84_linear" x1="131.023" y1="275.309" x2="131.023" y2="271.545" gradientUnits="userSpaceOnUse">
<stop stop-color="#D8D9DA"/>
<stop offset="0.3333" stop-color="#E6E6E6"/>
<stop offset="0.5091" stop-color="#BABABA"/>
<stop offset="0.6242" stop-color="#E7E7E7"/>
<stop offset="1" stop-color="#A6A6A6"/>
</linearGradient>
<linearGradient id="paint85_linear" x1="207.939" y1="286.002" x2="207.939" y2="260.851" gradientUnits="userSpaceOnUse">
<stop stop-color="#3C2415"/>
<stop offset="0.3333" stop-color="#754C29"/>
<stop offset="0.6242" stop-color="#A97C50"/>
<stop offset="1" stop-color="#603913"/>
</linearGradient>
<linearGradient id="paint86_linear" x1="218.771" y1="286.002" x2="218.771" y2="260.851" gradientUnits="userSpaceOnUse">
<stop stop-color="#2D2D2D"/>
<stop offset="0.3333" stop-color="#EACAC5"/>
<stop offset="0.6242" stop-color="#F4DEDA"/>
<stop offset="1" stop-color="#2D2D2D"/>
</linearGradient>
<linearGradient id="paint87_linear" x1="229.6" y1="286.002" x2="229.6" y2="260.851" gradientUnits="userSpaceOnUse">
<stop stop-color="#2D2D2D"/>
<stop offset="0.3333" stop-color="#EACAC5"/>
<stop offset="0.6242" stop-color="#F4DEDA"/>
<stop offset="1" stop-color="#2D2D2D"/>
</linearGradient>
<linearGradient id="paint88_linear" x1="240.43" y1="286.002" x2="240.43" y2="260.851" gradientUnits="userSpaceOnUse">
<stop stop-color="#3C2415"/>
<stop offset="0.3333" stop-color="#754C29"/>
<stop offset="0.6242" stop-color="#A97C50"/>
<stop offset="1" stop-color="#603913"/>
</linearGradient>
<linearGradient id="paint89_linear" x1="131.023" y1="305.474" x2="131.023" y2="301.71" gradientUnits="userSpaceOnUse">
<stop stop-color="#D8D9DA"/>
<stop offset="0.3333" stop-color="#E6E6E6"/>
<stop offset="0.5091" stop-color="#BABABA"/>
<stop offset="0.6242" stop-color="#E7E7E7"/>
<stop offset="1" stop-color="#A6A6A6"/>
</linearGradient>
<linearGradient id="paint90_linear" x1="153.797" y1="316.425" x2="153.797" y2="291.275" gradientUnits="userSpaceOnUse">
<stop stop-color="#3C2415"/>
<stop offset="0.3333" stop-color="#754C29"/>
<stop offset="0.6242" stop-color="#A97C50"/>
<stop offset="1" stop-color="#603913"/>
</linearGradient>
<linearGradient id="paint91_linear" x1="164.629" y1="316.425" x2="164.629" y2="291.275" gradientUnits="userSpaceOnUse">
<stop stop-color="#3C2415"/>
<stop offset="0.3333" stop-color="#754C29"/>
<stop offset="0.6242" stop-color="#A97C50"/>
<stop offset="1" stop-color="#603913"/>
</linearGradient>
<linearGradient id="paint92_linear" x1="175.455" y1="316.425" x2="175.455" y2="291.275" gradientUnits="userSpaceOnUse">
<stop stop-color="#3C2415"/>
<stop offset="0.3333" stop-color="#754C29"/>
<stop offset="0.6242" stop-color="#A97C50"/>
<stop offset="1" stop-color="#603913"/>
</linearGradient>
<linearGradient id="paint93_linear" x1="186.287" y1="316.425" x2="186.287" y2="291.275" gradientUnits="userSpaceOnUse">
<stop stop-color="#2D2D2D"/>
<stop offset="0.3333" stop-color="#EACAC5"/>
<stop offset="0.6242" stop-color="#F4DEDA"/>
<stop offset="1" stop-color="#2D2D2D"/>
</linearGradient>
<linearGradient id="paint94_linear" x1="197.115" y1="316.425" x2="197.115" y2="291.275" gradientUnits="userSpaceOnUse">
<stop stop-color="#2D2D2D"/>
<stop offset="0.3333" stop-color="#EACAC5"/>
<stop offset="0.6242" stop-color="#F4DEDA"/>
<stop offset="1" stop-color="#2D2D2D"/>
</linearGradient>
<linearGradient id="paint95_linear" x1="207.939" y1="316.425" x2="207.939" y2="291.275" gradientUnits="userSpaceOnUse">
<stop stop-color="#3C2415"/>
<stop offset="0.3333" stop-color="#754C29"/>
<stop offset="0.6242" stop-color="#A97C50"/>
<stop offset="1" stop-color="#603913"/>
</linearGradient>
<linearGradient id="paint96_linear" x1="218.771" y1="316.425" x2="218.771" y2="291.275" gradientUnits="userSpaceOnUse">
<stop stop-color="#3C2415"/>
<stop offset="0.3333" stop-color="#754C29"/>
<stop offset="0.6242" stop-color="#A97C50"/>
<stop offset="1" stop-color="#603913"/>
</linearGradient>
<linearGradient id="paint97_linear" x1="229.6" y1="316.425" x2="229.6" y2="291.275" gradientUnits="userSpaceOnUse">
<stop stop-color="#3C2415"/>
<stop offset="0.3333" stop-color="#754C29"/>
<stop offset="0.6242" stop-color="#A97C50"/>
<stop offset="1" stop-color="#603913"/>
</linearGradient>
<linearGradient id="paint98_linear" x1="240.43" y1="316.425" x2="240.43" y2="291.275" gradientUnits="userSpaceOnUse">
<stop stop-color="#3C2415"/>
<stop offset="0.3333" stop-color="#754C29"/>
<stop offset="0.6242" stop-color="#A97C50"/>
<stop offset="1" stop-color="#603913"/>
</linearGradient>
<linearGradient id="paint99_linear" x1="131.023" y1="335.64" x2="131.023" y2="331.876" gradientUnits="userSpaceOnUse">
<stop stop-color="#D8D9DA"/>
<stop offset="0.3333" stop-color="#E6E6E6"/>
<stop offset="0.5091" stop-color="#BABABA"/>
<stop offset="0.6242" stop-color="#E7E7E7"/>
<stop offset="1" stop-color="#A6A6A6"/>
</linearGradient>
<linearGradient id="paint100_linear" x1="153.797" y1="346.591" x2="153.797" y2="321.44" gradientUnits="userSpaceOnUse">
<stop stop-color="#3C2415"/>
<stop offset="0.3333" stop-color="#754C29"/>
<stop offset="0.6242" stop-color="#A97C50"/>
<stop offset="1" stop-color="#603913"/>
</linearGradient>
<linearGradient id="paint101_linear" x1="164.629" y1="346.591" x2="164.629" y2="321.44" gradientUnits="userSpaceOnUse">
<stop stop-color="#3C2415"/>
<stop offset="0.3333" stop-color="#754C29"/>
<stop offset="0.6242" stop-color="#A97C50"/>
<stop offset="1" stop-color="#603913"/>
</linearGradient>
<linearGradient id="paint102_linear" x1="175.455" y1="346.591" x2="175.455" y2="321.44" gradientUnits="userSpaceOnUse">
<stop stop-color="#3C2415"/>
<stop offset="0.3333" stop-color="#754C29"/>
<stop offset="0.6242" stop-color="#A97C50"/>
<stop offset="1" stop-color="#603913"/>
</linearGradient>
<linearGradient id="paint103_linear" x1="186.287" y1="346.591" x2="186.287" y2="321.44" gradientUnits="userSpaceOnUse">
<stop stop-color="#2D2D2D"/>
<stop offset="0.3333" stop-color="#EACAC5"/>
<stop offset="0.6242" stop-color="#F4DEDA"/>
<stop offset="1" stop-color="#2D2D2D"/>
</linearGradient>
<linearGradient id="paint104_linear" x1="197.115" y1="346.591" x2="197.115" y2="321.44" gradientUnits="userSpaceOnUse">
<stop stop-color="#2D2D2D"/>
<stop offset="0.3333" stop-color="#EACAC5"/>
<stop offset="0.6242" stop-color="#F4DEDA"/>
<stop offset="1" stop-color="#2D2D2D"/>
</linearGradient>
<linearGradient id="paint105_linear" x1="207.939" y1="346.591" x2="207.939" y2="321.44" gradientUnits="userSpaceOnUse">
<stop stop-color="#3C2415"/>
<stop offset="0.3333" stop-color="#754C29"/>
<stop offset="0.6242" stop-color="#A97C50"/>
<stop offset="1" stop-color="#603913"/>
</linearGradient>
<linearGradient id="paint106_linear" x1="218.771" y1="346.591" x2="218.771" y2="321.44" gradientUnits="userSpaceOnUse">
<stop stop-color="#3C2415"/>
<stop offset="0.3333" stop-color="#754C29"/>
<stop offset="0.6242" stop-color="#A97C50"/>
<stop offset="1" stop-color="#603913"/>
</linearGradient>
<linearGradient id="paint107_linear" x1="229.6" y1="346.591" x2="229.6" y2="321.44" gradientUnits="userSpaceOnUse">
<stop stop-color="#3C2415"/>
<stop offset="0.3333" stop-color="#754C29"/>
<stop offset="0.6242" stop-color="#A97C50"/>
<stop offset="1" stop-color="#603913"/>
</linearGradient>
<linearGradient id="paint108_linear" x1="240.43" y1="346.591" x2="240.43" y2="321.44" gradientUnits="userSpaceOnUse">
<stop stop-color="#3C2415"/>
<stop offset="0.3333" stop-color="#754C29"/>
<stop offset="0.6242" stop-color="#A97C50"/>
<stop offset="1" stop-color="#603913"/>
</linearGradient>
</defs>
</svg>
