<svg width="402" height="651" viewBox="0 0 402 651" fill="none" xmlns="http://www.w3.org/2000/svg">
<path d="M113.054 154.82H96.8109V526.863H113.054V154.82Z" fill="url(#paint0_linear)"/>
<path d="M359.016 154.82H342.773V526.863H359.016V154.82Z" fill="url(#paint1_linear)"/>
<path d="M343.032 155.851H113.051V172.094H343.032V155.851Z" fill="url(#paint2_linear)"/>
<path d="M343.032 509.331H113.051V525.574H343.032V509.331Z" fill="url(#paint3_linear)"/>
<path d="M260.014 82.113L45.245 163.844L43.9559 160.234L258.725 78.5034L260.014 82.113Z" fill="url(#paint4_linear)"/>
<path d="M240.159 346.9L34.4139 244.028L36.2187 240.676L241.706 343.549L240.159 346.9Z" fill="url(#paint5_linear)"/>
<path d="M241.19 516.55L12.7563 542.333L12.4985 538.723L240.933 512.941L241.19 516.55Z" fill="url(#paint6_linear)"/>
<path d="M187.305 277.803L25.1327 441.007L22.5544 438.171L184.469 275.225L187.305 277.803Z" fill="url(#paint7_linear)"/>
<path d="M313.127 144.507L114.858 28.2272L116.921 25.1333L315.189 141.413L313.127 144.507Z" fill="url(#paint8_linear)"/>
<path d="M169.774 415.224L37.2508 602.922L34.1569 600.859L166.68 412.904L169.774 415.224Z" fill="url(#paint9_linear)"/>
<path d="M306.68 202.26L376.293 421.412L372.942 422.444L303.329 203.291L306.68 202.26Z" fill="url(#paint10_linear)"/>
<path d="M135.741 479.165C128.779 479.165 123.107 484.837 123.107 491.799C123.107 498.76 128.779 504.432 135.741 504.432C142.702 504.432 148.374 498.76 148.374 491.799C148.116 484.58 142.702 479.165 135.741 479.165ZM135.741 494.119C134.451 494.119 133.162 493.088 133.162 491.541C133.162 490.252 134.194 488.963 135.741 488.963C137.03 488.963 138.319 489.994 138.319 491.541C138.061 493.088 137.03 494.119 135.741 494.119Z" fill="url(#paint11_radial)"/>
<path d="M158.945 466.532C151.983 466.532 146.311 472.204 146.311 479.165C146.311 486.127 151.983 491.799 158.945 491.799C165.906 491.799 171.578 486.127 171.578 479.165C171.32 472.204 165.906 466.532 158.945 466.532ZM158.945 481.486C157.655 481.486 156.366 480.455 156.366 478.908C156.366 477.619 157.398 476.329 158.945 476.329C160.234 476.329 161.523 477.361 161.523 478.908C161.265 480.455 160.234 481.486 158.945 481.486Z" fill="url(#paint12_radial)"/>
<path d="M174.928 483.806C170.545 489.221 171.577 497.213 176.991 501.338C182.405 505.721 190.398 504.69 194.523 499.276C198.906 493.861 197.875 485.869 192.461 481.744C187.046 477.361 179.311 478.392 174.928 483.806ZM186.788 493.088C186.015 494.119 184.468 494.377 183.437 493.604C182.405 492.83 182.148 491.283 182.921 490.252C183.694 489.221 185.241 488.963 186.273 489.736C187.304 490.252 187.562 491.799 186.788 493.088Z" fill="url(#paint13_radial)"/>
<path d="M179.315 457.766C174.932 463.18 175.963 471.173 181.378 475.298C186.792 479.681 194.784 478.65 198.91 473.235C203.293 467.821 202.261 459.828 196.847 455.703C191.691 451.32 183.698 452.351 179.315 457.766ZM191.175 467.047C190.401 468.079 188.854 468.337 187.823 467.563C186.792 466.79 186.534 465.243 187.308 464.211C188.081 463.18 189.628 462.922 190.659 463.696C191.948 464.469 191.948 466.016 191.175 467.047Z" fill="url(#paint14_radial)"/>
<path d="M221.852 490.767C222.625 497.729 229.071 502.37 235.775 501.596C242.736 500.823 247.377 494.377 246.603 487.673C245.83 480.712 239.384 476.071 232.681 476.845C225.719 477.618 220.821 483.806 221.852 490.767ZM236.548 488.963C236.806 490.252 235.775 491.541 234.485 491.799C233.196 492.057 231.907 491.025 231.649 489.736C231.392 488.447 232.423 487.158 233.712 486.9C235.259 486.642 236.548 487.416 236.548 488.963Z" fill="url(#paint15_radial)"/>
<path d="M206.386 469.368C207.159 476.329 213.605 480.97 220.308 480.197C227.27 479.423 231.911 472.978 231.137 466.274C230.364 459.313 223.918 454.672 217.215 455.445C210.253 456.219 205.612 462.407 206.386 469.368ZM221.34 467.563C221.598 468.852 220.566 470.141 219.277 470.399C217.988 470.657 216.699 469.626 216.441 468.337C216.183 467.048 217.215 465.758 218.504 465.501C219.793 465.243 221.082 466.016 221.34 467.563Z" fill="url(#paint16_radial)"/>
<path d="M181.376 299.203C182.15 306.164 188.595 310.805 195.299 310.031C202.26 309.258 206.901 302.812 206.127 296.109C205.354 289.147 198.908 284.507 192.205 285.28C185.243 286.311 180.345 292.499 181.376 299.203ZM196.072 297.398C196.33 298.687 195.299 299.976 194.01 300.234C192.72 300.492 191.431 299.461 191.173 298.171C190.916 296.882 191.947 295.593 193.236 295.335C194.783 295.077 196.072 296.109 196.072 297.398Z" fill="url(#paint17_radial)"/>
<path d="M123.366 414.451C124.139 421.412 130.585 426.053 137.288 425.28C144.249 424.506 148.89 418.061 148.117 411.357C147.343 404.396 140.898 399.755 134.194 400.528C127.233 401.302 122.334 407.748 123.366 414.451ZM138.062 412.646C138.32 413.935 137.288 415.224 135.999 415.482C134.71 415.74 133.421 414.709 133.163 413.42C132.905 412.131 133.936 410.841 135.226 410.584C136.773 410.326 138.062 411.357 138.062 412.646Z" fill="url(#paint18_radial)"/>
<path d="M171.063 559.865C165.133 563.474 163.329 571.209 166.68 577.139C170.29 583.069 178.025 584.874 183.955 581.522C189.885 577.913 191.69 570.178 188.338 564.248C184.728 558.318 176.993 556.255 171.063 559.865ZM178.798 572.756C177.509 573.53 176.22 573.014 175.447 571.983C174.673 570.694 175.189 569.404 176.22 568.631C177.509 567.858 178.798 568.373 179.572 569.404C180.345 570.436 179.83 571.983 178.798 572.756Z" fill="url(#paint19_radial)"/>
<path d="M298.944 572.498C293.014 576.108 291.209 583.843 294.561 589.773C298.17 595.703 305.905 597.508 311.835 594.156C317.765 590.546 319.57 582.812 316.218 576.882C312.609 570.694 304.874 568.889 298.944 572.498ZM306.679 585.132C305.39 585.905 304.1 585.39 303.327 584.359C302.553 583.069 303.069 581.78 304.1 581.007C305.39 580.233 306.679 580.749 307.452 581.78C308.226 583.069 307.71 584.616 306.679 585.132Z" fill="url(#paint20_radial)"/>
<path d="M306.936 388.153C301.006 391.762 299.201 399.497 302.553 405.427C306.162 411.357 313.897 413.162 319.827 409.81C325.757 406.201 327.562 398.466 324.21 392.536C320.6 386.606 312.866 384.801 306.936 388.153ZM314.67 401.044C313.381 401.818 312.092 401.302 311.319 400.271C310.545 398.982 311.061 397.692 312.092 396.919C313.381 396.146 314.67 396.661 315.444 397.693C316.217 398.982 315.702 400.271 314.67 401.044Z" fill="url(#paint21_radial)"/>
<path d="M382.481 489.478C376.551 493.088 374.746 500.823 378.098 506.753C381.707 512.683 389.442 514.488 395.372 511.136C401.302 507.526 403.107 499.791 399.755 493.861C396.145 487.931 388.411 486.127 382.481 489.478ZM390.215 502.37C388.926 503.143 387.637 502.627 386.864 501.596C386.09 500.307 386.606 499.018 387.637 498.244C388.926 497.471 390.215 497.987 390.989 499.018C391.762 500.307 391.247 501.596 390.215 502.37Z" fill="url(#paint22_radial)"/>
<path d="M139.867 1.67122C133.937 5.28079 132.132 13.0156 135.484 18.9456C139.093 24.8756 146.828 26.6804 152.758 23.3286C158.688 19.7191 160.493 11.9843 157.141 6.05427C153.532 0.124266 145.797 -1.68052 139.867 1.67122ZM147.602 14.5625C146.313 15.336 145.023 14.8204 144.25 13.7891C143.476 12.4999 143.992 11.2108 145.023 10.4373C146.313 9.66383 147.602 10.1795 148.375 11.2108C149.149 12.4999 148.891 13.7891 147.602 14.5625Z" fill="url(#paint23_radial)"/>
<path d="M16.1102 478.392C10.1802 482.001 8.37541 489.736 11.7272 495.666C15.3367 501.596 23.0715 503.401 29.0015 500.049C34.9315 496.44 36.7363 488.705 33.3846 482.775C29.775 476.845 22.0402 474.782 16.1102 478.392ZM23.845 491.283C22.5559 492.057 21.2667 491.541 20.4932 490.51C19.7198 489.478 20.2354 487.931 21.2667 487.158C22.5559 486.384 23.845 486.9 24.6185 487.931C25.3919 488.963 24.8763 490.51 23.845 491.283Z" fill="url(#paint24_radial)"/>
<path d="M135.742 189.369C129.812 192.978 128.007 200.713 131.359 206.643C134.969 212.573 142.703 214.378 148.633 211.026C154.563 207.416 156.368 199.682 153.016 193.752C149.149 187.564 141.672 185.759 135.742 189.369ZM143.477 202.002C142.188 202.776 140.899 202.26 140.125 201.229C139.352 199.939 139.867 198.65 140.899 197.877C142.188 197.103 143.477 197.619 144.25 198.65C145.024 199.939 144.508 201.486 143.477 202.002Z" fill="url(#paint25_radial)"/>
<path d="M6.05427 110.474C0.124268 114.083 -1.68052 121.818 1.67122 127.748C5.28079 133.678 13.0156 135.483 18.9456 132.131C24.8756 128.522 26.6804 120.787 23.3286 114.857C19.4612 108.669 11.9843 106.864 6.05427 110.474ZM13.7891 123.107C12.4999 123.881 11.2108 123.365 10.4373 122.334C9.66383 121.045 10.1795 119.756 11.2108 118.982C12.4999 118.209 13.7891 118.724 14.5625 119.756C15.336 121.045 14.8204 122.592 13.7891 123.107Z" fill="url(#paint26_radial)"/>
<path d="M145.02 555.224C139.348 551.357 131.613 552.904 127.488 558.576C123.62 564.248 125.167 571.983 130.839 576.108C136.511 579.976 144.246 578.429 148.371 572.756C151.981 567.084 150.692 559.092 145.02 555.224ZM136.511 567.6C135.48 566.826 135.222 565.279 135.996 564.248C136.769 563.217 138.316 562.959 139.348 563.733C140.379 564.506 140.637 566.053 139.863 567.084C139.09 568.116 137.543 568.373 136.511 567.6Z" fill="url(#paint27_radial)"/>
<path d="M161.779 590.804C156.106 586.937 148.372 588.484 144.246 594.156C140.379 599.828 141.926 607.563 147.598 611.688C153.27 615.555 161.005 614.008 165.13 608.336C168.74 602.406 167.451 594.671 161.779 590.804ZM153.27 603.18C152.239 602.406 151.981 600.859 152.755 599.828C153.528 598.797 155.075 598.539 156.106 599.312C157.138 600.086 157.396 601.633 156.622 602.664C155.849 603.695 154.302 603.953 153.27 603.18Z" fill="url(#paint28_radial)"/>
<path d="M38.7965 329.884C32.8665 333.494 31.0617 341.228 34.4134 347.158C38.023 353.088 45.7578 354.893 51.6878 351.542C57.6178 347.932 59.4226 340.197 56.0708 334.267C52.2034 328.337 44.7265 326.532 38.7965 329.884ZM46.2734 342.775C44.9843 343.549 43.6952 343.033 42.9217 342.002C42.1482 340.713 42.6639 339.424 43.6952 338.65C44.9843 337.877 46.2734 338.392 47.0469 339.424C47.8204 340.713 47.5626 342.002 46.2734 342.775Z" fill="url(#paint29_radial)"/>
<path d="M124.394 627.158C118.722 623.29 110.987 624.837 106.862 630.509C102.994 636.181 104.541 643.916 110.213 648.042C115.886 651.909 123.62 650.362 127.746 644.69C131.613 639.018 130.066 631.025 124.394 627.158ZM116.143 639.533C115.112 638.76 114.854 637.213 115.628 636.182C116.401 635.15 117.948 634.892 118.98 635.666C120.011 636.439 120.269 637.986 119.495 639.018C118.722 640.049 117.175 640.307 116.143 639.533Z" fill="url(#paint30_radial)"/>
<path d="M333.751 76.9565C328.337 72.5734 320.344 73.6047 316.219 79.0191C311.836 84.4334 312.867 92.426 318.281 96.5513C323.696 100.934 331.688 99.903 335.814 94.4887C339.939 89.0743 339.165 81.3395 333.751 76.9565ZM324.211 88.5587C323.18 87.7852 322.922 86.2382 323.696 85.2069C324.469 84.1756 326.016 83.9178 327.047 84.6913C328.079 85.4647 328.337 87.0117 327.563 88.043C326.79 89.3321 325.243 89.59 324.211 88.5587Z" fill="url(#paint31_radial)"/>
<path d="M328.85 50.9159C330.397 44.2124 326.53 37.5089 319.826 35.7042C313.123 34.1572 306.42 38.0246 304.615 44.7281C303.068 51.4316 306.935 58.135 313.639 59.9398C320.342 61.7446 327.046 57.6194 328.85 50.9159ZM314.412 47.3063C314.67 46.0172 315.959 45.2437 317.506 45.5016C318.795 45.7594 319.569 47.0485 319.311 48.5955C319.053 49.8846 317.764 50.6581 316.217 50.4003C314.67 49.8846 313.896 48.5955 314.412 47.3063Z" fill="url(#paint32_radial)"/>
<path d="M301.522 78.7611C303.069 72.0576 299.201 65.3542 292.498 63.5494C285.794 62.0024 279.091 65.8698 277.286 72.5733C275.739 79.2768 279.606 85.9803 286.31 87.785C293.013 89.5898 299.717 85.7224 301.522 78.7611ZM286.825 75.1516C287.083 73.8624 288.372 73.0889 289.919 73.3468C291.209 73.6046 291.982 74.8937 291.724 76.4407C291.466 77.7298 290.177 78.5033 288.63 78.2455C287.341 77.9876 286.568 76.6985 286.825 75.1516Z" fill="url(#paint33_radial)"/>
<path d="M254.343 56.8461C255.89 50.1426 252.022 43.4391 245.319 41.6343C238.615 40.0874 231.912 43.9548 230.107 50.6583C228.56 57.3617 232.427 64.0652 239.131 65.87C245.834 67.6748 252.538 63.5496 254.343 56.8461ZM239.647 53.2365C239.904 51.9474 241.194 51.1739 242.74 51.4317C244.03 51.6896 244.803 52.9787 244.545 54.5257C244.287 55.8148 242.998 56.5883 241.451 56.3304C240.162 55.8148 239.389 54.5257 239.647 53.2365Z" fill="url(#paint34_radial)"/>
<defs>
<linearGradient id="paint0_linear" x1="96.8029" y1="340.725" x2="112.955" y2="340.725" gradientUnits="userSpaceOnUse">
<stop stop-color="#3C2415"/>
<stop offset="0.0363636" stop-color="#603913"/>
<stop offset="0.5091" stop-color="#754C29"/>
<stop offset="0.9515" stop-color="#603913"/>
<stop offset="1" stop-color="#3C2415"/>
</linearGradient>
<linearGradient id="paint1_linear" x1="342.826" y1="340.725" x2="358.978" y2="340.725" gradientUnits="userSpaceOnUse">
<stop stop-color="#3C2415"/>
<stop offset="0.0363636" stop-color="#603913"/>
<stop offset="0.5091" stop-color="#754C29"/>
<stop offset="0.9515" stop-color="#603913"/>
<stop offset="1" stop-color="#3C2415"/>
</linearGradient>
<linearGradient id="paint2_linear" x1="227.89" y1="171.945" x2="227.89" y2="155.79" gradientUnits="userSpaceOnUse">
<stop stop-color="#3C2415"/>
<stop offset="0.0363636" stop-color="#603913"/>
<stop offset="0.5091" stop-color="#754C29"/>
<stop offset="0.9515" stop-color="#603913"/>
<stop offset="1" stop-color="#3C2415"/>
</linearGradient>
<linearGradient id="paint3_linear" x1="227.89" y1="525.512" x2="227.89" y2="509.36" gradientUnits="userSpaceOnUse">
<stop stop-color="#3C2415"/>
<stop offset="0.0363636" stop-color="#603913"/>
<stop offset="0.5091" stop-color="#754C29"/>
<stop offset="0.9515" stop-color="#603913"/>
<stop offset="1" stop-color="#3C2415"/>
</linearGradient>
<linearGradient id="paint4_linear" x1="152.025" y1="162.057" x2="152.025" y2="78.9927" gradientUnits="userSpaceOnUse">
<stop stop-color="#D8D9DA"/>
<stop offset="0.3333" stop-color="#E6E6E6"/>
<stop offset="0.5091" stop-color="#BABABA"/>
<stop offset="0.6242" stop-color="#E7E7E7"/>
<stop offset="1" stop-color="#A6A6A6"/>
</linearGradient>
<linearGradient id="paint5_linear" x1="138.098" y1="344.677" x2="138.098" y2="241.285" gradientUnits="userSpaceOnUse">
<stop stop-color="#D8D9DA"/>
<stop offset="0.3333" stop-color="#E6E6E6"/>
<stop offset="0.5091" stop-color="#BABABA"/>
<stop offset="0.6242" stop-color="#E7E7E7"/>
<stop offset="1" stop-color="#A6A6A6"/>
</linearGradient>
<linearGradient id="paint6_linear" x1="126.887" y1="541.718" x2="126.887" y2="513.109" gradientUnits="userSpaceOnUse">
<stop stop-color="#D8D9DA"/>
<stop offset="0.3333" stop-color="#E6E6E6"/>
<stop offset="0.5091" stop-color="#BABABA"/>
<stop offset="0.6242" stop-color="#E7E7E7"/>
<stop offset="1" stop-color="#A6A6A6"/>
</linearGradient>
<linearGradient id="paint7_linear" x1="104.96" y1="437.536" x2="104.96" y2="276.175" gradientUnits="userSpaceOnUse">
<stop stop-color="#D8D9DA"/>
<stop offset="0.3333" stop-color="#E6E6E6"/>
<stop offset="0.5091" stop-color="#BABABA"/>
<stop offset="0.6242" stop-color="#E7E7E7"/>
<stop offset="1" stop-color="#A6A6A6"/>
</linearGradient>
<linearGradient id="paint8_linear" x1="215.061" y1="142.008" x2="215.061" y2="25.8177" gradientUnits="userSpaceOnUse">
<stop stop-color="#D8D9DA"/>
<stop offset="0.3333" stop-color="#E6E6E6"/>
<stop offset="0.5091" stop-color="#BABABA"/>
<stop offset="0.6242" stop-color="#E7E7E7"/>
<stop offset="1" stop-color="#A6A6A6"/>
</linearGradient>
<linearGradient id="paint9_linear" x1="101.99" y1="598.944" x2="101.99" y2="413.993" gradientUnits="userSpaceOnUse">
<stop stop-color="#D8D9DA"/>
<stop offset="0.3333" stop-color="#E6E6E6"/>
<stop offset="0.5091" stop-color="#BABABA"/>
<stop offset="0.6242" stop-color="#E7E7E7"/>
<stop offset="1" stop-color="#A6A6A6"/>
</linearGradient>
<linearGradient id="paint10_linear" x1="339.825" y1="417.834" x2="339.825" y2="203.522" gradientUnits="userSpaceOnUse">
<stop stop-color="#D8D9DA"/>
<stop offset="0.3333" stop-color="#E6E6E6"/>
<stop offset="0.5091" stop-color="#BABABA"/>
<stop offset="0.6242" stop-color="#E7E7E7"/>
<stop offset="1" stop-color="#A6A6A6"/>
</linearGradient>
<radialGradient id="paint11_radial" cx="0" cy="0" r="1" gradientUnits="userSpaceOnUse" gradientTransform="translate(135.675 491.618) scale(12.5249)">
<stop offset="0.2364" stop-color="#603913"/>
<stop offset="0.4485" stop-color="#A97C50"/>
<stop offset="0.8545" stop-color="#603913"/>
</radialGradient>
<radialGradient id="paint12_radial" cx="0" cy="0" r="1" gradientUnits="userSpaceOnUse" gradientTransform="translate(158.884 479.094) scale(12.5249)">
<stop offset="0.2364" stop-color="#603913"/>
<stop offset="0.4485" stop-color="#A97C50"/>
<stop offset="0.8545" stop-color="#603913"/>
</radialGradient>
<radialGradient id="paint13_radial" cx="0" cy="0" r="1" gradientUnits="userSpaceOnUse" gradientTransform="translate(184.792 491.467) rotate(-51.8718) scale(12.5247)">
<stop offset="0.2364" stop-color="#603913"/>
<stop offset="0.4485" stop-color="#A97C50"/>
<stop offset="0.8545" stop-color="#603913"/>
</radialGradient>
<radialGradient id="paint14_radial" cx="0" cy="0" r="1" gradientUnits="userSpaceOnUse" gradientTransform="translate(189.274 465.477) rotate(-51.8717) scale(12.5255)">
<stop offset="0.2364" stop-color="#603913"/>
<stop offset="0.4485" stop-color="#A97C50"/>
<stop offset="0.8545" stop-color="#603913"/>
</radialGradient>
<radialGradient id="paint15_radial" cx="0" cy="0" r="1" gradientUnits="userSpaceOnUse" gradientTransform="translate(234.188 489.179) rotate(-97.3595) scale(12.5244)">
<stop offset="0.2364" stop-color="#603913"/>
<stop offset="0.4485" stop-color="#A97C50"/>
<stop offset="0.8545" stop-color="#603913"/>
</radialGradient>
<radialGradient id="paint16_radial" cx="0" cy="0" r="1" gradientUnits="userSpaceOnUse" gradientTransform="translate(218.797 467.765) rotate(-97.3595) scale(12.5257)">
<stop offset="0.2364" stop-color="#603913"/>
<stop offset="0.4485" stop-color="#A97C50"/>
<stop offset="0.8545" stop-color="#603913"/>
</radialGradient>
<radialGradient id="paint17_radial" cx="0" cy="0" r="1" gradientUnits="userSpaceOnUse" gradientTransform="translate(193.744 297.724) rotate(-97.3595) scale(12.5257)">
<stop offset="0.2364" stop-color="#603913"/>
<stop offset="0.4485" stop-color="#A97C50"/>
<stop offset="0.8545" stop-color="#603913"/>
</radialGradient>
<radialGradient id="paint18_radial" cx="0" cy="0" r="1" gradientUnits="userSpaceOnUse" gradientTransform="translate(135.675 412.95) rotate(-97.3595) scale(12.5257)">
<stop offset="0.2364" stop-color="#603913"/>
<stop offset="0.4485" stop-color="#A97C50"/>
<stop offset="0.8545" stop-color="#603913"/>
</radialGradient>
<radialGradient id="paint19_radial" cx="0" cy="0" r="1" gradientUnits="userSpaceOnUse" gradientTransform="translate(177.522 570.625) rotate(-31.0384) scale(12.5251)">
<stop offset="0.2364" stop-color="#603913"/>
<stop offset="0.4485" stop-color="#A97C50"/>
<stop offset="0.8545" stop-color="#603913"/>
</radialGradient>
<radialGradient id="paint20_radial" cx="0" cy="0" r="1" gradientUnits="userSpaceOnUse" gradientTransform="translate(305.348 583.152) rotate(-31.0385) scale(12.5251)">
<stop offset="0.2364" stop-color="#603913"/>
<stop offset="0.4485" stop-color="#A97C50"/>
<stop offset="0.8545" stop-color="#603913"/>
</radialGradient>
<radialGradient id="paint21_radial" cx="0" cy="0" r="1" gradientUnits="userSpaceOnUse" gradientTransform="translate(313.43 398.991) rotate(-31.0385) scale(12.5249)">
<stop offset="0.2364" stop-color="#2D2D2D"/>
<stop offset="0.4485" stop-color="#F4DEDA"/>
<stop offset="0.8545"/>
</radialGradient>
<radialGradient id="paint22_radial" cx="0" cy="0" r="1" gradientUnits="userSpaceOnUse" gradientTransform="translate(388.975 500.316) rotate(-31.0384) scale(12.5249)">
<stop offset="0.2364" stop-color="#2D2D2D"/>
<stop offset="0.4485" stop-color="#F4DEDA"/>
<stop offset="0.8545"/>
</radialGradient>
<radialGradient id="paint23_radial" cx="0" cy="0" r="1" gradientUnits="userSpaceOnUse" gradientTransform="translate(146.361 12.5089) rotate(-31.0384) scale(12.5249)">
<stop offset="0.2364" stop-color="#2D2D2D"/>
<stop offset="0.4485" stop-color="#F4DEDA"/>
<stop offset="0.8545"/>
</radialGradient>
<radialGradient id="paint24_radial" cx="0" cy="0" r="1" gradientUnits="userSpaceOnUse" gradientTransform="translate(22.6042 489.172) rotate(-31.1543) scale(12.5402 12.567)">
<stop offset="0.2364" stop-color="#2D2D2D"/>
<stop offset="0.4485" stop-color="#F4DEDA"/>
<stop offset="0.8545"/>
</radialGradient>
<radialGradient id="paint25_radial" cx="0" cy="0" r="1" gradientUnits="userSpaceOnUse" gradientTransform="translate(142.236 200.119) rotate(-31.214) scale(12.5481 12.5886)">
<stop offset="0.2364" stop-color="#2D2D2D"/>
<stop offset="0.4485" stop-color="#F4DEDA"/>
<stop offset="0.8545"/>
</radialGradient>
<radialGradient id="paint26_radial" cx="0" cy="0" r="1" gradientUnits="userSpaceOnUse" gradientTransform="translate(12.4163 121.123) rotate(-31.0384) scale(12.5249)">
<stop offset="0.2364" stop-color="#603913"/>
<stop offset="0.4485" stop-color="#A97C50"/>
<stop offset="0.8545" stop-color="#603913"/>
</radialGradient>
<radialGradient id="paint27_radial" cx="0" cy="0" r="1" gradientUnits="userSpaceOnUse" gradientTransform="translate(137.848 565.639) rotate(34.3607) scale(12.5249)">
<stop offset="0.2364" stop-color="#603913"/>
<stop offset="0.4485" stop-color="#A97C50"/>
<stop offset="0.8545" stop-color="#603913"/>
</radialGradient>
<radialGradient id="paint28_radial" cx="0" cy="0" r="1" gradientUnits="userSpaceOnUse" gradientTransform="translate(154.619 601.066) rotate(34.3607) scale(12.5249)">
<stop offset="0.2364" stop-color="#603913"/>
<stop offset="0.4485" stop-color="#A97C50"/>
<stop offset="0.8545" stop-color="#603913"/>
</radialGradient>
<radialGradient id="paint29_radial" cx="0" cy="0" r="1" gradientUnits="userSpaceOnUse" gradientTransform="translate(45.1325 340.725) rotate(-31.0384) scale(12.5251)">
<stop offset="0.2364" stop-color="#603913"/>
<stop offset="0.4485" stop-color="#A97C50"/>
<stop offset="0.8545" stop-color="#603913"/>
</radialGradient>
<radialGradient id="paint30_radial" cx="0" cy="0" r="1" gradientUnits="userSpaceOnUse" gradientTransform="translate(117.401 637.567) rotate(34.3607) scale(12.5249)">
<stop offset="0.2364" stop-color="#603913"/>
<stop offset="0.4485" stop-color="#A97C50"/>
<stop offset="0.8545" stop-color="#603913"/>
</radialGradient>
<radialGradient id="paint31_radial" cx="0" cy="0" r="1" gradientUnits="userSpaceOnUse" gradientTransform="translate(325.834 86.7144) rotate(38.5488) scale(12.5248)">
<stop offset="0.2364" stop-color="#603913"/>
<stop offset="0.4485" stop-color="#A97C50"/>
<stop offset="0.8545" stop-color="#603913"/>
</radialGradient>
<radialGradient id="paint32_radial" cx="0" cy="0" r="1" gradientUnits="userSpaceOnUse" gradientTransform="translate(316.667 47.7961) rotate(103.94) scale(12.5243 12.5246)">
<stop offset="0.2364" stop-color="#603913"/>
<stop offset="0.4485" stop-color="#A97C50"/>
<stop offset="0.8545" stop-color="#603913"/>
</radialGradient>
<radialGradient id="paint33_radial" cx="0" cy="0" r="1" gradientUnits="userSpaceOnUse" gradientTransform="translate(289.318 75.8712) rotate(103.94) scale(12.5243 12.5246)">
<stop offset="0.2364" stop-color="#603913"/>
<stop offset="0.4485" stop-color="#A97C50"/>
<stop offset="0.8545" stop-color="#603913"/>
</radialGradient>
<radialGradient id="paint34_radial" cx="0" cy="0" r="1" gradientUnits="userSpaceOnUse" gradientTransform="translate(242.129 53.7236) rotate(103.94) scale(12.5251 12.5254)">
<stop offset="0.2364" stop-color="#603913"/>
<stop offset="0.4485" stop-color="#A97C50"/>
<stop offset="0.8545" stop-color="#603913"/>
</radialGradient>
</defs>
</svg>
